<svg width="55" height="12" viewBox="0 0 55 12" fill="none" xmlns="http://www.w3.org/2000/svg">
<path d="M54.6326 3.65223H53.436C53.2259 3.65223 53.0067 3.86231 53.0067 3.86231L48.476 9.80838C48.3938 9.93626 48.2659 9.93626 48.1746 9.80838L43.9454 3.86231C43.9454 3.86231 43.7718 3.65223 43.4795 3.65223H35.4413C35.3134 3.65223 35.1855 3.52436 35.1855 3.39649V1.43273C35.1855 1.13132 34.9754 0.921242 34.674 0.921242H22.3152C20.3879 1.00345 19.5749 1.17699 18.7254 1.68848C17.9125 2.1543 17.4832 2.75713 17.4832 3.48783C17.4832 4.25506 18.1226 5.0223 19.3648 5.753C19.7028 5.96307 20.8629 6.52023 22.8268 7.42447C24.069 8.0273 24.7541 8.49312 24.7084 8.95894C24.6262 9.72618 23.9411 9.98193 22.3152 9.98193H14.8342C14.6606 9.98193 14.4962 9.93626 14.4962 9.80838C14.4962 9.72618 14.5419 9.68051 14.6241 9.63484C16.2957 8.61186 16.8438 7.28747 16.8438 6.04528C16.8438 3.6979 14.9164 0.912109 7.22528 0.912109H0.511524C0.210091 0.912109 0 1.12218 0 1.4236V10.5756C0 10.877 0.210091 11.0871 0.511524 11.0871H7.22528C7.48104 11.0871 7.7368 11.0871 7.95602 11.0871H24.7541C26.2887 11.0871 27.4944 10.8314 28.3439 10.3199C29.1569 9.85405 29.5405 9.25122 29.5405 8.52052C29.5405 7.75329 28.9011 7.02259 27.6588 6.25535C27.3574 6.04528 26.1608 5.48812 24.1969 4.58388C22.9546 4.02672 22.3152 3.5609 22.3152 3.17728C22.3152 2.41004 23.1282 2.02643 24.7541 2.02643H30.4357C30.5636 2.02643 30.6914 2.1543 30.6914 2.28217V8.90414C30.6914 9.89059 31.3308 11.0414 33.2947 11.0414H48.8962C49.2798 11.0414 49.4534 10.7857 49.4534 10.7857L54.797 3.77097C54.7605 3.81664 54.8518 3.65223 54.6326 3.65223ZM6.20223 9.97279H4.53064C4.40276 9.97279 4.27488 9.84492 4.27488 9.71705V2.2365C4.27488 2.10863 4.40276 1.98076 4.53064 1.98076H6.20223C10.3036 1.98076 12.441 3.65223 12.441 5.95394C12.441 8.31045 10.2579 9.97279 6.20223 9.97279ZM43.6439 10.0185H36.4278C35.4413 10.0185 35.1855 9.71704 35.1855 8.94981V4.93096C35.1855 4.80309 35.3134 4.72088 35.4413 4.72088H39.634C39.7619 4.72088 39.9354 4.80309 40.0176 4.89442L43.781 9.80838C43.8175 9.93626 43.781 10.0185 43.6439 10.0185Z" fill="#179EDB"/>
</svg>
