<svg width="149" height="75" viewBox="0 0 149 75" fill="none" xmlns="http://www.w3.org/2000/svg">
<g filter="url(#filter0_d_525_40345)">
<rect x="3" y="1.82227" width="143" height="70" rx="2.93403" fill="white" shape-rendering="crispEdges"/>
<path d="M116.68 33.1855H114.826C114.501 33.1855 114.162 33.5109 114.162 33.5109L107.145 42.7207C107.017 42.9187 106.819 42.9187 106.678 42.7207L100.128 33.5109C100.128 33.5109 99.8587 33.1855 99.406 33.1855H86.9565C86.7585 33.1855 86.5604 32.9875 86.5604 32.7894V29.7478C86.5604 29.2809 86.235 28.9556 85.7682 28.9556H66.627C63.642 29.0829 62.3829 29.3517 61.0672 30.1439C59.8081 30.8654 59.1431 31.7991 59.1431 32.9309C59.1431 34.1192 60.1334 35.3076 62.0575 36.4394C62.5809 36.7647 64.3776 37.6277 67.4192 39.0283C69.3433 39.962 70.4043 40.6835 70.3336 41.405C70.2062 42.5933 69.1452 42.9894 66.627 42.9894H55.0405C54.7717 42.9894 54.517 42.9187 54.517 42.7207C54.517 42.5933 54.5878 42.5226 54.7151 42.4519C57.304 40.8674 58.1528 38.8161 58.1528 36.8921C58.1528 33.2563 55.1678 28.9414 43.2559 28.9414H32.8577C32.3908 28.9414 32.0654 29.2668 32.0654 29.7336V43.909C32.0654 44.3759 32.3908 44.7012 32.8577 44.7012H43.2559C43.652 44.7012 44.0481 44.7012 44.3876 44.7012H70.4043C72.781 44.7012 74.6485 44.3051 75.9641 43.5129C77.2232 42.7914 77.8174 41.8577 77.8174 40.7259C77.8174 39.5376 76.8271 38.4058 74.9031 37.2174C74.4363 36.8921 72.583 36.0291 69.5413 34.6285C67.6173 33.7656 66.627 33.0441 66.627 32.4499C66.627 31.2615 67.8861 30.6673 70.4043 30.6673H79.2039C79.4019 30.6673 79.6 30.8654 79.6 31.0635V41.3201C79.6 42.848 80.5903 44.6305 83.6319 44.6305H107.795C108.389 44.6305 108.658 44.2344 108.658 44.2344L116.934 33.3694C116.878 33.4402 117.019 33.1855 116.68 33.1855ZM41.6714 42.9753H39.0824C38.8844 42.9753 38.6863 42.7772 38.6863 42.5792V30.9927C38.6863 30.7947 38.8844 30.5966 39.0824 30.5966H41.6714C48.0235 30.5966 51.3339 33.1855 51.3339 36.7506C51.3339 40.4005 47.9527 42.9753 41.6714 42.9753ZM99.6607 43.046H88.4844C86.9565 43.046 86.5604 42.5792 86.5604 41.3908V35.1661C86.5604 34.9681 86.7585 34.8407 86.9565 34.8407H93.4501C93.6481 34.8407 93.9169 34.9681 94.0443 35.1095L99.8729 42.7207C99.9295 42.9187 99.8729 43.046 99.6607 43.046Z" fill="#179EDB"/>
<rect x="3.2934" y="2.11567" width="142.413" height="69.4132" rx="2.64062" stroke="black" stroke-opacity="0.3" stroke-width="0.586806" shape-rendering="crispEdges"/>
</g>
<defs>
<filter id="filter0_d_525_40345" x="0.652778" y="0.0618489" width="147.694" height="74.6944" filterUnits="userSpaceOnUse" color-interpolation-filters="sRGB">
<feFlood flood-opacity="0" result="BackgroundImageFix"/>
<feColorMatrix in="SourceAlpha" type="matrix" values="0 0 0 0 0 0 0 0 0 0 0 0 0 0 0 0 0 0 127 0" result="hardAlpha"/>
<feOffset dy="0.586806"/>
<feGaussianBlur stdDeviation="1.17361"/>
<feComposite in2="hardAlpha" operator="out"/>
<feColorMatrix type="matrix" values="0 0 0 0 0 0 0 0 0 0 0 0 0 0 0 0 0 0 0.25 0"/>
<feBlend mode="normal" in2="BackgroundImageFix" result="effect1_dropShadow_525_40345"/>
<feBlend mode="normal" in="SourceGraphic" in2="effect1_dropShadow_525_40345" result="shape"/>
</filter>
</defs>
</svg>
