<svg width="59" height="12" viewBox="0 0 59 12" fill="none" xmlns="http://www.w3.org/2000/svg">
<path d="M58.5204 3.57476H57.2684C57.0435 3.57476 56.8478 3.78016 56.8381 3.78994L52.0942 10.0008C52.0062 10.1182 51.8595 10.1084 51.7812 9.99104L47.3993 3.78994C47.3993 3.78016 47.233 3.57476 46.9298 3.57476H38.5181C38.3714 3.57476 38.254 3.45739 38.254 3.31068V1.25668C38.254 0.963257 38.0193 0.728516 37.7258 0.728516H34.7817H34.3514H34.0677C33.7743 0.728516 33.5396 0.963257 33.5396 1.25668V1.49143V9.23791C33.5982 10.216 34.3025 11.3115 36.2391 11.3115H52.4855C52.8669 11.3115 53.0626 11.0669 53.0626 11.0669L58.628 3.75082C58.6573 3.75082 58.7747 3.57476 58.5204 3.57476ZM47.0668 10.2062H39.5647C38.5181 10.2062 38.2736 9.9128 38.2736 9.10098V4.93431C38.2736 4.79738 38.3812 4.68 38.5181 4.67022H42.8805C43.0174 4.68 43.1837 4.75825 43.2717 4.86584L47.1841 10.0008C47.2526 10.1182 47.2135 10.2062 47.0668 10.2062Z" fill="#008B3B"/>
<path d="M25.6851 0.552749L25.1471 0.542969H24.8733H24.3353V0.552749C19.0046 0.709243 17.3614 3.21316 17.1462 5.49211H15.3758H14.8672H13.1066H12.9795H12.0992H10.3288C10.1919 5.50189 10.0843 5.60948 10.0843 5.7562V6.4213C10.0843 6.55823 10.1919 6.6756 10.3288 6.68538H12.0992H12.823C12.9697 6.69516 13.0969 6.81254 13.0969 6.95925V8.4166V9.13061C13.0088 9.87396 12.3241 10.138 10.7592 10.1478C6.72937 10.05 4.58732 8.33836 4.58732 6.00072C4.58732 3.59461 6.84675 1.84383 11.1015 1.84383H12.1383H15.0922C15.2291 1.83405 15.3367 1.72646 15.3367 1.57974V0.953767C15.3367 0.816834 15.2291 0.699463 15.0922 0.689682H12.2166H12.1481H10.0647C2.02468 0.689682 0 3.58483 0 5.98116C0 8.38726 2.02468 11.2726 10.0647 11.2726H13.0871C14.6716 11.2726 15.8062 11.1553 16.7061 10.6369C17.0386 10.4413 17.5081 10.0794 17.5766 9.46316V9.45338C17.5766 9.41426 17.5864 9.37513 17.5864 9.33601V8.93499C17.6157 8.73937 17.7037 8.72959 17.7233 8.72959C17.8015 8.71981 17.8602 8.73937 17.9776 8.84696C18.9361 10.2359 20.8532 11.3411 24.3353 11.4487V11.4585H24.8733H25.1471H25.6851V11.4487C31.4266 11.2824 32.8937 8.39704 32.8937 5.98116C32.8937 3.6044 31.4266 0.719024 25.6851 0.552749ZM25.0591 10.3826C23.2496 10.4021 21.7531 8.45573 21.7335 6.04962C21.7042 3.64352 23.1616 1.66777 24.9711 1.65799C26.7806 1.63843 28.2673 3.58483 28.2966 5.99094C28.3162 8.39704 26.8686 10.363 25.0591 10.3826Z" fill="#E30613"/>
</svg>
