<svg width="150" height="75" viewBox="0 0 150 75" fill="none" xmlns="http://www.w3.org/2000/svg">
<g filter="url(#filter0_d_525_40342)">
<rect x="3" y="1.82227" width="144" height="70" rx="2.93403" fill="white" shape-rendering="crispEdges"/>
<path d="M118.771 33.1835H116.893C116.555 33.1835 116.262 33.4916 116.247 33.5062L109.131 42.8227C108.999 42.9987 108.779 42.9841 108.662 42.808L102.089 33.5062C102.089 33.4916 101.84 33.1835 101.385 33.1835H88.7672C88.5471 33.1835 88.371 33.0074 88.371 32.7873V29.7063C88.371 29.2662 88.0189 28.9141 87.5788 28.9141H83.1626H82.5171H82.0916C81.6514 28.9141 81.2993 29.2662 81.2993 29.7063V30.0584V41.6783C81.3873 43.1454 82.4437 44.7886 85.3487 44.7886H109.718C110.29 44.7886 110.584 44.4219 110.584 44.4219L118.932 33.4476C118.976 33.4476 119.152 33.1835 118.771 33.1835ZM101.59 43.1308H90.337C88.7672 43.1308 88.4004 42.6906 88.4004 41.4729V35.2228C88.4004 35.0174 88.5618 34.8414 88.7672 34.8267H95.3107C95.5161 34.8414 95.7655 34.9587 95.8976 35.1201L101.766 42.8227C101.869 42.9987 101.81 43.1308 101.59 43.1308Z" fill="#008B3B"/>
<path d="M69.5174 28.6494L68.7104 28.6348H68.2996H67.4927V28.6494C59.4967 28.8842 57.0318 32.6401 56.7091 36.0586H54.0535H53.2906H50.6497H50.459H49.1385H46.483C46.2776 36.0732 46.1162 36.2346 46.1162 36.4547V37.4523C46.1162 37.6578 46.2776 37.8338 46.483 37.8485H49.1385H50.2242C50.4443 37.8631 50.635 38.0392 50.635 38.2593V40.4453V41.5164C50.503 42.6314 49.476 43.0275 47.1285 43.0422C41.0838 42.8955 37.8707 40.328 37.8707 36.8215C37.8707 33.2123 41.2599 30.5861 47.642 30.5861H49.1972H53.628C53.8334 30.5714 53.9948 30.41 53.9948 30.1899V29.251C53.9948 29.0456 53.8334 28.8695 53.628 28.8548H49.3146H49.2119H46.0868C34.0268 28.8548 30.9897 33.1976 30.9897 36.7921C30.9897 40.4013 34.0268 44.7294 46.0868 44.7294H50.6203C52.9971 44.7294 54.6991 44.5534 56.0488 43.7758C56.5477 43.4823 57.2519 42.9395 57.3546 42.0152V42.0005C57.3546 41.9418 57.3693 41.8831 57.3693 41.8245V41.2229C57.4133 40.9295 57.5453 40.9148 57.5747 40.9148C57.6921 40.9002 57.7801 40.9295 57.9562 41.0909C59.394 43.1742 62.2696 44.8321 67.4927 44.9935V45.0082H68.2996H68.7104H69.5174V44.9935C78.1296 44.7441 80.3303 40.416 80.3303 36.7921C80.3303 33.227 78.1296 28.8989 69.5174 28.6494ZM68.5784 43.3943C65.8641 43.4237 63.6194 40.504 63.59 36.8948C63.546 33.2856 65.7321 30.322 68.4463 30.3073C71.1606 30.278 73.3907 33.1976 73.4347 36.8068C73.464 40.416 71.2926 43.365 68.5784 43.3943Z" fill="#E30613"/>
<rect x="3.2934" y="2.11567" width="143.413" height="69.4132" rx="2.64062" stroke="black" stroke-opacity="0.3" stroke-width="0.586806" shape-rendering="crispEdges"/>
</g>
<defs>
<filter id="filter0_d_525_40342" x="0.652778" y="0.0618489" width="148.694" height="74.6944" filterUnits="userSpaceOnUse" color-interpolation-filters="sRGB">
<feFlood flood-opacity="0" result="BackgroundImageFix"/>
<feColorMatrix in="SourceAlpha" type="matrix" values="0 0 0 0 0 0 0 0 0 0 0 0 0 0 0 0 0 0 127 0" result="hardAlpha"/>
<feOffset dy="0.586806"/>
<feGaussianBlur stdDeviation="1.17361"/>
<feComposite in2="hardAlpha" operator="out"/>
<feColorMatrix type="matrix" values="0 0 0 0 0 0 0 0 0 0 0 0 0 0 0 0 0 0 0.25 0"/>
<feBlend mode="normal" in2="BackgroundImageFix" result="effect1_dropShadow_525_40342"/>
<feBlend mode="normal" in="SourceGraphic" in2="effect1_dropShadow_525_40342" result="shape"/>
</filter>
</defs>
</svg>
