<svg width="45" height="8" viewBox="0 0 45 8" fill="none" xmlns="http://www.w3.org/2000/svg">
<path d="M22.326 4.98978C22.3111 4.95271 22.2963 4.91564 22.2815 4.87857C21.9923 3.98893 21.7032 3.0993 21.4141 2.20966C21.377 2.10587 21.3399 2.0688 21.2213 2.0688C20.7617 2.07621 20.2946 2.07621 19.8349 2.0688C19.7312 2.0688 19.6867 2.09845 19.657 2.20225C19.4939 2.74344 19.3234 3.28464 19.1529 3.82584C19.0417 4.17428 18.9379 4.52272 18.8267 4.87116C18.7748 4.84892 18.7822 4.81185 18.7748 4.78961C18.545 3.92963 18.3151 3.06964 18.0927 2.20966C18.0631 2.09845 18.0186 2.07621 17.9148 2.07621C17.3662 2.08363 16.8176 2.08363 16.2615 2.07621C16.1133 2.07621 16.0688 2.09104 16.1281 2.25414C16.2319 2.5581 16.3208 2.87689 16.4172 3.18085C14.9271 1.20882 11.5093 1.60174 10.7161 3.98893C10.6642 3.12895 10.4195 2.38759 9.54471 2.0688C8.55127 1.70553 7.71352 1.97984 7.01663 2.82499V2.61741C7.01663 1.80932 7.01663 0.99382 7.01663 0.185732C7.01663 0.104182 7.03146 0.030045 6.89801 0.0448723C6.31974 0.111595 5.73406 0.170905 5.15579 0.222801C5.02234 0.237628 4.97786 0.28211 4.97786 0.422969C4.98527 2.00949 4.98527 3.59601 4.98527 5.18253C4.98527 5.21219 4.98527 5.24184 4.98527 5.2715C4.98527 5.30115 4.99268 5.33822 4.95562 5.36046C4.82217 4.8934 4.48855 4.60427 4.08821 4.39669C3.75459 4.22617 3.39874 4.10755 3.03546 4.00376C2.76116 3.92221 2.48685 3.85549 2.23478 3.72204C2.11616 3.66273 2.01237 3.58118 2.03461 3.43291C2.05685 3.27722 2.17547 3.21792 2.31633 3.18826C2.46461 3.15861 2.61288 3.16602 2.76857 3.18826C3.22822 3.25498 3.66563 3.41808 4.07338 3.64049C4.19942 3.70722 4.2439 3.68498 4.30321 3.56636C4.47372 3.23274 4.65165 2.89913 4.84441 2.58034C4.91855 2.45431 4.88148 2.40983 4.77769 2.34311C4.05114 1.93535 3.26529 1.75001 2.43495 1.76484C1.99754 1.77225 1.57496 1.8538 1.18203 2.0688C0.514799 2.43207 0.21825 2.99551 0.233077 3.7517C0.247905 4.46341 0.640832 4.90081 1.25617 5.18995C1.55272 5.33081 1.87151 5.41977 2.1903 5.50873C2.47943 5.59028 2.77598 5.65701 3.04288 5.79045C3.1615 5.84976 3.23563 5.93873 3.22081 6.07958C3.20598 6.22786 3.09477 6.30199 2.96874 6.33165C2.83529 6.3613 2.69443 6.36872 2.55357 6.35389C1.93082 6.30941 1.37479 6.09441 0.848416 5.76821C0.752038 5.7089 0.714969 5.7089 0.655659 5.81269C0.455489 6.14631 0.247905 6.47992 0.0329071 6.81354C-0.0189889 6.89509 -0.0115752 6.93215 0.0699757 6.98405C1.13014 7.68093 2.28668 7.933 3.52477 7.68093C4.13269 7.56232 4.62941 7.24353 4.89631 6.64302C4.94079 6.55406 4.96303 6.45027 5.0001 6.3613C5.02234 6.78388 5.02975 7.21387 5.02234 7.62904C5.01493 7.79214 5.06682 7.82179 5.2151 7.81438C5.77112 7.80696 6.32715 7.80696 6.88318 7.81438C7.03146 7.81438 7.06111 7.77731 7.06111 7.62904C7.0537 6.65785 7.06111 5.68666 7.06111 4.70806C7.06111 4.50789 7.08335 4.31514 7.17973 4.13721C7.33542 3.84066 7.63938 3.68497 8.01007 3.72204C8.34368 3.75911 8.55868 3.94445 8.66247 4.25583C8.71437 4.41151 8.7292 4.57461 8.7292 4.73771C8.7292 5.7089 8.7292 6.68009 8.7292 7.65869C8.7292 7.77731 8.75144 7.81438 8.87747 7.81438C9.44833 7.80696 10.0266 7.80696 10.5975 7.81438C10.7235 7.81438 10.7531 7.77731 10.7457 7.65869C10.7383 7.27318 10.7457 6.88026 10.7457 6.49475V5.91648C11.3092 7.36956 12.6659 8.0442 14.0374 7.94782C14.8233 7.89593 15.5202 7.6068 16.091 7.05077C16.6619 6.49475 16.9584 5.80528 16.9955 5.00461C17.0177 5.03426 17.0326 5.0565 17.04 5.08616C17.3069 5.94614 17.5738 6.80612 17.8332 7.66611C17.8703 7.77731 17.9148 7.80696 18.026 7.80696C18.5005 7.79955 18.975 7.79955 19.4494 7.80696C19.5681 7.80696 19.6199 7.77731 19.6496 7.65869C19.8053 7.15456 19.9684 6.65785 20.1315 6.16114C20.2724 5.73114 20.4132 5.29374 20.5615 4.83409C20.5911 4.91564 20.606 4.96754 20.6208 5.01202C20.9099 5.9239 21.1991 6.83578 21.4882 7.74766C21.5772 7.72542 21.5846 7.65128 21.5994 7.58456C21.8515 6.77647 22.1035 5.97579 22.3482 5.1677C22.3334 5.11581 22.3704 5.0565 22.326 4.98978ZM14.9493 5.26408C14.8455 5.73114 14.5638 6.05734 14.0893 6.19079C13.2886 6.40579 12.5547 5.79786 12.5547 4.79702C12.5695 4.4041 12.7474 3.97411 13.2367 3.73687C13.6816 3.52929 14.1264 3.57377 14.5045 3.88514C14.9345 4.24841 15.0679 4.7303 14.9493 5.26408ZM42.2244 5.07133C42.1428 4.97495 42.1428 4.91564 42.2244 4.81926C42.9435 3.95187 43.6552 3.08447 44.3595 2.21707C44.3966 2.18 44.4485 2.14294 44.4411 2.0688H44.2706C43.544 2.0688 42.8249 2.07621 42.0983 2.0688C41.9427 2.0688 41.8463 2.11328 41.7499 2.2319C41.4459 2.61741 41.1346 2.9955 40.8158 3.38843C40.4822 2.97326 40.156 2.58034 39.8297 2.17259C39.7853 2.11328 39.7408 2.0688 39.6518 2.0688C38.5991 2.0688 37.5463 2.07621 36.4936 2.0688C36.3898 2.0688 36.375 2.11328 36.375 2.20225C36.3824 2.37276 36.375 2.54327 36.375 2.70637C36.3601 2.71379 36.3379 2.7212 36.3231 2.73603C36.286 2.69155 36.2637 2.63965 36.2193 2.59517C35.4112 1.7426 34.2027 1.76484 33.4021 2.26155C32.594 2.75827 32.2307 3.52187 32.1047 4.43375C32.0676 4.69323 32.075 4.95271 32.0602 5.21219C32.0453 5.19736 32.0379 5.18253 32.0305 5.1677C31.7266 4.1891 31.4226 3.20309 31.126 2.22449C31.0964 2.1207 31.0593 2.07621 30.9407 2.07621C30.4514 2.08363 29.9695 2.08363 29.4802 2.07621C29.369 2.07621 29.3319 2.11328 29.3023 2.20966C29.1985 2.5581 29.0873 2.90654 28.9686 3.24757C28.7759 3.83325 28.5905 4.41893 28.383 5.0565C28.0642 4.04824 27.7676 3.08447 27.4637 2.12069C27.3673 2.13552 27.3599 2.22449 27.3376 2.28379C27.093 3.06964 26.8409 3.85549 26.6037 4.64134C26.5888 4.70065 26.5518 4.75996 26.5963 4.82668C26.6111 4.85633 26.6259 4.8934 26.6333 4.92305C26.9225 5.83493 27.2116 6.74681 27.4933 7.66611C27.523 7.76248 27.5526 7.80696 27.6638 7.80696C28.1309 7.79955 28.6054 7.79955 29.0724 7.80696C29.1762 7.80696 29.2133 7.7699 29.243 7.68093C29.3764 7.23611 29.5173 6.7913 29.6581 6.33906C29.799 5.88683 29.9398 5.4346 30.0955 4.94529C30.1548 5.1677 30.1993 5.34563 30.2512 5.52356C30.4366 6.23527 30.6293 6.95439 30.8147 7.66611C30.8295 7.72541 30.8221 7.80696 30.9333 7.80696C31.556 7.79955 32.1788 7.80696 32.8238 7.80696C32.72 7.47335 32.6236 7.14715 32.5272 6.82836C32.9943 7.45852 33.5948 7.85886 34.3807 7.94041C35.1888 8.02196 35.8263 7.70317 36.3527 7.05077C36.3527 7.28801 36.3601 7.46594 36.3527 7.64387C36.3453 7.77731 36.3824 7.80696 36.5158 7.80696C37.5463 7.79955 38.5768 7.79955 39.6073 7.80696C39.7185 7.80696 39.7853 7.7699 39.852 7.68835C40.1634 7.29542 40.4747 6.91733 40.8009 6.51699C41.1271 6.91733 41.4385 7.30284 41.7573 7.69576C41.824 7.77731 41.8908 7.80696 41.9945 7.80696C42.7582 7.79955 43.5218 7.80696 44.2854 7.79955C44.3299 7.79955 44.3744 7.82179 44.4114 7.7699C44.3818 7.73283 44.3521 7.68835 44.315 7.65128C43.6404 6.79129 42.9361 5.93131 42.2244 5.07133ZM36.4862 5.04909C36.412 5.73856 35.9375 6.22786 35.3148 6.2501C34.6031 6.27234 34.0322 5.68666 34.0396 4.92305C34.0396 4.21134 34.566 3.63308 35.211 3.61084C35.9746 3.58118 36.5677 4.25583 36.4862 5.04909ZM39.5629 5.04909C39.0958 5.5458 38.6287 6.04252 38.1468 6.56147V3.36619C38.6287 3.88514 39.0958 4.38186 39.5629 4.87857C39.6296 4.93788 39.6296 4.97495 39.5629 5.04909Z" fill="black"/>
<path d="M25.203 2.05078H23.2235L21.4517 7.8186L23.4237 7.82602L25.203 2.05078Z" fill="#C34986"/>
<path d="M27.4862 2.05078H25.5067L23.7349 7.8186L25.7069 7.82602L27.4862 2.05078Z" fill="#648D9D"/>
</svg>
