<svg width="150" height="76" viewBox="0 0 150 76" fill="none" xmlns="http://www.w3.org/2000/svg">
<g filter="url(#filter0_d_525_40352)">
<rect x="3" y="1.82227" width="144" height="70.4167" rx="2.93403" fill="white" shape-rendering="crispEdges"/>
<path d="M75.2082 38.991C75.1789 38.9176 75.1495 38.8442 75.1201 38.7707C74.5475 37.0087 73.9748 35.2467 73.4022 33.4847C73.3288 33.2791 73.2553 33.2057 73.0204 33.2057C72.11 33.2204 71.185 33.2204 70.2746 33.2057C70.069 33.2057 69.9809 33.2644 69.9222 33.47C69.5991 34.5419 69.2614 35.6138 68.9237 36.6857C68.7034 37.3758 68.4979 38.0659 68.2776 38.7561C68.1748 38.712 68.1895 38.6386 68.1748 38.5945C67.7197 36.8913 67.2645 35.188 66.824 33.4847C66.7652 33.2644 66.6771 33.2204 66.4716 33.2204C65.385 33.2351 64.2984 33.2351 63.1971 33.2204C62.9035 33.2204 62.8154 33.2498 62.9328 33.5728C63.1384 34.1748 63.3146 34.8062 63.5055 35.4082C60.5541 31.5024 53.785 32.2807 52.2139 37.0087C52.1111 35.3054 51.6265 33.8371 49.8939 33.2057C47.9263 32.4862 46.267 33.0295 44.8868 34.7034V34.2923C44.8868 32.6918 44.8868 31.0766 44.8868 29.4761C44.8868 29.3146 44.9162 29.1678 44.6519 29.1971C43.5065 29.3293 42.3465 29.4467 41.2012 29.5495C40.9369 29.5789 40.8488 29.667 40.8488 29.946C40.8635 33.0882 40.8635 36.2305 40.8635 39.3728C40.8635 39.4315 40.8635 39.4902 40.8635 39.549C40.8635 39.6077 40.8782 39.6811 40.8048 39.7252C40.5405 38.8001 39.8797 38.2275 39.0868 37.8163C38.426 37.4786 37.7212 37.2437 37.0017 37.0381C36.4585 36.8766 35.9152 36.7444 35.4159 36.4801C35.181 36.3627 34.9754 36.2011 35.0195 35.9075C35.0635 35.5991 35.2985 35.4817 35.5774 35.4229C35.8711 35.3642 36.1648 35.3789 36.4731 35.4229C37.3835 35.5551 38.2498 35.8781 39.0574 36.3186C39.3071 36.4508 39.3952 36.4067 39.5126 36.1718C39.8503 35.511 40.2028 34.8503 40.5845 34.2189C40.7314 33.9693 40.6579 33.8812 40.4524 33.749C39.0134 32.9414 37.4569 32.5743 35.8124 32.6037C34.9461 32.6184 34.1091 32.7799 33.3309 33.2057C32.0093 33.9252 31.422 35.0411 31.4514 36.5389C31.4807 37.9485 32.259 38.8148 33.4777 39.3875C34.065 39.6664 34.6964 39.8426 35.3278 40.0188C35.9005 40.1804 36.4878 40.3125 37.0164 40.5768C37.2514 40.6943 37.3982 40.8705 37.3688 41.1495C37.3395 41.4431 37.1192 41.59 36.8696 41.6487C36.6053 41.7074 36.3263 41.7221 36.0473 41.6928C34.8139 41.6047 33.7126 41.1788 32.6701 40.5328C32.4792 40.4153 32.4058 40.4153 32.2883 40.6209C31.8919 41.2816 31.4807 41.9424 31.0549 42.6031C30.9521 42.7646 30.9668 42.8381 31.1283 42.9408C33.2281 44.3211 35.5187 44.8203 37.9709 44.3211C39.1749 44.0862 40.1587 43.4548 40.6873 42.2654C40.7754 42.0892 40.8195 41.8836 40.8929 41.7074C40.9369 42.5444 40.9516 43.396 40.9369 44.2183C40.9222 44.5413 41.025 44.6001 41.3187 44.5854C42.42 44.5707 43.5212 44.5707 44.6225 44.5854C44.9162 44.5854 44.9749 44.512 44.9749 44.2183C44.9602 42.2948 44.9749 40.3712 44.9749 38.433C44.9749 38.0366 45.0189 37.6548 45.2098 37.3024C45.5182 36.7151 46.1202 36.4067 46.8544 36.4801C47.5151 36.5535 47.941 36.9206 48.1465 37.5373C48.2493 37.8457 48.2787 38.1687 48.2787 38.4918C48.2787 40.4153 48.2787 42.3388 48.2787 44.277C48.2787 44.512 48.3227 44.5854 48.5724 44.5854C49.703 44.5707 50.8483 44.5707 51.9789 44.5854C52.2285 44.5854 52.2873 44.512 52.2726 44.277C52.2579 43.5135 52.2726 42.7353 52.2726 41.9717V40.8264C53.3885 43.7044 56.0756 45.0406 58.7921 44.8497C60.3485 44.7469 61.7288 44.1743 62.8594 43.073C63.99 41.9717 64.5774 40.6062 64.6508 39.0204C64.6949 39.0791 64.7242 39.1231 64.7389 39.1819C65.2675 40.8852 65.7961 42.5884 66.31 44.2917C66.3835 44.512 66.4716 44.5707 66.6918 44.5707C67.6316 44.556 68.5713 44.556 69.511 44.5707C69.746 44.5707 69.8488 44.512 69.9075 44.277C70.2159 43.2786 70.5389 42.2948 70.8619 41.311C71.1409 40.4593 71.4199 39.593 71.7136 38.6826C71.7723 38.8442 71.8017 38.9469 71.831 39.035C72.4037 40.8411 72.9764 42.6472 73.549 44.4532C73.7252 44.4092 73.7399 44.2624 73.7693 44.1302C74.2685 42.5297 74.7677 40.9439 75.2523 39.3434C75.2229 39.2406 75.2963 39.1231 75.2082 38.991ZM60.5981 39.5343C60.3926 40.4593 59.8346 41.1054 58.8949 41.3697C57.309 41.7955 55.8554 40.5915 55.8554 38.6092C55.8847 37.831 56.2371 36.9794 57.2063 36.5095C58.0873 36.0984 58.9683 36.1865 59.7171 36.8032C60.5688 37.5227 60.8331 38.4771 60.5981 39.5343ZM114.619 39.1525C114.457 38.9616 114.457 38.8442 114.619 38.6533C116.043 36.9353 117.453 35.2173 118.848 33.4994C118.921 33.426 119.024 33.3525 119.009 33.2057H118.671C117.232 33.2057 115.808 33.2204 114.369 33.2057C114.061 33.2057 113.87 33.2938 113.679 33.5288C113.077 34.2923 112.46 35.0411 111.829 35.8194C111.168 34.9971 110.522 34.2189 109.876 33.4113C109.788 33.2938 109.7 33.2057 109.524 33.2057C107.439 33.2057 105.354 33.2204 103.268 33.2057C103.063 33.2057 103.034 33.2938 103.034 33.47C103.048 33.8077 103.034 34.1455 103.034 34.4685C103.004 34.4832 102.96 34.4979 102.931 34.5272C102.857 34.4391 102.813 34.3363 102.725 34.2482C101.125 32.5596 98.7312 32.6037 97.1454 33.5875C95.5449 34.5713 94.8254 36.0837 94.5758 37.8897C94.5024 38.4037 94.5171 38.9176 94.4877 39.4315C94.4583 39.4021 94.4436 39.3728 94.429 39.3434C93.8269 37.4052 93.2249 35.4523 92.6376 33.5141C92.5788 33.3085 92.5054 33.2204 92.2705 33.2204C91.3014 33.2351 90.3469 33.2351 89.3778 33.2204C89.1576 33.2204 89.0842 33.2938 89.0254 33.4847C88.8199 34.1748 88.5996 34.8649 88.3647 35.5404C87.9829 36.7004 87.6158 37.8604 87.2047 39.1231C86.5733 37.1262 85.9859 35.2173 85.3839 33.3085C85.193 33.3379 85.1784 33.5141 85.1343 33.6315C84.6497 35.188 84.1505 36.7444 83.6806 38.3009C83.6513 38.4183 83.5779 38.5358 83.666 38.668C83.6953 38.7267 83.7247 38.8001 83.7394 38.8588C84.312 40.6649 84.8847 42.471 85.4427 44.2917C85.5014 44.4826 85.5601 44.5707 85.7804 44.5707C86.7054 44.556 87.6452 44.556 88.5702 44.5707C88.7758 44.5707 88.8492 44.4973 88.908 44.3211C89.1723 43.4401 89.4513 42.5591 89.7302 41.6634C90.0092 40.7677 90.2882 39.872 90.5966 38.9029C90.714 39.3434 90.8021 39.6958 90.9049 40.0482C91.272 41.4578 91.6538 42.8821 92.0209 44.2917C92.0502 44.4092 92.0356 44.5707 92.2558 44.5707C93.4892 44.556 94.7226 44.5707 96.0001 44.5707C95.7945 43.91 95.6036 43.2639 95.4128 42.6325C96.3378 43.8806 97.5272 44.6735 99.0836 44.835C100.684 44.9965 101.947 44.3651 102.989 43.073C102.989 43.5429 103.004 43.8953 102.989 44.2477C102.975 44.512 103.048 44.5707 103.312 44.5707C105.354 44.556 107.395 44.556 109.436 44.5707C109.656 44.5707 109.788 44.4973 109.92 44.3358C110.537 43.5576 111.153 42.8087 111.8 42.0158C112.446 42.8087 113.062 43.5722 113.694 44.3505C113.826 44.512 113.958 44.5707 114.164 44.5707C115.676 44.556 117.188 44.5707 118.701 44.556C118.789 44.556 118.877 44.6001 118.95 44.4973C118.892 44.4239 118.833 44.3358 118.76 44.2624C117.423 42.5591 116.028 40.8558 114.619 39.1525ZM103.254 39.1085C103.107 40.474 102.167 41.4431 100.934 41.4872C99.5241 41.5312 98.3935 40.3712 98.4082 38.8588C98.4082 37.4492 99.4507 36.3039 100.728 36.2599C102.241 36.2011 103.415 37.5373 103.254 39.1085ZM109.347 39.1085C108.422 40.0923 107.497 41.076 106.543 42.1039V35.7753C107.497 36.8032 108.422 37.787 109.347 38.7707C109.48 38.8882 109.48 38.9616 109.347 39.1085Z" fill="black"/>
<path d="M80.9054 33.1621H76.9849L73.4756 44.5858L77.3814 44.6005L80.9054 33.1621Z" fill="#C34986"/>
<path d="M85.4279 33.1621H81.5074L77.998 44.5858L81.9039 44.6005L85.4279 33.1621Z" fill="#648D9D"/>
<rect x="3.2934" y="2.11567" width="143.413" height="69.8299" rx="2.64062" stroke="black" stroke-opacity="0.3" stroke-width="0.586806" shape-rendering="crispEdges"/>
</g>
<defs>
<filter id="filter0_d_525_40352" x="0.652778" y="0.0618489" width="148.694" height="75.1105" filterUnits="userSpaceOnUse" color-interpolation-filters="sRGB">
<feFlood flood-opacity="0" result="BackgroundImageFix"/>
<feColorMatrix in="SourceAlpha" type="matrix" values="0 0 0 0 0 0 0 0 0 0 0 0 0 0 0 0 0 0 127 0" result="hardAlpha"/>
<feOffset dy="0.586806"/>
<feGaussianBlur stdDeviation="1.17361"/>
<feComposite in2="hardAlpha" operator="out"/>
<feColorMatrix type="matrix" values="0 0 0 0 0 0 0 0 0 0 0 0 0 0 0 0 0 0 0.25 0"/>
<feBlend mode="normal" in2="BackgroundImageFix" result="effect1_dropShadow_525_40352"/>
<feBlend mode="normal" in="SourceGraphic" in2="effect1_dropShadow_525_40352" result="shape"/>
</filter>
</defs>
</svg>
