<svg width="150" height="76" viewBox="0 0 150 76" fill="none" xmlns="http://www.w3.org/2000/svg">
<g filter="url(#filter0_d_525_40349)">
<rect x="3" y="1.82227" width="144" height="70.4167" rx="2.93403" fill="white" shape-rendering="crispEdges"/>
<mask id="mask0_525_40349" style="mask-type:luminance" maskUnits="userSpaceOnUse" x="30" y="4" width="90" height="66">
<path d="M119.011 4.74609H30.9897V69.3133H119.011V4.74609Z" fill="white"/>
</mask>
<g mask="url(#mask0_525_40349)">
<mask id="mask1_525_40349" style="mask-type:luminance" maskUnits="userSpaceOnUse" x="30" y="4" width="90" height="66">
<path d="M119.01 4.74414H30.9888V69.3113H119.01V4.74414Z" fill="white"/>
</mask>
<g mask="url(#mask1_525_40349)">
<path d="M46.3657 52.8394L48.5473 51.793V54.7344C48.5473 54.7344 50.5108 54.5351 50.5108 54.7344V56.1795H48.4383V61.7618C48.4383 61.7618 48.8743 63.157 50.5108 62.2601V63.9045C50.5108 63.9045 47.2393 65.2 46.3673 61.9612V52.8394H46.3657Z" fill="black"/>
</g>
<mask id="mask2_525_40349" style="mask-type:luminance" maskUnits="userSpaceOnUse" x="30" y="4" width="90" height="66">
<path d="M119.01 4.74414H30.9888V69.3113H119.01V4.74414Z" fill="white"/>
</mask>
<g mask="url(#mask2_525_40349)">
<path d="M58.306 54.7339C54.5984 53.538 52.5819 55.7305 52.5819 55.7305L54.0534 56.8267C54.5439 55.6308 57.3795 56.1587 57.3795 56.1587C58.8152 56.562 58.5785 58.4882 58.5785 58.4882C53.8899 57.8404 52.4713 59.6685 52.4713 59.6685C51.5448 61.263 52.4713 62.6099 52.4713 62.6099C53.5069 64.7028 56.8329 64.1624 56.8329 64.1624C61.3035 63.5209 60.3225 63.2079 60.486 63.2079V60.2166C60.8332 54.7993 58.306 54.7339 58.306 54.7339ZM58.6517 62.2098C54.7993 63.2063 54.1811 61.9466 54.1811 61.2132C54.1811 60.4798 54.7619 59.2994 58.6517 59.8834V62.2098Z" fill="black"/>
</g>
<mask id="mask3_525_40349" style="mask-type:luminance" maskUnits="userSpaceOnUse" x="30" y="4" width="90" height="66">
<path d="M119.01 4.74414H30.9888V69.3113H119.01V4.74414Z" fill="white"/>
</mask>
<g mask="url(#mask3_525_40349)">
<path d="M67.6289 54.377V56.0961C67.6289 56.0961 65.0487 56.0291 64.8665 56.694V64.1605H62.7939V55.3315C62.7939 55.333 63.5943 54.4533 67.6289 54.377Z" fill="black"/>
</g>
<mask id="mask4_525_40349" style="mask-type:luminance" maskUnits="userSpaceOnUse" x="30" y="4" width="90" height="66">
<path d="M119.01 4.74414H30.9888V69.3113H119.01V4.74414Z" fill="white"/>
</mask>
<g mask="url(#mask4_525_40349)">
<path d="M65.0127 52.6064H69.6296V64.1604H71.6166V52.6064H76.2086V50.7129H65.0127V52.6064Z" fill="black"/>
</g>
<mask id="mask5_525_40349" style="mask-type:luminance" maskUnits="userSpaceOnUse" x="30" y="4" width="90" height="66">
<path d="M119.01 4.74414H30.9888V69.3113H119.01V4.74414Z" fill="white"/>
</mask>
<g mask="url(#mask5_525_40349)">
<path d="M76.2084 54.5352H74.209V64.1615H76.2084V54.5352Z" fill="black"/>
</g>
<mask id="mask6_525_40349" style="mask-type:luminance" maskUnits="userSpaceOnUse" x="30" y="4" width="90" height="66">
<path d="M119.01 4.74414H30.9888V69.3113H119.01V4.74414Z" fill="white"/>
</mask>
<g mask="url(#mask6_525_40349)">
<path d="M78.8965 55.463V64.222H81.0049V57.0575C81.0049 57.0575 80.6779 56.3926 81.4409 56.3272C81.4409 56.3272 84.6034 55.3197 85.1484 57.4359V64.2235H87.2926V57.2584C87.2926 57.2584 87.1478 56.7274 87.5464 56.5935C87.5464 56.5935 91.2898 55.2216 91.363 57.4359V64.2235H93.5072V57.4359C93.5072 57.4359 93.2892 52.274 86.2011 55.463C86.2026 55.463 84.4212 53.037 78.8965 55.463Z" fill="black"/>
</g>
<mask id="mask7_525_40349" style="mask-type:luminance" maskUnits="userSpaceOnUse" x="30" y="4" width="90" height="66">
<path d="M119.01 4.74414H30.9888V69.3113H119.01V4.74414Z" fill="white"/>
</mask>
<g mask="url(#mask7_525_40349)">
<path d="M98.8154 62.7766C97.2894 62.3779 97.4529 60.201 97.4529 60.201L101.07 60.3178C101.888 60.2353 102.378 59.9192 102.378 59.9192C105.105 58.3901 103.451 55.8659 103.451 55.8659C101.269 53.0241 97.0901 55.0858 97.0901 55.0858C95.2184 55.8005 95.5999 59.9628 95.5999 59.9628C95.5952 64.7978 100.016 64.2278 100.016 64.2278C102.451 64.1656 103.35 62.937 103.35 62.937L102.196 61.8828C101.069 63.3247 98.8154 62.7766 98.8154 62.7766ZM98.9415 56.1478C101.595 55.6495 101.941 57.2284 101.941 57.2284C102.05 58.9226 100.45 58.823 100.45 58.823L97.4887 58.8058C97.3423 56.263 98.9415 56.1478 98.9415 56.1478Z" fill="black"/>
</g>
<mask id="mask8_525_40349" style="mask-type:luminance" maskUnits="userSpaceOnUse" x="30" y="4" width="90" height="66">
<path d="M119.01 4.74414H30.9888V69.3113H119.01V4.74414Z" fill="white"/>
</mask>
<g mask="url(#mask8_525_40349)">
<path d="M44.5118 60.2781C44.5118 61.4786 44.0338 62.4269 43.0793 63.1199C42.1247 63.8128 40.8806 64.16 39.3468 64.16C38.2443 64.16 37.2898 64.0277 36.4816 63.7598C35.675 63.4936 34.9354 63.0451 34.2627 62.4129L35.7155 61.094C36.6296 61.9364 37.8535 62.3569 39.3873 62.3569C40.3278 62.3569 41.0581 62.1809 41.5766 61.8274C42.0936 61.474 42.3536 60.9757 42.3536 60.3326C42.3536 59.7253 42.1652 59.2675 41.7884 58.9576C41.4661 58.6851 40.9413 58.4998 40.2141 58.4001L38.5199 58.1775C37.3505 58.0295 36.4427 57.6761 35.7965 57.1186C35.0973 56.5129 34.747 55.6705 34.747 54.5929C34.747 53.4282 35.1767 52.4908 36.0378 51.7791C36.8989 51.0675 38.0684 50.7109 39.5477 50.7109C41.3493 50.7109 42.8363 51.2123 44.0058 52.2151L42.6137 53.478C41.8335 52.7975 40.7918 52.4565 39.4869 52.4565C38.6663 52.4565 38.0248 52.648 37.5607 53.0326C37.0967 53.4173 36.8647 53.9124 36.8647 54.5182C36.8647 55.0383 37.0469 55.4462 37.4097 55.7436C37.7865 56.0535 38.3237 56.2575 39.0229 56.3572L40.6563 56.5798C41.8538 56.7542 42.7476 57.0812 43.3393 57.564C44.121 58.1977 44.5118 59.1024 44.5118 60.2781Z" fill="black"/>
</g>
<mask id="mask9_525_40349" style="mask-type:luminance" maskUnits="userSpaceOnUse" x="30" y="4" width="90" height="66">
<path d="M119.01 4.74414H30.9888V69.3113H119.01V4.74414Z" fill="white"/>
</mask>
<g mask="url(#mask9_525_40349)">
<path d="M113.592 61.2641C113.592 62.2077 113.214 62.9365 112.454 63.4503C111.696 63.9658 110.707 64.2227 109.488 64.2227C107.685 64.2227 106.305 63.7758 105.344 62.8804L106.648 61.6487C107.322 62.2981 108.269 62.6219 109.488 62.6219C110.123 62.6219 110.642 62.5114 111.045 62.2918C111.447 62.0707 111.648 61.753 111.648 61.3357C111.648 60.6739 111.207 60.3065 110.326 60.2333L108.75 60.1056C106.805 59.9468 105.832 59.0888 105.832 57.5332C105.832 56.6503 106.185 55.9558 106.892 55.4466C107.599 54.939 108.483 54.6836 109.547 54.6836C111.141 54.6836 112.361 55.0324 113.205 55.7316L111.959 56.9259C111.388 56.4728 110.578 56.2454 109.528 56.2454C108.957 56.2454 108.516 56.356 108.205 56.5755C107.893 56.7966 107.738 57.0832 107.738 57.4397C107.738 58.0766 108.192 58.4317 109.1 58.5064L110.656 58.6341C112.613 58.796 113.592 59.6711 113.592 61.2641Z" fill="black"/>
</g>
</g>
<mask id="mask10_525_40349" style="mask-type:luminance" maskUnits="userSpaceOnUse" x="30" y="4" width="90" height="66">
<path d="M119.011 4.74609H30.9897V69.3133H119.011V4.74609Z" fill="white"/>
</mask>
<g mask="url(#mask10_525_40349)">
<mask id="mask11_525_40349" style="mask-type:luminance" maskUnits="userSpaceOnUse" x="53" y="7" width="21" height="23">
<path d="M68.8632 7.28779C68.8632 7.28779 68.2606 7.31582 67.4789 7.87328L64.0563 11.0717L58.9364 15.8817L55.3986 19.2389C55.3986 19.2389 53.8585 20.4566 53.8648 21.4812L53.9099 29.9116C53.9099 29.8992 53.913 28.1847 57.5381 27.2115L62.6891 25.4909L66.9744 24.1299L67.9694 23.8091C67.9694 23.8091 70.2786 23.0882 71.2534 21.6899C71.2534 21.6899 71.6832 21.0047 72.3388 19.3432L73.9924 14.9692L72.3512 10.8988C72.3512 10.8988 71.4325 7.25977 69.1855 7.25977C69.0812 7.26288 68.9738 7.27066 68.8632 7.28779Z" fill="white"/>
</mask>
<g mask="url(#mask11_525_40349)">
<path d="M85.3109 13.8787L68.1091 38.2419L42.5376 23.2948L59.7394 -1.06836L85.3109 13.8787Z" fill="url(#paint0_linear_525_40349)"/>
</g>
</g>
<mask id="mask12_525_40349" style="mask-type:luminance" maskUnits="userSpaceOnUse" x="30" y="4" width="90" height="66">
<path d="M119.011 4.74609H30.9897V69.3133H119.011V4.74609Z" fill="white"/>
</mask>
<g mask="url(#mask12_525_40349)">
<mask id="mask13_525_40349" style="mask-type:luminance" maskUnits="userSpaceOnUse" x="69" y="7" width="25" height="19">
<path d="M72.2367 10.5815L74.085 15.2841L75.5456 19.1957L75.8898 20.105C75.8898 20.105 76.6637 22.2119 78.1881 23.1103C78.1881 23.1103 78.9355 23.5059 80.7481 24.1147L85.5254 25.6501L89.9913 24.1832C89.9913 24.1832 94.3404 23.2692 93.9714 21.0315C93.9714 21.0315 94.0305 20.5052 93.3407 19.7671L89.862 16.6295L84.63 11.9347L80.9801 8.69114C80.9801 8.69114 79.6581 7.28036 78.5354 7.27881L69.3062 7.2679C69.3093 7.26323 71.1934 7.26479 72.2367 10.5815Z" fill="white"/>
</mask>
<g mask="url(#mask13_525_40349)">
<path d="M86.8737 36.1172L60.1079 20.1642L76.774 -3.20703L103.541 12.7475L86.8737 36.1172Z" fill="url(#paint1_linear_525_40349)"/>
</g>
</g>
<mask id="mask14_525_40349" style="mask-type:luminance" maskUnits="userSpaceOnUse" x="30" y="4" width="90" height="66">
<path d="M119.011 4.74609H30.9897V69.3133H119.011V4.74609Z" fill="white"/>
</mask>
<g mask="url(#mask14_525_40349)">
<mask id="mask15_525_40349" style="mask-type:luminance" maskUnits="userSpaceOnUse" x="53" y="25" width="26" height="19">
<path d="M57.9172 26.9536C57.9172 26.9536 53.565 27.8583 53.9294 30.0975C53.9294 30.0975 53.8687 30.6238 54.5569 31.3634L58.0262 34.5089L63.2458 39.2146L66.888 42.4659C66.888 42.4659 68.2053 43.8798 69.3296 43.8829L78.5588 43.9187C78.5588 43.9187 76.6731 43.9109 75.6376 40.5911L73.8017 35.8854L72.3504 31.9707L72.0094 31.0613C72.0094 31.0613 71.2417 28.953 69.7188 28.0514C69.7188 28.0514 68.9714 27.6543 67.1605 27.0408L62.3878 25.4961L57.9172 26.9536Z" fill="white"/>
</mask>
<g mask="url(#mask15_525_40349)">
<path d="M61.0744 15.0215L87.795 31.0321L71.0463 54.3956L44.3257 38.385L61.0744 15.0215Z" fill="url(#paint2_linear_525_40349)"/>
</g>
</g>
<mask id="mask16_525_40349" style="mask-type:luminance" maskUnits="userSpaceOnUse" x="30" y="4" width="90" height="66">
<path d="M119.011 4.74609H30.9897V69.3133H119.011V4.74609Z" fill="white"/>
</mask>
<g mask="url(#mask16_525_40349)">
<mask id="mask17_525_40349" style="mask-type:luminance" maskUnits="userSpaceOnUse" x="73" y="21" width="21" height="23">
<path d="M90.3632 24.0138L85.2231 25.7111L80.9472 27.0534L79.9537 27.3695C79.9537 27.3695 77.6507 28.0795 76.6713 29.4747C76.6713 29.4747 76.2399 30.1599 75.5766 31.8182L73.9058 36.1876L75.519 40.2673C75.519 40.2673 76.5264 44.2427 78.9743 43.9002C78.9743 43.9002 79.5504 43.9531 80.357 43.3209L83.7843 40.135L88.9104 35.3436L92.4529 32.0004C92.4529 32.0004 93.993 30.789 93.993 29.7628V21.3262C93.9914 21.3293 93.9914 23.0531 90.3632 24.0138Z" fill="white"/>
</mask>
<g mask="url(#mask17_525_40349)">
<path d="M62.4585 37.4482L79.8643 12.9434L105.44 28.1271L88.0331 52.632L62.4585 37.4482Z" fill="url(#paint3_linear_525_40349)"/>
</g>
</g>
<rect x="3.2934" y="2.11567" width="143.413" height="69.8299" rx="2.64062" stroke="black" stroke-opacity="0.3" stroke-width="0.586806" shape-rendering="crispEdges"/>
</g>
<defs>
<filter id="filter0_d_525_40349" x="0.652778" y="0.0618489" width="148.694" height="75.1105" filterUnits="userSpaceOnUse" color-interpolation-filters="sRGB">
<feFlood flood-opacity="0" result="BackgroundImageFix"/>
<feColorMatrix in="SourceAlpha" type="matrix" values="0 0 0 0 0 0 0 0 0 0 0 0 0 0 0 0 0 0 127 0" result="hardAlpha"/>
<feOffset dy="0.586806"/>
<feGaussianBlur stdDeviation="1.17361"/>
<feComposite in2="hardAlpha" operator="out"/>
<feColorMatrix type="matrix" values="0 0 0 0 0 0 0 0 0 0 0 0 0 0 0 0 0 0 0.25 0"/>
<feBlend mode="normal" in2="BackgroundImageFix" result="effect1_dropShadow_525_40349"/>
<feBlend mode="normal" in="SourceGraphic" in2="effect1_dropShadow_525_40349" result="shape"/>
</filter>
<linearGradient id="paint0_linear_525_40349" x1="71.111" y1="7.44908" x2="55.6418" y2="31.6424" gradientUnits="userSpaceOnUse">
<stop stop-color="#142C52"/>
<stop offset="0.7124" stop-color="#24B4E9"/>
<stop offset="1" stop-color="#24B4E9"/>
</linearGradient>
<linearGradient id="paint1_linear_525_40349" x1="93.179" y1="23.8506" x2="68.2869" y2="7.62113" gradientUnits="userSpaceOnUse">
<stop stop-color="#DA1F27"/>
<stop offset="0.7124" stop-color="#FDCE0B"/>
<stop offset="1" stop-color="#FDCE0B"/>
</linearGradient>
<linearGradient id="paint2_linear_525_40349" x1="54.7285" y1="27.2742" x2="79.5843" y2="43.5643" gradientUnits="userSpaceOnUse">
<stop stop-color="#DA1F27"/>
<stop offset="0.7124" stop-color="#FDCE0B"/>
<stop offset="1" stop-color="#FDCE0B"/>
</linearGradient>
<linearGradient id="paint3_linear_525_40349" x1="76.8181" y1="43.7554" x2="92.4487" y2="19.6865" gradientUnits="userSpaceOnUse">
<stop stop-color="#142C52"/>
<stop offset="0.7124" stop-color="#24B4E9"/>
<stop offset="1" stop-color="#24B4E9"/>
</linearGradient>
</defs>
</svg>
