<svg width="25" height="19" viewBox="0 0 25 19" fill="none" xmlns="http://www.w3.org/2000/svg">
<mask id="mask0_525_33260" style="mask-type:luminance" maskUnits="userSpaceOnUse" x="0" y="0" width="25" height="19">
<path d="M24.6597 0H0V18.0889H24.6597V0Z" fill="white"/>
</mask>
<g mask="url(#mask0_525_33260)">
<mask id="mask1_525_33260" style="mask-type:luminance" maskUnits="userSpaceOnUse" x="0" y="-1" width="25" height="20">
<path d="M24.6631 -0.00195312H0.00341797V18.0869H24.6631V-0.00195312Z" fill="white"/>
</mask>
<g mask="url(#mask1_525_33260)">
<path d="M4.30957 13.4728L4.92075 13.1797V14.0038C4.92075 14.0038 5.47086 13.9479 5.47086 14.0038V14.4086H4.89021V15.9725C4.89021 15.9725 5.01236 16.3634 5.47086 16.1121V16.5728C5.47086 16.5728 4.5543 16.9358 4.31001 16.0284V13.4728H4.30957Z" fill="black"/>
</g>
<mask id="mask2_525_33260" style="mask-type:luminance" maskUnits="userSpaceOnUse" x="0" y="-1" width="25" height="20">
<path d="M24.6631 -0.00195312H0.00341797V18.0869H24.6631V-0.00195312Z" fill="white"/>
</mask>
<g mask="url(#mask2_525_33260)">
<path d="M7.65379 14.0004C6.61508 13.6654 6.05014 14.2796 6.05014 14.2796L6.4624 14.5867C6.59981 14.2517 7.39422 14.3996 7.39422 14.3996C7.79644 14.5125 7.73013 15.0522 7.73013 15.0522C6.41659 14.8707 6.01917 15.3828 6.01917 15.3828C5.7596 15.8296 6.01917 16.2069 6.01917 16.2069C6.30928 16.7932 7.2411 16.6419 7.2411 16.6419C8.49356 16.4621 8.21872 16.3744 8.26453 16.3744V15.5364C8.36181 14.0187 7.65379 14.0004 7.65379 14.0004ZM7.75063 16.0948C6.67136 16.374 6.49817 16.0211 6.49817 15.8156C6.49817 15.6101 6.66089 15.2795 7.75063 15.443V16.0948Z" fill="black"/>
</g>
<mask id="mask3_525_33260" style="mask-type:luminance" maskUnits="userSpaceOnUse" x="0" y="-1" width="25" height="20">
<path d="M24.6631 -0.00195312H0.00341797V18.0869H24.6631V-0.00195312Z" fill="white"/>
</mask>
<g mask="url(#mask3_525_33260)">
<path d="M10.2662 13.9004V14.382C10.2662 14.382 9.54331 14.3632 9.49227 14.5495V16.6413H8.91162V14.1678C8.91162 14.1682 9.13585 13.9218 10.2662 13.9004Z" fill="black"/>
</g>
<mask id="mask4_525_33260" style="mask-type:luminance" maskUnits="userSpaceOnUse" x="0" y="-1" width="25" height="20">
<path d="M24.6631 -0.00195312H0.00341797V18.0869H24.6631V-0.00195312Z" fill="white"/>
</mask>
<g mask="url(#mask4_525_33260)">
<path d="M9.53418 13.4055H10.8276V16.6424H11.3843V13.4055H12.6708V12.875H9.53418V13.4055Z" fill="black"/>
</g>
<mask id="mask5_525_33260" style="mask-type:luminance" maskUnits="userSpaceOnUse" x="0" y="-1" width="25" height="20">
<path d="M24.6631 -0.00195312H0.00341797V18.0869H24.6631V-0.00195312Z" fill="white"/>
</mask>
<g mask="url(#mask5_525_33260)">
<path d="M12.669 13.9414H12.1089V16.6383H12.669V13.9414Z" fill="black"/>
</g>
<mask id="mask6_525_33260" style="mask-type:luminance" maskUnits="userSpaceOnUse" x="0" y="-1" width="25" height="20">
<path d="M24.6631 -0.00195312H0.00341797V18.0869H24.6631V-0.00195312Z" fill="white"/>
</mask>
<g mask="url(#mask6_525_33260)">
<path d="M13.4229 14.2025V16.6563H14.0135V14.6492C14.0135 14.6492 13.9219 14.4629 14.1357 14.4446C14.1357 14.4446 15.0217 14.1623 15.1744 14.7552V16.6568H15.7751V14.7055C15.7751 14.7055 15.7345 14.5567 15.8462 14.5192C15.8462 14.5192 16.8949 14.1348 16.9154 14.7552V16.6568H17.5161V14.7552C17.5161 14.7552 17.4551 13.309 15.4693 14.2025C15.4697 14.2025 14.9707 13.5228 13.4229 14.2025Z" fill="black"/>
</g>
<mask id="mask7_525_33260" style="mask-type:luminance" maskUnits="userSpaceOnUse" x="0" y="-1" width="25" height="20">
<path d="M24.6631 -0.00195312H0.00341797V18.0869H24.6631V-0.00195312Z" fill="white"/>
</mask>
<g mask="url(#mask7_525_33260)">
<path d="M19.005 16.2574C18.5775 16.1457 18.6233 15.5359 18.6233 15.5359L19.6367 15.5686C19.8657 15.5455 20.0032 15.4569 20.0032 15.4569C20.767 15.0285 20.3037 14.3214 20.3037 14.3214C19.6926 13.5252 18.5217 14.1028 18.5217 14.1028C17.9973 14.303 18.1042 15.4691 18.1042 15.4691C18.1029 16.8237 19.3414 16.664 19.3414 16.664C20.0237 16.6466 20.2754 16.3024 20.2754 16.3024L19.9521 16.007C19.6363 16.411 19.005 16.2574 19.005 16.2574ZM19.0404 14.4003C19.7837 14.2607 19.8806 14.7031 19.8806 14.7031C19.9111 15.1777 19.4631 15.1498 19.4631 15.1498L18.6333 15.145C18.5923 14.4326 19.0404 14.4003 19.0404 14.4003Z" fill="black"/>
</g>
<mask id="mask8_525_33260" style="mask-type:luminance" maskUnits="userSpaceOnUse" x="0" y="-1" width="25" height="20">
<path d="M24.6631 -0.00195312H0.00341797V18.0869H24.6631V-0.00195312Z" fill="white"/>
</mask>
<g mask="url(#mask8_525_33260)">
<path d="M3.78934 15.5553C3.78934 15.8916 3.65541 16.1573 3.388 16.3514C3.12058 16.5456 2.77202 16.6428 2.34231 16.6428C2.03345 16.6428 1.76603 16.6058 1.53962 16.5307C1.31364 16.4561 1.10643 16.3305 0.917969 16.1534L1.32499 15.7839C1.58106 16.0199 1.92395 16.1377 2.35366 16.1377C2.61715 16.1377 2.82175 16.0884 2.96702 15.9894C3.11185 15.8903 3.1847 15.7507 3.1847 15.5706C3.1847 15.4004 3.13192 15.2722 3.02635 15.1854C2.93604 15.109 2.78903 15.0571 2.5853 15.0292L2.11067 14.9668C1.78304 14.9254 1.52871 14.8263 1.34767 14.6701C1.1518 14.5004 1.05364 14.2644 1.05364 13.9626C1.05364 13.6362 1.17405 13.3736 1.41529 13.1743C1.65653 12.9749 1.98415 12.875 2.39859 12.875C2.90333 12.875 3.31994 13.0155 3.64756 13.2964L3.25756 13.6502C3.039 13.4596 2.74715 13.364 2.38157 13.364C2.15167 13.364 1.97194 13.4177 1.84194 13.5254C1.71194 13.6332 1.64694 13.7719 1.64694 13.9416C1.64694 14.0873 1.69798 14.2016 1.79962 14.2849C1.90519 14.3718 2.0557 14.4289 2.25157 14.4568L2.7092 14.5192C3.04467 14.5681 3.29507 14.6597 3.46085 14.7949C3.67984 14.9725 3.78934 15.2259 3.78934 15.5553Z" fill="black"/>
</g>
<mask id="mask9_525_33260" style="mask-type:luminance" maskUnits="userSpaceOnUse" x="0" y="-1" width="25" height="20">
<path d="M24.6631 -0.00195312H0.00341797V18.0869H24.6631V-0.00195312Z" fill="white"/>
</mask>
<g mask="url(#mask9_525_33260)">
<path d="M23.1438 15.8358C23.1438 16.1001 23.0378 16.3043 22.8249 16.4482C22.6125 16.5926 22.3354 16.6646 21.9939 16.6646C21.4887 16.6646 21.1022 16.5394 20.833 16.2886L21.1981 15.9435C21.387 16.1254 21.6523 16.2162 21.9939 16.2162C22.1718 16.2162 22.3171 16.1852 22.4301 16.1237C22.5427 16.0617 22.5989 15.9727 22.5989 15.8558C22.5989 15.6704 22.4755 15.5675 22.2286 15.547L21.7871 15.5112C21.2422 15.4667 20.9696 15.2263 20.9696 14.7905C20.9696 14.5432 21.0686 14.3486 21.2666 14.2059C21.4647 14.0637 21.7125 13.9922 22.0104 13.9922C22.4572 13.9922 22.7987 14.0899 23.0352 14.2858L22.6862 14.6204C22.5261 14.4934 22.2992 14.4297 22.0052 14.4297C21.8451 14.4297 21.7216 14.4607 21.6344 14.5222C21.5471 14.5842 21.5035 14.6644 21.5035 14.7643C21.5035 14.9428 21.6309 15.0422 21.8852 15.0632L22.321 15.0989C22.8694 15.1443 23.1438 15.3895 23.1438 15.8358Z" fill="black"/>
</g>
</g>
<mask id="mask10_525_33260" style="mask-type:luminance" maskUnits="userSpaceOnUse" x="0" y="0" width="25" height="19">
<path d="M24.6597 0H0V18.0889H24.6597V0Z" fill="white"/>
</mask>
<g mask="url(#mask10_525_33260)">
<mask id="mask11_525_33260" style="mask-type:luminance" maskUnits="userSpaceOnUse" x="6" y="0" width="7" height="8">
<path d="M10.6067 0.701211C10.6067 0.701211 10.4379 0.709064 10.2189 0.86524L9.26002 1.76129L7.82564 3.10885L6.83449 4.04939C6.83449 4.04939 6.40305 4.39053 6.40479 4.67758L6.41744 7.03941C6.41744 7.03592 6.41831 6.55562 7.43389 6.28296L8.877 5.80091L10.0775 5.41963L10.3563 5.32977C10.3563 5.32977 11.0033 5.12779 11.2764 4.73604C11.2764 4.73604 11.3968 4.54409 11.5804 4.07862L12.0437 2.85321L11.5839 1.71286C11.5839 1.71286 11.3265 0.693359 10.697 0.693359C10.6678 0.694232 10.6377 0.696413 10.6067 0.701211Z" fill="white"/>
</mask>
<g mask="url(#mask11_525_33260)">
<path d="M15.2157 2.54689L10.3965 9.37237L3.23242 5.18486L8.05163 -1.64062L15.2157 2.54689Z" fill="url(#paint0_linear_525_33260)"/>
</g>
</g>
<mask id="mask12_525_33260" style="mask-type:luminance" maskUnits="userSpaceOnUse" x="0" y="0" width="25" height="19">
<path d="M24.6597 0H0V18.0889H24.6597V0Z" fill="white"/>
</mask>
<g mask="url(#mask12_525_33260)">
<mask id="mask13_525_33260" style="mask-type:luminance" maskUnits="userSpaceOnUse" x="10" y="0" width="8" height="6">
<path d="M11.5529 1.63154L12.0708 2.949L12.48 4.04485L12.5764 4.29962C12.5764 4.29962 12.7932 4.88986 13.2203 5.14157C13.2203 5.14157 13.4297 5.25238 13.9375 5.42295L15.2759 5.85309L16.527 5.44214C16.527 5.44214 17.7455 5.18607 17.6421 4.55918C17.6421 4.55918 17.6587 4.41173 17.4654 4.20495L16.4908 3.32592L15.025 2.01064L14.0025 1.10194C14.0025 1.10194 13.6321 0.706707 13.3176 0.70627L10.7319 0.703216C10.7328 0.701908 11.2607 0.702344 11.5529 1.63154Z" fill="white"/>
</mask>
<g mask="url(#mask13_525_33260)">
<path d="M15.6544 8.79232L8.15576 4.32299L12.8249 -2.22461L20.324 2.24515L15.6544 8.79232Z" fill="url(#paint1_linear_525_33260)"/>
</g>
</g>
<mask id="mask14_525_33260" style="mask-type:luminance" maskUnits="userSpaceOnUse" x="0" y="0" width="25" height="19">
<path d="M24.6597 0H0V18.0889H24.6597V0Z" fill="white"/>
</mask>
<g mask="url(#mask14_525_33260)">
<mask id="mask15_525_33260" style="mask-type:luminance" maskUnits="userSpaceOnUse" x="6" y="5" width="8" height="6">
<path d="M7.54615 6.2384C7.54615 6.2384 6.32684 6.49186 6.42892 7.11918C6.42892 7.11918 6.41191 7.26663 6.60473 7.47385L7.57669 8.35506L9.03898 9.67339L10.0594 10.5843C10.0594 10.5843 10.4284 10.9804 10.7434 10.9813L13.329 10.9913C13.329 10.9913 12.8007 10.9891 12.5106 10.059L11.9963 8.7407L11.5897 7.64398L11.4942 7.38922C11.4942 7.38922 11.2791 6.79854 10.8525 6.54596C10.8525 6.54596 10.6431 6.43471 10.1357 6.26283L8.79861 5.83008L7.54615 6.2384Z" fill="white"/>
</mask>
<g mask="url(#mask15_525_33260)">
<path d="M8.42908 2.89258L15.9151 7.37805L11.2228 13.9235L3.73682 9.43799L8.42908 2.89258Z" fill="url(#paint2_linear_525_33260)"/>
</g>
</g>
<mask id="mask16_525_33260" style="mask-type:luminance" maskUnits="userSpaceOnUse" x="0" y="0" width="25" height="19">
<path d="M24.6597 0H0V18.0889H24.6597V0Z" fill="white"/>
</mask>
<g mask="url(#mask16_525_33260)">
<mask id="mask17_525_33260" style="mask-type:luminance" maskUnits="userSpaceOnUse" x="12" y="4" width="6" height="7">
<path d="M16.6336 5.38772L15.1936 5.86323L13.9957 6.23927L13.7173 6.32783C13.7173 6.32783 13.0721 6.52676 12.7977 6.91763C12.7977 6.91763 12.6769 7.10958 12.491 7.57418L12.0229 8.79829L12.4749 9.94125C12.4749 9.94125 12.7572 11.055 13.4429 10.959C13.4429 10.959 13.6043 10.9738 13.8303 10.7967L14.7905 9.90417L16.2266 8.56184L17.2191 7.62522C17.2191 7.62522 17.6505 7.28583 17.6505 6.99834V4.63477C17.6501 4.63564 17.6501 5.11856 16.6336 5.38772Z" fill="white"/>
</mask>
<g mask="url(#mask17_525_33260)">
<path d="M8.81689 9.15229L13.6933 2.28711L20.8586 6.54093L15.9818 13.4061L8.81689 9.15229Z" fill="url(#paint3_linear_525_33260)"/>
</g>
</g>
<defs>
<linearGradient id="paint0_linear_525_33260" x1="11.2375" y1="0.745586" x2="6.9037" y2="7.52352" gradientUnits="userSpaceOnUse">
<stop stop-color="#142C52"/>
<stop offset="0.7124" stop-color="#24B4E9"/>
<stop offset="1" stop-color="#24B4E9"/>
</linearGradient>
<linearGradient id="paint1_linear_525_33260" x1="17.4209" y1="5.35574" x2="10.4472" y2="0.808932" gradientUnits="userSpaceOnUse">
<stop stop-color="#DA1F27"/>
<stop offset="0.7124" stop-color="#FDCE0B"/>
<stop offset="1" stop-color="#FDCE0B"/>
</linearGradient>
<linearGradient id="paint2_linear_525_33260" x1="6.65126" y1="6.32525" x2="13.6147" y2="10.889" gradientUnits="userSpaceOnUse">
<stop stop-color="#DA1F27"/>
<stop offset="0.7124" stop-color="#FDCE0B"/>
<stop offset="1" stop-color="#FDCE0B"/>
</linearGradient>
<linearGradient id="paint3_linear_525_33260" x1="12.8399" y1="10.9193" x2="17.2188" y2="4.17621" gradientUnits="userSpaceOnUse">
<stop stop-color="#142C52"/>
<stop offset="0.7124" stop-color="#24B4E9"/>
<stop offset="1" stop-color="#24B4E9"/>
</linearGradient>
</defs>
</svg>
