<svg width="13" height="13" viewBox="0 0 13 13" fill="none" xmlns="http://www.w3.org/2000/svg">
<g clip-path="url(#clip0_6362_16251)">
<path d="M3.50767 7.51821L3.10882 9.00717L1.65104 9.038C1.21538 8.22995 0.968262 7.30542 0.968262 6.32296C0.968262 5.37293 1.19931 4.47703 1.60885 3.68817H1.60917L2.907 3.92611L3.47553 5.21616C3.35654 5.56306 3.29168 5.93546 3.29168 6.32296C3.29173 6.74352 3.36791 7.14646 3.50767 7.51821Z" fill="#FBBB00"/>
<path d="M12.3264 5.25275C12.3921 5.59932 12.4265 5.95723 12.4265 6.32303C12.4265 6.7332 12.3833 7.1333 12.3012 7.51924C12.0223 8.83254 11.2935 9.97931 10.284 10.7908L10.2837 10.7905L8.64901 10.7071L8.41765 9.26285C9.08752 8.87 9.61102 8.25521 9.88678 7.51924H6.82324V5.25275H12.3264Z" fill="#518EF8"/>
<path d="M10.2837 10.7904L10.284 10.7907C9.30216 11.5799 8.05495 12.0521 6.69727 12.0521C4.51546 12.0521 2.61855 10.8326 1.65088 9.03798L3.50751 7.51819C3.99133 8.80944 5.23696 9.72864 6.69727 9.72864C7.32495 9.72864 7.91299 9.55896 8.41758 9.26274L10.2837 10.7904Z" fill="#28B446"/>
<path d="M10.3544 1.91271L8.49837 3.43219C7.97614 3.10577 7.35882 2.9172 6.69746 2.9172C5.2041 2.9172 3.93517 3.87855 3.47559 5.21611L1.6092 3.68813H1.60889C2.56239 1.84976 4.48323 0.59375 6.69746 0.59375C8.08757 0.59375 9.36215 1.08892 10.3544 1.91271Z" fill="#F14336"/>
</g>
<defs>
<clipPath id="clip0_6362_16251">
<rect width="11.4583" height="11.4583" fill="white" transform="translate(0.96875 0.593811)"/>
</clipPath>
</defs>
</svg>
