<svg width="830" height="418" viewBox="0 0 830 418" fill="none" xmlns="http://www.w3.org/2000/svg">
<path d="M5.472 191.126C4.632 191.126 3.876 190.982 3.204 190.694C2.532 190.394 2.004 189.974 1.62 189.434C1.236 188.894 1.044 188.264 1.044 187.544H3.24C3.288 188.084 3.498 188.528 3.87 188.876C4.254 189.224 4.788 189.398 5.472 189.398C6.18 189.398 6.732 189.23 7.128 188.894C7.524 188.546 7.722 188.102 7.722 187.562C7.722 187.142 7.596 186.8 7.344 186.536C7.104 186.272 6.798 186.068 6.426 185.924C6.066 185.78 5.562 185.624 4.914 185.456C4.098 185.24 3.432 185.024 2.916 184.808C2.412 184.58 1.98 184.232 1.62 183.764C1.26 183.296 1.08 182.672 1.08 181.892C1.08 181.172 1.26 180.542 1.62 180.002C1.98 179.462 2.484 179.048 3.132 178.76C3.78 178.472 4.53 178.328 5.382 178.328C6.594 178.328 7.584 178.634 8.352 179.246C9.132 179.846 9.564 180.674 9.648 181.73H7.38C7.344 181.274 7.128 180.884 6.732 180.56C6.336 180.236 5.814 180.074 5.166 180.074C4.578 180.074 4.098 180.224 3.726 180.524C3.354 180.824 3.168 181.256 3.168 181.82C3.168 182.204 3.282 182.522 3.51 182.774C3.75 183.014 4.05 183.206 4.41 183.35C4.77 183.494 5.262 183.65 5.886 183.818C6.714 184.046 7.386 184.274 7.902 184.502C8.43 184.73 8.874 185.084 9.234 185.564C9.606 186.032 9.792 186.662 9.792 187.454C9.792 188.09 9.618 188.69 9.27 189.254C8.934 189.818 8.436 190.274 7.776 190.622C7.128 190.958 6.36 191.126 5.472 191.126ZM14.2653 180.146V183.818H18.5853V185.492H14.2653V189.326H19.1253V191H12.2133V178.472H19.1253V180.146H14.2653ZM27.3587 191.126C26.1947 191.126 25.1207 190.856 24.1367 190.316C23.1647 189.764 22.3907 189.002 21.8147 188.03C21.2507 187.046 20.9687 185.942 20.9687 184.718C20.9687 183.494 21.2507 182.396 21.8147 181.424C22.3907 180.452 23.1647 179.696 24.1367 179.156C25.1207 178.604 26.1947 178.328 27.3587 178.328C28.5347 178.328 29.6087 178.604 30.5807 179.156C31.5647 179.696 32.3387 180.452 32.9027 181.424C33.4667 182.396 33.7487 183.494 33.7487 184.718C33.7487 185.942 33.4667 187.046 32.9027 188.03C32.3387 189.002 31.5647 189.764 30.5807 190.316C29.6087 190.856 28.5347 191.126 27.3587 191.126ZM27.3587 189.344C28.1867 189.344 28.9247 189.158 29.5727 188.786C30.2207 188.402 30.7247 187.862 31.0847 187.166C31.4567 186.458 31.6427 185.642 31.6427 184.718C31.6427 183.794 31.4567 182.984 31.0847 182.288C30.7247 181.592 30.2207 181.058 29.5727 180.686C28.9247 180.314 28.1867 180.128 27.3587 180.128C26.5307 180.128 25.7927 180.314 25.1447 180.686C24.4967 181.058 23.9867 181.592 23.6147 182.288C23.2547 182.984 23.0747 183.794 23.0747 184.718C23.0747 185.642 23.2547 186.458 23.6147 187.166C23.9867 187.862 24.4967 188.402 25.1447 188.786C25.7927 189.158 26.5307 189.344 27.3587 189.344ZM49.1918 182.216C49.1918 182.852 49.0418 183.452 48.7418 184.016C48.4418 184.58 47.9618 185.042 47.3018 185.402C46.6418 185.75 45.7958 185.924 44.7638 185.924H42.4958V191H40.4438V178.49H44.7638C45.7238 178.49 46.5338 178.658 47.1938 178.994C47.8658 179.318 48.3638 179.762 48.6878 180.326C49.0238 180.89 49.1918 181.52 49.1918 182.216ZM44.7638 184.25C45.5438 184.25 46.1258 184.076 46.5098 183.728C46.8938 183.368 47.0858 182.864 47.0858 182.216C47.0858 180.848 46.3118 180.164 44.7638 180.164H42.4958V184.25H44.7638ZM57.6468 191L54.7668 185.996H53.2008V191H51.1488V178.49H55.4688C56.4288 178.49 57.2388 178.658 57.8988 178.994C58.5708 179.33 59.0688 179.78 59.3928 180.344C59.7288 180.908 59.8968 181.538 59.8968 182.234C59.8968 183.05 59.6568 183.794 59.1768 184.466C58.7088 185.126 57.9828 185.576 56.9988 185.816L60.0948 191H57.6468ZM53.2008 184.358H55.4688C56.2368 184.358 56.8128 184.166 57.1968 183.782C57.5928 183.398 57.7908 182.882 57.7908 182.234C57.7908 181.586 57.5988 181.082 57.2148 180.722C56.8308 180.35 56.2488 180.164 55.4688 180.164H53.2008V184.358ZM68.2279 191.126C67.0639 191.126 65.9899 190.856 65.0059 190.316C64.0339 189.764 63.2599 189.002 62.6839 188.03C62.1199 187.046 61.8379 185.942 61.8379 184.718C61.8379 183.494 62.1199 182.396 62.6839 181.424C63.2599 180.452 64.0339 179.696 65.0059 179.156C65.9899 178.604 67.0639 178.328 68.2279 178.328C69.4039 178.328 70.4779 178.604 71.4499 179.156C72.4339 179.696 73.2079 180.452 73.7719 181.424C74.3359 182.396 74.6179 183.494 74.6179 184.718C74.6179 185.942 74.3359 187.046 73.7719 188.03C73.2079 189.002 72.4339 189.764 71.4499 190.316C70.4779 190.856 69.4039 191.126 68.2279 191.126ZM68.2279 189.344C69.0559 189.344 69.7939 189.158 70.4419 188.786C71.0899 188.402 71.5939 187.862 71.9539 187.166C72.3259 186.458 72.5119 185.642 72.5119 184.718C72.5119 183.794 72.3259 182.984 71.9539 182.288C71.5939 181.592 71.0899 181.058 70.4419 180.686C69.7939 180.314 69.0559 180.128 68.2279 180.128C67.3999 180.128 66.6619 180.314 66.0139 180.686C65.3659 181.058 64.8559 181.592 64.4839 182.288C64.1239 182.984 63.9439 183.794 63.9439 184.718C63.9439 185.642 64.1239 186.458 64.4839 187.166C64.8559 187.862 65.3659 188.402 66.0139 188.786C66.6619 189.158 67.3999 189.344 68.2279 189.344ZM83.9991 178.49V180.164H78.6891V183.854H82.8291V185.528H78.6891V191H76.6371V178.49H83.9991ZM87.9528 180.146V183.818H92.2728V185.492H87.9528V189.326H92.8128V191H85.9008V178.472H92.8128V180.146H87.9528ZM99.4622 191.126C98.6222 191.126 97.8662 190.982 97.1942 190.694C96.5222 190.394 95.9942 189.974 95.6102 189.434C95.2262 188.894 95.0342 188.264 95.0342 187.544H97.2302C97.2782 188.084 97.4882 188.528 97.8602 188.876C98.2442 189.224 98.7782 189.398 99.4622 189.398C100.17 189.398 100.722 189.23 101.118 188.894C101.514 188.546 101.712 188.102 101.712 187.562C101.712 187.142 101.586 186.8 101.334 186.536C101.094 186.272 100.788 186.068 100.416 185.924C100.056 185.78 99.5522 185.624 98.9042 185.456C98.0882 185.24 97.4222 185.024 96.9062 184.808C96.4022 184.58 95.9702 184.232 95.6102 183.764C95.2502 183.296 95.0702 182.672 95.0702 181.892C95.0702 181.172 95.2502 180.542 95.6102 180.002C95.9702 179.462 96.4742 179.048 97.1222 178.76C97.7702 178.472 98.5202 178.328 99.3722 178.328C100.584 178.328 101.574 178.634 102.342 179.246C103.122 179.846 103.554 180.674 103.638 181.73H101.37C101.334 181.274 101.118 180.884 100.722 180.56C100.326 180.236 99.8042 180.074 99.1562 180.074C98.5682 180.074 98.0882 180.224 97.7162 180.524C97.3442 180.824 97.1582 181.256 97.1582 181.82C97.1582 182.204 97.2722 182.522 97.5002 182.774C97.7402 183.014 98.0402 183.206 98.4002 183.35C98.7602 183.494 99.2522 183.65 99.8762 183.818C100.704 184.046 101.376 184.274 101.892 184.502C102.42 184.73 102.864 185.084 103.224 185.564C103.596 186.032 103.782 186.662 103.782 187.454C103.782 188.09 103.608 188.69 103.26 189.254C102.924 189.818 102.426 190.274 101.766 190.622C101.118 190.958 100.35 191.126 99.4622 191.126ZM110.326 191.126C109.486 191.126 108.73 190.982 108.058 190.694C107.386 190.394 106.858 189.974 106.474 189.434C106.09 188.894 105.898 188.264 105.898 187.544H108.094C108.142 188.084 108.352 188.528 108.724 188.876C109.108 189.224 109.642 189.398 110.326 189.398C111.034 189.398 111.586 189.23 111.982 188.894C112.378 188.546 112.576 188.102 112.576 187.562C112.576 187.142 112.45 186.8 112.198 186.536C111.958 186.272 111.652 186.068 111.28 185.924C110.92 185.78 110.416 185.624 109.768 185.456C108.952 185.24 108.286 185.024 107.77 184.808C107.266 184.58 106.834 184.232 106.474 183.764C106.114 183.296 105.934 182.672 105.934 181.892C105.934 181.172 106.114 180.542 106.474 180.002C106.834 179.462 107.338 179.048 107.986 178.76C108.634 178.472 109.384 178.328 110.236 178.328C111.448 178.328 112.438 178.634 113.206 179.246C113.986 179.846 114.418 180.674 114.502 181.73H112.234C112.198 181.274 111.982 180.884 111.586 180.56C111.19 180.236 110.668 180.074 110.02 180.074C109.432 180.074 108.952 180.224 108.58 180.524C108.208 180.824 108.022 181.256 108.022 181.82C108.022 182.204 108.136 182.522 108.364 182.774C108.604 183.014 108.904 183.206 109.264 183.35C109.624 183.494 110.116 183.65 110.74 183.818C111.568 184.046 112.24 184.274 112.756 184.502C113.284 184.73 113.728 185.084 114.088 185.564C114.46 186.032 114.646 186.662 114.646 187.454C114.646 188.09 114.472 188.69 114.124 189.254C113.788 189.818 113.29 190.274 112.63 190.622C111.982 190.958 111.214 191.126 110.326 191.126ZM119.119 178.49V191H117.067V178.49H119.119ZM127.519 191.126C126.355 191.126 125.281 190.856 124.297 190.316C123.325 189.764 122.551 189.002 121.975 188.03C121.411 187.046 121.129 185.942 121.129 184.718C121.129 183.494 121.411 182.396 121.975 181.424C122.551 180.452 123.325 179.696 124.297 179.156C125.281 178.604 126.355 178.328 127.519 178.328C128.695 178.328 129.769 178.604 130.741 179.156C131.725 179.696 132.499 180.452 133.063 181.424C133.627 182.396 133.909 183.494 133.909 184.718C133.909 185.942 133.627 187.046 133.063 188.03C132.499 189.002 131.725 189.764 130.741 190.316C129.769 190.856 128.695 191.126 127.519 191.126ZM127.519 189.344C128.347 189.344 129.085 189.158 129.733 188.786C130.381 188.402 130.885 187.862 131.245 187.166C131.617 186.458 131.803 185.642 131.803 184.718C131.803 183.794 131.617 182.984 131.245 182.288C130.885 181.592 130.381 181.058 129.733 180.686C129.085 180.314 128.347 180.128 127.519 180.128C126.691 180.128 125.953 180.314 125.305 180.686C124.657 181.058 124.147 181.592 123.775 182.288C123.415 182.984 123.235 183.794 123.235 184.718C123.235 185.642 123.415 186.458 123.775 187.166C124.147 187.862 124.657 188.402 125.305 188.786C125.953 189.158 126.691 189.344 127.519 189.344ZM146.206 191H144.154L137.98 181.658V191H135.928V178.472H137.98L144.154 187.796V178.472H146.206V191ZM156.443 188.444H151.205L150.305 191H148.163L152.645 178.472H155.021L159.503 191H157.343L156.443 188.444ZM155.867 186.77L153.833 180.956L151.781 186.77H155.867ZM163.504 189.344H167.734V191H161.452V178.49H163.504V189.344ZM173.572 191.126C172.732 191.126 171.976 190.982 171.304 190.694C170.632 190.394 170.104 189.974 169.72 189.434C169.336 188.894 169.144 188.264 169.144 187.544H171.34C171.388 188.084 171.598 188.528 171.97 188.876C172.354 189.224 172.888 189.398 173.572 189.398C174.28 189.398 174.832 189.23 175.228 188.894C175.624 188.546 175.822 188.102 175.822 187.562C175.822 187.142 175.696 186.8 175.444 186.536C175.204 186.272 174.898 186.068 174.526 185.924C174.166 185.78 173.662 185.624 173.014 185.456C172.198 185.24 171.532 185.024 171.016 184.808C170.512 184.58 170.08 184.232 169.72 183.764C169.36 183.296 169.18 182.672 169.18 181.892C169.18 181.172 169.36 180.542 169.72 180.002C170.08 179.462 170.584 179.048 171.232 178.76C171.88 178.472 172.63 178.328 173.482 178.328C174.694 178.328 175.684 178.634 176.452 179.246C177.232 179.846 177.664 180.674 177.748 181.73H175.48C175.444 181.274 175.228 180.884 174.832 180.56C174.436 180.236 173.914 180.074 173.266 180.074C172.678 180.074 172.198 180.224 171.826 180.524C171.454 180.824 171.268 181.256 171.268 181.82C171.268 182.204 171.382 182.522 171.61 182.774C171.85 183.014 172.15 183.206 172.51 183.35C172.87 183.494 173.362 183.65 173.986 183.818C174.814 184.046 175.486 184.274 176.002 184.502C176.53 184.73 176.974 185.084 177.334 185.564C177.706 186.032 177.892 186.662 177.892 187.454C177.892 188.09 177.718 188.69 177.37 189.254C177.034 189.818 176.536 190.274 175.876 190.622C175.228 190.958 174.46 191.126 173.572 191.126Z" fill="black"/>
<path d="M76.892 17.444H71.654L70.754 20H68.612L73.094 7.472H75.47L79.952 20H77.792L76.892 17.444ZM76.316 15.77L74.282 9.956L72.23 15.77H76.316ZM85.9868 7.49C87.3188 7.49 88.4828 7.748 89.4788 8.264C90.4868 8.768 91.2608 9.5 91.8008 10.46C92.3528 11.408 92.6288 12.518 92.6288 13.79C92.6288 15.062 92.3528 16.166 91.8008 17.102C91.2608 18.038 90.4868 18.758 89.4788 19.262C88.4828 19.754 87.3188 20 85.9868 20H81.9008V7.49H85.9868ZM85.9868 18.326C87.4508 18.326 88.5728 17.93 89.3528 17.138C90.1328 16.346 90.5228 15.23 90.5228 13.79C90.5228 12.338 90.1328 11.204 89.3528 10.388C88.5728 9.572 87.4508 9.164 85.9868 9.164H83.9528V18.326H85.9868ZM98.7845 20.126C97.9445 20.126 97.1885 19.982 96.5165 19.694C95.8445 19.394 95.3165 18.974 94.9325 18.434C94.5485 17.894 94.3565 17.264 94.3565 16.544H96.5525C96.6005 17.084 96.8105 17.528 97.1825 17.876C97.5665 18.224 98.1005 18.398 98.7845 18.398C99.4925 18.398 100.045 18.23 100.441 17.894C100.837 17.546 101.035 17.102 101.035 16.562C101.035 16.142 100.909 15.8 100.657 15.536C100.417 15.272 100.111 15.068 99.7385 14.924C99.3785 14.78 98.8745 14.624 98.2265 14.456C97.4105 14.24 96.7445 14.024 96.2285 13.808C95.7245 13.58 95.2925 13.232 94.9325 12.764C94.5725 12.296 94.3925 11.672 94.3925 10.892C94.3925 10.172 94.5725 9.542 94.9325 9.002C95.2925 8.462 95.7965 8.048 96.4445 7.76C97.0925 7.472 97.8425 7.328 98.6945 7.328C99.9065 7.328 100.897 7.634 101.665 8.246C102.445 8.846 102.877 9.674 102.961 10.73H100.693C100.657 10.274 100.441 9.884 100.045 9.56C99.6485 9.236 99.1265 9.074 98.4785 9.074C97.8905 9.074 97.4105 9.224 97.0385 9.524C96.6665 9.824 96.4805 10.256 96.4805 10.82C96.4805 11.204 96.5945 11.522 96.8225 11.774C97.0625 12.014 97.3625 12.206 97.7225 12.35C98.0825 12.494 98.5745 12.65 99.1985 12.818C100.027 13.046 100.699 13.274 101.215 13.502C101.743 13.73 102.187 14.084 102.547 14.564C102.919 15.032 103.105 15.662 103.105 16.454C103.105 17.09 102.931 17.69 102.583 18.254C102.247 18.818 101.749 19.274 101.089 19.622C100.441 19.958 99.6725 20.126 98.7845 20.126ZM114.324 20.126C113.484 20.126 112.728 19.982 112.056 19.694C111.384 19.394 110.856 18.974 110.472 18.434C110.088 17.894 109.896 17.264 109.896 16.544H112.092C112.14 17.084 112.35 17.528 112.722 17.876C113.106 18.224 113.64 18.398 114.324 18.398C115.032 18.398 115.584 18.23 115.98 17.894C116.376 17.546 116.574 17.102 116.574 16.562C116.574 16.142 116.448 15.8 116.196 15.536C115.956 15.272 115.65 15.068 115.278 14.924C114.918 14.78 114.414 14.624 113.766 14.456C112.95 14.24 112.284 14.024 111.768 13.808C111.264 13.58 110.832 13.232 110.472 12.764C110.112 12.296 109.932 11.672 109.932 10.892C109.932 10.172 110.112 9.542 110.472 9.002C110.832 8.462 111.336 8.048 111.984 7.76C112.632 7.472 113.382 7.328 114.234 7.328C115.446 7.328 116.436 7.634 117.204 8.246C117.984 8.846 118.416 9.674 118.5 10.73H116.232C116.196 10.274 115.98 9.884 115.584 9.56C115.188 9.236 114.666 9.074 114.018 9.074C113.43 9.074 112.95 9.224 112.578 9.524C112.206 9.824 112.02 10.256 112.02 10.82C112.02 11.204 112.134 11.522 112.362 11.774C112.602 12.014 112.902 12.206 113.262 12.35C113.622 12.494 114.114 12.65 114.738 12.818C115.566 13.046 116.238 13.274 116.754 13.502C117.282 13.73 117.726 14.084 118.086 14.564C118.458 15.032 118.644 15.662 118.644 16.454C118.644 17.09 118.47 17.69 118.122 18.254C117.786 18.818 117.288 19.274 116.628 19.622C115.98 19.958 115.212 20.126 114.324 20.126ZM129.813 11.216C129.813 11.852 129.663 12.452 129.363 13.016C129.063 13.58 128.583 14.042 127.923 14.402C127.263 14.75 126.417 14.924 125.385 14.924H123.117V20H121.065V7.49H125.385C126.345 7.49 127.155 7.658 127.815 7.994C128.487 8.318 128.985 8.762 129.309 9.326C129.645 9.89 129.813 10.52 129.813 11.216ZM125.385 13.25C126.165 13.25 126.747 13.076 127.131 12.728C127.515 12.368 127.707 11.864 127.707 11.216C127.707 9.848 126.933 9.164 125.385 9.164H123.117V13.25H125.385ZM133.822 9.146V12.818H138.142V14.492H133.822V18.326H138.682V20H131.77V7.472H138.682V9.146H133.822ZM140.525 13.718C140.525 12.494 140.807 11.396 141.371 10.424C141.947 9.452 142.721 8.696 143.693 8.156C144.677 7.604 145.751 7.328 146.915 7.328C148.247 7.328 149.429 7.658 150.461 8.318C151.505 8.966 152.261 9.89 152.729 11.09H150.263C149.939 10.43 149.489 9.938 148.913 9.614C148.337 9.29 147.671 9.128 146.915 9.128C146.087 9.128 145.349 9.314 144.701 9.686C144.053 10.058 143.543 10.592 143.171 11.288C142.811 11.984 142.631 12.794 142.631 13.718C142.631 14.642 142.811 15.452 143.171 16.148C143.543 16.844 144.053 17.384 144.701 17.768C145.349 18.14 146.087 18.326 146.915 18.326C147.671 18.326 148.337 18.164 148.913 17.84C149.489 17.516 149.939 17.024 150.263 16.364H152.729C152.261 17.564 151.505 18.488 150.461 19.136C149.429 19.784 148.247 20.108 146.915 20.108C145.739 20.108 144.665 19.838 143.693 19.298C142.721 18.746 141.947 17.984 141.371 17.012C140.807 16.04 140.525 14.942 140.525 13.718ZM157.183 7.49V20H155.131V7.49H157.183ZM167.419 17.444H162.181L161.281 20H159.139L163.621 7.472H165.997L170.479 20H168.319L167.419 17.444ZM166.843 15.77L164.809 9.956L162.757 15.77H166.843ZM174.48 18.344H178.71V20H172.428V7.49H174.48V18.344ZM182.478 7.49V20H180.426V7.49H182.478ZM189.294 20.126C188.454 20.126 187.698 19.982 187.026 19.694C186.354 19.394 185.826 18.974 185.442 18.434C185.058 17.894 184.866 17.264 184.866 16.544H187.062C187.11 17.084 187.32 17.528 187.692 17.876C188.076 18.224 188.61 18.398 189.294 18.398C190.002 18.398 190.554 18.23 190.95 17.894C191.346 17.546 191.544 17.102 191.544 16.562C191.544 16.142 191.418 15.8 191.166 15.536C190.926 15.272 190.62 15.068 190.248 14.924C189.888 14.78 189.384 14.624 188.736 14.456C187.92 14.24 187.254 14.024 186.738 13.808C186.234 13.58 185.802 13.232 185.442 12.764C185.082 12.296 184.902 11.672 184.902 10.892C184.902 10.172 185.082 9.542 185.442 9.002C185.802 8.462 186.306 8.048 186.954 7.76C187.602 7.472 188.352 7.328 189.204 7.328C190.416 7.328 191.406 7.634 192.174 8.246C192.954 8.846 193.386 9.674 193.47 10.73H191.202C191.166 10.274 190.95 9.884 190.554 9.56C190.158 9.236 189.636 9.074 188.988 9.074C188.4 9.074 187.92 9.224 187.548 9.524C187.176 9.824 186.99 10.256 186.99 10.82C186.99 11.204 187.104 11.522 187.332 11.774C187.572 12.014 187.872 12.206 188.232 12.35C188.592 12.494 189.084 12.65 189.708 12.818C190.536 13.046 191.208 13.274 191.724 13.502C192.252 13.73 192.696 14.084 193.056 14.564C193.428 15.032 193.614 15.662 193.614 16.454C193.614 17.09 193.44 17.69 193.092 18.254C192.756 18.818 192.258 19.274 191.598 19.622C190.95 19.958 190.182 20.126 189.294 20.126ZM204.118 7.49V9.164H200.788V20H198.736V9.164H195.388V7.49H204.118Z" fill="black"/>
<path d="M193.132 369.49L188.434 382H186.058L181.342 369.49H183.538L187.246 379.894L190.972 369.49H193.132ZM196.9 369.49V382H194.848V369.49H196.9ZM203.68 369.49C205.012 369.49 206.176 369.748 207.172 370.264C208.18 370.768 208.954 371.5 209.494 372.46C210.046 373.408 210.322 374.518 210.322 375.79C210.322 377.062 210.046 378.166 209.494 379.102C208.954 380.038 208.18 380.758 207.172 381.262C206.176 381.754 205.012 382 203.68 382H199.594V369.49H203.68ZM203.68 380.326C205.144 380.326 206.266 379.93 207.046 379.138C207.826 378.346 208.216 377.23 208.216 375.79C208.216 374.338 207.826 373.204 207.046 372.388C206.266 371.572 205.144 371.164 203.68 371.164H201.646V380.326H203.68ZM214.408 371.146V374.818H218.728V376.492H214.408V380.326H219.268V382H212.356V369.472H219.268V371.146H214.408ZM227.501 382.126C226.337 382.126 225.263 381.856 224.279 381.316C223.307 380.764 222.533 380.002 221.957 379.03C221.393 378.046 221.111 376.942 221.111 375.718C221.111 374.494 221.393 373.396 221.957 372.424C222.533 371.452 223.307 370.696 224.279 370.156C225.263 369.604 226.337 369.328 227.501 369.328C228.677 369.328 229.751 369.604 230.723 370.156C231.707 370.696 232.481 371.452 233.045 372.424C233.609 373.396 233.891 374.494 233.891 375.718C233.891 376.942 233.609 378.046 233.045 379.03C232.481 380.002 231.707 380.764 230.723 381.316C229.751 381.856 228.677 382.126 227.501 382.126ZM227.501 380.344C228.329 380.344 229.067 380.158 229.715 379.786C230.363 379.402 230.867 378.862 231.227 378.166C231.599 377.458 231.785 376.642 231.785 375.718C231.785 374.794 231.599 373.984 231.227 373.288C230.867 372.592 230.363 372.058 229.715 371.686C229.067 371.314 228.329 371.128 227.501 371.128C226.673 371.128 225.935 371.314 225.287 371.686C224.639 372.058 224.129 372.592 223.757 373.288C223.397 373.984 223.217 374.794 223.217 375.718C223.217 376.642 223.397 377.458 223.757 378.166C224.129 378.862 224.639 379.402 225.287 379.786C225.935 380.158 226.673 380.344 227.501 380.344ZM242.638 371.146V374.818H246.958V376.492H242.638V380.326H247.498V382H240.586V369.472H247.498V371.146H242.638ZM254.112 369.49C255.444 369.49 256.608 369.748 257.604 370.264C258.612 370.768 259.386 371.5 259.926 372.46C260.478 373.408 260.754 374.518 260.754 375.79C260.754 377.062 260.478 378.166 259.926 379.102C259.386 380.038 258.612 380.758 257.604 381.262C256.608 381.754 255.444 382 254.112 382H250.026V369.49H254.112ZM254.112 380.326C255.576 380.326 256.698 379.93 257.478 379.138C258.258 378.346 258.648 377.23 258.648 375.79C258.648 374.338 258.258 373.204 257.478 372.388C256.698 371.572 255.576 371.164 254.112 371.164H252.078V380.326H254.112ZM264.84 369.49V382H262.788V369.49H264.84ZM275.616 369.49V371.164H272.286V382H270.234V371.164H266.886V369.49H275.616ZM283.4 382.126C282.236 382.126 281.162 381.856 280.178 381.316C279.206 380.764 278.432 380.002 277.856 379.03C277.292 378.046 277.01 376.942 277.01 375.718C277.01 374.494 277.292 373.396 277.856 372.424C278.432 371.452 279.206 370.696 280.178 370.156C281.162 369.604 282.236 369.328 283.4 369.328C284.576 369.328 285.65 369.604 286.622 370.156C287.606 370.696 288.38 371.452 288.944 372.424C289.508 373.396 289.79 374.494 289.79 375.718C289.79 376.942 289.508 378.046 288.944 379.03C288.38 380.002 287.606 380.764 286.622 381.316C285.65 381.856 284.576 382.126 283.4 382.126ZM283.4 380.344C284.228 380.344 284.966 380.158 285.614 379.786C286.262 379.402 286.766 378.862 287.126 378.166C287.498 377.458 287.684 376.642 287.684 375.718C287.684 374.794 287.498 373.984 287.126 373.288C286.766 372.592 286.262 372.058 285.614 371.686C284.966 371.314 284.228 371.128 283.4 371.128C282.572 371.128 281.834 371.314 281.186 371.686C280.538 372.058 280.028 372.592 279.656 373.288C279.296 373.984 279.116 374.794 279.116 375.718C279.116 376.642 279.296 377.458 279.656 378.166C280.028 378.862 280.538 379.402 281.186 379.786C281.834 380.158 282.572 380.344 283.4 380.344ZM298.307 382L295.427 376.996H293.861V382H291.809V369.49H296.129C297.089 369.49 297.899 369.658 298.559 369.994C299.231 370.33 299.729 370.78 300.053 371.344C300.389 371.908 300.557 372.538 300.557 373.234C300.557 374.05 300.317 374.794 299.837 375.466C299.369 376.126 298.643 376.576 297.659 376.816L300.755 382H298.307ZM293.861 375.358H296.129C296.897 375.358 297.473 375.166 297.857 374.782C298.253 374.398 298.451 373.882 298.451 373.234C298.451 372.586 298.259 372.082 297.875 371.722C297.491 371.35 296.909 371.164 296.129 371.164H293.861V375.358ZM307.304 382.126C306.464 382.126 305.708 381.982 305.036 381.694C304.364 381.394 303.836 380.974 303.452 380.434C303.068 379.894 302.876 379.264 302.876 378.544H305.072C305.12 379.084 305.33 379.528 305.702 379.876C306.086 380.224 306.62 380.398 307.304 380.398C308.012 380.398 308.564 380.23 308.96 379.894C309.356 379.546 309.554 379.102 309.554 378.562C309.554 378.142 309.428 377.8 309.176 377.536C308.936 377.272 308.63 377.068 308.258 376.924C307.898 376.78 307.394 376.624 306.746 376.456C305.93 376.24 305.264 376.024 304.748 375.808C304.244 375.58 303.812 375.232 303.452 374.764C303.092 374.296 302.912 373.672 302.912 372.892C302.912 372.172 303.092 371.542 303.452 371.002C303.812 370.462 304.316 370.048 304.964 369.76C305.612 369.472 306.362 369.328 307.214 369.328C308.426 369.328 309.416 369.634 310.184 370.246C310.964 370.846 311.396 371.674 311.48 372.73H309.212C309.176 372.274 308.96 371.884 308.564 371.56C308.168 371.236 307.646 371.074 306.998 371.074C306.41 371.074 305.93 371.224 305.558 371.524C305.186 371.824 305 372.256 305 372.82C305 373.204 305.114 373.522 305.342 373.774C305.582 374.014 305.882 374.206 306.242 374.35C306.602 374.494 307.094 374.65 307.718 374.818C308.546 375.046 309.218 375.274 309.734 375.502C310.262 375.73 310.706 376.084 311.066 376.564C311.438 377.032 311.624 377.662 311.624 378.454C311.624 379.09 311.45 379.69 311.102 380.254C310.766 380.818 310.268 381.274 309.608 381.622C308.96 381.958 308.192 382.126 307.304 382.126Z" fill="black"/>
<path d="M472.404 373.09C472.08 372.466 471.63 371.998 471.054 371.686C470.478 371.362 469.812 371.2 469.056 371.2C468.228 371.2 467.49 371.386 466.842 371.758C466.194 372.13 465.684 372.658 465.312 373.342C464.952 374.026 464.772 374.818 464.772 375.718C464.772 376.618 464.952 377.416 465.312 378.112C465.684 378.796 466.194 379.324 466.842 379.696C467.49 380.068 468.228 380.254 469.056 380.254C470.172 380.254 471.078 379.942 471.774 379.318C472.47 378.694 472.896 377.848 473.052 376.78H468.354V375.142H475.248V376.744C475.116 377.716 474.768 378.61 474.204 379.426C473.652 380.242 472.926 380.896 472.026 381.388C471.138 381.868 470.148 382.108 469.056 382.108C467.88 382.108 466.806 381.838 465.834 381.298C464.862 380.746 464.088 379.984 463.512 379.012C462.948 378.04 462.666 376.942 462.666 375.718C462.666 374.494 462.948 373.396 463.512 372.424C464.088 371.452 464.862 370.696 465.834 370.156C466.818 369.604 467.892 369.328 469.056 369.328C470.388 369.328 471.57 369.658 472.602 370.318C473.646 370.966 474.402 371.89 474.87 373.09H472.404ZM483.77 382L480.89 376.996H479.324V382H477.272V369.49H481.592C482.552 369.49 483.362 369.658 484.022 369.994C484.694 370.33 485.192 370.78 485.516 371.344C485.852 371.908 486.02 372.538 486.02 373.234C486.02 374.05 485.78 374.794 485.3 375.466C484.832 376.126 484.106 376.576 483.122 376.816L486.218 382H483.77ZM479.324 375.358H481.592C482.36 375.358 482.936 375.166 483.32 374.782C483.716 374.398 483.914 373.882 483.914 373.234C483.914 372.586 483.722 372.082 483.338 371.722C482.954 371.35 482.372 371.164 481.592 371.164H479.324V375.358ZM496.187 379.444H490.949L490.049 382H487.907L492.389 369.472H494.765L499.247 382H497.087L496.187 379.444ZM495.611 377.77L493.577 371.956L491.525 377.77H495.611ZM509.944 373.216C509.944 373.852 509.794 374.452 509.494 375.016C509.194 375.58 508.714 376.042 508.054 376.402C507.394 376.75 506.548 376.924 505.516 376.924H503.248V382H501.196V369.49H505.516C506.476 369.49 507.286 369.658 507.946 369.994C508.618 370.318 509.116 370.762 509.44 371.326C509.776 371.89 509.944 372.52 509.944 373.216ZM505.516 375.25C506.296 375.25 506.878 375.076 507.262 374.728C507.646 374.368 507.838 373.864 507.838 373.216C507.838 371.848 507.064 371.164 505.516 371.164H503.248V375.25H505.516ZM521.891 369.49V382H519.839V376.528H513.953V382H511.901V369.49H513.953V374.854H519.839V369.49H521.891ZM526.644 369.49V382H524.592V369.49H526.644ZM528.654 375.718C528.654 374.494 528.936 373.396 529.5 372.424C530.076 371.452 530.85 370.696 531.822 370.156C532.806 369.604 533.88 369.328 535.044 369.328C536.376 369.328 537.558 369.658 538.59 370.318C539.634 370.966 540.39 371.89 540.858 373.09H538.392C538.068 372.43 537.618 371.938 537.042 371.614C536.466 371.29 535.8 371.128 535.044 371.128C534.216 371.128 533.478 371.314 532.83 371.686C532.182 372.058 531.672 372.592 531.3 373.288C530.94 373.984 530.76 374.794 530.76 375.718C530.76 376.642 530.94 377.452 531.3 378.148C531.672 378.844 532.182 379.384 532.83 379.768C533.478 380.14 534.216 380.326 535.044 380.326C535.8 380.326 536.466 380.164 537.042 379.84C537.618 379.516 538.068 379.024 538.392 378.364H540.858C540.39 379.564 539.634 380.488 538.59 381.136C537.558 381.784 536.376 382.108 535.044 382.108C533.868 382.108 532.794 381.838 531.822 381.298C530.85 380.746 530.076 379.984 529.5 379.012C528.936 378.04 528.654 376.942 528.654 375.718ZM552.022 369.49C553.354 369.49 554.518 369.748 555.514 370.264C556.522 370.768 557.296 371.5 557.836 372.46C558.388 373.408 558.664 374.518 558.664 375.79C558.664 377.062 558.388 378.166 557.836 379.102C557.296 380.038 556.522 380.758 555.514 381.262C554.518 381.754 553.354 382 552.022 382H547.936V369.49H552.022ZM552.022 380.326C553.486 380.326 554.608 379.93 555.388 379.138C556.168 378.346 556.558 377.23 556.558 375.79C556.558 374.338 556.168 373.204 555.388 372.388C554.608 371.572 553.486 371.164 552.022 371.164H549.988V380.326H552.022ZM562.75 371.146V374.818H567.07V376.492H562.75V380.326H567.61V382H560.698V369.472H567.61V371.146H562.75ZM574.259 382.126C573.419 382.126 572.663 381.982 571.991 381.694C571.319 381.394 570.791 380.974 570.407 380.434C570.023 379.894 569.831 379.264 569.831 378.544H572.027C572.075 379.084 572.285 379.528 572.657 379.876C573.041 380.224 573.575 380.398 574.259 380.398C574.967 380.398 575.519 380.23 575.915 379.894C576.311 379.546 576.509 379.102 576.509 378.562C576.509 378.142 576.383 377.8 576.131 377.536C575.891 377.272 575.585 377.068 575.213 376.924C574.853 376.78 574.349 376.624 573.701 376.456C572.885 376.24 572.219 376.024 571.703 375.808C571.199 375.58 570.767 375.232 570.407 374.764C570.047 374.296 569.867 373.672 569.867 372.892C569.867 372.172 570.047 371.542 570.407 371.002C570.767 370.462 571.271 370.048 571.919 369.76C572.567 369.472 573.317 369.328 574.169 369.328C575.381 369.328 576.371 369.634 577.139 370.246C577.919 370.846 578.351 371.674 578.435 372.73H576.167C576.131 372.274 575.915 371.884 575.519 371.56C575.123 371.236 574.601 371.074 573.953 371.074C573.365 371.074 572.885 371.224 572.513 371.524C572.141 371.824 571.955 372.256 571.955 372.82C571.955 373.204 572.069 373.522 572.297 373.774C572.537 374.014 572.837 374.206 573.197 374.35C573.557 374.494 574.049 374.65 574.673 374.818C575.501 375.046 576.173 375.274 576.689 375.502C577.217 375.73 577.661 376.084 578.021 376.564C578.393 377.032 578.579 377.662 578.579 378.454C578.579 379.09 578.405 379.69 578.057 380.254C577.721 380.818 577.223 381.274 576.563 381.622C575.915 381.958 575.147 382.126 574.259 382.126ZM583.052 369.49V382H581V369.49H583.052ZM594.8 373.09C594.476 372.466 594.026 371.998 593.45 371.686C592.874 371.362 592.208 371.2 591.452 371.2C590.624 371.2 589.886 371.386 589.238 371.758C588.59 372.13 588.08 372.658 587.708 373.342C587.348 374.026 587.168 374.818 587.168 375.718C587.168 376.618 587.348 377.416 587.708 378.112C588.08 378.796 588.59 379.324 589.238 379.696C589.886 380.068 590.624 380.254 591.452 380.254C592.568 380.254 593.474 379.942 594.17 379.318C594.866 378.694 595.292 377.848 595.448 376.78H590.75V375.142H597.644V376.744C597.512 377.716 597.164 378.61 596.6 379.426C596.048 380.242 595.322 380.896 594.422 381.388C593.534 381.868 592.544 382.108 591.452 382.108C590.276 382.108 589.202 381.838 588.23 381.298C587.258 380.746 586.484 379.984 585.908 379.012C585.344 378.04 585.062 376.942 585.062 375.718C585.062 374.494 585.344 373.396 585.908 372.424C586.484 371.452 587.258 370.696 588.23 370.156C589.214 369.604 590.288 369.328 591.452 369.328C592.784 369.328 593.966 369.658 594.998 370.318C596.042 370.966 596.798 371.89 597.266 373.09H594.8ZM609.946 382H607.894L601.72 372.658V382H599.668V369.472H601.72L607.894 378.796V369.472H609.946V382ZM614.693 371.146V374.818H619.013V376.492H614.693V380.326H619.553V382H612.641V369.472H619.553V371.146H614.693ZM628.578 382L625.698 376.996H624.132V382H622.08V369.49H626.4C627.36 369.49 628.17 369.658 628.83 369.994C629.502 370.33 630 370.78 630.324 371.344C630.66 371.908 630.828 372.538 630.828 373.234C630.828 374.05 630.588 374.794 630.108 375.466C629.64 376.126 628.914 376.576 627.93 376.816L631.026 382H628.578ZM624.132 375.358H626.4C627.168 375.358 627.744 375.166 628.128 374.782C628.524 374.398 628.722 373.882 628.722 373.234C628.722 372.586 628.53 372.082 628.146 371.722C627.762 371.35 627.18 371.164 626.4 371.164H624.132V375.358ZM637.576 382.126C636.736 382.126 635.98 381.982 635.308 381.694C634.636 381.394 634.108 380.974 633.724 380.434C633.34 379.894 633.148 379.264 633.148 378.544H635.344C635.392 379.084 635.602 379.528 635.974 379.876C636.358 380.224 636.892 380.398 637.576 380.398C638.284 380.398 638.836 380.23 639.232 379.894C639.628 379.546 639.826 379.102 639.826 378.562C639.826 378.142 639.7 377.8 639.448 377.536C639.208 377.272 638.902 377.068 638.53 376.924C638.17 376.78 637.666 376.624 637.018 376.456C636.202 376.24 635.536 376.024 635.02 375.808C634.516 375.58 634.084 375.232 633.724 374.764C633.364 374.296 633.184 373.672 633.184 372.892C633.184 372.172 633.364 371.542 633.724 371.002C634.084 370.462 634.588 370.048 635.236 369.76C635.884 369.472 636.634 369.328 637.486 369.328C638.698 369.328 639.688 369.634 640.456 370.246C641.236 370.846 641.668 371.674 641.752 372.73H639.484C639.448 372.274 639.232 371.884 638.836 371.56C638.44 371.236 637.918 371.074 637.27 371.074C636.682 371.074 636.202 371.224 635.83 371.524C635.458 371.824 635.272 372.256 635.272 372.82C635.272 373.204 635.386 373.522 635.614 373.774C635.854 374.014 636.154 374.206 636.514 374.35C636.874 374.494 637.366 374.65 637.99 374.818C638.818 375.046 639.49 375.274 640.006 375.502C640.534 375.73 640.978 376.084 641.338 376.564C641.71 377.032 641.896 377.662 641.896 378.454C641.896 379.09 641.722 379.69 641.374 380.254C641.038 380.818 640.54 381.274 639.88 381.622C639.232 381.958 638.464 382.126 637.576 382.126Z" fill="black"/>
<path d="M629.472 176.126C628.632 176.126 627.876 175.982 627.204 175.694C626.532 175.394 626.004 174.974 625.62 174.434C625.236 173.894 625.044 173.264 625.044 172.544H627.24C627.288 173.084 627.498 173.528 627.87 173.876C628.254 174.224 628.788 174.398 629.472 174.398C630.18 174.398 630.732 174.23 631.128 173.894C631.524 173.546 631.722 173.102 631.722 172.562C631.722 172.142 631.596 171.8 631.344 171.536C631.104 171.272 630.798 171.068 630.426 170.924C630.066 170.78 629.562 170.624 628.914 170.456C628.098 170.24 627.432 170.024 626.916 169.808C626.412 169.58 625.98 169.232 625.62 168.764C625.26 168.296 625.08 167.672 625.08 166.892C625.08 166.172 625.26 165.542 625.62 165.002C625.98 164.462 626.484 164.048 627.132 163.76C627.78 163.472 628.53 163.328 629.382 163.328C630.594 163.328 631.584 163.634 632.352 164.246C633.132 164.846 633.564 165.674 633.648 166.73H631.38C631.344 166.274 631.128 165.884 630.732 165.56C630.336 165.236 629.814 165.074 629.166 165.074C628.578 165.074 628.098 165.224 627.726 165.524C627.354 165.824 627.168 166.256 627.168 166.82C627.168 167.204 627.282 167.522 627.51 167.774C627.75 168.014 628.05 168.206 628.41 168.35C628.77 168.494 629.262 168.65 629.886 168.818C630.714 169.046 631.386 169.274 631.902 169.502C632.43 169.73 632.874 170.084 633.234 170.564C633.606 171.032 633.792 171.662 633.792 172.454C633.792 173.09 633.618 173.69 633.27 174.254C632.934 174.818 632.436 175.274 631.776 175.622C631.128 175.958 630.36 176.126 629.472 176.126ZM641.919 176.126C640.755 176.126 639.681 175.856 638.697 175.316C637.725 174.764 636.951 174.002 636.375 173.03C635.811 172.046 635.529 170.942 635.529 169.718C635.529 168.494 635.811 167.396 636.375 166.424C636.951 165.452 637.725 164.696 638.697 164.156C639.681 163.604 640.755 163.328 641.919 163.328C643.095 163.328 644.169 163.604 645.141 164.156C646.125 164.696 646.899 165.452 647.463 166.424C648.027 167.396 648.309 168.494 648.309 169.718C648.309 170.942 648.027 172.046 647.463 173.03C646.899 174.002 646.125 174.764 645.141 175.316C644.169 175.856 643.095 176.126 641.919 176.126ZM641.919 174.344C642.747 174.344 643.485 174.158 644.133 173.786C644.781 173.402 645.285 172.862 645.645 172.166C646.017 171.458 646.203 170.642 646.203 169.718C646.203 168.794 646.017 167.984 645.645 167.288C645.285 166.592 644.781 166.058 644.133 165.686C643.485 165.314 642.747 165.128 641.919 165.128C641.091 165.128 640.353 165.314 639.705 165.686C639.057 166.058 638.547 166.592 638.175 167.288C637.815 167.984 637.635 168.794 637.635 169.718C637.635 170.642 637.815 171.458 638.175 172.166C638.547 172.862 639.057 173.402 639.705 173.786C640.353 174.158 641.091 174.344 641.919 174.344ZM649.645 169.718C649.645 168.494 649.927 167.396 650.491 166.424C651.067 165.452 651.841 164.696 652.813 164.156C653.797 163.604 654.871 163.328 656.035 163.328C657.367 163.328 658.549 163.658 659.581 164.318C660.625 164.966 661.381 165.89 661.849 167.09H659.383C659.059 166.43 658.609 165.938 658.033 165.614C657.457 165.29 656.791 165.128 656.035 165.128C655.207 165.128 654.469 165.314 653.821 165.686C653.173 166.058 652.663 166.592 652.291 167.288C651.931 167.984 651.751 168.794 651.751 169.718C651.751 170.642 651.931 171.452 652.291 172.148C652.663 172.844 653.173 173.384 653.821 173.768C654.469 174.14 655.207 174.326 656.035 174.326C656.791 174.326 657.457 174.164 658.033 173.84C658.609 173.516 659.059 173.024 659.383 172.364H661.849C661.381 173.564 660.625 174.488 659.581 175.136C658.549 175.784 657.367 176.108 656.035 176.108C654.859 176.108 653.785 175.838 652.813 175.298C651.841 174.746 651.067 173.984 650.491 173.012C649.927 172.04 649.645 170.942 649.645 169.718ZM666.302 163.49V176H664.25V163.49H666.302ZM676.538 173.444H671.3L670.4 176H668.258L672.74 163.472H675.116L679.598 176H677.438L676.538 173.444ZM675.962 171.77L673.928 165.956L671.876 171.77H675.962ZM683.599 174.344H687.829V176H681.547V163.49H683.599V174.344ZM707.397 163.49V176H705.345V167.432L701.529 176H700.107L696.273 167.432V176H694.221V163.49H696.435L700.827 173.3L705.201 163.49H707.397ZM712.146 165.146V168.818H716.466V170.492H712.146V174.326H717.006V176H710.094V163.472H717.006V165.146H712.146ZM723.62 163.49C724.952 163.49 726.116 163.748 727.112 164.264C728.12 164.768 728.894 165.5 729.434 166.46C729.986 167.408 730.262 168.518 730.262 169.79C730.262 171.062 729.986 172.166 729.434 173.102C728.894 174.038 728.12 174.758 727.112 175.262C726.116 175.754 724.952 176 723.62 176H719.534V163.49H723.62ZM723.62 174.326C725.084 174.326 726.206 173.93 726.986 173.138C727.766 172.346 728.156 171.23 728.156 169.79C728.156 168.338 727.766 167.204 726.986 166.388C726.206 165.572 725.084 165.164 723.62 165.164H721.586V174.326H723.62ZM734.347 163.49V176H732.295V163.49H734.347ZM744.583 173.444H739.345L738.445 176H736.303L740.785 163.472H743.161L747.643 176H745.483L744.583 173.444ZM744.007 171.77L741.973 165.956L739.921 171.77H744.007ZM638.526 187.49V200H636.474V191.432L632.658 200H631.236L627.402 191.432V200H625.35V187.49H627.564L631.956 197.3L636.33 187.49H638.526ZM648.765 197.444H643.527L642.627 200H640.485L644.967 187.472H647.343L651.825 200H649.665L648.765 197.444ZM648.189 195.77L646.155 189.956L644.103 195.77H648.189ZM664.052 200H662L655.826 190.658V200H653.774V187.472H655.826L662 196.796V187.472H664.052V200ZM674.288 197.444H669.05L668.15 200H666.008L670.49 187.472H672.866L677.348 200H675.188L674.288 197.444ZM673.712 195.77L671.678 189.956L669.626 195.77H673.712ZM688.351 191.09C688.027 190.466 687.577 189.998 687.001 189.686C686.425 189.362 685.759 189.2 685.003 189.2C684.175 189.2 683.437 189.386 682.789 189.758C682.141 190.13 681.631 190.658 681.259 191.342C680.899 192.026 680.719 192.818 680.719 193.718C680.719 194.618 680.899 195.416 681.259 196.112C681.631 196.796 682.141 197.324 682.789 197.696C683.437 198.068 684.175 198.254 685.003 198.254C686.119 198.254 687.025 197.942 687.721 197.318C688.417 196.694 688.843 195.848 688.999 194.78H684.301V193.142H691.195V194.744C691.063 195.716 690.715 196.61 690.151 197.426C689.599 198.242 688.873 198.896 687.973 199.388C687.085 199.868 686.095 200.108 685.003 200.108C683.827 200.108 682.753 199.838 681.781 199.298C680.809 198.746 680.035 197.984 679.459 197.012C678.895 196.04 678.613 194.942 678.613 193.718C678.613 192.494 678.895 191.396 679.459 190.424C680.035 189.452 680.809 188.696 681.781 188.156C682.765 187.604 683.839 187.328 685.003 187.328C686.335 187.328 687.517 187.658 688.549 188.318C689.593 188.966 690.349 189.89 690.817 191.09H688.351ZM695.271 189.146V192.818H699.591V194.492H695.271V198.326H700.131V200H693.219V187.472H700.131V189.146H695.271ZM709.157 200L706.277 194.996H704.711V200H702.659V187.49H706.979C707.939 187.49 708.749 187.658 709.409 187.994C710.081 188.33 710.579 188.78 710.903 189.344C711.239 189.908 711.407 190.538 711.407 191.234C711.407 192.05 711.167 192.794 710.687 193.466C710.219 194.126 709.493 194.576 708.509 194.816L711.605 200H709.157ZM704.711 193.358H706.979C707.747 193.358 708.323 193.166 708.707 192.782C709.103 192.398 709.301 191.882 709.301 191.234C709.301 190.586 709.109 190.082 708.725 189.722C708.341 189.35 707.759 189.164 706.979 189.164H704.711V193.358ZM718.154 200.126C717.314 200.126 716.558 199.982 715.886 199.694C715.214 199.394 714.686 198.974 714.302 198.434C713.918 197.894 713.726 197.264 713.726 196.544H715.922C715.97 197.084 716.18 197.528 716.552 197.876C716.936 198.224 717.47 198.398 718.154 198.398C718.862 198.398 719.414 198.23 719.81 197.894C720.206 197.546 720.404 197.102 720.404 196.562C720.404 196.142 720.278 195.8 720.026 195.536C719.786 195.272 719.48 195.068 719.108 194.924C718.748 194.78 718.244 194.624 717.596 194.456C716.78 194.24 716.114 194.024 715.598 193.808C715.094 193.58 714.662 193.232 714.302 192.764C713.942 192.296 713.762 191.672 713.762 190.892C713.762 190.172 713.942 189.542 714.302 189.002C714.662 188.462 715.166 188.048 715.814 187.76C716.462 187.472 717.212 187.328 718.064 187.328C719.276 187.328 720.266 187.634 721.034 188.246C721.814 188.846 722.246 189.674 722.33 190.73H720.062C720.026 190.274 719.81 189.884 719.414 189.56C719.018 189.236 718.496 189.074 717.848 189.074C717.26 189.074 716.78 189.224 716.408 189.524C716.036 189.824 715.85 190.256 715.85 190.82C715.85 191.204 715.964 191.522 716.192 191.774C716.432 192.014 716.732 192.206 717.092 192.35C717.452 192.494 717.944 192.65 718.568 192.818C719.396 193.046 720.068 193.274 720.584 193.502C721.112 193.73 721.556 194.084 721.916 194.564C722.288 195.032 722.474 195.662 722.474 196.454C722.474 197.09 722.3 197.69 721.952 198.254C721.616 198.818 721.118 199.274 720.458 199.622C719.81 199.958 719.042 200.126 718.154 200.126Z" fill="black"/>
<path d="M555.666 11.718C555.666 10.494 555.948 9.396 556.512 8.424C557.088 7.452 557.862 6.696 558.834 6.156C559.818 5.604 560.892 5.328 562.056 5.328C563.388 5.328 564.57 5.658 565.602 6.318C566.646 6.966 567.402 7.89 567.87 9.09H565.404C565.08 8.43 564.63 7.938 564.054 7.614C563.478 7.29 562.812 7.128 562.056 7.128C561.228 7.128 560.49 7.314 559.842 7.686C559.194 8.058 558.684 8.592 558.312 9.288C557.952 9.984 557.772 10.794 557.772 11.718C557.772 12.642 557.952 13.452 558.312 14.148C558.684 14.844 559.194 15.384 559.842 15.768C560.49 16.14 561.228 16.326 562.056 16.326C562.812 16.326 563.478 16.164 564.054 15.84C564.63 15.516 565.08 15.024 565.404 14.364H567.87C567.402 15.564 566.646 16.488 565.602 17.136C564.57 17.784 563.388 18.108 562.056 18.108C560.88 18.108 559.806 17.838 558.834 17.298C557.862 16.746 557.088 15.984 556.512 15.012C555.948 14.04 555.666 12.942 555.666 11.718ZM575.978 18.126C574.814 18.126 573.74 17.856 572.756 17.316C571.784 16.764 571.01 16.002 570.434 15.03C569.87 14.046 569.588 12.942 569.588 11.718C569.588 10.494 569.87 9.396 570.434 8.424C571.01 7.452 571.784 6.696 572.756 6.156C573.74 5.604 574.814 5.328 575.978 5.328C577.154 5.328 578.228 5.604 579.2 6.156C580.184 6.696 580.958 7.452 581.522 8.424C582.086 9.396 582.368 10.494 582.368 11.718C582.368 12.942 582.086 14.046 581.522 15.03C580.958 16.002 580.184 16.764 579.2 17.316C578.228 17.856 577.154 18.126 575.978 18.126ZM575.978 16.344C576.806 16.344 577.544 16.158 578.192 15.786C578.84 15.402 579.344 14.862 579.704 14.166C580.076 13.458 580.262 12.642 580.262 11.718C580.262 10.794 580.076 9.984 579.704 9.288C579.344 8.592 578.84 8.058 578.192 7.686C577.544 7.314 576.806 7.128 575.978 7.128C575.15 7.128 574.412 7.314 573.764 7.686C573.116 8.058 572.606 8.592 572.234 9.288C571.874 9.984 571.694 10.794 571.694 11.718C571.694 12.642 571.874 13.458 572.234 14.166C572.606 14.862 573.116 15.402 573.764 15.786C574.412 16.158 575.15 16.344 575.978 16.344ZM593.135 9.216C593.135 9.852 592.985 10.452 592.685 11.016C592.385 11.58 591.905 12.042 591.245 12.402C590.585 12.75 589.739 12.924 588.707 12.924H586.439V18H584.387V5.49H588.707C589.667 5.49 590.477 5.658 591.137 5.994C591.809 6.318 592.307 6.762 592.631 7.326C592.967 7.89 593.135 8.52 593.135 9.216ZM588.707 11.25C589.487 11.25 590.069 11.076 590.453 10.728C590.837 10.368 591.029 9.864 591.029 9.216C591.029 7.848 590.255 7.164 588.707 7.164H586.439V11.25H588.707ZM604.362 5.49L600.222 13.464V18H598.17V13.464L594.012 5.49H596.298L599.196 11.628L602.094 5.49H604.362ZM622.281 5.49L618.573 18H616.251L613.623 8.532L610.833 18L608.529 18.018L604.983 5.49H607.161L609.753 15.678L612.561 5.49H614.865L617.475 15.624L620.085 5.49H622.281ZM630.471 18L627.591 12.996H626.025V18H623.973V5.49H628.293C629.253 5.49 630.063 5.658 630.723 5.994C631.395 6.33 631.893 6.78 632.217 7.344C632.553 7.908 632.721 8.538 632.721 9.234C632.721 10.05 632.481 10.794 632.001 11.466C631.533 12.126 630.807 12.576 629.823 12.816L632.919 18H630.471ZM626.025 11.358H628.293C629.061 11.358 629.637 11.166 630.021 10.782C630.417 10.398 630.615 9.882 630.615 9.234C630.615 8.586 630.423 8.082 630.039 7.722C629.655 7.35 629.073 7.164 628.293 7.164H626.025V11.358ZM637.398 5.49V18H635.346V5.49H637.398ZM648.174 5.49V7.164H644.844V18H642.792V7.164H639.444V5.49H648.174ZM652.304 7.146V10.818H656.624V12.492H652.304V16.326H657.164V18H650.252V5.472H657.164V7.146H652.304ZM666.19 18L663.31 12.996H661.744V18H659.692V5.49H664.012C664.972 5.49 665.782 5.658 666.442 5.994C667.114 6.33 667.612 6.78 667.936 7.344C668.272 7.908 668.44 8.538 668.44 9.234C668.44 10.05 668.2 10.794 667.72 11.466C667.252 12.126 666.526 12.576 665.542 12.816L668.638 18H666.19ZM661.744 11.358H664.012C664.78 11.358 665.356 11.166 665.74 10.782C666.136 10.398 666.334 9.882 666.334 9.234C666.334 8.586 666.142 8.082 665.758 7.722C665.374 7.35 664.792 7.164 664.012 7.164H661.744V11.358ZM675.187 18.126C674.347 18.126 673.591 17.982 672.919 17.694C672.247 17.394 671.719 16.974 671.335 16.434C670.951 15.894 670.759 15.264 670.759 14.544H672.955C673.003 15.084 673.213 15.528 673.585 15.876C673.969 16.224 674.503 16.398 675.187 16.398C675.895 16.398 676.447 16.23 676.843 15.894C677.239 15.546 677.437 15.102 677.437 14.562C677.437 14.142 677.311 13.8 677.059 13.536C676.819 13.272 676.513 13.068 676.141 12.924C675.781 12.78 675.277 12.624 674.629 12.456C673.813 12.24 673.147 12.024 672.631 11.808C672.127 11.58 671.695 11.232 671.335 10.764C670.975 10.296 670.795 9.672 670.795 8.892C670.795 8.172 670.975 7.542 671.335 7.002C671.695 6.462 672.199 6.048 672.847 5.76C673.495 5.472 674.245 5.328 675.097 5.328C676.309 5.328 677.299 5.634 678.067 6.246C678.847 6.846 679.279 7.674 679.363 8.73H677.095C677.059 8.274 676.843 7.884 676.447 7.56C676.051 7.236 675.529 7.074 674.881 7.074C674.293 7.074 673.813 7.224 673.441 7.524C673.069 7.824 672.883 8.256 672.883 8.82C672.883 9.204 672.997 9.522 673.225 9.774C673.465 10.014 673.765 10.206 674.125 10.35C674.485 10.494 674.977 10.65 675.601 10.818C676.429 11.046 677.101 11.274 677.617 11.502C678.145 11.73 678.589 12.084 678.949 12.564C679.321 13.032 679.507 13.662 679.507 14.454C679.507 15.09 679.333 15.69 678.985 16.254C678.649 16.818 678.151 17.274 677.491 17.622C676.843 17.958 676.075 18.126 675.187 18.126Z" fill="black"/>
<g filter="url(#filter0_d_4425_10154)">
<g filter="url(#filter1_d_4425_10154)">
<circle cx="415" cy="189" r="150" fill="#CED9FF"/>
</g>
</g>
<path d="M341.345 184.175C340.061 184.175 338.911 183.967 337.895 183.55C336.878 183.133 336.061 182.517 335.445 181.7C334.845 180.883 334.528 179.9 334.495 178.75H339.045C339.111 179.4 339.336 179.9 339.72 180.25C340.103 180.583 340.603 180.75 341.22 180.75C341.853 180.75 342.353 180.608 342.72 180.325C343.086 180.025 343.27 179.617 343.27 179.1C343.27 178.667 343.12 178.308 342.82 178.025C342.536 177.742 342.178 177.508 341.745 177.325C341.328 177.142 340.728 176.933 339.945 176.7C338.811 176.35 337.886 176 337.17 175.65C336.453 175.3 335.836 174.783 335.32 174.1C334.803 173.417 334.545 172.525 334.545 171.425C334.545 169.792 335.136 168.517 336.32 167.6C337.503 166.667 339.045 166.2 340.945 166.2C342.878 166.2 344.436 166.667 345.62 167.6C346.803 168.517 347.436 169.8 347.52 171.45H342.895C342.861 170.883 342.653 170.442 342.27 170.125C341.886 169.792 341.395 169.625 340.795 169.625C340.278 169.625 339.861 169.767 339.545 170.05C339.228 170.317 339.07 170.708 339.07 171.225C339.07 171.792 339.336 172.233 339.87 172.55C340.403 172.867 341.236 173.208 342.37 173.575C343.503 173.958 344.42 174.325 345.12 174.675C345.836 175.025 346.453 175.533 346.97 176.2C347.486 176.867 347.745 177.725 347.745 178.775C347.745 179.775 347.486 180.683 346.97 181.5C346.47 182.317 345.736 182.967 344.77 183.45C343.803 183.933 342.661 184.175 341.345 184.175ZM356.726 184.2C355.359 184.2 354.126 183.908 353.026 183.325C351.942 182.742 351.084 181.908 350.451 180.825C349.834 179.742 349.526 178.475 349.526 177.025C349.526 175.592 349.842 174.333 350.476 173.25C351.109 172.15 351.976 171.308 353.076 170.725C354.176 170.142 355.409 169.85 356.776 169.85C358.142 169.85 359.376 170.142 360.476 170.725C361.576 171.308 362.442 172.15 363.076 173.25C363.709 174.333 364.026 175.592 364.026 177.025C364.026 178.458 363.701 179.725 363.051 180.825C362.417 181.908 361.542 182.742 360.426 183.325C359.326 183.908 358.092 184.2 356.726 184.2ZM356.726 180.5C357.542 180.5 358.234 180.2 358.801 179.6C359.384 179 359.676 178.142 359.676 177.025C359.676 175.908 359.392 175.05 358.826 174.45C358.276 173.85 357.592 173.55 356.776 173.55C355.942 173.55 355.251 173.85 354.701 174.45C354.151 175.033 353.876 175.892 353.876 177.025C353.876 178.142 354.142 179 354.676 179.6C355.226 180.2 355.909 180.5 356.726 180.5ZM365.444 177.025C365.444 175.575 365.735 174.308 366.319 173.225C366.919 172.142 367.744 171.308 368.794 170.725C369.86 170.142 371.077 169.85 372.444 169.85C374.194 169.85 375.652 170.308 376.819 171.225C378.002 172.142 378.777 173.433 379.144 175.1H374.594C374.21 174.033 373.469 173.5 372.369 173.5C371.585 173.5 370.96 173.808 370.494 174.425C370.027 175.025 369.794 175.892 369.794 177.025C369.794 178.158 370.027 179.033 370.494 179.65C370.96 180.25 371.585 180.55 372.369 180.55C373.469 180.55 374.21 180.017 374.594 178.95H379.144C378.777 180.583 378.002 181.867 376.819 182.8C375.635 183.733 374.177 184.2 372.444 184.2C371.077 184.2 369.86 183.908 368.794 183.325C367.744 182.742 366.919 181.908 366.319 180.825C365.735 179.742 365.444 178.475 365.444 177.025ZM383.58 168.6C382.83 168.6 382.214 168.383 381.73 167.95C381.264 167.5 381.03 166.95 381.03 166.3C381.03 165.633 381.264 165.083 381.73 164.65C382.214 164.2 382.83 163.975 383.58 163.975C384.314 163.975 384.914 164.2 385.38 164.65C385.864 165.083 386.105 165.633 386.105 166.3C386.105 166.95 385.864 167.5 385.38 167.95C384.914 168.383 384.314 168.6 383.58 168.6ZM385.705 170.05V184H381.43V170.05H385.705ZM387.953 177C387.953 175.567 388.22 174.308 388.753 173.225C389.303 172.142 390.045 171.308 390.978 170.725C391.912 170.142 392.953 169.85 394.103 169.85C395.087 169.85 395.945 170.05 396.678 170.45C397.428 170.85 398.003 171.375 398.403 172.025V170.05H402.678V184H398.403V182.025C397.987 182.675 397.403 183.2 396.653 183.6C395.92 184 395.062 184.2 394.078 184.2C392.945 184.2 391.912 183.908 390.978 183.325C390.045 182.725 389.303 181.883 388.753 180.8C388.22 179.7 387.953 178.433 387.953 177ZM398.403 177.025C398.403 175.958 398.103 175.117 397.503 174.5C396.92 173.883 396.203 173.575 395.353 173.575C394.503 173.575 393.778 173.883 393.178 174.5C392.595 175.1 392.303 175.933 392.303 177C392.303 178.067 392.595 178.917 393.178 179.55C393.778 180.167 394.503 180.475 395.353 180.475C396.203 180.475 396.92 180.167 397.503 179.55C398.103 178.933 398.403 178.092 398.403 177.025ZM410.046 165.5V184H405.771V165.5H410.046ZM438.317 166.45V184H434.042V173.475L430.117 184H426.667L422.717 173.45V184H418.442V166.45H423.492L428.417 178.6L433.292 166.45H438.317ZM454.541 176.8C454.541 177.2 454.516 177.617 454.466 178.05H444.791C444.858 178.917 445.133 179.583 445.616 180.05C446.116 180.5 446.725 180.725 447.441 180.725C448.508 180.725 449.25 180.275 449.666 179.375H454.216C453.983 180.292 453.558 181.117 452.941 181.85C452.341 182.583 451.583 183.158 450.666 183.575C449.75 183.992 448.725 184.2 447.591 184.2C446.225 184.2 445.008 183.908 443.941 183.325C442.875 182.742 442.041 181.908 441.441 180.825C440.841 179.742 440.541 178.475 440.541 177.025C440.541 175.575 440.833 174.308 441.416 173.225C442.016 172.142 442.85 171.308 443.916 170.725C444.983 170.142 446.208 169.85 447.591 169.85C448.941 169.85 450.141 170.133 451.191 170.7C452.241 171.267 453.058 172.075 453.641 173.125C454.241 174.175 454.541 175.4 454.541 176.8ZM450.166 175.675C450.166 174.942 449.916 174.358 449.416 173.925C448.916 173.492 448.291 173.275 447.541 173.275C446.825 173.275 446.216 173.483 445.716 173.9C445.233 174.317 444.933 174.908 444.816 175.675H450.166ZM455.947 177C455.947 175.567 456.213 174.308 456.747 173.225C457.297 172.142 458.038 171.308 458.972 170.725C459.905 170.142 460.947 169.85 462.097 169.85C463.013 169.85 463.847 170.042 464.597 170.425C465.363 170.808 465.963 171.325 466.397 171.975V165.5H470.672V184H466.397V182C465.997 182.667 465.422 183.2 464.672 183.6C463.938 184 463.08 184.2 462.097 184.2C460.947 184.2 459.905 183.908 458.972 183.325C458.038 182.725 457.297 181.883 456.747 180.8C456.213 179.7 455.947 178.433 455.947 177ZM466.397 177.025C466.397 175.958 466.097 175.117 465.497 174.5C464.913 173.883 464.197 173.575 463.347 173.575C462.497 173.575 461.772 173.883 461.172 174.5C460.588 175.1 460.297 175.933 460.297 177C460.297 178.067 460.588 178.917 461.172 179.55C461.772 180.167 462.497 180.475 463.347 180.475C464.197 180.475 464.913 180.167 465.497 179.55C466.097 178.933 466.397 178.092 466.397 177.025ZM475.914 168.6C475.164 168.6 474.548 168.383 474.064 167.95C473.598 167.5 473.364 166.95 473.364 166.3C473.364 165.633 473.598 165.083 474.064 164.65C474.548 164.2 475.164 163.975 475.914 163.975C476.648 163.975 477.248 164.2 477.714 164.65C478.198 165.083 478.439 165.633 478.439 166.3C478.439 166.95 478.198 167.5 477.714 167.95C477.248 168.383 476.648 168.6 475.914 168.6ZM478.039 170.05V184H473.764V170.05H478.039ZM480.287 177C480.287 175.567 480.554 174.308 481.087 173.225C481.637 172.142 482.379 171.308 483.312 170.725C484.246 170.142 485.287 169.85 486.437 169.85C487.421 169.85 488.279 170.05 489.012 170.45C489.762 170.85 490.337 171.375 490.737 172.025V170.05H495.012V184H490.737V182.025C490.321 182.675 489.737 183.2 488.987 183.6C488.254 184 487.396 184.2 486.412 184.2C485.279 184.2 484.246 183.908 483.312 183.325C482.379 182.725 481.637 181.883 481.087 180.8C480.554 179.7 480.287 178.433 480.287 177ZM490.737 177.025C490.737 175.958 490.437 175.117 489.837 174.5C489.254 173.883 488.537 173.575 487.687 173.575C486.837 173.575 486.112 173.883 485.512 174.5C484.929 175.1 484.637 175.933 484.637 177C484.637 178.067 484.929 178.917 485.512 179.55C486.112 180.167 486.837 180.475 487.687 180.475C488.537 180.475 489.254 180.167 489.837 179.55C490.437 178.933 490.737 178.092 490.737 177.025ZM370.019 194.45V212H365.744V201.475L361.819 212H358.369L354.419 201.45V212H350.144V194.45H355.194L360.119 206.6L364.994 194.45H370.019ZM372.243 205C372.243 203.567 372.51 202.308 373.043 201.225C373.593 200.142 374.335 199.308 375.268 198.725C376.201 198.142 377.243 197.85 378.393 197.85C379.376 197.85 380.235 198.05 380.968 198.45C381.718 198.85 382.293 199.375 382.693 200.025V198.05H386.968V212H382.693V210.025C382.276 210.675 381.693 211.2 380.943 211.6C380.21 212 379.351 212.2 378.368 212.2C377.235 212.2 376.201 211.908 375.268 211.325C374.335 210.725 373.593 209.883 373.043 208.8C372.51 207.7 372.243 206.433 372.243 205ZM382.693 205.025C382.693 203.958 382.393 203.117 381.793 202.5C381.21 201.883 380.493 201.575 379.643 201.575C378.793 201.575 378.068 201.883 377.468 202.5C376.885 203.1 376.593 203.933 376.593 205C376.593 206.067 376.885 206.917 377.468 207.55C378.068 208.167 378.793 208.475 379.643 208.475C380.493 208.475 381.21 208.167 381.793 207.55C382.393 206.933 382.693 206.092 382.693 205.025ZM394.336 200.375C394.836 199.608 395.461 199.008 396.211 198.575C396.961 198.125 397.794 197.9 398.711 197.9V202.425H397.536C396.469 202.425 395.669 202.658 395.136 203.125C394.602 203.575 394.336 204.375 394.336 205.525V212H390.061V198.05H394.336V200.375ZM409.279 212L405.029 206.15V212H400.754V193.5H405.029V203.725L409.254 198.05H414.529L408.729 205.05L414.579 212H409.279ZM429.358 204.8C429.358 205.2 429.333 205.617 429.283 206.05H419.608C419.675 206.917 419.95 207.583 420.433 208.05C420.933 208.5 421.542 208.725 422.258 208.725C423.325 208.725 424.067 208.275 424.483 207.375H429.033C428.8 208.292 428.375 209.117 427.758 209.85C427.158 210.583 426.4 211.158 425.483 211.575C424.567 211.992 423.542 212.2 422.408 212.2C421.042 212.2 419.825 211.908 418.758 211.325C417.692 210.742 416.858 209.908 416.258 208.825C415.658 207.742 415.358 206.475 415.358 205.025C415.358 203.575 415.65 202.308 416.233 201.225C416.833 200.142 417.667 199.308 418.733 198.725C419.8 198.142 421.025 197.85 422.408 197.85C423.758 197.85 424.958 198.133 426.008 198.7C427.058 199.267 427.875 200.075 428.458 201.125C429.058 202.175 429.358 203.4 429.358 204.8ZM424.983 203.675C424.983 202.942 424.733 202.358 424.233 201.925C423.733 201.492 423.108 201.275 422.358 201.275C421.642 201.275 421.033 201.483 420.533 201.9C420.05 202.317 419.75 202.908 419.633 203.675H424.983ZM439.388 208.375V212H437.213C435.663 212 434.455 211.625 433.588 210.875C432.722 210.108 432.288 208.867 432.288 207.15V201.6H430.588V198.05H432.288V194.65H436.563V198.05H439.363V201.6H436.563V207.2C436.563 207.617 436.663 207.917 436.863 208.1C437.063 208.283 437.397 208.375 437.863 208.375H439.388ZM443.92 196.6C443.17 196.6 442.553 196.383 442.07 195.95C441.603 195.5 441.37 194.95 441.37 194.3C441.37 193.633 441.603 193.083 442.07 192.65C442.553 192.2 443.17 191.975 443.92 191.975C444.653 191.975 445.253 192.2 445.72 192.65C446.203 193.083 446.445 193.633 446.445 194.3C446.445 194.95 446.203 195.5 445.72 195.95C445.253 196.383 444.653 196.6 443.92 196.6ZM446.045 198.05V212H441.77V198.05H446.045ZM457.643 197.9C459.276 197.9 460.576 198.433 461.543 199.5C462.526 200.55 463.018 202 463.018 203.85V212H458.768V204.425C458.768 203.492 458.526 202.767 458.043 202.25C457.559 201.733 456.909 201.475 456.093 201.475C455.276 201.475 454.626 201.733 454.143 202.25C453.659 202.767 453.418 203.492 453.418 204.425V212H449.143V198.05H453.418V199.9C453.851 199.283 454.434 198.8 455.168 198.45C455.901 198.083 456.726 197.9 457.643 197.9ZM471.288 197.85C472.272 197.85 473.13 198.05 473.863 198.45C474.613 198.85 475.188 199.375 475.588 200.025V198.05H479.863V211.975C479.863 213.258 479.605 214.417 479.088 215.45C478.588 216.5 477.813 217.333 476.763 217.95C475.73 218.567 474.438 218.875 472.888 218.875C470.822 218.875 469.147 218.383 467.863 217.4C466.58 216.433 465.847 215.117 465.663 213.45H469.888C470.022 213.983 470.338 214.4 470.838 214.7C471.338 215.017 471.955 215.175 472.688 215.175C473.572 215.175 474.272 214.917 474.788 214.4C475.322 213.9 475.588 213.092 475.588 211.975V210C475.172 210.65 474.597 211.183 473.863 211.6C473.13 212 472.272 212.2 471.288 212.2C470.138 212.2 469.097 211.908 468.163 211.325C467.23 210.725 466.488 209.883 465.938 208.8C465.405 207.7 465.138 206.433 465.138 205C465.138 203.567 465.405 202.308 465.938 201.225C466.488 200.142 467.23 199.308 468.163 198.725C469.097 198.142 470.138 197.85 471.288 197.85ZM475.588 205.025C475.588 203.958 475.288 203.117 474.688 202.5C474.105 201.883 473.388 201.575 472.538 201.575C471.688 201.575 470.963 201.883 470.363 202.5C469.78 203.1 469.488 203.933 469.488 205C469.488 206.067 469.78 206.917 470.363 207.55C470.963 208.167 471.688 208.475 472.538 208.475C473.388 208.475 474.105 208.167 474.688 207.55C475.288 206.933 475.588 206.092 475.588 205.025Z" fill="#04177F"/>
<path d="M537.167 92C537.167 94.9455 539.554 97.3333 542.5 97.3333C545.446 97.3333 547.833 94.9455 547.833 92C547.833 89.0545 545.446 86.6667 542.5 86.6667C539.554 86.6667 537.167 89.0545 537.167 92ZM636.5 92V93H637.5V92H636.5ZM636.5 37.5L630.726 47.5H642.274L636.5 37.5ZM542.5 93H636.5V91H542.5V93ZM637.5 92V46.5H635.5V92H637.5Z" fill="black"/>
<path d="M135 47L129.226 57H140.774L135 47ZM135 112H134V113H135V112ZM269.167 112C269.167 114.946 271.554 117.333 274.5 117.333C277.446 117.333 279.833 114.946 279.833 112C279.833 109.054 277.446 106.667 274.5 106.667C271.554 106.667 269.167 109.054 269.167 112ZM134 56V112H136V56H134ZM135 113H274.5V111H135V113Z" fill="black"/>
<path d="M191 186L201 191.774V180.226L191 186ZM259.667 186C259.667 188.946 262.054 191.333 265 191.333C267.946 191.333 270.333 188.946 270.333 186C270.333 183.054 267.946 180.667 265 180.667C262.054 180.667 259.667 183.054 259.667 186ZM200 187H265V185H200V187Z" fill="black"/>
<path d="M559.167 186C559.167 188.946 561.554 191.333 564.5 191.333C567.446 191.333 569.833 188.946 569.833 186C569.833 183.054 567.446 180.667 564.5 180.667C561.554 180.667 559.167 183.054 559.167 186ZM614 186L604 180.226V191.774L614 186ZM564.5 187H605V185H564.5V187Z" fill="black"/>
<path d="M287.167 284C287.167 286.946 289.554 289.333 292.5 289.333C295.446 289.333 297.833 286.946 297.833 284C297.833 281.054 295.446 278.667 292.5 278.667C289.554 278.667 287.167 281.054 287.167 284ZM225.5 284V283H224.5V284H225.5ZM225.5 354L231.274 344H219.726L225.5 354ZM292.5 283H225.5V285H292.5V283ZM224.5 284V345H226.5V284H224.5Z" fill="black"/>
<path d="M523.667 288.5C523.667 291.446 526.054 293.833 529 293.833C531.946 293.833 534.333 291.446 534.333 288.5C534.333 285.554 531.946 283.167 529 283.167C526.054 283.167 523.667 285.554 523.667 288.5ZM593 288.5H594V287.5H593V288.5ZM593 356L598.774 346H587.226L593 356ZM529 289.5H593V287.5H529V289.5ZM592 288.5V347H594V288.5H592Z" fill="black"/>
<defs>
<filter id="filter0_d_4425_10154" x="245" y="19" width="340" height="340" filterUnits="userSpaceOnUse" color-interpolation-filters="sRGB">
<feFlood flood-opacity="0" result="BackgroundImageFix"/>
<feColorMatrix in="SourceAlpha" type="matrix" values="0 0 0 0 0 0 0 0 0 0 0 0 0 0 0 0 0 0 127 0" result="hardAlpha"/>
<feOffset/>
<feGaussianBlur stdDeviation="10"/>
<feComposite in2="hardAlpha" operator="out"/>
<feColorMatrix type="matrix" values="0 0 0 0 0 0 0 0 0 0 0 0 0 0 0 0 0 0 0.25 0"/>
<feBlend mode="normal" in2="BackgroundImageFix" result="effect1_dropShadow_4425_10154"/>
<feBlend mode="normal" in="SourceGraphic" in2="effect1_dropShadow_4425_10154" result="shape"/>
</filter>
<filter id="filter1_d_4425_10154" x="253" y="27" width="324" height="324" filterUnits="userSpaceOnUse" color-interpolation-filters="sRGB">
<feFlood flood-opacity="0" result="BackgroundImageFix"/>
<feColorMatrix in="SourceAlpha" type="matrix" values="0 0 0 0 0 0 0 0 0 0 0 0 0 0 0 0 0 0 127 0" result="hardAlpha"/>
<feOffset/>
<feGaussianBlur stdDeviation="6"/>
<feComposite in2="hardAlpha" operator="out"/>
<feColorMatrix type="matrix" values="0 0 0 0 0 0 0 0 0 0 0 0 0 0 0 0 0 0 0.25 0"/>
<feBlend mode="normal" in2="BackgroundImageFix" result="effect1_dropShadow_4425_10154"/>
<feBlend mode="normal" in="SourceGraphic" in2="effect1_dropShadow_4425_10154" result="shape"/>
</filter>
</defs>
</svg>
