<svg width="25" height="24" viewBox="0 0 25 24" fill="none" xmlns="http://www.w3.org/2000/svg">
<g id="vuesax/bulk/arrow-square-right">
<g id="arrow-square-right">
<path id="Vector" opacity="0.4" d="M16.8892 2H8.50922C4.86922 2 2.69922 4.17 2.69922 7.81V16.18C2.69922 19.83 4.86922 22 8.50922 22H16.8792C20.5192 22 22.6892 19.83 22.6892 16.19V7.81C22.6992 4.17 20.5292 2 16.8892 2Z" fill="#92ABFE"/>
<path id="Vector_2" d="M11.4389 16.2797C11.2489 16.2797 11.0589 16.2097 10.9089 16.0597C10.6189 15.7697 10.6189 15.2897 10.9089 14.9997L13.9089 11.9997L10.9089 8.99967C10.6189 8.70967 10.6189 8.22967 10.9089 7.93967C11.1989 7.64967 11.6789 7.64967 11.9689 7.93967L15.4989 11.4697C15.7889 11.7597 15.7889 12.2397 15.4989 12.5297L11.9689 16.0597C11.8189 16.2097 11.6289 16.2797 11.4389 16.2797Z" fill="#92ABFE"/>
</g>
</g>
</svg>
