<svg width="20" height="20" viewBox="0 0 20 20" fill="none" xmlns="http://www.w3.org/2000/svg">
<g id="vuesax/bulk/refresh-square-2">
<g id="refresh-square-2">
<path id="Vector" opacity="0.4" d="M13.493 1.6665H6.51797C3.47631 1.6665 1.66797 3.47484 1.66797 6.50817V13.4832C1.66797 16.5165 3.4763 18.3248 6.50963 18.3248H13.4846C16.518 18.3248 18.3263 16.5165 18.3263 13.4832V6.50817C18.3346 3.47484 16.5263 1.6665 13.493 1.6665Z" fill="#92ABFE"/>
<g id="Group">
<path id="Vector_2" d="M14.9987 9.3916C14.6487 9.3916 14.3737 9.6666 14.3737 10.0166C14.3654 11.1833 13.9154 12.2749 13.0987 13.0916C12.2737 13.9166 11.1737 14.3749 10.007 14.3749C8.84038 14.3749 7.74036 13.9166 6.91536 13.0916C6.89036 13.0666 6.8737 13.0416 6.8487 13.0166H7.54036C7.88203 13.0166 8.16536 12.7333 8.16536 12.3916C8.16536 12.0499 7.88203 11.7666 7.54036 11.7666H5.33203C4.99036 11.7666 4.70703 12.0499 4.70703 12.3916V14.5999C4.70703 14.9416 4.99036 15.2249 5.33203 15.2249C5.6737 15.2249 5.95703 14.9416 5.95703 14.5999V13.8916C5.98203 13.9166 6.00703 13.9499 6.03203 13.9833C7.09036 15.0416 8.50704 15.6333 10.007 15.6333C11.507 15.6333 12.9237 15.0499 13.982 13.9833C15.032 12.9333 15.6154 11.5249 15.6237 10.0249C15.6237 9.67493 15.3404 9.39993 14.9987 9.3916Z" fill="#92ABFE"/>
<path id="Vector_3" d="M5.00018 10.5417C5.34185 10.5417 5.61685 10.2667 5.62518 9.925C5.64185 8.78333 6.10018 7.70833 6.90018 6.9C7.72518 6.075 8.82518 5.61667 9.99184 5.61667C11.1585 5.61667 12.2585 6.075 13.0835 6.9C13.1085 6.925 13.1252 6.95 13.1502 6.975H12.4585C12.1169 6.975 11.8335 7.25833 11.8335 7.6C11.8335 7.94167 12.1169 8.225 12.4585 8.225H14.6669C15.0085 8.225 15.2919 7.94167 15.2919 7.6V5.4C15.2919 5.05833 15.0085 4.775 14.6669 4.775C14.3252 4.775 14.0419 5.05833 14.0419 5.4V6.11667C14.0169 6.09167 13.9919 6.05833 13.9669 6.025C12.9085 4.96667 11.4918 4.375 9.99184 4.375C8.49184 4.375 7.07519 4.95833 6.01685 6.025C4.97519 7.05833 4.39185 8.44167 4.37518 9.90833C4.36685 10.25 4.64184 10.5333 4.99184 10.5417C5.00018 10.5417 5.00018 10.5417 5.00018 10.5417Z" fill="white"/>
</g>
</g>
</g>
</svg>
