<svg width="20" height="21" viewBox="0 0 20 21" fill="none" xmlns="http://www.w3.org/2000/svg">
<g id="vuesax/bulk/search-status">
<g id="search-status">
<path id="Vector" d="M12.082 9.4585H7.08203C6.74036 9.4585 6.45703 9.17516 6.45703 8.8335C6.45703 8.49183 6.74036 8.2085 7.08203 8.2085H12.082C12.4237 8.2085 12.707 8.49183 12.707 8.8335C12.707 9.17516 12.4237 9.4585 12.082 9.4585Z" fill="#92ABFE"/>
<path id="Vector_2" d="M9.58203 11.9585H7.08203C6.74036 11.9585 6.45703 11.6752 6.45703 11.3335C6.45703 10.9918 6.74036 10.7085 7.08203 10.7085H9.58203C9.9237 10.7085 10.207 10.9918 10.207 11.3335C10.207 11.6752 9.9237 11.9585 9.58203 11.9585Z" fill="#92ABFE"/>
<path id="Vector_3" opacity="0.4" d="M9.58464 17.9998C13.9569 17.9998 17.5013 14.4554 17.5013 10.0832C17.5013 5.71092 13.9569 2.1665 9.58464 2.1665C5.21238 2.1665 1.66797 5.71092 1.66797 10.0832C1.66797 14.4554 5.21238 17.9998 9.58464 17.9998Z" fill="#92ABFE"/>
<path id="Vector_4" d="M17.7482 18.8335C17.5982 18.8335 17.4482 18.7751 17.3398 18.6668L15.7898 17.1168C15.5648 16.8918 15.5648 16.5251 15.7898 16.2918C16.0148 16.0668 16.3815 16.0668 16.6148 16.2918L18.1648 17.8418C18.3898 18.0668 18.3898 18.4335 18.1648 18.6668C18.0482 18.7751 17.8982 18.8335 17.7482 18.8335Z" fill="#292D32"/>
</g>
</g>
</svg>
