<svg width="14" height="14" viewBox="0 0 14 14" fill="none" xmlns="http://www.w3.org/2000/svg">
<g id="vuesax/bold/wallet-3">
<g id="wallet-3">
<path id="Vector" d="M12.6046 7.45937V8.63958C12.6046 8.96042 12.341 9.22396 12.0145 9.22396H10.9087C10.29 9.22396 9.72281 8.77135 9.67124 8.1526C9.63687 7.79167 9.77437 7.45365 10.015 7.21875C10.227 7.00104 10.5192 6.875 10.84 6.875H12.0145C12.341 6.875 12.6046 7.13854 12.6046 7.45937Z" fill="#61CCFF"/>
<path id="Vector_2" d="M8.81211 8.22692C8.76055 7.62536 8.97826 7.03525 9.41367 6.60557C9.78034 6.23317 10.2902 6.01546 10.8402 6.01546H11.1668C11.3272 6.01546 11.459 5.88369 11.4361 5.72327C11.2814 4.61182 10.3189 3.75244 9.16732 3.75244H3.43815C2.17201 3.75244 1.14648 4.77796 1.14648 6.04411V10.0545C1.14648 11.3207 2.17201 12.3462 3.43815 12.3462H9.16732C10.3246 12.3462 11.2814 11.4868 11.4361 10.3754C11.459 10.2149 11.3272 10.0832 11.1668 10.0832H10.909C9.82044 10.0832 8.90378 9.26963 8.81211 8.22692ZM7.44857 7.04671H4.01107C3.77617 7.04671 3.58138 6.85765 3.58138 6.61702C3.58138 6.3764 3.77617 6.18734 4.01107 6.18734H7.44857C7.68346 6.18734 7.87826 6.38213 7.87826 6.61702C7.87826 6.85192 7.68346 7.04671 7.44857 7.04671Z" fill="#61CCFF"/>
<path id="Vector_3" d="M8.14172 2.50921C8.29067 2.6639 8.1589 2.89307 7.9412 2.89307H3.45526C2.83078 2.89307 2.2464 3.0764 1.75942 3.3915C1.53599 3.53473 1.23234 3.38005 1.34119 3.13369C1.66203 2.38317 2.41255 1.86182 3.27765 1.86182H6.49745C7.16203 1.86182 7.75213 2.09671 8.14172 2.50921Z" fill="#61CCFF"/>
</g>
</g>
</svg>
