<svg width="14" height="14" viewBox="0 0 14 14" fill="none" xmlns="http://www.w3.org/2000/svg">
<g id="vuesax/bold/wallet">
<g id="wallet">
<path id="Vector" d="M12.2917 8.04378V8.6167C12.2917 8.77139 12.1714 8.89743 12.011 8.90316H11.1745C10.8708 8.90316 10.5958 8.67972 10.5729 8.3818C10.5557 8.2042 10.6245 8.03805 10.7391 7.92347C10.8422 7.81462 10.9854 7.75732 11.1401 7.75732H12.0052C12.1714 7.76305 12.2917 7.8891 12.2917 8.04378Z" fill="#61CCFF"/>
<path id="Vector_2" d="M10.3074 7.49943C10.021 7.78016 9.88346 8.19839 9.99805 8.63381C10.147 9.16662 10.6684 9.50464 11.2184 9.50464H11.7168C12.0319 9.50464 12.2897 9.76245 12.2897 10.0776V10.1864C12.2897 11.3723 11.3215 12.3406 10.1355 12.3406H3.55846C2.37253 12.3406 1.4043 11.3723 1.4043 10.1864V6.33068C1.4043 5.62599 1.74232 5.00151 2.26367 4.61193C2.62461 4.33693 3.07148 4.17651 3.55846 4.17651H10.1355C11.3215 4.17651 12.2897 5.14474 12.2897 6.33068V6.58276C12.2897 6.89787 12.0319 7.15568 11.7168 7.15568H11.1324C10.8116 7.15568 10.5194 7.28172 10.3074 7.49943Z" fill="#61CCFF"/>
<path id="Vector_3" d="M9.28325 2.99038C9.43794 3.14507 9.30616 3.38569 9.08846 3.38569L4.68846 3.37996C4.43637 3.37996 4.3046 3.07059 4.48793 2.89299L5.41606 1.95913C6.20096 1.17996 7.47283 1.17996 8.25773 1.95913L9.26033 2.97319C9.26606 2.97892 9.27752 2.98465 9.28325 2.99038Z" fill="#61CCFF"/>
</g>
</g>
</svg>
