<svg width="15" height="14" viewBox="0 0 15 14" fill="none" xmlns="http://www.w3.org/2000/svg">
<g id="vuesax/bold/wallet-add">
<g id="wallet-add">
<path id="Vector" d="M3.43815 8.82275C2.17201 8.82275 1.14648 9.84827 1.14648 11.1144C1.14648 11.5441 1.2668 11.9509 1.47878 12.2946C1.87409 12.9592 2.60169 13.4061 3.43815 13.4061C4.27461 13.4061 5.00221 12.9592 5.39753 12.2946C5.60951 11.9509 5.72982 11.5441 5.72982 11.1144C5.72982 9.84827 4.7043 8.82275 3.43815 8.82275ZM4.2918 11.5326H3.86784V11.9795C3.86784 12.2144 3.67305 12.4092 3.43815 12.4092C3.20326 12.4092 3.00846 12.2144 3.00846 11.9795V11.5326H2.58451C2.34961 11.5326 2.15482 11.3379 2.15482 11.103C2.15482 10.8681 2.34961 10.6733 2.58451 10.6733H3.00846V10.2665C3.00846 10.0316 3.20326 9.83682 3.43815 9.83682C3.67305 9.83682 3.86784 10.0316 3.86784 10.2665V10.6733H4.2918C4.52669 10.6733 4.72148 10.8681 4.72148 11.103C4.72148 11.3379 4.53242 11.5326 4.2918 11.5326Z" fill="#61CCFF"/>
<path id="Vector_2" d="M12.8926 7.39038H11.4603C10.8301 7.39038 10.3145 7.90601 10.3145 8.53621C10.3145 9.16642 10.8301 9.68205 11.4603 9.68205H12.8926C13.053 9.68205 13.179 9.55601 13.179 9.39559V7.67684C13.179 7.51642 13.053 7.39038 12.8926 7.39038Z" fill="#61CCFF"/>
<path id="Vector_3" d="M10.044 3.3228C10.2159 3.48895 10.0727 3.74676 9.83207 3.74676L5.08832 3.74103C4.81332 3.74103 4.67582 3.40874 4.87061 3.21395L5.87322 2.20562C6.72113 1.36343 8.0904 1.36343 8.93832 2.20562L10.0211 3.29989C10.0269 3.30562 10.0383 3.31707 10.044 3.3228Z" fill="#61CCFF"/>
<path id="Vector_4" d="M13.104 10.9197C12.7546 12.0999 11.7462 12.8333 10.3712 12.8333H6.64727C6.42383 12.8333 6.2806 12.5869 6.37227 12.3806C6.54414 11.9796 6.653 11.527 6.653 11.1145C6.653 9.37856 5.23789 7.96346 3.50195 7.96346C3.06654 7.96346 2.64258 8.05513 2.25299 8.227C2.04102 8.31867 1.7832 8.17544 1.7832 7.94627V7.10409C1.7832 5.54575 2.72279 4.45721 4.18372 4.27388C4.32695 4.25096 4.48164 4.2395 4.64206 4.2395H10.3712C10.5202 4.2395 10.6634 4.24523 10.8009 4.26815C11.9582 4.39992 12.7947 5.10461 13.104 6.15304C13.1613 6.34211 13.0238 6.53117 12.829 6.53117H11.5171C10.2738 6.53117 9.28841 7.66554 9.55768 8.95461C9.74675 9.89419 10.6176 10.5416 11.5743 10.5416H12.829C13.0296 10.5416 13.1613 10.7364 13.104 10.9197Z" fill="#61CCFF"/>
</g>
</g>
</svg>
