<svg width="97" height="85" viewBox="0 0 97 85" fill="none" xmlns="http://www.w3.org/2000/svg">
<g filter="url(#filter0_ii_3716_12403)">
<mask id="mask0_3716_12403" style="mask-type:luminance" maskUnits="userSpaceOnUse" x="10" y="40" width="31" height="29">
<path d="M11.8594 45.3618L39.2453 48.4047V66.662L11.8594 63.6191V45.3618Z" fill="white" stroke="white" stroke-width="3.04288" stroke-linecap="round" stroke-linejoin="round"/>
<path d="M36.2024 48.0661V42.3188L11.8594 45.3617" stroke="white" stroke-width="3.04288" stroke-linecap="round" stroke-linejoin="round"/>
</mask>
<g mask="url(#mask0_3716_12403)">
<path d="M7.2959 36.2329H43.8105V72.7475H7.2959V36.2329Z" fill="url(#paint0_linear_3716_12403)"/>
</g>
<path d="M71.9872 14.5864H48.131C46.5493 14.5864 45.0323 15.2148 43.9138 16.3333C42.7953 17.4517 42.167 18.9687 42.167 20.5505V64.2868C42.167 65.8686 42.7953 67.3856 43.9138 68.5041C45.0323 69.6225 46.5493 70.2509 48.131 70.2509H71.9872C73.569 70.2509 75.086 69.6225 76.2045 68.5041C77.3229 67.3856 77.9513 65.8686 77.9513 64.2868V20.5505C77.9513 18.9687 77.3229 17.4517 76.2045 16.3333C75.086 15.2148 73.569 14.5864 71.9872 14.5864ZM68.0112 26.5145H52.1071C51.5798 26.5145 51.0742 26.3051 50.7013 25.9323C50.3285 25.5594 50.1191 25.0538 50.1191 24.5265C50.1191 23.9993 50.3285 23.4936 50.7013 23.1208C51.0742 22.7479 51.5798 22.5385 52.1071 22.5385H68.0112C68.5385 22.5385 69.0441 22.7479 69.417 23.1208C69.7898 23.4936 69.9992 23.9993 69.9992 24.5265C69.9992 25.0538 69.7898 25.5594 69.417 25.9323C69.0441 26.3051 68.5385 26.5145 68.0112 26.5145Z" fill="url(#paint1_linear_3716_12403)"/>
</g>
<g filter="url(#filter1_d_3716_12403)">
<path d="M83.4897 46.1212C82.1965 46.1212 80.955 45.9143 79.7963 45.5315C79.6144 45.4736 79.4201 45.4661 79.2343 45.5098C79.0485 45.5535 78.878 45.6468 78.741 45.7798L76.4649 48.0559C73.5307 46.5632 71.1442 44.1802 69.647 41.2483L71.9231 38.9619C72.2128 38.6826 72.2956 38.2791 72.1818 37.917C71.7893 36.7252 71.5902 35.4783 71.592 34.2235C71.592 33.6545 71.1265 33.189 70.5575 33.189H66.9364C66.3674 33.189 65.9019 33.6545 65.9019 34.2235C65.9019 43.9383 73.775 51.8114 83.4897 51.8114C84.0587 51.8114 84.5243 51.3458 84.5243 50.7768V47.1558C84.5243 46.5868 84.0587 46.1212 83.4897 46.1212ZM75.2131 33.189V43.5348L78.3168 40.431H84.5243V33.189H75.2131Z" fill="url(#paint2_linear_3716_12403)"/>
</g>
<path d="M52.4641 31.688H51.7198L52.8539 28.4026H53.7491L54.8816 31.688H54.1373L53.3144 29.1534H53.2887L52.4641 31.688ZM52.4176 30.3966H54.1758V30.9388H52.4176V30.3966ZM55.2775 31.688V29.2239H55.9609V31.688H55.2775ZM55.6208 28.9063C55.5192 28.9063 55.432 28.8726 55.3593 28.8053C55.2876 28.7368 55.2518 28.655 55.2518 28.5598C55.2518 28.4657 55.2876 28.385 55.3593 28.3176C55.432 28.2491 55.5192 28.2149 55.6208 28.2149C55.7224 28.2149 55.809 28.2491 55.8807 28.3176C55.9534 28.385 55.9897 28.4657 55.9897 28.5598C55.9897 28.655 55.9534 28.7368 55.8807 28.8053C55.809 28.8726 55.7224 28.9063 55.6208 28.9063ZM56.5083 31.688V29.2239H57.1708V29.6539H57.1965C57.2414 29.5009 57.3168 29.3854 57.4227 29.3074C57.5286 29.2282 57.6505 29.1887 57.7884 29.1887C57.8227 29.1887 57.8596 29.1908 57.8991 29.1951C57.9387 29.1994 57.9735 29.2052 58.0034 29.2127V29.8191C57.9713 29.8095 57.9269 29.8009 57.8703 29.7934C57.8136 29.786 57.7617 29.7822 57.7147 29.7822C57.6141 29.7822 57.5243 29.8041 57.4451 29.848C57.3671 29.8908 57.305 29.9506 57.2591 30.0276C57.2141 30.1047 57.1917 30.1934 57.1917 30.2939V31.688H56.5083ZM59.7909 29.2239V29.7373H58.307V29.2239H59.7909ZM58.6439 28.6336H59.3273V30.9308C59.3273 30.9939 59.3369 31.0431 59.3561 31.0784C59.3754 31.1126 59.4021 31.1367 59.4364 31.1506C59.4716 31.1645 59.5123 31.1714 59.5583 31.1714C59.5904 31.1714 59.6224 31.1688 59.6545 31.1634C59.6866 31.157 59.7112 31.1522 59.7283 31.149L59.8358 31.6575C59.8016 31.6682 59.7534 31.6805 59.6914 31.6944C59.6294 31.7094 59.554 31.7185 59.4652 31.7217C59.3005 31.7281 59.1562 31.7062 59.0321 31.6559C58.9091 31.6056 58.8134 31.5276 58.7449 31.4217C58.6765 31.3158 58.6428 31.1821 58.6439 31.0206V28.6336ZM60.236 31.688V29.2239H60.9194V31.688H60.236ZM60.5793 28.9063C60.4777 28.9063 60.3906 28.8726 60.3179 28.8053C60.2462 28.7368 60.2104 28.655 60.2104 28.5598C60.2104 28.4657 60.2462 28.385 60.3179 28.3176C60.3906 28.2491 60.4777 28.2149 60.5793 28.2149C60.6809 28.2149 60.7676 28.2491 60.8392 28.3176C60.9119 28.385 60.9483 28.4657 60.9483 28.5598C60.9483 28.655 60.9119 28.7368 60.8392 28.8053C60.7676 28.8726 60.6809 28.9063 60.5793 28.9063ZM61.4669 31.688V29.2239H62.1182V29.6587H62.147C62.1984 29.5143 62.2839 29.4004 62.4037 29.317C62.5235 29.2336 62.6668 29.1919 62.8336 29.1919C63.0026 29.1919 63.1464 29.2341 63.2652 29.3186C63.3839 29.402 63.463 29.5154 63.5026 29.6587H63.5282C63.5785 29.5175 63.6694 29.4047 63.801 29.3202C63.9336 29.2346 64.0902 29.1919 64.271 29.1919C64.5009 29.1919 64.6875 29.2651 64.8308 29.4116C64.9752 29.5571 65.0474 29.7635 65.0474 30.0309V31.688H64.3656V30.1656C64.3656 30.0287 64.3293 29.9261 64.2565 29.8576C64.1838 29.7892 64.0929 29.7549 63.9838 29.7549C63.8598 29.7549 63.763 29.7945 63.6935 29.8736C63.624 29.9517 63.5892 30.0549 63.5892 30.1833V31.688H62.9267V30.1512C62.9267 30.0303 62.8919 29.9341 62.8224 29.8624C62.754 29.7908 62.6636 29.7549 62.5513 29.7549C62.4754 29.7549 62.4069 29.7742 62.346 29.8127C62.2861 29.8501 62.2385 29.9031 62.2032 29.9715C62.1679 30.0389 62.1502 30.118 62.1502 30.2089V31.688H61.4669ZM66.7102 31.7361C66.4567 31.7361 66.2385 31.6848 66.0556 31.5821C65.8738 31.4784 65.7337 31.3319 65.6354 31.1426C65.537 30.9522 65.4878 30.7271 65.4878 30.4672C65.4878 30.2137 65.537 29.9913 65.6354 29.7999C65.7337 29.6084 65.8722 29.4592 66.0508 29.3523C66.2305 29.2453 66.4412 29.1919 66.6829 29.1919C66.8454 29.1919 66.9968 29.2181 67.1369 29.2705C67.278 29.3218 67.401 29.3993 67.5058 29.5031C67.6117 29.6068 67.6941 29.7373 67.7529 29.8945C67.8117 30.0506 67.8411 30.2335 67.8411 30.4431V30.6308H65.7605V30.2073H67.1978C67.1978 30.1089 67.1764 30.0218 67.1337 29.9458C67.0909 29.8699 67.0315 29.8105 66.9556 29.7678C66.8807 29.7239 66.7936 29.702 66.6941 29.702C66.5904 29.702 66.4984 29.7261 66.4182 29.7742C66.3391 29.8212 66.277 29.8849 66.2321 29.9651C66.1872 30.0442 66.1642 30.1325 66.1631 30.2298V30.6324C66.1631 30.7543 66.1856 30.8597 66.2305 30.9485C66.2765 31.0372 66.3412 31.1057 66.4246 31.1538C66.508 31.2019 66.607 31.226 66.7214 31.226C66.7973 31.226 66.8668 31.2153 66.9299 31.1939C66.993 31.1725 67.047 31.1404 67.092 31.0976C67.1369 31.0549 67.1711 31.0025 67.1946 30.9404L67.8267 30.9821C67.7946 31.134 67.7288 31.2666 67.6294 31.38C67.531 31.4923 67.4037 31.58 67.2476 31.6431C67.0925 31.7051 66.9134 31.7361 66.7102 31.7361Z" fill="#2110BD"/>
<path d="M52.4641 31.688V31.9139H52.6282L52.6789 31.7579L52.4641 31.688ZM51.7198 31.688L51.5063 31.6143L51.4029 31.9139H51.7198V31.688ZM52.8539 28.4026V28.1767H52.693L52.6404 28.3289L52.8539 28.4026ZM53.7491 28.4026L53.9626 28.329L53.9101 28.1767H53.7491V28.4026ZM54.8816 31.688V31.9139H55.1984L55.0952 31.6144L54.8816 31.688ZM54.1373 31.688L53.9225 31.7577L53.9732 31.9139H54.1373V31.688ZM53.3144 29.1534L53.5292 29.0836L53.4785 28.9275H53.3144V29.1534ZM53.2887 29.1534V28.9275H53.1246L53.0739 29.0835L53.2887 29.1534ZM52.4176 30.3966V30.1707H52.1917V30.3966H52.4176ZM54.1758 30.3966H54.4017V30.1707H54.1758V30.3966ZM54.1758 30.9388V31.1647H54.4017V30.9388H54.1758ZM52.4176 30.9388H52.1917V31.1647H52.4176V30.9388ZM52.4641 31.4621H51.7198V31.9139H52.4641V31.4621ZM51.9333 31.7617L53.0675 28.4763L52.6404 28.3289L51.5063 31.6143L51.9333 31.7617ZM52.8539 28.6285H53.7491V28.1767H52.8539V28.6285ZM53.5356 28.4762L54.6681 31.7616L55.0952 31.6144L53.9626 28.329L53.5356 28.4762ZM54.8816 31.4621H54.1373V31.9139H54.8816V31.4621ZM54.3521 31.6182L53.5292 29.0836L53.0995 29.2231L53.9225 31.7577L54.3521 31.6182ZM53.3144 28.9275H53.2887V29.3792H53.3144V28.9275ZM53.0739 29.0835L52.2493 31.6181L52.6789 31.7579L53.5035 29.2232L53.0739 29.0835ZM52.4176 30.6225H54.1758V30.1707H52.4176V30.6225ZM53.9499 30.3966V30.9388H54.4017V30.3966H53.9499ZM54.1758 30.713H52.4176V31.1647H54.1758V30.713ZM52.6435 30.9388V30.3966H52.1917V30.9388H52.6435ZM55.2775 31.688H55.0516V31.9139H55.2775V31.688ZM55.2775 29.2239V28.9981H55.0516V29.2239H55.2775ZM55.9609 29.2239H56.1867V28.9981H55.9609V29.2239ZM55.9609 31.688V31.9139H56.1867V31.688H55.9609ZM55.3593 28.8053L55.2033 28.9686L55.2058 28.9709L55.3593 28.8053ZM55.3593 28.3176L55.514 28.4821L55.5141 28.4821L55.3593 28.3176ZM55.8807 28.3176L55.7246 28.4809L55.7272 28.4833L55.8807 28.3176ZM55.8807 28.8053L56.0354 28.9698L56.0355 28.9697L55.8807 28.8053ZM55.5034 31.688V29.2239H55.0516V31.688H55.5034ZM55.2775 29.4498H55.9609V28.9981H55.2775V29.4498ZM55.735 29.2239V31.688H56.1867V29.2239H55.735ZM55.9609 31.4621H55.2775V31.9139H55.9609V31.4621ZM55.6208 28.6804C55.5745 28.6804 55.5426 28.6672 55.5128 28.6396L55.2058 28.9709C55.3214 29.0781 55.4638 29.1322 55.6208 29.1322V28.6804ZM55.5153 28.6419C55.4862 28.6141 55.4777 28.5905 55.4777 28.5598H55.0259C55.0259 28.7195 55.0891 28.8595 55.2033 28.9686L55.5153 28.6419ZM55.4777 28.5598C55.4777 28.5311 55.4855 28.509 55.514 28.4821L55.2046 28.153C55.0898 28.2609 55.0259 28.4003 55.0259 28.5598H55.4777ZM55.5141 28.4821C55.5441 28.4538 55.5756 28.4408 55.6208 28.4408V27.989C55.4628 27.989 55.3199 28.0445 55.2045 28.1531L55.5141 28.4821ZM55.6208 28.4408C55.6659 28.4408 55.6962 28.4537 55.7246 28.4809L56.0367 28.1543C55.9218 28.0445 55.7789 27.989 55.6208 27.989V28.4408ZM55.7272 28.4833C55.7565 28.5105 55.7639 28.5323 55.7639 28.5598H56.2156C56.2156 28.3991 56.1503 28.2594 56.0342 28.1519L55.7272 28.4833ZM55.7639 28.5598C55.7639 28.5894 55.7557 28.6127 55.7259 28.6408L56.0355 28.9697C56.151 28.861 56.2156 28.7206 56.2156 28.5598H55.7639ZM55.7259 28.6407C55.6977 28.6673 55.667 28.6804 55.6208 28.6804V29.1322C55.7778 29.1322 55.9203 29.078 56.0354 28.9698L55.7259 28.6407ZM56.5083 31.688H56.2824V31.9139H56.5083V31.688ZM56.5083 29.2239V28.9981H56.2824V29.2239H56.5083ZM57.1708 29.2239H57.3967V28.9981H57.1708V29.2239ZM57.1708 29.6539H56.945V29.8797H57.1708V29.6539ZM57.1965 29.6539V29.8797H57.3656L57.4132 29.7175L57.1965 29.6539ZM57.4227 29.3074L57.5567 29.4892L57.5579 29.4883L57.4227 29.3074ZM57.8991 29.1951L57.9234 28.9705L57.9234 28.9705L57.8991 29.1951ZM58.0034 29.2127H58.2293V29.0364L58.0582 28.9936L58.0034 29.2127ZM58.0034 29.8191L57.9385 30.0354L58.2293 30.1227V29.8191H58.0034ZM57.4451 29.848L57.5537 30.0461L57.5546 30.0456L57.4451 29.848ZM57.2591 30.0276L57.0651 29.9118L57.064 29.9138L57.2591 30.0276ZM57.1917 31.688V31.9139H57.4176V31.688H57.1917ZM56.7342 31.688V29.2239H56.2824V31.688H56.7342ZM56.5083 29.4498H57.1708V28.9981H56.5083V29.4498ZM56.945 29.2239V29.6539H57.3967V29.2239H56.945ZM57.1708 29.8797H57.1965V29.428H57.1708V29.8797ZM57.4132 29.7175C57.4472 29.6017 57.4984 29.5322 57.5567 29.4892L57.2886 29.1256C57.1352 29.2387 57.0356 29.4002 56.9798 29.5902L57.4132 29.7175ZM57.5579 29.4883C57.623 29.4397 57.697 29.4145 57.7884 29.4145V28.9628C57.604 28.9628 57.4342 29.0168 57.2875 29.1265L57.5579 29.4883ZM57.7884 29.4145C57.8134 29.4145 57.8421 29.4161 57.8749 29.4196L57.9234 28.9705C57.877 28.9655 57.832 28.9628 57.7884 28.9628V29.4145ZM57.8749 29.4196C57.9069 29.4231 57.9311 29.4275 57.9486 29.4318L58.0582 28.9936C58.0158 28.983 57.9705 28.9756 57.9234 28.9705L57.8749 29.4196ZM57.7775 29.2127V29.8191H58.2293V29.2127H57.7775ZM58.0683 29.6028C58.0194 29.5881 57.9614 29.5776 57.8998 29.5695L57.8407 30.0174C57.8925 30.0242 57.9232 30.0309 57.9385 30.0354L58.0683 29.6028ZM57.8998 29.5695C57.8353 29.561 57.7734 29.5563 57.7147 29.5563V30.0081C57.75 30.0081 57.7918 30.0109 57.8407 30.0174L57.8998 29.5695ZM57.7147 29.5563C57.5802 29.5563 57.4519 29.586 57.3357 29.6504L57.5546 30.0456C57.5966 30.0223 57.6481 30.0081 57.7147 30.0081V29.5563ZM57.3366 29.6499C57.223 29.7122 57.1316 29.8006 57.0651 29.9118L57.453 30.1435C57.4785 30.1007 57.5112 30.0694 57.5537 30.0461L57.3366 29.6499ZM57.064 29.9138C56.9964 30.0296 56.9658 30.1586 56.9658 30.2939H57.4176C57.4176 30.2282 57.4319 30.1797 57.4542 30.1415L57.064 29.9138ZM56.9658 30.2939V31.688H57.4176V30.2939H56.9658ZM57.1917 31.4621H56.5083V31.9139H57.1917V31.4621ZM59.7909 29.2239H60.0167V28.9981H59.7909V29.2239ZM59.7909 29.7373V29.9632H60.0167V29.7373H59.7909ZM58.307 29.7373H58.0811V29.9632H58.307V29.7373ZM58.307 29.2239V28.9981H58.0811V29.2239H58.307ZM58.6439 28.6336V28.4077H58.418V28.6336H58.6439ZM59.3273 28.6336H59.5531V28.4077H59.3273V28.6336ZM59.3561 31.0784L59.1578 31.1866L59.1593 31.1891L59.3561 31.0784ZM59.4364 31.1506L59.3513 31.3599L59.3536 31.3607L59.4364 31.1506ZM59.6545 31.1634L59.6917 31.3863L59.6988 31.3849L59.6545 31.1634ZM59.7283 31.149L59.9493 31.1023L59.9037 30.8863L59.6867 30.927L59.7283 31.149ZM59.8358 31.6575L59.9032 31.8731L60.0993 31.8118L60.0568 31.6108L59.8358 31.6575ZM59.6914 31.6944L59.642 31.474L59.6384 31.4748L59.6914 31.6944ZM59.4652 31.7217L59.4571 31.496L59.4564 31.496L59.4652 31.7217ZM59.0321 31.6559L58.9466 31.865L58.9473 31.8652L59.0321 31.6559ZM58.7449 31.4217L58.9346 31.2991L58.7449 31.4217ZM58.6439 31.0206L58.8698 31.0221V31.0206H58.6439ZM59.565 29.2239V29.7373H60.0167V29.2239H59.565ZM59.7909 29.5114H58.307V29.9632H59.7909V29.5114ZM58.5329 29.7373V29.2239H58.0811V29.7373H58.5329ZM58.307 29.4498H59.7909V28.9981H58.307V29.4498ZM58.6439 28.8595H59.3273V28.4077H58.6439V28.8595ZM59.1014 28.6336V30.9308H59.5531V28.6336H59.1014ZM59.1014 30.9308C59.1014 31.0122 59.113 31.1044 59.1579 31.1866L59.5544 30.9702C59.5582 30.9772 59.5576 30.9789 59.5562 30.9717C59.5547 30.9645 59.5531 30.9514 59.5531 30.9308H59.1014ZM59.1593 31.1891C59.2019 31.2649 59.2667 31.3254 59.3513 31.3598L59.5214 30.9413C59.5278 30.944 59.5351 30.9483 59.5417 30.9542C59.5482 30.9601 59.5517 30.9653 59.553 30.9677L59.1593 31.1891ZM59.3536 31.3607C59.4202 31.387 59.4898 31.3973 59.5583 31.3973V30.9456C59.5348 30.9456 59.5231 30.942 59.5191 30.9404L59.3536 31.3607ZM59.5583 31.3973C59.603 31.3973 59.6475 31.3936 59.6917 31.3862L59.6174 30.9406C59.5974 30.944 59.5777 30.9456 59.5583 30.9456V31.3973ZM59.6988 31.3849C59.7306 31.3785 59.7542 31.3739 59.7699 31.371L59.6867 30.927C59.6682 30.9304 59.6426 30.9355 59.6102 30.9419L59.6988 31.3849ZM59.5073 31.1957L59.6148 31.7042L60.0568 31.6108L59.9493 31.1023L59.5073 31.1957ZM59.7684 31.4419C59.743 31.4499 59.7018 31.4606 59.642 31.474L59.7408 31.9148C59.8051 31.9004 59.8602 31.8865 59.9032 31.8731L59.7684 31.4419ZM59.6384 31.4748C59.5956 31.4852 59.5361 31.4931 59.4571 31.496L59.4734 31.9474C59.5719 31.9438 59.6632 31.9336 59.7444 31.914L59.6384 31.4748ZM59.4564 31.496C59.3165 31.5014 59.2052 31.4824 59.1169 31.4466L58.9473 31.8652C59.1071 31.93 59.2845 31.9548 59.474 31.9474L59.4564 31.496ZM59.1175 31.4468C59.0349 31.413 58.9766 31.364 58.9346 31.2991L58.5553 31.5443C58.6502 31.6912 58.7833 31.7982 58.9466 31.865L59.1175 31.4468ZM58.9346 31.2991C58.896 31.2393 58.8689 31.1519 58.8697 31.0221L58.418 31.0191C58.4167 31.2124 58.457 31.3924 58.5553 31.5443L58.9346 31.2991ZM58.8698 31.0206V28.6336H58.418V31.0206H58.8698ZM60.236 31.688H60.0102V31.9139H60.236V31.688ZM60.236 29.2239V28.9981H60.0102V29.2239H60.236ZM60.9194 29.2239H61.1453V28.9981H60.9194V29.2239ZM60.9194 31.688V31.9139H61.1453V31.688H60.9194ZM60.3179 28.8053L60.1618 28.9686L60.1643 28.9709L60.3179 28.8053ZM60.3179 28.3176L60.4726 28.4821L60.4727 28.4821L60.3179 28.3176ZM60.8392 28.3176L60.6832 28.4809L60.6857 28.4833L60.8392 28.3176ZM60.8392 28.8053L60.9939 28.9698L60.994 28.9697L60.8392 28.8053ZM60.4619 31.688V29.2239H60.0102V31.688H60.4619ZM60.236 29.4498H60.9194V28.9981H60.236V29.4498ZM60.6936 29.2239V31.688H61.1453V29.2239H60.6936ZM60.9194 31.4621H60.236V31.9139H60.9194V31.4621ZM60.5793 28.6804C60.5331 28.6804 60.5012 28.6672 60.4714 28.6396L60.1643 28.9709C60.28 29.0781 60.4224 29.1322 60.5793 29.1322V28.6804ZM60.4739 28.6419C60.4448 28.6141 60.4362 28.5905 60.4362 28.5598H59.9845C59.9845 28.7195 60.0476 28.8595 60.1618 28.9686L60.4739 28.6419ZM60.4362 28.5598C60.4362 28.5311 60.444 28.509 60.4726 28.4821L60.1631 28.153C60.0484 28.2609 59.9845 28.4003 59.9845 28.5598H60.4362ZM60.4727 28.4821C60.5027 28.4538 60.5342 28.4408 60.5793 28.4408V27.989C60.4213 27.989 60.2785 28.0445 60.1631 28.1531L60.4727 28.4821ZM60.5793 28.4408C60.6245 28.4408 60.6547 28.4537 60.6832 28.4809L60.9952 28.1543C60.8804 28.0445 60.7374 27.989 60.5793 27.989V28.4408ZM60.6857 28.4833C60.7151 28.5105 60.7224 28.5323 60.7224 28.5598H61.1742C61.1742 28.3991 61.1088 28.2594 60.9927 28.1519L60.6857 28.4833ZM60.7224 28.5598C60.7224 28.5894 60.7143 28.6127 60.6844 28.6408L60.994 28.9697C61.1096 28.861 61.1742 28.7206 61.1742 28.5598H60.7224ZM60.6845 28.6407C60.6562 28.6673 60.6255 28.6804 60.5793 28.6804V29.1322C60.7363 29.1322 60.8789 29.078 60.9939 28.9698L60.6845 28.6407ZM61.4669 31.688H61.241V31.9139H61.4669V31.688ZM61.4669 29.2239V28.9981H61.241V29.2239H61.4669ZM62.1182 29.2239H62.344V28.9981H62.1182V29.2239ZM62.1182 29.6587H61.8923V29.8846H62.1182V29.6587ZM62.147 29.6587V29.8846H62.3064L62.3599 29.7344L62.147 29.6587ZM62.4037 29.317L62.2746 29.1316V29.1316L62.4037 29.317ZM63.2652 29.3186L63.1342 29.5026L63.1353 29.5034L63.2652 29.3186ZM63.5026 29.6587L63.2849 29.7188L63.3306 29.8846H63.5026V29.6587ZM63.5282 29.6587V29.8846H63.6876L63.741 29.7344L63.5282 29.6587ZM63.801 29.3202L63.923 29.5102L63.9234 29.51L63.801 29.3202ZM64.8308 29.4116L64.6694 29.5696L64.6705 29.5708L64.8308 29.4116ZM65.0474 31.688V31.9139H65.2733V31.688H65.0474ZM64.3656 31.688H64.1398V31.9139H64.3656V31.688ZM64.2565 29.8576L64.1017 30.0221V30.0221L64.2565 29.8576ZM63.6935 29.8736L63.8622 30.0239L63.8632 30.0227L63.6935 29.8736ZM63.5892 31.688V31.9139H63.8151V31.688H63.5892ZM62.9267 31.688H62.7008V31.9139H62.9267V31.688ZM62.8224 29.8624L62.6591 30.0184L62.6603 30.0197L62.8224 29.8624ZM62.346 29.8127L62.4657 30.0042L62.4666 30.0037L62.346 29.8127ZM62.2032 29.9715L62.4033 30.0763L62.4039 30.075L62.2032 29.9715ZM62.1502 31.688V31.9139H62.3761V31.688H62.1502ZM61.6927 31.688V29.2239H61.241V31.688H61.6927ZM61.4669 29.4498H62.1182V28.9981H61.4669V29.4498ZM61.8923 29.2239V29.6587H62.344V29.2239H61.8923ZM62.1182 29.8846H62.147V29.4328H62.1182V29.8846ZM62.3599 29.7344C62.3962 29.632 62.4537 29.5574 62.5328 29.5023L62.2746 29.1316C62.1142 29.2434 62.0005 29.3966 61.9342 29.583L62.3599 29.7344ZM62.5328 29.5023C62.6094 29.449 62.7061 29.4177 62.8336 29.4177V28.966C62.6275 28.966 62.4375 29.0182 62.2746 29.1316L62.5328 29.5023ZM62.8336 29.4177C62.9634 29.4177 63.0596 29.4495 63.1342 29.5026L63.3961 29.1346C63.2333 29.0187 63.0418 28.966 62.8336 28.966V29.4177ZM63.1353 29.5034C63.21 29.5559 63.2589 29.6246 63.2849 29.7188L63.7203 29.5986C63.6672 29.4061 63.5577 29.2481 63.395 29.1338L63.1353 29.5034ZM63.5026 29.8846H63.5282V29.4328H63.5026V29.8846ZM63.741 29.7344C63.7738 29.6425 63.8316 29.569 63.923 29.5102L63.6789 29.1302C63.5073 29.2404 63.3833 29.3925 63.3155 29.5829L63.741 29.7344ZM63.9234 29.51C64.0144 29.4513 64.1272 29.4177 64.271 29.4177V28.966C64.0533 28.966 63.8527 29.018 63.6785 29.1304L63.9234 29.51ZM64.271 29.4177C64.4483 29.4177 64.5739 29.472 64.6694 29.5696L64.9923 29.2537C64.8012 29.0583 64.5536 28.966 64.271 28.966V29.4177ZM64.6705 29.5708C64.7613 29.6622 64.8215 29.8042 64.8215 30.0309H65.2733C65.2733 29.7228 65.1892 29.452 64.9912 29.2525L64.6705 29.5708ZM64.8215 30.0309V31.688H65.2733V30.0309H64.8215ZM65.0474 31.4621H64.3656V31.9139H65.0474V31.4621ZM64.5915 31.688V30.1656H64.1398V31.688H64.5915ZM64.5915 30.1656C64.5915 29.9903 64.5443 29.8182 64.4114 29.6931L64.1017 30.0221C64.1143 30.0339 64.1398 30.0672 64.1398 30.1656H64.5915ZM64.4114 29.6931C64.2927 29.5814 64.1447 29.5291 63.9838 29.5291V29.9808C64.0412 29.9808 64.075 29.9969 64.1017 30.0221L64.4114 29.6931ZM63.9838 29.5291C63.8075 29.5291 63.6439 29.5878 63.5238 29.7246L63.8632 30.0227C63.8821 30.0012 63.9121 29.9808 63.9838 29.9808V29.5291ZM63.5248 29.7234C63.4105 29.8518 63.3633 30.0127 63.3633 30.1833H63.8151C63.8151 30.0971 63.8374 30.0517 63.8622 30.0239L63.5248 29.7234ZM63.3633 30.1833V31.688H63.8151V30.1833H63.3633ZM63.5892 31.4621H62.9267V31.9139H63.5892V31.4621ZM63.1525 31.688V30.1512H62.7008V31.688H63.1525ZM63.1525 30.1512C63.1525 29.9847 63.1032 29.8275 62.9845 29.7051L62.6603 30.0197C62.6806 30.0406 62.7008 30.0759 62.7008 30.1512H63.1525ZM62.9857 29.7064C62.8688 29.584 62.7163 29.5291 62.5513 29.5291V29.9808C62.6109 29.9808 62.6391 29.9975 62.6591 30.0184L62.9857 29.7064ZM62.5513 29.5291C62.435 29.5291 62.3244 29.5592 62.2253 29.6217L62.4666 30.0037C62.4895 29.9892 62.5157 29.9808 62.5513 29.9808V29.5291ZM62.2262 29.6212C62.1288 29.682 62.0546 29.7668 62.0024 29.868L62.4039 30.075C62.4224 30.0393 62.4433 30.0182 62.4657 30.0042L62.2262 29.6212ZM62.0031 29.8667C61.9479 29.9722 61.9244 30.0886 61.9244 30.2089H62.3761C62.3761 30.1474 62.3879 30.1056 62.4033 30.0763L62.0031 29.8667ZM61.9244 30.2089V31.688H62.3761V30.2089H61.9244ZM62.1502 31.4621H61.4669V31.9139H62.1502V31.4621ZM66.0556 31.5821L65.9437 31.7783L65.9451 31.7791L66.0556 31.5821ZM65.6354 31.1426L65.4347 31.2463L65.4349 31.2467L65.6354 31.1426ZM65.6354 29.7999L65.4345 29.6966L65.6354 29.7999ZM66.0508 29.3523L65.9353 29.1582L65.9348 29.1585L66.0508 29.3523ZM67.1369 29.2705L67.0577 29.482L67.0597 29.4827L67.1369 29.2705ZM67.5058 29.5031L67.3469 29.6636L67.3478 29.6644L67.5058 29.5031ZM67.7529 29.8945L67.5413 29.9737L67.5415 29.9741L67.7529 29.8945ZM67.8411 30.6308V30.8567H68.067V30.6308H67.8411ZM65.7605 30.6308H65.5346V30.8567H65.7605V30.6308ZM65.7605 30.2073V29.9814H65.5346V30.2073H65.7605ZM67.1978 30.2073V30.4332H67.4237V30.2073H67.1978ZM67.1337 29.9458L66.9369 30.0567V30.0567L67.1337 29.9458ZM66.9556 29.7678L66.8414 29.9627L66.8447 29.9646L66.9556 29.7678ZM66.4182 29.7742L66.5336 29.9683L66.5344 29.9679L66.4182 29.7742ZM66.2321 29.9651L66.4285 30.0766L66.4292 30.0754L66.2321 29.9651ZM66.1631 30.2298L65.9373 30.2273V30.2298H66.1631ZM66.2305 30.9485L66.029 31.0504L66.03 31.0524L66.2305 30.9485ZM66.9299 31.1939L66.8574 30.98L66.9299 31.1939ZM67.092 31.0976L66.9362 30.9341L66.9362 30.9341L67.092 31.0976ZM67.1946 30.9404L67.2095 30.7151L67.0427 30.704L66.9834 30.8603L67.1946 30.9404ZM67.8267 30.9821L68.0477 31.0288L68.1015 30.7739L67.8416 30.7568L67.8267 30.9821ZM67.6294 31.38L67.4596 31.231L67.4595 31.2311L67.6294 31.38ZM67.2476 31.6431L67.3315 31.8528L67.3322 31.8525L67.2476 31.6431ZM66.7102 31.5102C66.4874 31.5102 66.3089 31.4653 66.1662 31.3852L65.9451 31.7791C66.1681 31.9043 66.426 31.962 66.7102 31.962V31.5102ZM66.1676 31.3859C66.0243 31.3042 65.9145 31.1899 65.8358 31.0384L65.4349 31.2467C65.553 31.4738 65.7234 31.6526 65.9437 31.7783L66.1676 31.3859ZM65.836 31.0389C65.7573 30.8867 65.7136 30.6986 65.7136 30.4672H65.2619C65.2619 30.7556 65.3166 31.0177 65.4347 31.2463L65.836 31.0389ZM65.7136 30.4672C65.7136 30.2433 65.7569 30.0574 65.8362 29.9031L65.4345 29.6966C65.317 29.9252 65.2619 30.1842 65.2619 30.4672H65.7136ZM65.8362 29.9031C65.916 29.7478 66.0257 29.6306 66.1669 29.5461L65.9348 29.1585C65.7187 29.2879 65.5514 29.469 65.4345 29.6966L65.8362 29.9031ZM66.1664 29.5464C66.3059 29.4633 66.4754 29.4177 66.6829 29.4177V28.966C66.407 28.966 66.1551 29.0274 65.9353 29.1582L66.1664 29.5464ZM66.6829 29.4177C66.8208 29.4177 66.9451 29.4399 67.0577 29.482L67.216 29.0589C67.0485 28.9963 66.8701 28.966 66.6829 28.966V29.4177ZM67.0597 29.4827C67.1708 29.5231 67.2658 29.5833 67.3469 29.6636L67.6647 29.3425C67.5363 29.2154 67.3853 29.1205 67.2141 29.0582L67.0597 29.4827ZM67.3478 29.6644C67.4271 29.7421 67.4926 29.8433 67.5413 29.9737L67.9644 29.8154C67.8956 29.6313 67.7964 29.4715 67.6639 29.3417L67.3478 29.6644ZM67.5415 29.9741C67.5886 30.0992 67.6152 30.254 67.6152 30.4431H68.067C68.067 30.213 68.0348 30.0021 67.9643 29.8149L67.5415 29.9741ZM67.6152 30.4431V30.6308H68.067V30.4431H67.6152ZM67.8411 30.405H65.7605V30.8567H67.8411V30.405ZM65.9863 30.6308V30.2073H65.5346V30.6308H65.9863ZM65.7605 30.4332H67.1978V29.9814H65.7605V30.4332ZM67.4237 30.2073C67.4237 30.0752 67.3947 29.9489 67.3305 29.835L66.9369 30.0567C66.9582 30.0946 66.972 30.1427 66.972 30.2073H67.4237ZM67.3305 29.835C67.2674 29.7231 67.1784 29.634 67.0665 29.571L66.8447 29.9646C66.8847 29.9871 66.9144 30.0167 66.9369 30.0567L67.3305 29.835ZM67.0698 29.5729C66.9555 29.5059 66.8277 29.4761 66.6941 29.4761V29.9279C66.7594 29.9279 66.806 29.9419 66.8414 29.9627L67.0698 29.5729ZM66.6941 29.4761C66.554 29.4761 66.421 29.5091 66.302 29.5805L66.5344 29.9679C66.5758 29.943 66.6267 29.9279 66.6941 29.9279V29.4761ZM66.3028 29.58C66.1896 29.6473 66.0994 29.7398 66.035 29.8547L66.4292 30.0754C66.4547 30.0299 66.4885 29.9951 66.5336 29.9683L66.3028 29.58ZM66.0357 29.8536C65.9706 29.9683 65.9387 30.0945 65.9373 30.2273L66.389 30.2323C66.3897 30.1704 66.4038 30.1202 66.4285 30.0766L66.0357 29.8536ZM65.9373 30.2298V30.6324H66.389V30.2298H65.9373ZM65.9373 30.6324C65.9373 30.7819 65.9648 30.9237 66.029 31.0504L66.432 30.8465C66.4063 30.7957 66.389 30.7268 66.389 30.6324H65.9373ZM66.03 31.0524C66.095 31.1779 66.1895 31.2789 66.3117 31.3494L66.5375 30.9581C66.4929 30.9324 66.458 30.8965 66.4311 30.8446L66.03 31.0524ZM66.3117 31.3494C66.4354 31.4208 66.5748 31.4519 66.7214 31.4519V31.0001C66.6391 31.0001 66.5806 30.983 66.5375 30.9581L66.3117 31.3494ZM66.7214 31.4519C66.8186 31.4519 66.913 31.4381 67.0024 31.4078L66.8574 30.98C66.8207 30.9924 66.7761 31.0001 66.7214 31.0001V31.4519ZM67.0024 31.4078C67.0943 31.3767 67.1773 31.3283 67.2477 31.2612L66.9362 30.9341C66.9168 30.9526 66.8918 30.9683 66.8574 30.98L67.0024 31.4078ZM67.2477 31.2612C67.3188 31.1935 67.3711 31.1119 67.4058 31.0205L66.9834 30.8603C66.9711 30.893 66.9549 30.9162 66.9362 30.9341L67.2477 31.2612ZM67.1798 31.1658L67.8118 31.2075L67.8416 30.7568L67.2095 30.7151L67.1798 31.1658ZM67.6057 30.9355C67.5814 31.0506 67.5327 31.1477 67.4596 31.231L67.7991 31.5289C67.9249 31.3856 68.0078 31.2175 68.0477 31.0288L67.6057 30.9355ZM67.4595 31.2311C67.3872 31.3136 67.2905 31.3821 67.1629 31.4337L67.3322 31.8525C67.5169 31.7779 67.6747 31.6709 67.7992 31.5288L67.4595 31.2311ZM67.1637 31.4334C67.0404 31.4827 66.8907 31.5102 66.7102 31.5102V31.962C66.936 31.962 67.1446 31.9275 67.3314 31.8528L67.1637 31.4334Z" fill="#92ABFE" fill-opacity="0.5"/>
<defs>
<filter id="filter0_ii_3716_12403" x="8.51216" y="14.5864" width="71.2647" height="57.1251" filterUnits="userSpaceOnUse" color-interpolation-filters="sRGB">
<feFlood flood-opacity="0" result="BackgroundImageFix"/>
<feBlend mode="normal" in="SourceGraphic" in2="BackgroundImageFix" result="shape"/>
<feColorMatrix in="SourceAlpha" type="matrix" values="0 0 0 0 0 0 0 0 0 0 0 0 0 0 0 0 0 0 127 0" result="hardAlpha"/>
<feOffset dx="1.82573" dy="1.46058"/>
<feGaussianBlur stdDeviation="2.0083"/>
<feComposite in2="hardAlpha" operator="arithmetic" k2="-1" k3="1"/>
<feColorMatrix type="matrix" values="0 0 0 0 0 0 0 0 0 0 0 0 0 0 0 0 0 0 0.25 0"/>
<feBlend mode="normal" in2="shape" result="effect1_innerShadow_3716_12403"/>
<feColorMatrix in="SourceAlpha" type="matrix" values="0 0 0 0 0 0 0 0 0 0 0 0 0 0 0 0 0 0 127 0" result="hardAlpha"/>
<feOffset dx="-1.82573" dy="1.46058"/>
<feGaussianBlur stdDeviation="1.82573"/>
<feComposite in2="hardAlpha" operator="arithmetic" k2="-1" k3="1"/>
<feColorMatrix type="matrix" values="0 0 0 0 0 0 0 0 0 0 0 0 0 0 0 0 0 0 0.25 0"/>
<feBlend mode="normal" in2="effect1_innerShadow_3716_12403" result="effect2_innerShadow_3716_12403"/>
</filter>
<filter id="filter1_d_3716_12403" x="64.4413" y="33.189" width="21.5437" height="21.5437" filterUnits="userSpaceOnUse" color-interpolation-filters="sRGB">
<feFlood flood-opacity="0" result="BackgroundImageFix"/>
<feColorMatrix in="SourceAlpha" type="matrix" values="0 0 0 0 0 0 0 0 0 0 0 0 0 0 0 0 0 0 127 0" result="hardAlpha"/>
<feOffset dy="1.46058"/>
<feGaussianBlur stdDeviation="0.730292"/>
<feComposite in2="hardAlpha" operator="out"/>
<feColorMatrix type="matrix" values="0 0 0 0 0 0 0 0 0 0 0 0 0 0 0 0 0 0 0.25 0"/>
<feBlend mode="normal" in2="BackgroundImageFix" result="effect1_dropShadow_3716_12403"/>
<feBlend mode="normal" in="SourceGraphic" in2="effect1_dropShadow_3716_12403" result="shape"/>
</filter>
<linearGradient id="paint0_linear_3716_12403" x1="25.5532" y1="36.2329" x2="25.5532" y2="72.7475" gradientUnits="userSpaceOnUse">
<stop stop-color="#05E2FF"/>
<stop offset="0.477083" stop-color="#367CFF"/>
<stop offset="1" stop-color="#5790FD"/>
</linearGradient>
<linearGradient id="paint1_linear_3716_12403" x1="60.0591" y1="14.5864" x2="60.0591" y2="70.2509" gradientUnits="userSpaceOnUse">
<stop stop-color="#05E2FF"/>
<stop offset="0.477083" stop-color="#367CFF"/>
<stop offset="1" stop-color="#5790FD"/>
</linearGradient>
<linearGradient id="paint2_linear_3716_12403" x1="75.2131" y1="33.189" x2="75.2131" y2="51.8114" gradientUnits="userSpaceOnUse">
<stop stop-color="#05E2FF"/>
<stop offset="1" stop-color="#115DF0"/>
</linearGradient>
</defs>
</svg>
