<svg width="162" height="145" viewBox="0 0 162 145" fill="none" xmlns="http://www.w3.org/2000/svg">
<g filter="url(#filter0_ii_3521_7866)">
<path d="M72.2993 23C69.8898 23 67.5789 23.9821 65.8751 25.7302C64.1713 27.4783 63.2141 29.8492 63.2141 32.3214V38.5357C63.2141 41.0079 64.1713 43.3788 65.8751 45.127C67.5789 46.8751 69.8898 47.8571 72.2993 47.8571H90.4697C92.8793 47.8571 95.1902 46.8751 96.894 45.127C98.5978 43.3788 99.555 41.0079 99.555 38.5357V32.3214C99.555 29.8492 98.5978 27.4783 96.894 25.7302C95.1902 23.9821 92.8793 23 90.4697 23H72.2993ZM90.4697 29.2143C91.2729 29.2143 92.0432 29.5416 92.6112 30.1243C93.1791 30.707 93.4982 31.4974 93.4982 32.3214V38.5357C93.4982 39.3598 93.1791 40.1501 92.6112 40.7328C92.0432 41.3155 91.2729 41.6429 90.4697 41.6429H72.2993C71.4961 41.6429 70.7259 41.3155 70.1579 40.7328C69.59 40.1501 69.2709 39.3598 69.2709 38.5357V32.3214C69.2709 31.4974 69.59 30.707 70.1579 30.1243C70.7259 29.5416 71.4961 29.2143 72.2993 29.2143H90.4697Z" fill="url(#paint0_linear_3521_7866)"/>
<path d="M57.1568 32.3203H51.0999C47.8872 32.3203 44.8061 33.6297 42.5343 35.9606C40.2626 38.2914 38.9863 41.4526 38.9863 44.7489V109.999C38.9863 113.295 40.2626 116.456 42.5343 118.787C44.8061 121.118 47.8872 122.427 51.0999 122.427H111.668C114.881 122.427 117.962 121.118 120.234 118.787C122.505 116.456 123.782 113.295 123.782 109.999V44.7489C123.782 41.4526 122.505 38.2914 120.234 35.9606C117.962 33.6297 114.881 32.3203 111.668 32.3203H105.611V38.5346C105.611 40.5748 105.22 42.595 104.459 44.4799C103.698 46.3647 102.582 48.0774 101.176 49.52C99.7702 50.9626 98.1009 52.107 96.2638 52.8877C94.4267 53.6685 92.4577 54.0703 90.4692 54.0703H72.2988C68.2829 54.0703 64.4314 52.4335 61.5918 49.52C58.7521 46.6065 57.1568 42.6549 57.1568 38.5346V32.3203ZM93.4976 72.7132C93.4976 71.065 94.1357 69.4844 95.2716 68.319C96.4075 67.1536 97.9481 66.4989 99.5544 66.4989C101.161 66.4989 102.701 67.1536 103.837 68.319C104.973 69.4844 105.611 71.065 105.611 72.7132V103.785C105.611 105.433 104.973 107.013 103.837 108.179C102.701 109.344 101.161 109.999 99.5544 109.999C97.9481 109.999 96.4075 109.344 95.2716 108.179C94.1357 107.013 93.4976 105.433 93.4976 103.785V72.7132ZM57.1568 97.5703C57.1568 95.9222 57.7949 94.3416 58.9308 93.1762C60.0666 92.0107 61.6072 91.356 63.2136 91.356C64.8199 91.356 66.3605 92.0107 67.4964 93.1762C68.6322 94.3416 69.2704 95.9222 69.2704 97.5703V103.785C69.2704 105.433 68.6322 107.013 67.4964 108.179C66.3605 109.344 64.8199 109.999 63.2136 109.999C61.6072 109.999 60.0666 109.344 58.9308 108.179C57.7949 107.013 57.1568 105.433 57.1568 103.785V97.5703ZM81.384 78.9275C82.9904 78.9275 84.5309 79.5822 85.6668 80.7476C86.8027 81.913 87.4408 83.4936 87.4408 85.1417V103.785C87.4408 105.433 86.8027 107.013 85.6668 108.179C84.5309 109.344 82.9904 109.999 81.384 109.999C79.7776 109.999 78.2371 109.344 77.1012 108.179C75.9653 107.013 75.3272 105.433 75.3272 103.785V85.1417C75.3272 83.4936 75.9653 81.913 77.1012 80.7476C78.2371 79.5822 79.7776 78.9275 81.384 78.9275Z" fill="url(#paint1_linear_3521_7866)"/>
</g>
<defs>
<filter id="filter0_ii_3521_7866" x="38.9863" y="23" width="91.9561" height="106.588" filterUnits="userSpaceOnUse" color-interpolation-filters="sRGB">
<feFlood flood-opacity="0" result="BackgroundImageFix"/>
<feBlend mode="normal" in="SourceGraphic" in2="BackgroundImageFix" result="shape"/>
<feColorMatrix in="SourceAlpha" type="matrix" values="0 0 0 0 0 0 0 0 0 0 0 0 0 0 0 0 0 0 127 0" result="hardAlpha"/>
<feOffset dx="7.16072" dy="7.16072"/>
<feGaussianBlur stdDeviation="7.16072"/>
<feComposite in2="hardAlpha" operator="arithmetic" k2="-1" k3="1"/>
<feColorMatrix type="matrix" values="0 0 0 0 0 0 0 0 0 0 0 0 0 0 0 0 0 0 0.25 0"/>
<feBlend mode="normal" in2="shape" result="effect1_innerShadow_3521_7866"/>
<feColorMatrix in="SourceAlpha" type="matrix" values="0 0 0 0 0 0 0 0 0 0 0 0 0 0 0 0 0 0 127 0" result="hardAlpha"/>
<feOffset dy="7.16072"/>
<feGaussianBlur stdDeviation="8.9509"/>
<feComposite in2="hardAlpha" operator="arithmetic" k2="-1" k3="1"/>
<feColorMatrix type="matrix" values="0 0 0 0 0 0 0 0 0 0 0 0 0 0 0 0 0 0 0.25 0"/>
<feBlend mode="normal" in2="effect1_innerShadow_3521_7866" result="effect2_innerShadow_3521_7866"/>
</filter>
<linearGradient id="paint0_linear_3521_7866" x1="81.3845" y1="23" x2="81.3845" y2="47.8571" gradientUnits="userSpaceOnUse">
<stop stop-color="#0063F8"/>
<stop offset="1" stop-color="#239CAF"/>
</linearGradient>
<linearGradient id="paint1_linear_3521_7866" x1="81.384" y1="32.3203" x2="81.384" y2="122.427" gradientUnits="userSpaceOnUse">
<stop stop-color="#0063F8"/>
<stop offset="1" stop-color="#239CAF"/>
</linearGradient>
</defs>
</svg>
