<svg width="155" height="160" viewBox="0 0 155 160" fill="none" xmlns="http://www.w3.org/2000/svg">
<g filter="url(#filter0_i_2157_5507)">
<path d="M60.726 33.9844L63.989 30.2215C65.6088 28.2918 66.5061 25.7052 66.4872 23.0195C66.4682 20.3339 65.5347 17.7644 63.8879 15.8653C62.2411 13.9661 60.013 12.8896 57.6842 12.8678C55.3554 12.846 53.1124 13.8807 51.4391 15.7487L48.1761 19.5116C47.0793 20.7766 45.7414 21.7318 44.2656 22.2991L38.9771 24.3311V25.0547L55.9194 44.593H56.5469L58.3114 38.4942C58.8009 36.7951 59.6292 35.2523 60.726 33.9844ZM60.726 33.9844L60.9896 34.4621C63.9769 40.4508 68.7698 44.9633 74.4556 47.1402M46.507 41.6985C46.1774 42.0786 45.7861 42.3801 45.3554 42.5858C44.9247 42.7915 44.4632 42.8974 43.997 42.8974C43.0556 42.8974 42.1527 42.4661 41.487 41.6985C41.1574 41.3183 40.896 40.8671 40.7176 40.3704C40.5392 39.8738 40.4474 39.3415 40.4474 38.8039C40.4474 37.7182 40.8213 36.677 41.487 35.9093M63.9865 15.7516L66.8378 12.4634L63.9865 15.7516ZM60.3119 70.6441C60.3119 68.7337 60.5955 66.8175 61.3535 65.1155C64.1877 58.7682 68.8636 53.7693 74.5661 50.99M60.3119 70.6441C74.1168 70.6441 81.6467 76.4332 81.6467 76.4332V79.3278H38.9771V76.4332C38.9771 76.4332 46.507 70.6441 60.3119 70.6441ZM74.5635 50.99C74.9653 51.8531 75.6083 52.5342 76.3882 52.9225C77.168 53.3109 78.0388 53.3837 78.8591 53.1292C79.6794 52.8746 80.4009 52.3077 80.9064 51.5204C81.412 50.7332 81.6718 49.772 81.6437 48.7929C81.6156 47.8138 81.3013 46.8745 80.7517 46.1275C80.2022 45.3805 79.4497 44.8698 78.6167 44.6784C77.7836 44.4869 76.9189 44.6259 76.163 45.0729C75.4071 45.5198 74.807 46.2484 74.4556 47.1402M74.5635 50.99C74.2882 50.4019 74.135 49.7481 74.1158 49.0801C74.0967 48.4121 74.2146 47.7481 74.4556 47.1402" fill="#367CFF"/>
</g>
<g filter="url(#filter1_di_2157_5507)">
<path d="M101.629 125.561C100.458 125.561 99.9867 127.071 100.95 127.737L107.571 132.316C107.979 132.598 108.52 132.598 108.929 132.316L122.493 122.93C123.179 122.455 123.179 121.441 122.493 120.966L108.929 111.581C108.521 111.298 107.979 111.298 107.57 111.581L95.7324 119.772C94.7697 120.439 95.2411 121.948 96.4119 121.948H107.056C107.715 121.948 108.25 122.483 108.25 123.142V124.367C108.25 125.026 107.715 125.561 107.056 125.561H101.629ZM94.4611 126.857C93.6692 126.309 92.5876 126.876 92.5876 127.839V136.542C92.5876 137.678 94.0236 138.172 94.7227 137.277L95.467 136.325C95.631 136.115 95.7201 135.856 95.7201 135.589V128.354C95.7201 127.962 95.5278 127.595 95.2055 127.372L94.4611 126.857ZM108.929 146.765C108.521 147.048 107.979 147.048 107.57 146.765L100.419 141.817L97.801 140.005C97.4787 139.782 97.2863 139.415 97.2863 139.023V131.09C97.2863 130.127 98.3679 129.56 99.1598 130.108L107.57 135.928C107.979 136.211 108.521 136.211 108.929 135.928L117.34 130.108C118.132 129.56 119.214 130.127 119.214 131.09V139.023C119.214 139.415 119.021 139.782 118.699 140.005L108.929 146.765Z" fill="url(#paint0_radial_2157_5507)"/>
</g>
<g filter="url(#filter2_di_2157_5507)">
<path d="M55.1743 137.045C55.1743 141.308 53.8507 144.764 50.1543 144.764H38.4411C31.7478 144.764 31.7478 117.748 38.4411 117.748H50.1543C53.8507 117.748 55.1743 121.204 55.1743 125.467V137.045Z" fill="#0063F8"/>
<path d="M86.968 140.904H85.2946V121.607H86.968C87.4118 121.607 87.8374 121.404 88.1512 121.042C88.465 120.68 88.6413 120.189 88.6413 119.678C88.6413 119.166 88.465 118.675 88.1512 118.313C87.8374 117.951 87.4118 117.748 86.968 117.748H46.8083C40.115 117.748 40.115 144.764 46.8083 144.764H86.968C87.4118 144.764 87.8374 144.56 88.1512 144.199C88.465 143.837 88.6413 143.346 88.6413 142.834C88.6413 142.322 88.465 141.831 88.1512 141.469C87.8374 141.108 87.4118 140.904 86.968 140.904Z" fill="#0063F8"/>
<g filter="url(#filter3_d_2157_5507)">
<path d="M87.2551 140.906H48.4809C45.1343 140.906 45.1343 121.609 48.4809 121.609H87.2551C89.1024 121.609 89.1024 140.906 87.2551 140.906Z" fill="#F0F0F0"/>
</g>
<path d="M49.3163 125.468H88.3883C88.1624 123.201 87.7859 121.609 87.2538 121.609H48.4796C45.717 121.609 45.2368 134.746 47.0356 139.339C46.3796 133.629 47.1393 125.468 49.3163 125.468Z" fill="#44B6FF"/>
<path d="M50.1533 92.6632C50.1533 94.7104 49.4482 96.6737 48.1929 98.1213C46.9377 99.5688 45.2352 100.382 43.4601 100.382H36.7668C30.0735 100.382 30.0735 79.1553 36.7668 79.1553H43.4601C45.2352 79.1553 46.9377 79.9685 48.1929 81.4161C49.4482 82.8636 50.1533 84.8269 50.1533 86.8741V92.6632Z" fill="#006CBD"/>
<path d="M81.9467 96.5226H80.2734V83.0147H81.9467C82.3905 83.0147 82.8161 82.8114 83.1299 82.4495C83.4437 82.0876 83.62 81.5968 83.62 81.085C83.62 80.5732 83.4437 80.0824 83.1299 79.7205C82.8161 79.3586 82.3905 79.1553 81.9467 79.1553H41.787C35.0938 79.1553 35.0938 100.382 41.787 100.382H81.9467C82.3905 100.382 82.8161 100.179 83.1299 99.8169C83.4437 99.455 83.62 98.9641 83.62 98.4524C83.62 97.9406 83.4437 97.4497 83.1299 97.0878C82.8161 96.726 82.3905 96.5226 81.9467 96.5226Z" fill="#55ACEE"/>
<g filter="url(#filter4_d_2157_5507)">
<path d="M82.2336 96.5219H43.4594C40.1128 96.5219 40.1128 83.0139 43.4594 83.0139H82.2336C84.081 83.0139 84.081 96.5219 82.2336 96.5219Z" fill="#F0F0F0"/>
</g>
<path d="M43.4596 86.8733H83.4938C83.303 84.7024 82.8847 83.0139 82.2338 83.0139H43.4596C41.4634 83.0139 40.6669 87.817 41.0534 91.6976C41.3144 89.0771 42.1093 86.8733 43.4596 86.8733Z" fill="#44B6FF"/>
<path d="M63.5409 110.03C63.5409 112.078 62.8357 114.041 61.5805 115.488C60.3253 116.936 58.6228 117.749 56.8476 117.749H40.1144C33.4212 117.749 33.4212 100.382 40.1144 100.382H56.8476C58.6228 100.382 60.3253 101.195 61.5805 102.643C62.8357 104.09 63.5409 106.054 63.5409 108.101V110.03Z" fill="#367CFF"/>
<path d="M88.6409 113.89H86.9676V104.241H88.6409C89.0847 104.241 89.5103 104.038 89.8241 103.676C90.1379 103.314 90.3142 102.823 90.3142 102.312C90.3142 101.8 90.1379 101.309 89.8241 100.947C89.5103 100.585 89.0847 100.382 88.6409 100.382H55.1745C48.4812 100.382 48.4812 117.749 55.1745 117.749H88.6409C89.0847 117.749 89.5103 117.546 89.8241 117.184C90.1379 116.822 90.3142 116.331 90.3142 115.819C90.3142 115.308 90.1379 114.817 89.8241 114.455C89.5103 114.093 89.0847 113.89 88.6409 113.89Z" fill="#00FFFF"/>
<g filter="url(#filter5_d_2157_5507)">
<path d="M88.9271 113.891H56.8462C53.4995 113.891 53.4995 104.243 56.8462 104.243H88.9271C90.7744 104.243 90.7744 113.891 88.9271 113.891Z" fill="#F0F0F0"/>
</g>
<path d="M56.8459 108.102H90.2856C90.1768 106.053 89.7267 104.243 88.9268 104.243H56.8459C54.7141 104.243 53.9461 108.154 54.5317 110.997C54.863 109.378 55.6311 108.102 56.8459 108.102Z" fill="#44B6FF"/>
</g>
<defs>
<filter id="filter0_i_2157_5507" x="38.9771" y="12.4634" width="42.6697" height="71.4571" filterUnits="userSpaceOnUse" color-interpolation-filters="sRGB">
<feFlood flood-opacity="0" result="BackgroundImageFix"/>
<feBlend mode="normal" in="SourceGraphic" in2="BackgroundImageFix" result="shape"/>
<feColorMatrix in="SourceAlpha" type="matrix" values="0 0 0 0 0 0 0 0 0 0 0 0 0 0 0 0 0 0 127 0" result="hardAlpha"/>
<feOffset dy="4.59256"/>
<feGaussianBlur stdDeviation="2.29628"/>
<feComposite in2="hardAlpha" operator="arithmetic" k2="-1" k3="1"/>
<feColorMatrix type="matrix" values="0 0 0 0 0 0 0 0 0 0 0 0 0 0 0 0 0 0 0.25 0"/>
<feBlend mode="normal" in2="shape" result="effect1_innerShadow_2157_5507"/>
</filter>
<filter id="filter1_di_2157_5507" x="90.1995" y="111.369" width="35.7935" height="40.3844" filterUnits="userSpaceOnUse" color-interpolation-filters="sRGB">
<feFlood flood-opacity="0" result="BackgroundImageFix"/>
<feColorMatrix in="SourceAlpha" type="matrix" values="0 0 0 0 0 0 0 0 0 0 0 0 0 0 0 0 0 0 127 0" result="hardAlpha"/>
<feOffset dy="2.38813"/>
<feGaussianBlur stdDeviation="1.19407"/>
<feComposite in2="hardAlpha" operator="out"/>
<feColorMatrix type="matrix" values="0 0 0 0 0 0 0 0 0 0 0 0 0 0 0 0 0 0 0.25 0"/>
<feBlend mode="normal" in2="BackgroundImageFix" result="effect1_dropShadow_2157_5507"/>
<feBlend mode="normal" in="SourceGraphic" in2="effect1_dropShadow_2157_5507" result="shape"/>
<feColorMatrix in="SourceAlpha" type="matrix" values="0 0 0 0 0 0 0 0 0 0 0 0 0 0 0 0 0 0 127 0" result="hardAlpha"/>
<feOffset dx="2.98517" dy="1.7911"/>
<feGaussianBlur stdDeviation="3.88072"/>
<feComposite in2="hardAlpha" operator="arithmetic" k2="-1" k3="1"/>
<feColorMatrix type="matrix" values="0 0 0 0 0 0 0 0 0 0 0 0 0 0 0 0 0 0 0.25 0"/>
<feBlend mode="normal" in2="shape" result="effect2_innerShadow_2157_5507"/>
</filter>
<filter id="filter2_di_2157_5507" x="27.1543" y="79.1553" width="71.1969" height="74.7935" filterUnits="userSpaceOnUse" color-interpolation-filters="sRGB">
<feFlood flood-opacity="0" result="BackgroundImageFix"/>
<feColorMatrix in="SourceAlpha" type="matrix" values="0 0 0 0 0 0 0 0 0 0 0 0 0 0 0 0 0 0 127 0" result="hardAlpha"/>
<feOffset dy="4.59256"/>
<feGaussianBlur stdDeviation="2.29628"/>
<feComposite in2="hardAlpha" operator="out"/>
<feColorMatrix type="matrix" values="0 0 0 0 0 0 0 0 0 0 0 0 0 0 0 0 0 0 0.25 0"/>
<feBlend mode="normal" in2="BackgroundImageFix" result="effect1_dropShadow_2157_5507"/>
<feBlend mode="normal" in="SourceGraphic" in2="effect1_dropShadow_2157_5507" result="shape"/>
<feColorMatrix in="SourceAlpha" type="matrix" values="0 0 0 0 0 0 0 0 0 0 0 0 0 0 0 0 0 0 127 0" result="hardAlpha"/>
<feOffset dx="8.03699" dy="4.59256"/>
<feGaussianBlur stdDeviation="8.03699"/>
<feComposite in2="hardAlpha" operator="arithmetic" k2="-1" k3="1"/>
<feColorMatrix type="matrix" values="0 0 0 0 1 0 0 0 0 1 0 0 0 0 1 0 0 0 0.25 0"/>
<feBlend mode="normal" in2="shape" result="effect2_innerShadow_2157_5507"/>
</filter>
<filter id="filter3_d_2157_5507" x="41.3784" y="121.609" width="51.8548" height="28.4822" filterUnits="userSpaceOnUse" color-interpolation-filters="sRGB">
<feFlood flood-opacity="0" result="BackgroundImageFix"/>
<feColorMatrix in="SourceAlpha" type="matrix" values="0 0 0 0 0 0 0 0 0 0 0 0 0 0 0 0 0 0 127 0" result="hardAlpha"/>
<feOffset dy="4.59256"/>
<feGaussianBlur stdDeviation="2.29628"/>
<feComposite in2="hardAlpha" operator="out"/>
<feColorMatrix type="matrix" values="0 0 0 0 0 0 0 0 0 0 0 0 0 0 0 0 0 0 0.25 0"/>
<feBlend mode="normal" in2="BackgroundImageFix" result="effect1_dropShadow_2157_5507"/>
<feBlend mode="normal" in="SourceGraphic" in2="effect1_dropShadow_2157_5507" result="shape"/>
</filter>
<filter id="filter4_d_2157_5507" x="36.3569" y="83.0139" width="51.8548" height="22.6932" filterUnits="userSpaceOnUse" color-interpolation-filters="sRGB">
<feFlood flood-opacity="0" result="BackgroundImageFix"/>
<feColorMatrix in="SourceAlpha" type="matrix" values="0 0 0 0 0 0 0 0 0 0 0 0 0 0 0 0 0 0 127 0" result="hardAlpha"/>
<feOffset dy="4.59256"/>
<feGaussianBlur stdDeviation="2.29628"/>
<feComposite in2="hardAlpha" operator="out"/>
<feColorMatrix type="matrix" values="0 0 0 0 0 0 0 0 0 0 0 0 0 0 0 0 0 0 0.25 0"/>
<feBlend mode="normal" in2="BackgroundImageFix" result="effect1_dropShadow_2157_5507"/>
<feBlend mode="normal" in="SourceGraphic" in2="effect1_dropShadow_2157_5507" result="shape"/>
</filter>
<filter id="filter5_d_2157_5507" x="49.7436" y="104.243" width="45.1614" height="18.8336" filterUnits="userSpaceOnUse" color-interpolation-filters="sRGB">
<feFlood flood-opacity="0" result="BackgroundImageFix"/>
<feColorMatrix in="SourceAlpha" type="matrix" values="0 0 0 0 0 0 0 0 0 0 0 0 0 0 0 0 0 0 127 0" result="hardAlpha"/>
<feOffset dy="4.59256"/>
<feGaussianBlur stdDeviation="2.29628"/>
<feComposite in2="hardAlpha" operator="out"/>
<feColorMatrix type="matrix" values="0 0 0 0 0 0 0 0 0 0 0 0 0 0 0 0 0 0 0.25 0"/>
<feBlend mode="normal" in2="BackgroundImageFix" result="effect1_dropShadow_2157_5507"/>
<feBlend mode="normal" in="SourceGraphic" in2="effect1_dropShadow_2157_5507" result="shape"/>
</filter>
<radialGradient id="paint0_radial_2157_5507" cx="0" cy="0" r="1" gradientUnits="userSpaceOnUse" gradientTransform="translate(112.635 123.935) rotate(100.659) scale(23.7092 20.7912)">
<stop stop-color="#0C99FF"/>
<stop offset="1" stop-color="#0057FF"/>
</radialGradient>
</defs>
</svg>
