<svg width="149" height="144" viewBox="0 0 149 144" fill="none" xmlns="http://www.w3.org/2000/svg">
<g filter="url(#filter0_i_2157_5545)">
<path d="M104.772 90.0615C104.985 90.0615 105.188 90.1655 105.339 90.3506C105.489 90.5356 105.574 90.7867 105.574 91.0484V95.9828H110.385V91.0484C110.385 90.7867 110.469 90.5356 110.619 90.3506C110.77 90.1655 110.974 90.0615 111.186 90.0615C111.399 90.0615 111.603 90.1655 111.753 90.3506C111.904 90.5356 111.988 90.7867 111.988 91.0484V95.9828H113.592C113.804 95.9828 114.008 96.0868 114.159 96.2718C114.309 96.4569 114.394 96.7079 114.394 96.9697V102.891C114.394 104.723 113.802 106.48 112.75 107.776C111.697 109.071 110.269 109.799 108.781 109.799C108.778 110.656 108.765 111.467 108.717 112.207C108.651 113.222 108.515 114.187 108.208 115.018C107.898 115.897 107.348 116.614 106.653 117.047C105.934 117.497 105.043 117.694 103.97 117.694C102.37 117.694 101.388 118.345 100.805 119.111C100.278 119.796 99.9768 120.698 99.961 121.642H98.3574C98.3574 120.426 98.7295 118.944 99.6355 117.757C100.561 116.549 101.983 115.72 103.97 115.72C104.902 115.72 105.513 115.547 105.923 115.288C106.31 115.045 106.565 114.696 106.748 114.203C106.942 113.678 107.057 112.977 107.116 112.051C107.16 111.38 107.172 110.634 107.176 109.799C105.687 109.799 104.26 109.071 103.208 107.775C102.156 106.48 101.565 104.723 101.565 102.891V96.9697C101.565 96.7079 101.649 96.4569 101.799 96.2718C101.95 96.0868 102.154 95.9828 102.366 95.9828H103.97V91.0484C103.97 90.7867 104.055 90.5356 104.205 90.3506C104.355 90.1655 104.559 90.0615 104.772 90.0615Z" fill="#377BFF"/>
</g>
<g filter="url(#filter1_di_2157_5545)">
<path fill-rule="evenodd" clip-rule="evenodd" d="M7.1037 58.0718C7.92345 59.3052 10.0095 63.8749 10.4526 66.1634H22.3823C22.8254 63.877 24.9089 59.3073 25.7286 58.075C27.1295 55.9717 28.0113 53.4185 28.2697 50.7175C28.5246 48.0218 28.1433 45.2927 27.1713 42.8567C26.1901 40.4025 24.6645 38.3404 22.7709 36.9088C20.8607 35.4627 18.6618 34.6977 16.4192 34.699C14.1721 34.699 11.9702 35.4646 10.0674 36.9067C8.17336 38.3378 6.64715 40.3995 5.66531 42.8535C4.69278 45.2886 4.31056 48.0169 4.56436 50.7123C4.81915 53.4046 5.6994 55.9564 7.1037 58.0718ZM17.2696 43.0895L12.1568 52.5288H15.5653V58.8217L20.6781 49.3824H17.2696V43.0895Z" fill="url(#paint0_angular_2157_5545)"/>
<path d="M10.4539 69.3105C10.4539 69.0324 10.5436 68.7656 10.7034 68.5689C10.8632 68.3722 11.08 68.2617 11.306 68.2617H21.5315C21.7575 68.2617 21.9743 68.3722 22.1341 68.5689C22.2939 68.7656 22.3836 69.0324 22.3836 69.3105C22.3836 69.5887 22.2939 69.8555 22.1341 70.0522C21.9743 70.2488 21.7575 70.3593 21.5315 70.3593H11.306C11.08 70.3593 10.8632 70.2488 10.7034 70.0522C10.5436 69.8555 10.4539 69.5887 10.4539 69.3105ZM22.3836 72.457H10.4539V74.5546C10.4539 75.1109 10.6334 75.6445 10.953 76.0379C11.2726 76.4312 11.7061 76.6522 12.1581 76.6522H20.6794C21.1314 76.6522 21.5649 76.4312 21.8845 76.0379C22.2041 75.6445 22.3836 75.1109 22.3836 74.5546V72.457Z" fill="url(#paint1_angular_2157_5545)"/>
</g>
<g filter="url(#filter2_i_2157_5545)">
<path d="M45.5564 40.9575H96.7938V121.833H45.5564V40.9575Z" fill="#0063F8"/>
</g>
<g style="mix-blend-mode:multiply" filter="url(#filter3_i_2157_5545)">
<path d="M30.3025 40.9575H81.5399V121.833H30.3025V40.9575Z" fill="#19DFDF"/>
</g>
<g filter="url(#filter4_i_2157_5545)">
<g filter="url(#filter5_i_2157_5545)">
<rect x="54.1621" y="60.6938" width="25.4231" height="2.40702" rx="1.20351" fill="white"/>
</g>
<g filter="url(#filter6_i_2157_5545)">
<rect x="54.1621" y="65.5068" width="25.4231" height="2.40702" rx="1.20351" fill="white"/>
</g>
<g filter="url(#filter7_i_2157_5545)">
<rect x="54.1621" y="70.3215" width="32.8545" height="2.40702" rx="1.20351" fill="white"/>
</g>
<g filter="url(#filter8_i_2157_5545)">
<rect x="54.1621" y="75.136" width="17.2095" height="2.40702" rx="1.20351" fill="white"/>
</g>
<g filter="url(#filter9_i_2157_5545)">
<rect x="54.1621" y="79.9512" width="20.7296" height="2.40702" rx="1.20351" fill="white"/>
</g>
<g filter="url(#filter10_i_2157_5545)">
<rect x="54.1621" y="84.7639" width="20.7296" height="2.40702" rx="1.20351" fill="white"/>
</g>
</g>
<defs>
<filter id="filter0_i_2157_5545" x="98.3574" y="90.0615" width="16.0361" height="37.4444" filterUnits="userSpaceOnUse" color-interpolation-filters="sRGB">
<feFlood flood-opacity="0" result="BackgroundImageFix"/>
<feBlend mode="normal" in="SourceGraphic" in2="BackgroundImageFix" result="shape"/>
<feColorMatrix in="SourceAlpha" type="matrix" values="0 0 0 0 0 0 0 0 0 0 0 0 0 0 0 0 0 0 127 0" result="hardAlpha"/>
<feOffset dy="5.86432"/>
<feGaussianBlur stdDeviation="2.93216"/>
<feComposite in2="hardAlpha" operator="arithmetic" k2="-1" k3="1"/>
<feColorMatrix type="matrix" values="0 0 0 0 0 0 0 0 0 0 0 0 0 0 0 0 0 0 0.25 0"/>
<feBlend mode="normal" in2="shape" result="effect1_innerShadow_2157_5545"/>
</filter>
<filter id="filter1_di_2157_5545" x="2.25316" y="34.699" width="29.4458" height="46.4231" filterUnits="userSpaceOnUse" color-interpolation-filters="sRGB">
<feFlood flood-opacity="0" result="BackgroundImageFix"/>
<feColorMatrix in="SourceAlpha" type="matrix" values="0 0 0 0 0 0 0 0 0 0 0 0 0 0 0 0 0 0 127 0" result="hardAlpha"/>
<feOffset dy="2.23488"/>
<feGaussianBlur stdDeviation="1.11744"/>
<feComposite in2="hardAlpha" operator="out"/>
<feColorMatrix type="matrix" values="0 0 0 0 0.0682709 0 0 0 0 0.365225 0 0 0 0 0.941667 0 0 0 0.25 0"/>
<feBlend mode="normal" in2="BackgroundImageFix" result="effect1_dropShadow_2157_5545"/>
<feBlend mode="normal" in="SourceGraphic" in2="effect1_dropShadow_2157_5545" result="shape"/>
<feColorMatrix in="SourceAlpha" type="matrix" values="0 0 0 0 0 0 0 0 0 0 0 0 0 0 0 0 0 0 127 0" result="hardAlpha"/>
<feOffset dx="5.02847" dy="2.23488"/>
<feGaussianBlur stdDeviation="1.67616"/>
<feComposite in2="hardAlpha" operator="arithmetic" k2="-1" k3="1"/>
<feColorMatrix type="matrix" values="0 0 0 0 0.4 0 0 0 0 0.4 0 0 0 0 0.4 0 0 0 0.4 0"/>
<feBlend mode="normal" in2="shape" result="effect2_innerShadow_2157_5545"/>
</filter>
<filter id="filter2_i_2157_5545" x="45.5564" y="40.9575" width="53.4722" height="83.1109" filterUnits="userSpaceOnUse" color-interpolation-filters="sRGB">
<feFlood flood-opacity="0" result="BackgroundImageFix"/>
<feBlend mode="normal" in="SourceGraphic" in2="BackgroundImageFix" result="shape"/>
<feColorMatrix in="SourceAlpha" type="matrix" values="0 0 0 0 0 0 0 0 0 0 0 0 0 0 0 0 0 0 127 0" result="hardAlpha"/>
<feOffset dx="6.14591" dy="2.23488"/>
<feGaussianBlur stdDeviation="1.11744"/>
<feComposite in2="hardAlpha" operator="arithmetic" k2="-1" k3="1"/>
<feColorMatrix type="matrix" values="0 0 0 0 0 0 0 0 0 0 0 0 0 0 0 0 0 0 0.25 0"/>
<feBlend mode="normal" in2="shape" result="effect1_innerShadow_2157_5545"/>
</filter>
<filter id="filter3_i_2157_5545" x="30.3025" y="40.9575" width="53.4722" height="83.1109" filterUnits="userSpaceOnUse" color-interpolation-filters="sRGB">
<feFlood flood-opacity="0" result="BackgroundImageFix"/>
<feBlend mode="normal" in="SourceGraphic" in2="BackgroundImageFix" result="shape"/>
<feColorMatrix in="SourceAlpha" type="matrix" values="0 0 0 0 0 0 0 0 0 0 0 0 0 0 0 0 0 0 127 0" result="hardAlpha"/>
<feOffset dx="6.14591" dy="2.23488"/>
<feGaussianBlur stdDeviation="1.11744"/>
<feComposite in2="hardAlpha" operator="arithmetic" k2="-1" k3="1"/>
<feColorMatrix type="matrix" values="0 0 0 0 0 0 0 0 0 0 0 0 0 0 0 0 0 0 0.25 0"/>
<feBlend mode="normal" in2="shape" result="effect1_innerShadow_2157_5545"/>
</filter>
<filter id="filter4_i_2157_5545" x="54.1621" y="60.6938" width="40.6766" height="32.623" filterUnits="userSpaceOnUse" color-interpolation-filters="sRGB">
<feFlood flood-opacity="0" result="BackgroundImageFix"/>
<feBlend mode="normal" in="SourceGraphic" in2="BackgroundImageFix" result="shape"/>
<feColorMatrix in="SourceAlpha" type="matrix" values="0 0 0 0 0 0 0 0 0 0 0 0 0 0 0 0 0 0 127 0" result="hardAlpha"/>
<feOffset dx="7.82207" dy="6.14591"/>
<feGaussianBlur stdDeviation="5.86655"/>
<feComposite in2="hardAlpha" operator="arithmetic" k2="-1" k3="1"/>
<feColorMatrix type="matrix" values="0 0 0 0 0 0 0 0 0 0 0 0 0 0 0 0 0 0 0.15 0"/>
<feBlend mode="normal" in2="shape" result="effect1_innerShadow_2157_5545"/>
</filter>
<filter id="filter5_i_2157_5545" x="54.1621" y="60.6938" width="25.4231" height="4.64186" filterUnits="userSpaceOnUse" color-interpolation-filters="sRGB">
<feFlood flood-opacity="0" result="BackgroundImageFix"/>
<feBlend mode="normal" in="SourceGraphic" in2="BackgroundImageFix" result="shape"/>
<feColorMatrix in="SourceAlpha" type="matrix" values="0 0 0 0 0 0 0 0 0 0 0 0 0 0 0 0 0 0 127 0" result="hardAlpha"/>
<feOffset dy="2.23488"/>
<feGaussianBlur stdDeviation="1.11744"/>
<feComposite in2="hardAlpha" operator="arithmetic" k2="-1" k3="1"/>
<feColorMatrix type="matrix" values="0 0 0 0 1 0 0 0 0 1 0 0 0 0 1 0 0 0 0.25 0"/>
<feBlend mode="normal" in2="shape" result="effect1_innerShadow_2157_5545"/>
</filter>
<filter id="filter6_i_2157_5545" x="54.1621" y="65.5068" width="25.4231" height="4.64186" filterUnits="userSpaceOnUse" color-interpolation-filters="sRGB">
<feFlood flood-opacity="0" result="BackgroundImageFix"/>
<feBlend mode="normal" in="SourceGraphic" in2="BackgroundImageFix" result="shape"/>
<feColorMatrix in="SourceAlpha" type="matrix" values="0 0 0 0 0 0 0 0 0 0 0 0 0 0 0 0 0 0 127 0" result="hardAlpha"/>
<feOffset dy="2.23488"/>
<feGaussianBlur stdDeviation="1.11744"/>
<feComposite in2="hardAlpha" operator="arithmetic" k2="-1" k3="1"/>
<feColorMatrix type="matrix" values="0 0 0 0 1 0 0 0 0 1 0 0 0 0 1 0 0 0 0.25 0"/>
<feBlend mode="normal" in2="shape" result="effect1_innerShadow_2157_5545"/>
</filter>
<filter id="filter7_i_2157_5545" x="54.1621" y="70.3215" width="32.8545" height="4.64186" filterUnits="userSpaceOnUse" color-interpolation-filters="sRGB">
<feFlood flood-opacity="0" result="BackgroundImageFix"/>
<feBlend mode="normal" in="SourceGraphic" in2="BackgroundImageFix" result="shape"/>
<feColorMatrix in="SourceAlpha" type="matrix" values="0 0 0 0 0 0 0 0 0 0 0 0 0 0 0 0 0 0 127 0" result="hardAlpha"/>
<feOffset dy="2.23488"/>
<feGaussianBlur stdDeviation="1.11744"/>
<feComposite in2="hardAlpha" operator="arithmetic" k2="-1" k3="1"/>
<feColorMatrix type="matrix" values="0 0 0 0 1 0 0 0 0 1 0 0 0 0 1 0 0 0 0.25 0"/>
<feBlend mode="normal" in2="shape" result="effect1_innerShadow_2157_5545"/>
</filter>
<filter id="filter8_i_2157_5545" x="54.1621" y="75.136" width="17.2095" height="4.64186" filterUnits="userSpaceOnUse" color-interpolation-filters="sRGB">
<feFlood flood-opacity="0" result="BackgroundImageFix"/>
<feBlend mode="normal" in="SourceGraphic" in2="BackgroundImageFix" result="shape"/>
<feColorMatrix in="SourceAlpha" type="matrix" values="0 0 0 0 0 0 0 0 0 0 0 0 0 0 0 0 0 0 127 0" result="hardAlpha"/>
<feOffset dy="2.23488"/>
<feGaussianBlur stdDeviation="1.11744"/>
<feComposite in2="hardAlpha" operator="arithmetic" k2="-1" k3="1"/>
<feColorMatrix type="matrix" values="0 0 0 0 1 0 0 0 0 1 0 0 0 0 1 0 0 0 0.25 0"/>
<feBlend mode="normal" in2="shape" result="effect1_innerShadow_2157_5545"/>
</filter>
<filter id="filter9_i_2157_5545" x="54.1621" y="79.9512" width="20.7297" height="4.64186" filterUnits="userSpaceOnUse" color-interpolation-filters="sRGB">
<feFlood flood-opacity="0" result="BackgroundImageFix"/>
<feBlend mode="normal" in="SourceGraphic" in2="BackgroundImageFix" result="shape"/>
<feColorMatrix in="SourceAlpha" type="matrix" values="0 0 0 0 0 0 0 0 0 0 0 0 0 0 0 0 0 0 127 0" result="hardAlpha"/>
<feOffset dy="2.23488"/>
<feGaussianBlur stdDeviation="1.11744"/>
<feComposite in2="hardAlpha" operator="arithmetic" k2="-1" k3="1"/>
<feColorMatrix type="matrix" values="0 0 0 0 1 0 0 0 0 1 0 0 0 0 1 0 0 0 0.25 0"/>
<feBlend mode="normal" in2="shape" result="effect1_innerShadow_2157_5545"/>
</filter>
<filter id="filter10_i_2157_5545" x="54.1621" y="84.7639" width="20.7297" height="4.64186" filterUnits="userSpaceOnUse" color-interpolation-filters="sRGB">
<feFlood flood-opacity="0" result="BackgroundImageFix"/>
<feBlend mode="normal" in="SourceGraphic" in2="BackgroundImageFix" result="shape"/>
<feColorMatrix in="SourceAlpha" type="matrix" values="0 0 0 0 0 0 0 0 0 0 0 0 0 0 0 0 0 0 127 0" result="hardAlpha"/>
<feOffset dy="2.23488"/>
<feGaussianBlur stdDeviation="1.11744"/>
<feComposite in2="hardAlpha" operator="arithmetic" k2="-1" k3="1"/>
<feColorMatrix type="matrix" values="0 0 0 0 1 0 0 0 0 1 0 0 0 0 1 0 0 0 0.25 0"/>
<feBlend mode="normal" in2="shape" result="effect1_innerShadow_2157_5545"/>
</filter>
<radialGradient id="paint0_angular_2157_5545" cx="0" cy="0" r="1" gradientUnits="userSpaceOnUse" gradientTransform="translate(16.4173 50.4312) rotate(90) scale(15.7322 11.9293)">
<stop stop-color="#1C0CF9"/>
<stop offset="0.0874738" stop-color="#0063F8"/>
<stop offset="0.351862" stop-color="#0063F8"/>
<stop offset="0.668116" stop-color="#19DFDF"/>
<stop offset="0.833579" stop-color="#053CFF"/>
<stop offset="0.855409" stop-color="#3057FF"/>
<stop offset="0.88518" stop-color="#6B7CFE"/>
<stop offset="0.950011" stop-color="#19DFDF"/>
<stop offset="1" stop-color="#0ADEFB"/>
</radialGradient>
<radialGradient id="paint1_angular_2157_5545" cx="0" cy="0" r="1" gradientUnits="userSpaceOnUse" gradientTransform="translate(16.4187 72.457) rotate(90) scale(4.19526 5.96489)">
<stop stop-color="#1C0CF9"/>
<stop offset="0.0874738" stop-color="#0063F8"/>
<stop offset="0.351862" stop-color="#0063F8"/>
<stop offset="0.668116" stop-color="#19DFDF"/>
<stop offset="0.833579" stop-color="#053CFF"/>
<stop offset="0.855409" stop-color="#3057FF"/>
<stop offset="0.88518" stop-color="#6B7CFE"/>
<stop offset="0.950011" stop-color="#19DFDF"/>
<stop offset="1" stop-color="#0ADEFB"/>
</radialGradient>
</defs>
</svg>
