<svg width="448" height="430" viewBox="0 0 448 430" fill="none" xmlns="http://www.w3.org/2000/svg">
<g filter="url(#filter0_i_1815_2351)">
<path d="M298.664 411.332C298.664 407.64 299.759 404.031 301.81 400.961C303.861 397.892 306.776 395.499 310.187 394.086C313.598 392.673 317.351 392.304 320.972 393.024C324.593 393.744 327.919 395.522 330.53 398.133C333.141 400.743 334.918 404.069 335.639 407.69C336.359 411.311 335.989 415.065 334.576 418.475C333.164 421.886 330.771 424.802 327.701 426.853C324.632 428.904 321.022 429.999 317.331 429.999C312.38 429.999 307.632 428.032 304.131 424.531C300.631 421.031 298.664 416.283 298.664 411.332ZM383.317 371.721C386.817 368.221 388.783 363.474 388.783 358.524C388.783 353.574 386.817 348.827 383.317 345.327C365.815 327.829 342.079 318 317.331 318C292.582 318 268.846 327.829 251.344 345.327C247.944 348.847 246.062 353.562 246.105 358.457C246.147 363.351 248.11 368.033 251.571 371.494C255.032 374.955 259.714 376.918 264.608 376.961C269.503 377.003 274.218 375.122 277.739 371.721C288.41 361.549 302.587 355.874 317.331 355.874C332.074 355.874 346.251 361.549 356.923 371.721C360.423 375.221 365.17 377.187 370.12 377.187C375.07 377.187 379.817 375.221 383.317 371.721ZM436.125 318.932C439.625 315.431 441.591 310.684 441.591 305.735C441.591 300.785 439.625 296.038 436.125 292.537C404.595 261.076 361.872 243.408 317.331 243.408C272.789 243.408 230.066 261.076 198.536 292.537C195.136 296.058 193.254 300.773 193.297 305.667C193.339 310.562 195.302 315.244 198.763 318.705C202.224 322.166 206.906 324.129 211.8 324.171C216.695 324.214 221.41 322.332 224.931 318.932C249.462 294.475 282.69 280.741 317.331 280.741C351.971 280.741 385.199 294.475 409.731 318.932C413.231 322.431 417.978 324.397 422.928 324.397C427.878 324.397 432.625 322.431 436.125 318.932ZM172.141 345.327C166.94 340.126 162.814 333.953 159.999 327.158C157.185 320.363 155.736 313.08 155.736 305.725C155.736 298.37 157.185 291.088 159.999 284.293C162.814 277.498 166.94 271.324 172.141 266.124C208.224 230.142 256.385 208.842 307.282 206.355C358.179 203.868 408.186 220.372 447.605 252.665C445.842 222.384 434.836 193.371 416.071 169.539C397.306 145.708 371.684 128.203 342.661 119.385C339.46 118.395 336.553 116.627 334.201 114.239C331.849 111.852 330.126 108.919 329.184 105.703C319.306 73.9622 299.121 46.4248 271.825 27.4526C244.529 8.48044 211.683 -0.841867 178.49 0.962418C145.297 2.7667 113.655 15.5944 88.5765 37.4136C63.4977 59.2328 46.416 88.7959 40.0372 121.42C33.4749 154.398 38.7633 188.634 54.9706 218.095C36.0882 227.843 20.7342 243.262 11.065 262.185C1.39585 281.108 -2.10255 302.585 1.06122 323.599C5.9299 348.01 19.0005 370.021 38.1033 385.98C57.2062 401.939 81.1922 410.884 106.08 411.332H238.613C207.496 380.476 177.088 350.273 172.141 345.327Z" fill="url(#paint0_linear_1815_2351)"/>
</g>
<defs>
<filter id="filter0_i_1815_2351" x="-0.0722656" y="0.742188" width="458.678" height="433.256" filterUnits="userSpaceOnUse" color-interpolation-filters="sRGB">
<feFlood flood-opacity="0" result="BackgroundImageFix"/>
<feBlend mode="normal" in="SourceGraphic" in2="BackgroundImageFix" result="shape"/>
<feColorMatrix in="SourceAlpha" type="matrix" values="0 0 0 0 0 0 0 0 0 0 0 0 0 0 0 0 0 0 127 0" result="hardAlpha"/>
<feOffset dx="19" dy="4"/>
<feGaussianBlur stdDeviation="5.5"/>
<feComposite in2="hardAlpha" operator="arithmetic" k2="-1" k3="1"/>
<feColorMatrix type="matrix" values="0 0 0 0 0 0 0 0 0 0 0 0 0 0 0 0 0 0 0.15 0"/>
<feBlend mode="normal" in2="shape" result="effect1_innerShadow_1815_2351"/>
</filter>
<linearGradient id="paint0_linear_1815_2351" x1="223.766" y1="0.742187" x2="223.766" y2="429.999" gradientUnits="userSpaceOnUse">
<stop stop-color="#007AD9"/>
<stop offset="0.810417" stop-color="#2AB5D3"/>
</linearGradient>
</defs>
</svg>
