<svg width="20" height="20" viewBox="0 0 20 20" fill="none" xmlns="http://www.w3.org/2000/svg">
<g id="vuesax/bulk/document-code-2">
<g id="document-code-2">
<path id="Vector" opacity="0.4" d="M17 5.83317V14.1665C17 15.3399 16.7066 16.2413 16.144 16.8471C15.5877 17.4462 14.6964 17.8332 13.3333 17.8332H8.7064C9.30719 17.0469 9.66667 16.0625 9.66667 14.9998C9.66667 12.4237 7.57614 10.3332 5 10.3332C4.28428 10.3332 3.60553 10.4927 3 10.7804V5.83317C3 4.65982 3.29341 3.75841 3.85598 3.15256C4.41232 2.55343 5.30363 2.1665 6.66667 2.1665H13.3333C14.6964 2.1665 15.5877 2.55343 16.144 3.15256C16.7066 3.75841 17 4.65982 17 5.83317Z" fill="#92ABFE" stroke="#92ABFE"/>
<path id="Vector (Stroke)" fill-rule="evenodd" clip-rule="evenodd" d="M12.0859 3.125C12.4311 3.125 12.7109 3.40482 12.7109 3.75V5.41667C12.7109 5.98816 13.1811 6.45833 13.7526 6.45833H15.4193C15.7644 6.45833 16.0443 6.73816 16.0443 7.08333C16.0443 7.42851 15.7644 7.70833 15.4193 7.70833H13.7526C12.4908 7.70833 11.4609 6.67851 11.4609 5.41667V3.75C11.4609 3.40482 11.7408 3.125 12.0859 3.125Z" fill="#92ABFE"/>
<path id="Vector_2" d="M5.0026 10.8335C2.7026 10.8335 0.835938 12.7002 0.835938 15.0002C0.835938 17.3002 2.7026 19.1668 5.0026 19.1668C7.3026 19.1668 9.16927 17.3002 9.16927 15.0002C9.16927 12.7002 7.3026 10.8335 5.0026 10.8335ZM4.30261 16.0585C4.51094 16.2668 4.51094 16.6085 4.30261 16.8252C4.19427 16.9335 4.06095 16.9835 3.91928 16.9835C3.77761 16.9835 3.64426 16.9335 3.53593 16.8252L2.09428 15.3835C1.88595 15.1752 1.88595 14.8335 2.09428 14.6168L3.53593 13.1752C3.74426 12.9668 4.08594 12.9668 4.30261 13.1752C4.51094 13.3835 4.51094 13.7251 4.30261 13.9418L3.24428 15.0002L4.30261 16.0585ZM7.90261 15.3835L6.46094 16.8252C6.3526 16.9335 6.21928 16.9835 6.07761 16.9835C5.93595 16.9835 5.80259 16.9335 5.69426 16.8252C5.48593 16.6168 5.48593 16.2752 5.69426 16.0585L6.75261 15.0002L5.69426 13.9418C5.48593 13.7335 5.48593 13.3918 5.69426 13.1752C5.90259 12.9668 6.24427 12.9668 6.46094 13.1752L7.90261 14.6168C8.11095 14.8335 8.11095 15.1668 7.90261 15.3835Z" fill="#92ABFE"/>
</g>
</g>
</svg>
