<svg width="20" height="20" viewBox="0 0 20 20" fill="none" xmlns="http://www.w3.org/2000/svg">
<g id="vuesax/bulk/math">
<g id="math">
<path id="Vector" opacity="0.4" d="M13.4891 1.6665H6.50573C3.4724 1.6665 1.66406 3.47484 1.66406 6.50817V13.4832C1.66406 16.5248 3.4724 18.3332 6.50573 18.3332H13.4807C16.5141 18.3332 18.3224 16.5248 18.3224 13.4915V6.50817C18.3307 3.47484 16.5224 1.6665 13.4891 1.6665Z" fill="#92ABFE"/>
<path id="Vector_2" d="M8.75 6.8418H5C4.96985 6.8418 4.93857 6.82951 4.91293 6.80387C4.88728 6.77823 4.875 6.74694 4.875 6.7168C4.875 6.68665 4.88728 6.65537 4.91293 6.62973C4.93857 6.60408 4.96985 6.5918 5 6.5918H8.75C8.78015 6.5918 8.81143 6.60408 8.83707 6.62973C8.86272 6.65537 8.875 6.68665 8.875 6.7168C8.875 6.74694 8.86272 6.77823 8.83707 6.80387C8.81143 6.82951 8.78015 6.8418 8.75 6.8418Z" fill="#92ABFE" stroke="#92ABFE"/>
<path id="Vector_3" d="M15 12.3418H11.25C10.9083 12.3418 10.625 12.0585 10.625 11.7168C10.625 11.3751 10.9083 11.0918 11.25 11.0918H15C15.3417 11.0918 15.625 11.3751 15.625 11.7168C15.625 12.0585 15.3417 12.3418 15 12.3418Z" fill="#92ABFE"/>
<path id="Vector_4" d="M15 15.4668H11.25C10.9083 15.4668 10.625 15.1835 10.625 14.8418C10.625 14.5001 10.9083 14.2168 11.25 14.2168H15C15.3417 14.2168 15.625 14.5001 15.625 14.8418C15.625 15.1835 15.3417 15.4668 15 15.4668Z" fill="#92ABFE"/>
<path id="Vector_5" d="M15 6.0918H13.7667V4.8418C13.7667 4.50013 13.4833 4.2168 13.1417 4.2168C12.8 4.2168 12.5167 4.50013 12.5167 4.8418V6.0918H11.25C10.9083 6.0918 10.625 6.37513 10.625 6.7168C10.625 7.05846 10.9083 7.3418 11.25 7.3418H12.5167V8.5918C12.5167 8.93346 12.8 9.2168 13.1417 9.2168C13.4833 9.2168 13.7667 8.93346 13.7667 8.5918V7.3418H15C15.3417 7.3418 15.625 7.05846 15.625 6.7168C15.625 6.37513 15.3417 6.0918 15 6.0918Z" fill="#92ABFE"/>
<path id="Vector_6" d="M7.75625 13.2836L9.18958 11.8502C9.43125 11.6086 9.43125 11.2086 9.18958 10.9669C8.94792 10.7252 8.54792 10.7252 8.30625 10.9669L6.87292 12.4002L5.43958 10.9669C5.19792 10.7252 4.79792 10.7252 4.55625 10.9669C4.31458 11.2086 4.31458 11.6086 4.55625 11.8502L5.98958 13.2836L4.55625 14.7169C4.31458 14.9586 4.31458 15.3586 4.55625 15.6002C4.68125 15.7252 4.83958 15.7836 4.99792 15.7836C5.15625 15.7836 5.31458 15.7252 5.43958 15.6002L6.87292 14.1669L8.30625 15.6002C8.43125 15.7252 8.58958 15.7836 8.74792 15.7836C8.90625 15.7836 9.06458 15.7252 9.18958 15.6002C9.43125 15.3586 9.43125 14.9586 9.18958 14.7169L7.75625 13.2836Z" fill="#92ABFE"/>
</g>
</g>
</svg>
