<svg width="20" height="20" viewBox="0 0 20 20" fill="none" xmlns="http://www.w3.org/2000/svg">
<g id="vuesax/bulk/people">
<g id="people">
<path id="Vector" opacity="0.4" d="M14.6275 5.97366C14.5568 5.9669 14.4859 5.9669 14.4152 5.97366C13.4106 5.92309 12.6172 5.09419 12.6172 4.07484C12.6172 3.02485 13.4695 2.1665 14.5255 2.1665C15.575 2.1665 16.433 3.01793 16.4339 4.07326C16.4265 5.09488 15.6311 5.92312 14.6275 5.97366Z" fill="#92ABFE" stroke="#92ABFE"/>
<path id="Vector_2" opacity="0.4" d="M17.3276 12.2498C16.3943 12.8748 15.0859 13.1082 13.8776 12.9498C14.1943 12.2665 14.3609 11.5082 14.3693 10.7082C14.3693 9.87485 14.1859 9.08318 13.8359 8.39152C15.0693 8.22485 16.3776 8.45817 17.3193 9.08317C18.6359 9.94984 18.6359 11.3748 17.3276 12.2498Z" fill="#92ABFE"/>
<path id="Vector_3" opacity="0.4" d="M5.36406 6.47484C5.42239 6.46651 5.48073 6.46651 5.53906 6.47484C6.83073 6.43317 7.85573 5.37484 7.85573 4.07484C7.85573 2.74984 6.78073 1.6665 5.4474 1.6665C4.1224 1.6665 3.03906 2.7415 3.03906 4.07484C3.0474 5.37484 4.07239 6.43317 5.36406 6.47484Z" fill="#92ABFE"/>
<path id="Vector_4" opacity="0.4" d="M5.4599 10.7083C5.4599 11.5167 5.6349 12.2833 5.95156 12.975C4.77656 13.1 3.55156 12.85 2.65156 12.2583C1.3349 11.3833 1.3349 9.95833 2.65156 9.08333C3.54323 8.48333 4.80156 8.24167 5.9849 8.37501C5.64323 9.07501 5.4599 9.86668 5.4599 10.7083Z" fill="#92ABFE"/>
<path id="Vector_5" d="M10.1 13.225C10.0333 13.2167 9.95833 13.2167 9.88333 13.225C8.35 13.175 7.125 11.9167 7.125 10.3667C7.125 8.78334 8.4 7.5 9.99167 7.5C11.575 7.5 12.8583 8.78334 12.8583 10.3667C12.8583 11.9167 11.6417 13.175 10.1 13.225Z" fill="#92ABFE"/>
<path id="Vector_6" d="M7.38906 14.9502C6.13073 15.7919 6.13073 17.1752 7.38906 18.0085C8.8224 18.9669 11.1724 18.9669 12.6057 18.0085C13.8641 17.1669 13.8641 15.7835 12.6057 14.9502C11.1807 13.9919 8.83073 13.9919 7.38906 14.9502Z" fill="#92ABFE"/>
</g>
</g>
</svg>
