<svg width="20" height="20" viewBox="0 0 20 20" fill="none" xmlns="http://www.w3.org/2000/svg">
<g id="vuesax/bulk/simcard">
<g id="simcard">
<path id="Vector" opacity="0.4" d="M16.2833 5.4498L13.725 2.89146C12.9417 2.10813 11.8833 1.6748 10.775 1.6748H6.66667C4.16667 1.6748 2.5 3.34147 2.5 5.84147V14.1748C2.5 16.6748 4.16667 18.3415 6.66667 18.3415H13.3333C15.8333 18.3415 17.5 16.6748 17.5 14.1748V8.39979C17.5 7.28312 17.0583 6.2248 16.2833 5.4498Z" fill="#92ABFE"/>
<g id="Group">
<g id="Group_2">
<path id="Vector_2" d="M7.91458 15.6252C7.75625 15.6252 7.59792 15.5669 7.47292 15.4419L5.80625 13.7752C5.56458 13.5335 5.56458 13.1335 5.80625 12.8919L7.47292 11.2252C7.71458 10.9835 8.11458 10.9835 8.35625 11.2252C8.59791 11.4669 8.59791 11.8669 8.35625 12.1085L7.13125 13.3335L8.35625 14.5585C8.59791 14.8002 8.59791 15.2002 8.35625 15.4419C8.23125 15.5669 8.07292 15.6252 7.91458 15.6252Z" fill="#92ABFE"/>
</g>
<g id="Group_3">
<path id="Vector_3" d="M12.0839 15.6252C11.9255 15.6252 11.7672 15.5669 11.6422 15.4419C11.4005 15.2002 11.4005 14.8002 11.6422 14.5585L12.8672 13.3335L11.6422 12.1085C11.4005 11.8669 11.4005 11.4669 11.6422 11.2252C11.8839 10.9835 12.2839 10.9835 12.5255 11.2252L14.1922 12.8919C14.4339 13.1335 14.4339 13.5335 14.1922 13.7752L12.5255 15.4419C12.4005 15.5669 12.2422 15.6252 12.0839 15.6252Z" fill="#92ABFE"/>
</g>
</g>
</g>
</g>
</svg>
