<svg width="20" height="20" viewBox="0 0 20 20" fill="none" xmlns="http://www.w3.org/2000/svg">
<g id="vuesax/bulk/timer-pause">
<g id="timer-pause">
<path id="Vector" d="M10 11.4582C9.65833 11.4582 9.375 11.1748 9.375 10.8332V6.6665C9.375 6.32484 9.65833 6.0415 10 6.0415C10.3417 6.0415 10.625 6.32484 10.625 6.6665V10.8332C10.625 11.1748 10.3417 11.4582 10 11.4582Z" fill="#92ABFE"/>
<path id="Vector_2" d="M12.4089 2.37484H7.59219C7.535 2.37484 7.49219 2.33203 7.49219 2.27484C7.49219 2.20862 7.54393 2.1665 7.59219 2.1665H12.4089C12.466 2.1665 12.5089 2.20931 12.5089 2.2665C12.5089 2.33272 12.4571 2.37484 12.4089 2.37484Z" fill="#92ABFE" stroke="#92ABFE"/>
<path id="Vector_3" opacity="0.4" d="M12.4984 16.6416V14.1916C12.4984 13.1333 13.1318 12.5 14.1901 12.5H16.6401C16.7984 12.5 16.9401 12.5166 17.0818 12.55C17.1734 12.0833 17.2234 11.6 17.2234 11.1083C17.2234 7.12497 13.9818 3.8833 9.99844 3.8833C6.0151 3.8833 2.77344 7.12497 2.77344 11.1083C2.77344 15.0916 6.0151 18.3333 9.99844 18.3333C11.0068 18.3333 11.9651 18.125 12.8401 17.75C12.6234 17.4666 12.4984 17.1 12.4984 16.6416Z" fill="#92ABFE"/>
<path id="Vector_4" d="M16.6417 12.5H14.2C13.1333 12.5 12.5 13.1333 12.5 14.1917V16.6333C12.5 17.6917 13.1333 18.325 14.1917 18.325H16.6333C17.6917 18.325 18.325 17.6917 18.325 16.6333V14.1917C18.3333 13.1333 17.7 12.5 16.6417 12.5ZM14.9333 16.7167C14.9333 16.9833 14.7167 17.2 14.45 17.2C14.1833 17.2 13.9667 16.9833 13.9667 16.7167V14.125C13.9667 13.8583 14.1833 13.6417 14.45 13.6417C14.7167 13.6417 14.9333 13.8583 14.9333 14.125V16.7167ZM16.875 16.7167C16.875 16.9833 16.6583 17.2 16.3917 17.2C16.125 17.2 15.9083 16.9833 15.9083 16.7167V14.125C15.9083 13.8583 16.125 13.6417 16.3917 13.6417C16.6583 13.6417 16.875 13.8583 16.875 14.125V16.7167Z" fill="#92ABFE"/>
</g>
</g>
</svg>
