<svg width="32" height="32" viewBox="0 0 32 32" fill="none" xmlns="http://www.w3.org/2000/svg">
<path opacity="0.8" fill-rule="evenodd" clip-rule="evenodd" d="M31.4328 29.5201C31.4328 30.4725 30.6608 31.2453 29.7084 31.2453H21.7462V19.1453H25.8078L26.4163 14.4303H21.7462V11.4191C21.7462 10.0539 22.1258 9.1237 24.0834 9.1237L26.5806 9.12285V4.90484C26.1482 4.84782 24.6664 4.7193 22.9421 4.7193C19.3418 4.7193 16.877 6.91682 16.877 10.9527V14.4303H12.8053V19.1453H16.877V31.2453H1.91186C0.959461 31.2453 0.1875 30.4725 0.1875 29.5201V1.72516C0.1875 0.77194 0.959461 0 1.91186 0H29.7084C30.6608 0 31.4328 0.77194 31.4328 1.72516V29.5201Z" fill="white"/>
</svg>
