<svg width="32" height="32" viewBox="0 0 32 32" fill="none" xmlns="http://www.w3.org/2000/svg">
<path opacity="0.8" fill-rule="evenodd" clip-rule="evenodd" d="M27.9102 0H4.09292C2.04161 0 0.378906 1.65844 0.378906 3.70549V27.5398C0.378906 29.586 2.04161 31.2453 4.09292 31.2453H27.9102C29.9615 31.2453 31.6242 29.586 31.6242 27.5398V3.70549C31.6242 1.65844 29.9615 0 27.9102 0ZM22.8368 4.88146C22.8368 4.34285 23.274 3.90566 23.8126 3.90566H26.7417C27.2811 3.90566 27.7183 4.34285 27.7183 4.88146V7.81143C27.7183 8.35004 27.2811 8.78723 26.7417 8.78723H23.8126C23.274 8.78723 22.8368 8.35004 22.8368 7.81143V4.88146ZM16.0378 9.66371C19.3564 9.66371 22.0469 12.3482 22.0469 15.6583C22.0469 18.9692 19.3564 21.6529 16.0378 21.6529C12.7201 21.6529 10.0296 18.9692 10.0296 15.6583C10.0296 12.3482 12.7201 9.66371 16.0378 9.66371ZM28.6952 27.3398C28.6952 27.8784 28.258 28.3165 27.7186 28.3165H4.28481C3.74535 28.3165 3.30815 27.8784 3.30815 27.3398V12.6934H7.21392C6.70514 13.4255 6.53299 14.7916 6.53299 15.6592C6.53299 20.8876 10.7975 25.1419 16.0379 25.1419C21.2791 25.1419 25.5437 20.8876 25.5437 15.6592C25.5437 14.7916 25.4201 13.4468 24.7894 12.6934H28.6952V27.3398Z" fill="white"/>
</svg>
