<svg width="32" height="32" viewBox="0 0 32 32" fill="none" xmlns="http://www.w3.org/2000/svg">
<path d="M27.7736 0C28.6943 0 29.5774 0.365767 30.2284 1.01684C30.8795 1.66791 31.2453 2.55095 31.2453 3.4717V27.7736C31.2453 28.6943 30.8795 29.5774 30.2284 30.2284C29.5774 30.8795 28.6943 31.2453 27.7736 31.2453H3.4717C2.55095 31.2453 1.66791 30.8795 1.01684 30.2284C0.365767 29.5774 0 28.6943 0 27.7736V3.4717C0 2.55095 0.365767 1.66791 1.01684 1.01684C1.66791 0.365767 2.55095 0 3.4717 0H27.7736ZM26.9057 26.9057V17.7057C26.9057 16.2048 26.3095 14.7655 25.2482 13.7042C24.187 12.643 22.7476 12.0468 21.2468 12.0468C19.7713 12.0468 18.0528 12.9494 17.2196 14.3034V12.3766H12.3766V26.9057H17.2196V18.3479C17.2196 17.0113 18.2958 15.9177 19.6325 15.9177C20.277 15.9177 20.8951 16.1738 21.3509 16.6295C21.8066 17.0853 22.0626 17.7034 22.0626 18.3479V26.9057H26.9057ZM6.73509 9.65132C7.50853 9.65132 8.25028 9.34408 8.79718 8.79718C9.34408 8.25028 9.65132 7.50853 9.65132 6.73509C9.65132 5.12075 8.34943 3.80151 6.73509 3.80151C5.95706 3.80151 5.21089 4.11058 4.66074 4.66074C4.11058 5.21089 3.80151 5.95706 3.80151 6.73509C3.80151 8.34943 5.12075 9.65132 6.73509 9.65132ZM9.14793 26.9057V12.3766H4.33962V26.9057H9.14793Z" fill="#CDD1E5"/>
</svg>
