<svg width="672" height="423" viewBox="0 0 672 423" fill="none" xmlns="http://www.w3.org/2000/svg">
<g clip-path="url(#clip0_3562_8085)">
<path d="M478.794 147.077H153.818V363.059H478.794V147.077Z" fill="#DEE8F5"/>
<path opacity="0.55" d="M482.426 143.609H146.728V198.498H482.426V143.609Z" fill="#C1D8ED"/>
<path d="M539.463 378.21H93.1509V400.605H539.463V378.21Z" fill="#F3F5FD"/>
<path d="M523.805 355.815H108.808V378.21H523.805V355.815Z" fill="#F3F5FD"/>
<path d="M523.805 372.219H108.808V378.21H523.805V372.219Z" fill="#DEE8F5"/>
<path d="M539.463 394.614H93.1509V400.605H539.463V394.614Z" fill="#DEE8F5"/>
<path d="M554.431 400.605H78.7773V423H554.431V400.605Z" fill="#F3F5FD"/>
<path d="M554.431 417.009H78.7773V423H554.431V417.009Z" fill="#DEE8F5"/>
<path d="M176.32 163.912H140.407V345.736H176.32V163.912Z" fill="#F3F5FD"/>
<path d="M266.917 163.912H231.003V345.736H266.917V163.912Z" fill="#F3F5FD"/>
<path d="M492.205 163.912H456.292V345.736H492.205V163.912Z" fill="#F3F5FD"/>
<path d="M129.592 147.077H187.136V167.709C187.136 168.401 186.862 169.064 186.373 169.553C185.884 170.042 185.22 170.317 184.529 170.317H132.199C131.508 170.317 130.845 170.042 130.356 169.553C129.867 169.064 129.592 168.401 129.592 167.709V147.077Z" fill="#63B5FF"/>
<path d="M220.188 147.077H277.732V167.709C277.732 168.401 277.458 169.064 276.969 169.553C276.48 170.042 275.817 170.317 275.125 170.317H222.796C222.104 170.317 221.441 170.042 220.952 169.553C220.463 169.064 220.188 168.401 220.188 167.709V147.077Z" fill="#63B5FF"/>
<path d="M445.48 147.077H503.024V167.709C503.024 168.401 502.749 169.064 502.26 169.553C501.771 170.042 501.108 170.317 500.416 170.317H448.084C447.393 170.317 446.73 170.042 446.241 169.553C445.752 169.064 445.477 168.401 445.477 167.709V147.077H445.48Z" fill="#63B5FF"/>
<path d="M132.199 339.513H184.528C185.22 339.513 185.883 339.787 186.372 340.276C186.861 340.765 187.135 341.428 187.135 342.12V355.815H129.592V342.12C129.592 341.428 129.867 340.765 130.356 340.276C130.845 339.787 131.508 339.513 132.199 339.513Z" fill="#63B5FF"/>
<path d="M222.796 339.513H275.124C275.816 339.513 276.479 339.787 276.968 340.276C277.457 340.765 277.732 341.428 277.732 342.12V355.815H220.188V342.12C220.188 341.428 220.463 340.765 220.952 340.276C221.441 339.787 222.104 339.513 222.796 339.513Z" fill="#63B5FF"/>
<path d="M448.085 339.513H500.413C501.105 339.513 501.768 339.787 502.257 340.276C502.746 340.765 503.02 341.428 503.02 342.12V355.815H445.48V342.12C445.48 341.429 445.754 340.766 446.243 340.277C446.731 339.788 447.394 339.513 448.085 339.513Z" fill="#63B5FF"/>
<path d="M153.801 180.293C153.801 179.294 152.992 178.485 151.994 178.485C150.995 178.485 150.186 179.294 150.186 180.293V329.355C150.186 330.354 150.995 331.163 151.994 331.163C152.992 331.163 153.801 330.354 153.801 329.355V180.293Z" fill="#63B5FF"/>
<path d="M166.542 180.293C166.542 179.294 165.732 178.485 164.734 178.485C163.736 178.485 162.927 179.294 162.927 180.293V329.355C162.927 330.354 163.736 331.163 164.734 331.163C165.732 331.163 166.542 330.354 166.542 329.355V180.293Z" fill="#63B5FF"/>
<path d="M244.397 180.293C244.397 179.294 243.587 178.485 242.589 178.485C241.591 178.485 240.782 179.294 240.782 180.293V329.355C240.782 330.354 241.591 331.163 242.589 331.163C243.587 331.163 244.397 330.354 244.397 329.355V180.293Z" fill="#63B5FF"/>
<path d="M257.138 180.293C257.138 179.294 256.329 178.485 255.331 178.485C254.333 178.485 253.523 179.294 253.523 180.293V329.355C253.523 330.354 254.333 331.163 255.331 331.163C256.329 331.163 257.138 330.354 257.138 329.355V180.293Z" fill="#63B5FF"/>
<path d="M404.405 163.912H368.492V345.736H404.405V163.912Z" fill="#F3F5FD"/>
<path d="M357.676 147.077H415.22V167.709C415.22 168.401 414.945 169.064 414.457 169.553C413.968 170.042 413.304 170.317 412.613 170.317H360.283C359.592 170.317 358.929 170.042 358.44 169.553C357.951 169.064 357.676 168.401 357.676 167.709V147.077Z" fill="#63B5FF"/>
<path d="M360.283 339.513H412.616C413.308 339.513 413.971 339.787 414.46 340.276C414.949 340.765 415.224 341.428 415.224 342.12V355.815H357.676V342.12C357.676 341.428 357.951 340.765 358.44 340.276C358.929 339.787 359.592 339.513 360.283 339.513Z" fill="#63B5FF"/>
<path d="M381.885 180.293C381.885 179.294 381.076 178.485 380.077 178.485C379.079 178.485 378.27 179.294 378.27 180.293V329.355C378.27 330.354 379.079 331.163 380.077 331.163C381.076 331.163 381.885 330.354 381.885 329.355V180.293Z" fill="#63B5FF"/>
<path d="M394.626 180.293C394.626 179.294 393.816 178.485 392.818 178.485C391.82 178.485 391.011 179.294 391.011 180.293V329.355C391.011 330.354 391.82 331.163 392.818 331.163C393.816 331.163 394.626 330.354 394.626 329.355V180.293Z" fill="#63B5FF"/>
<path d="M469.686 180.293C469.686 179.294 468.877 178.485 467.878 178.485C466.88 178.485 466.071 179.294 466.071 180.293V329.355C466.071 330.354 466.88 331.163 467.878 331.163C468.877 331.163 469.686 330.354 469.686 329.355V180.293Z" fill="#63B5FF"/>
<path d="M482.426 180.293C482.426 179.294 481.617 178.485 480.619 178.485C479.621 178.485 478.812 179.294 478.812 180.293V329.355C478.812 330.354 479.621 331.163 480.619 331.163C481.617 331.163 482.426 330.354 482.426 329.355V180.293Z" fill="#63B5FF"/>
<path d="M518.723 138.982V152.207C518.723 152.918 518.44 153.6 517.937 154.103C517.434 154.606 516.752 154.889 516.041 154.889H115.74C115.029 154.889 114.347 154.607 113.844 154.104C113.341 153.6 113.058 152.918 113.058 152.207V139.55C113.058 138.926 113.211 138.311 113.503 137.759C113.795 137.207 114.217 136.735 114.734 136.383L314.149 0.663435C314.784 0.231161 315.535 0 316.303 0C317.072 0 317.822 0.231161 318.458 0.663435L517.044 135.815C517.561 136.166 517.984 136.638 518.276 137.19C518.569 137.742 518.722 138.357 518.723 138.982Z" fill="#FFE791"/>
<path d="M465.273 132.569H167.338C167.118 132.569 166.903 132.498 166.726 132.368C166.549 132.237 166.418 132.052 166.353 131.842C166.288 131.631 166.293 131.405 166.366 131.197C166.438 130.989 166.576 130.81 166.758 130.686L315.723 29.2991C315.894 29.183 316.096 29.1208 316.303 29.1208C316.51 29.1208 316.712 29.183 316.883 29.2991L465.854 130.686C466.036 130.81 466.173 130.989 466.246 131.197C466.319 131.405 466.323 131.631 466.259 131.842C466.194 132.052 466.063 132.237 465.886 132.368C465.708 132.498 465.494 132.569 465.273 132.569Z" fill="#F3F5FD"/>
<path d="M189.969 369.123H240.329C241.004 369.123 241.652 369.391 242.129 369.868C242.607 370.346 242.875 370.993 242.875 371.669V384.536C242.875 385.211 242.607 385.858 242.129 386.336C241.652 386.813 241.004 387.081 240.329 387.081H189.969V369.123Z" fill="#8DDBE0"/>
<path d="M127.412 369.123H100.716V387.082H127.412V369.123Z" fill="#0CBC8B"/>
<path d="M33.1245 369.123H100.473V387.081H33.1245C32.4497 387.081 31.8028 386.812 31.3259 386.335C30.849 385.858 30.5811 385.211 30.5811 384.536V371.669C30.5811 370.994 30.8489 370.347 31.3258 369.869C31.8027 369.392 32.4497 369.123 33.1245 369.123Z" fill="#8DDBE0"/>
<path opacity="0.15" d="M189.969 369.123H240.329C241.004 369.123 241.652 369.391 242.129 369.868C242.607 370.346 242.875 370.993 242.875 371.669V384.536C242.875 385.211 242.607 385.858 242.129 386.336C241.652 386.813 241.004 387.081 240.329 387.081H189.969V369.123Z" fill="#0F1011"/>
<path d="M127.412 369.123H190.392C191.068 369.123 191.715 369.391 192.193 369.868C192.67 370.346 192.938 370.993 192.938 371.669V384.536C192.938 385.211 192.67 385.858 192.192 386.336C191.715 386.813 191.068 387.081 190.392 387.081H127.412V369.123Z" fill="#8DDBE0"/>
<path d="M160.254 387.081H210.614C211.289 387.081 211.937 387.349 212.415 387.827C212.892 388.304 213.16 388.952 213.16 389.627V402.494C213.16 403.17 212.892 403.817 212.415 404.295C211.937 404.772 211.289 405.04 210.614 405.04H160.254V387.081Z" fill="#8DDBE0"/>
<path d="M97.6981 387.081H71.002V405.04H97.6981V387.081Z" fill="#0CBC8B"/>
<path d="M3.41029 387.081H70.759V405.04H3.41029C2.73504 405.04 2.08745 404.772 1.60997 404.295C1.1325 403.817 0.864258 403.17 0.864258 402.494V389.627C0.864258 388.952 1.1325 388.304 1.60997 387.827C2.08745 387.349 2.73504 387.081 3.41029 387.081Z" fill="#8DDBE0"/>
<path opacity="0.15" d="M160.254 387.081H210.614C211.289 387.081 211.937 387.349 212.415 387.827C212.892 388.304 213.16 388.952 213.16 389.627V402.494C213.16 403.17 212.892 403.817 212.415 404.295C211.937 404.772 211.289 405.04 210.614 405.04H160.254V387.081Z" fill="#0F1011"/>
<path d="M97.6973 387.081H160.678C161.353 387.081 162 387.349 162.478 387.827C162.955 388.304 163.224 388.952 163.224 389.627V402.494C163.224 403.17 162.955 403.817 162.478 404.295C162 404.772 161.353 405.04 160.678 405.04H97.6973V387.081Z" fill="#8DDBE0"/>
<path d="M170.311 405.041H220.672C221.347 405.041 221.994 405.309 222.471 405.787C222.949 406.264 223.217 406.911 223.217 407.587V420.454C223.217 421.129 222.949 421.776 222.471 422.254C221.994 422.731 221.347 423 220.672 423H170.311V405.041Z" fill="#8DDBE0"/>
<path opacity="0.15" d="M170.311 405.041H220.672C221.347 405.041 221.994 405.309 222.471 405.787C222.949 406.264 223.217 406.911 223.217 407.587V420.454C223.217 421.129 222.949 421.776 222.471 422.254C221.994 422.731 221.347 423 220.672 423H170.311V405.041Z" fill="#0F1011"/>
<path d="M107.755 405.041H81.0591V423H107.755V405.041Z" fill="#0CBC8B"/>
<path d="M13.4674 405.041H80.8161V423H13.4674C12.7922 423 12.1446 422.732 11.6671 422.254C11.1896 421.777 10.9214 421.129 10.9214 420.454V407.587C10.9214 406.911 11.1896 406.264 11.6671 405.786C12.1446 405.309 12.7922 405.041 13.4674 405.041Z" fill="#8DDBE0"/>
<path d="M107.757 405.041H170.737C171.412 405.041 172.06 405.309 172.537 405.786C173.015 406.264 173.283 406.911 173.283 407.587V420.454C173.283 421.129 173.015 421.777 172.537 422.254C172.06 422.732 171.412 423 170.737 423H107.757V405.041Z" fill="#8DDBE0"/>
<path d="M106.359 267.825C105.686 267.117 104.765 266.698 103.789 266.657H75.7626C74.7871 266.698 73.8656 267.117 73.1939 267.825C61.391 280.082 50.6104 293.285 40.9599 307.3C29.2812 324.584 31.1499 340.701 45.8658 355.65C57.5445 367.563 72.9605 369.197 89.7776 369.197C106.595 369.197 122.011 367.563 133.689 355.65C148.405 340.704 150.274 324.584 138.594 307.3C128.878 293.334 118.101 280.137 106.359 267.825Z" fill="#0CBC8B"/>
<path d="M130.886 231.621C126.786 227.028 119.92 231.075 113.121 235.915C110.948 237.46 108.26 238.103 105.623 237.709C102.986 237.315 100.603 235.915 98.9759 233.803C96.0112 229.975 92.7756 226.716 89.7777 226.716C86.9188 226.716 83.6595 229.969 80.659 233.796C78.9965 235.899 76.5766 237.268 73.9174 237.609C71.2582 237.95 68.5712 237.236 66.4317 235.621C59.8485 230.656 53.1946 226.45 49.1356 231.158C37.9691 247.065 70.6244 270.653 73.6607 273.222C74.3599 273.69 105.427 273.69 105.895 273.222C108.931 270.883 143.068 245.564 130.886 231.621Z" fill="#0CBC8B"/>
<path d="M110.332 273.899H69.2232C68.763 273.899 68.3074 273.808 67.8823 273.632C67.4572 273.456 67.0709 273.198 66.7455 272.872C66.4201 272.547 66.162 272.161 65.986 271.736C65.8099 271.311 65.7192 270.855 65.7192 270.395C65.7192 269.935 65.8099 269.479 65.986 269.054C66.162 268.629 66.4201 268.243 66.7455 267.917C67.0709 267.592 67.4572 267.334 67.8823 267.158C68.3074 266.981 68.763 266.891 69.2232 266.891H110.332C111.254 266.913 112.132 267.29 112.785 267.942C113.437 268.594 113.813 269.473 113.836 270.395C113.845 270.857 113.76 271.317 113.587 271.746C113.414 272.175 113.156 272.565 112.829 272.892C112.502 273.219 112.112 273.477 111.683 273.65C111.254 273.823 110.795 273.907 110.332 273.899Z" fill="#262626"/>
<path d="M87.111 349.155V342.23C84.9091 341.954 82.7542 341.383 80.7044 340.533C78.5773 339.703 76.6182 338.495 74.9219 336.966L79.3514 330.11C80.8913 331.322 82.5785 332.334 84.3727 333.122C85.9163 333.782 87.5772 334.124 89.2559 334.127C91.195 334.127 92.6147 333.734 93.515 332.949C93.9907 332.485 94.3583 331.922 94.5917 331.299C94.8251 330.677 94.9185 330.011 94.8653 329.348C94.8733 328.773 94.7567 328.203 94.5236 327.677C94.2905 327.151 93.9464 326.681 93.515 326.301C92.4803 325.375 91.3414 324.573 90.1211 323.911C88.7588 323.15 87.2928 322.388 85.723 321.626C84.1649 320.872 82.6907 319.955 81.325 318.891C79.9841 317.852 78.8357 316.586 77.932 315.151C76.9896 313.561 76.521 311.734 76.5816 309.887C76.4657 306.813 77.4614 303.802 79.3864 301.403C81.3716 299.097 84.1056 297.565 87.1084 297.074V289.94H93.8261V296.933C95.8817 297.2 97.8612 297.884 99.6436 298.943C101.303 299.957 102.818 301.192 104.146 302.614L99.0213 308.432C97.9476 307.403 96.7353 306.528 95.4195 305.835C94.1895 305.24 92.8372 304.944 91.4715 304.968C90.1212 304.878 88.7796 305.244 87.6625 306.008C87.1946 306.433 86.8322 306.961 86.6042 307.551C86.3761 308.14 86.2887 308.775 86.3488 309.404C86.3454 309.944 86.4653 310.477 86.6994 310.963C86.9334 311.449 87.2754 311.875 87.6992 312.209C88.7428 313.065 89.8816 313.798 91.093 314.394C92.4548 315.086 93.9208 315.802 95.4911 316.541C97.0529 317.275 98.5278 318.181 99.8883 319.242C101.248 320.303 102.399 321.607 103.283 323.088C104.233 324.789 104.7 326.717 104.633 328.664C104.714 331.737 103.762 334.747 101.932 337.216C100.131 339.595 97.4303 341.177 93.8287 341.961V349.163L87.111 349.155Z" fill="#F1F1F1"/>
<path d="M519.059 302.07C519.059 302.07 499.796 287.789 492.939 293.409C486.734 298.493 493.921 318.781 493.921 318.781C493.921 318.781 510.483 320.273 519.059 302.07Z" fill="#DEE8F5"/>
<path d="M646.108 348.574C646.108 384.564 616.503 413.74 569.942 413.74C523.381 413.74 485.636 384.564 485.636 348.574C485.636 312.585 523.381 283.409 569.942 283.409C616.503 283.409 646.108 312.585 646.108 348.574Z" fill="#E7C1ED"/>
<path d="M534.518 385.975H529.086C528.628 386.041 528.163 386.041 527.705 385.975H522.274C520.865 385.975 519.514 386.534 518.518 387.531C517.522 388.527 516.962 389.878 516.962 391.287V417.945C516.962 418.608 517.092 419.265 517.346 419.878C517.6 420.491 517.972 421.048 518.441 421.517C518.91 421.986 519.467 422.358 520.08 422.612C520.693 422.866 521.35 422.996 522.013 422.996H527.967C528.112 422.996 528.254 422.987 528.396 422.975C528.537 422.987 528.68 422.996 528.825 422.996H534.779C536.119 422.996 537.404 422.464 538.351 421.517C539.299 420.569 539.831 419.284 539.831 417.945V391.287C539.831 389.878 539.271 388.527 538.274 387.531C537.278 386.534 535.927 385.975 534.518 385.975Z" fill="#E7C1ED"/>
<path d="M606.595 385.975H601.163C600.705 386.041 600.24 386.041 599.782 385.975H594.351C592.942 385.975 591.591 386.534 590.595 387.531C589.598 388.527 589.038 389.878 589.038 391.287V417.945C589.038 419.284 589.57 420.569 590.518 421.517C591.465 422.464 592.75 422.996 594.09 422.996H600.044C600.189 422.996 600.331 422.987 600.473 422.975C600.615 422.987 600.757 422.996 600.902 422.996H606.856C608.196 422.996 609.481 422.464 610.428 421.517C611.376 420.569 611.908 419.284 611.908 417.945V391.287C611.908 389.878 611.348 388.527 610.351 387.531C609.355 386.534 608.004 385.975 606.595 385.975Z" fill="#E7C1ED"/>
<path d="M501.141 327.338C502.662 327.338 503.895 326.105 503.895 324.585C503.895 323.064 502.662 321.832 501.141 321.832C499.621 321.832 498.388 323.064 498.388 324.585C498.388 326.105 499.621 327.338 501.141 327.338Z" fill="#111314"/>
<path d="M654.305 359.629C653.66 359.629 653.016 359.572 652.382 359.459C650.645 359.146 649.003 358.443 647.578 357.403C646.154 356.362 644.985 355.011 644.159 353.452C643.363 351.876 642.946 350.135 642.942 348.369C642.937 346.603 643.346 344.86 644.134 343.28C644.992 341.354 646.257 339.637 647.842 338.247C643.958 337.363 639.971 337.019 635.994 337.223C635.168 337.284 634.352 337.015 633.725 336.475C633.098 335.935 632.711 335.168 632.649 334.343C632.588 333.518 632.856 332.702 633.396 332.074C633.936 331.447 634.703 331.06 635.529 330.999C636.094 330.956 647.988 330.132 656.426 334.96C662.912 334.57 669.099 337.621 669.414 337.779C669.78 337.963 670.107 338.217 670.375 338.527C670.643 338.837 670.847 339.196 670.977 339.585C671.106 339.974 671.157 340.385 671.128 340.793C671.098 341.202 670.988 341.601 670.805 341.967C670.621 342.333 670.367 342.66 670.057 342.928C669.747 343.196 669.388 343.401 668.999 343.53C668.214 343.791 667.357 343.729 666.617 343.358C665.543 342.848 664.431 342.424 663.29 342.091C664.173 343.988 664.677 346.04 664.771 348.13C664.916 349.782 664.679 351.445 664.077 352.99C663.476 354.535 662.526 355.92 661.302 357.038C659.361 358.722 656.874 359.643 654.305 359.629ZM654.944 341.455C654.682 341.52 654.42 341.597 654.173 341.685C653.19 342.041 652.293 342.599 651.54 343.324C650.788 344.048 650.195 344.923 649.802 345.891C649.414 346.606 649.201 347.403 649.182 348.216C649.163 349.029 649.338 349.835 649.693 350.567C650.085 351.276 650.628 351.89 651.283 352.365C651.939 352.84 652.692 353.165 653.487 353.316C654.133 353.441 654.798 353.419 655.434 353.253C656.07 353.086 656.661 352.779 657.163 352.354C657.676 351.856 658.067 351.246 658.305 350.571C658.544 349.896 658.622 349.175 658.535 348.465C658.502 347.2 658.206 345.956 657.664 344.813C657.122 343.67 656.347 342.653 655.388 341.827C655.246 341.7 655.098 341.577 654.944 341.455Z" fill="#E7C1ED"/>
<path d="M646.971 347.706C646.447 347.706 645.933 347.574 645.474 347.322C645.015 347.071 644.626 346.708 644.344 346.267C644.062 345.826 643.896 345.322 643.86 344.8C643.824 344.277 643.92 343.755 644.139 343.279C644.876 341.545 645.968 339.983 647.343 338.693C648.718 337.404 650.346 336.415 652.125 335.79C659.882 333.071 669.028 337.582 669.414 337.775C669.78 337.958 670.107 338.213 670.375 338.522C670.643 338.832 670.847 339.192 670.977 339.581C671.106 339.97 671.157 340.38 671.128 340.789C671.098 341.198 670.988 341.596 670.805 341.963C670.621 342.329 670.367 342.656 670.057 342.924C669.747 343.192 669.388 343.396 668.999 343.526C668.214 343.786 667.357 343.725 666.617 343.354C664.636 342.371 658.526 340.15 654.173 341.685C653.191 342.041 652.294 342.599 651.541 343.324C650.788 344.048 650.196 344.923 649.803 345.891C649.554 346.433 649.154 346.891 648.652 347.213C648.15 347.535 647.567 347.706 646.971 347.706Z" fill="#DEE8F5"/>
<path d="M514.965 308.859C514.278 308.198 513.847 307.315 513.748 306.367C513.648 305.419 513.886 304.466 514.42 303.677C518.085 298.291 526.482 287.236 532.262 289.498C537.552 291.566 538.817 304.82 539.125 310.794C539.194 311.644 538.972 312.491 538.496 313.198C538.019 313.905 537.317 314.428 536.503 314.683C532.257 315.837 523.634 316.712 514.965 308.859Z" fill="#DEE8F5"/>
<path d="M470.467 337.671L532.408 338.214V379.103L475.894 378.853" fill="#E7C1ED"/>
<path d="M476.411 378.892C481.509 378.119 484.242 368.258 482.515 356.866C480.789 345.474 475.256 336.865 470.158 337.637C465.06 338.41 462.327 348.272 464.053 359.664C465.78 371.056 471.313 379.665 476.411 378.892Z" fill="#DEE8F5"/>
<path d="M590.269 288.912H548.811C547.151 288.912 545.806 290.257 545.806 291.917V291.918C545.806 293.577 547.151 294.923 548.811 294.923H590.269C591.928 294.923 593.274 293.577 593.274 291.918V291.917C593.274 290.257 591.928 288.912 590.269 288.912Z" fill="#E9EFF4"/>
<path d="M593.015 293.134C592.779 293.666 592.394 294.119 591.906 294.436C591.418 294.754 590.848 294.923 590.266 294.923H548.809C548.227 294.923 547.658 294.754 547.17 294.436C546.683 294.118 546.298 293.665 546.064 293.132C546.212 292.791 546.423 292.481 546.688 292.22C546.965 291.94 547.296 291.717 547.66 291.566C548.024 291.414 548.415 291.337 548.809 291.338H590.269C590.851 291.338 591.421 291.508 591.909 291.827C592.397 292.146 592.781 292.601 593.015 293.134Z" fill="#0F1011"/>
<path d="M572.987 269.452C589.87 269.452 603.556 255.765 603.556 238.883C603.556 222 589.87 208.314 572.987 208.314C556.105 208.314 542.418 222 542.418 238.883C542.418 255.765 556.105 269.452 572.987 269.452Z" fill="#0CBC8B"/>
<g opacity="0.29">
<path d="M572.987 258.699C583.932 258.699 592.804 249.827 592.804 238.883C592.804 227.938 583.932 219.066 572.987 219.066C562.043 219.066 553.17 227.938 553.17 238.883C553.17 249.827 562.043 258.699 572.987 258.699Z" fill="white"/>
</g>
<path d="M566.501 245.96L568.35 243.094C569.488 244.108 570.936 244.706 572.457 244.789C574.091 244.789 574.809 244.112 574.809 242.8C574.809 239.834 567.201 239.888 567.201 234.686C567.201 231.343 569.517 229.213 573.17 229.213C574.207 229.198 575.235 229.41 576.183 229.832C577.131 230.255 577.975 230.879 578.657 231.661L576.537 234.089C576.137 233.649 575.653 233.294 575.114 233.044C574.575 232.795 573.991 232.655 573.397 232.634C572.011 232.634 571.258 233.194 571.258 234.488C571.258 237.237 578.867 236.997 578.867 242.507C578.867 245.816 576.676 248.211 572.457 248.211C570.274 248.161 568.172 247.367 566.501 245.96ZM571.57 226.388H574.382V230.54H571.57V226.388ZM571.57 246.479H574.382V251.033H571.57V246.479Z" fill="white"/>
<path d="M593.275 192.826C606.519 192.826 617.255 182.09 617.255 168.846C617.255 155.601 606.519 144.865 593.275 144.865C580.03 144.865 569.294 155.601 569.294 168.846C569.294 182.09 580.03 192.826 593.275 192.826Z" fill="#0CBC8B"/>
<g opacity="0.29">
<path d="M593.274 184.391C601.86 184.391 608.82 177.431 608.82 168.846C608.82 160.26 601.86 153.3 593.274 153.3C584.689 153.3 577.729 160.26 577.729 168.846C577.729 177.431 584.689 184.391 593.274 184.391Z" fill="white"/>
</g>
<path d="M588.186 174.399L589.636 172.15C590.529 172.945 591.666 173.414 592.86 173.48C594.141 173.48 594.705 172.948 594.705 171.919C594.705 169.593 588.736 169.635 588.736 165.554C588.736 162.932 590.553 161.261 593.418 161.261C594.232 161.249 595.039 161.414 595.782 161.745C596.525 162.076 597.188 162.565 597.723 163.178L596.062 165.084C595.748 164.74 595.368 164.462 594.945 164.267C594.522 164.072 594.065 163.963 593.599 163.947C592.512 163.947 591.921 164.384 591.921 165.402C591.921 167.558 597.891 167.369 597.891 171.695C597.891 174.291 596.172 176.169 592.862 176.169C591.147 176.129 589.497 175.505 588.186 174.399ZM592.162 159.044H594.368V162.301H592.162V159.044ZM592.162 174.805H594.368V178.378H592.162V174.805Z" fill="white"/>
</g>
<defs>
<clipPath id="clip0_3562_8085">
<rect width="670.271" height="423" fill="white" transform="translate(0.864258)"/>
</clipPath>
</defs>
</svg>
