<svg width="706" height="433" viewBox="0 0 706 433" fill="none" xmlns="http://www.w3.org/2000/svg">
<g clip-path="url(#clip0_3562_8180)">
<path d="M705.602 432.39H0.398438C8.12595 412.685 22.3932 395.968 42.512 391.009C71.9385 383.764 103.08 403.685 132.441 396.194C149.123 391.943 162.255 379.555 176.055 369.268C228.116 330.453 299.46 318.98 361.064 339.525C393.265 350.259 422.607 369.03 455.593 377.01C498.248 387.333 542.855 378.771 586.72 377.361C629.442 375.989 690.653 393.396 705.602 432.39Z" fill="#FFE792"/>
<path d="M294.237 381.477C291.2 380.483 288.084 381.601 285.103 383.867C289.03 373.95 290.651 364.993 283.937 364.589C279.239 364.307 275.64 367.911 272.906 373.035C271.945 364.026 269.464 357.306 263.907 359.534C257.807 361.98 256.879 370.361 257.804 379.132C255.116 374.652 252.223 372.154 249.595 374.782C241.753 382.623 261.001 404.72 261.001 404.72C261.001 404.72 277.557 411.01 284.003 404.265C292.739 395.122 301.488 383.851 294.237 381.477Z" fill="#8DDBE0"/>
<path d="M285.666 432.39H258.613L254.083 400.808H290.195L285.666 432.39Z" fill="#C1D8ED"/>
<path d="M550.966 339.828L550.918 298.122C550.933 297.869 550.895 297.616 550.806 297.378C550.716 297.141 550.578 296.926 550.399 296.746C550.22 296.566 550.005 296.426 549.769 296.335C549.532 296.245 549.279 296.205 549.025 296.219L499.619 296.266L450.212 296.219C449.958 296.205 449.705 296.245 449.469 296.335C449.232 296.426 449.017 296.566 448.838 296.746C448.66 296.926 448.521 297.141 448.431 297.379C448.342 297.616 448.304 297.869 448.319 298.122L448.272 339.828L448.268 346.055C448.253 346.308 448.292 346.562 448.382 346.8C448.472 347.037 448.611 347.253 448.79 347.433C448.97 347.613 449.185 347.753 449.422 347.844C449.659 347.935 449.913 347.975 450.167 347.961L458.842 347.97L487.877 347.998L487.882 348.017L499.619 348.008L511.355 348.017L511.36 347.998L540.396 347.966L549.07 347.957C549.324 347.971 549.578 347.931 549.815 347.84C550.052 347.749 550.268 347.609 550.447 347.429C550.626 347.249 550.766 347.033 550.856 346.796C550.946 346.558 550.985 346.304 550.97 346.051L550.966 339.828Z" fill="#8DDBE0"/>
<path opacity="0.47" d="M545.242 309.484C543.235 309.479 541.312 308.681 539.891 307.264C538.47 305.847 537.666 303.926 537.656 301.919L499.618 301.952L461.58 301.919C461.569 303.926 460.766 305.847 459.345 307.264C457.924 308.681 456 309.479 453.994 309.484L453.967 334.696C454.826 334.695 455.679 334.844 456.488 335.135C457.452 335.479 458.337 336.013 459.091 336.706C459.845 337.399 460.452 338.236 460.876 339.167C461.324 340.145 461.552 341.21 461.544 342.286L486.321 342.308L486.326 342.329L499.617 342.319L512.906 342.329L512.912 342.308L537.689 342.286C537.681 341.21 537.909 340.145 538.357 339.167C538.781 338.236 539.388 337.399 540.142 336.706C540.896 336.013 541.781 335.479 542.745 335.135C543.554 334.844 544.407 334.695 545.266 334.696L545.242 309.484Z" fill="white"/>
<path d="M469.521 326.749C472.137 326.749 474.258 324.628 474.258 322.011C474.258 319.395 472.137 317.274 469.521 317.274C466.905 317.274 464.784 319.395 464.784 322.011C464.784 324.628 466.905 326.749 469.521 326.749Z" fill="#8DDBE0"/>
<path d="M529.716 326.749C532.332 326.749 534.453 324.628 534.453 322.011C534.453 319.395 532.332 317.274 529.716 317.274C527.099 317.274 524.979 319.395 524.979 322.011C524.979 324.628 527.099 326.749 529.716 326.749Z" fill="#8DDBE0"/>
<path d="M507.97 308.06C510.282 309.387 512.22 311.278 513.605 313.555C514.99 315.832 515.777 318.423 515.892 321.086C515.963 323.701 515.892 326.749 513.134 331.179C511.701 333.376 509.723 335.165 507.392 336.369C506.411 336.91 505.372 337.339 504.295 337.648C502.779 338.107 501.203 338.338 499.619 338.334C496.754 338.334 493.94 337.578 491.462 336.141C488.983 334.705 486.928 332.639 485.504 330.154C484.083 327.715 483.333 324.944 483.33 322.122C483.323 322.09 483.33 322.061 483.325 322.032C483.335 317.71 485.058 313.568 488.116 310.515C491.175 307.461 495.319 305.745 499.641 305.741C499.935 305.748 500.228 305.754 500.518 305.774C503.154 305.902 505.716 306.687 507.97 308.06Z" fill="#8DDBE0"/>
<path d="M498.63 332.122V329.724C497.868 329.628 497.122 329.43 496.413 329.135C495.677 328.847 494.999 328.428 494.413 327.899L495.949 325.527C496.482 325.947 497.065 326.298 497.686 326.571C498.22 326.8 498.795 326.918 499.376 326.92C499.9 326.965 500.423 326.82 500.851 326.514C501.016 326.353 501.143 326.158 501.224 325.943C501.305 325.727 501.337 325.497 501.319 325.267C501.322 325.068 501.282 324.871 501.201 324.689C501.121 324.507 501.002 324.344 500.853 324.212C500.495 323.891 500.101 323.614 499.678 323.384C499.207 323.12 498.701 322.857 498.16 322.595C497.622 322.333 497.113 322.015 496.642 321.646C496.178 321.287 495.781 320.848 495.468 320.351C495.143 319.8 494.981 319.168 495.002 318.529C494.963 317.466 495.308 316.423 495.974 315.593C496.661 314.796 497.607 314.267 498.646 314.097V311.628H500.972V314.049C501.683 314.143 502.368 314.38 502.985 314.747C503.559 315.098 504.083 315.526 504.542 316.018L502.766 318.031C502.395 317.674 501.976 317.371 501.521 317.131C501.095 316.924 500.627 316.82 500.154 316.827C499.687 316.795 499.222 316.922 498.835 317.186C498.673 317.333 498.548 317.515 498.468 317.719C498.389 317.923 498.358 318.142 498.379 318.36C498.377 318.547 498.419 318.731 498.5 318.9C498.581 319.068 498.699 319.216 498.846 319.331C499.207 319.628 499.6 319.881 500.02 320.087C500.491 320.328 500.998 320.576 501.541 320.832C502.081 321.087 502.59 321.401 503.059 321.768C503.53 322.136 503.928 322.587 504.233 323.1C504.562 323.689 504.723 324.356 504.699 325.03C504.726 326.094 504.396 327.136 503.762 327.99C503.058 328.861 502.06 329.444 500.955 329.629V332.123L498.63 332.122Z" fill="white"/>
<path d="M458.573 432.39H360.745C353.569 426.663 353.074 413.76 360.512 407.998C366.246 403.557 374.912 404.745 380.301 409.364C379.293 405.925 379.272 402.273 380.241 398.823C381.993 392.611 385.888 386.3 391.835 383.787C407.011 377.384 417.795 390.801 419.956 398.301C423.843 392.587 432.533 389.568 437.992 393.414C444.903 398.285 444.591 405.966 439.078 411.479C446.426 410.11 451.956 411.166 457.053 416.635C460.929 420.799 461.523 427.892 458.573 432.39Z" fill="#8DDBE0"/>
<path d="M174.728 109.397L173.008 107.8C173.811 106.936 174.62 106.078 175.437 105.226L177.132 106.847C176.324 107.692 175.522 108.542 174.728 109.397Z" fill="#C1D8ED"/>
<path d="M182.018 101.879L180.369 100.209C182.037 98.5619 183.747 96.9223 185.451 95.3355L187.05 97.0529C185.363 98.6239 183.673 100.248 182.018 101.879ZM501.693 101.975C500.05 100.346 498.362 98.7198 496.675 97.1409L498.279 95.4278C499.979 97.0213 501.687 98.664 503.345 100.31L501.693 101.975ZM192.221 92.3751L190.672 90.614C192.428 89.0709 194.231 87.5339 196.028 86.0449L197.525 87.8527C195.745 89.3247 193.96 90.8478 192.221 92.3751ZM491.518 92.4552C489.78 90.9219 487.999 89.3964 486.226 87.9226L487.726 86.1184C489.517 87.6068 491.315 89.1468 493.07 90.6954L491.518 92.4552ZM202.959 83.4846L201.516 81.6343C203.355 80.2011 205.244 78.7722 207.132 77.3882L208.52 79.2817C206.65 80.6511 204.779 82.0654 202.959 83.4846ZM480.802 83.5484C478.98 82.1213 477.11 80.7039 475.251 79.337L476.641 77.4465C478.518 78.8275 480.406 80.2588 482.248 81.7005L480.802 83.5484ZM214.201 75.2452L212.871 73.3116C214.8 71.9847 216.771 70.6718 218.73 69.4087L220.005 71.3811C218.063 72.6297 216.112 73.931 214.201 75.2452ZM469.575 75.2932C467.673 73.9796 465.724 72.677 463.781 71.4206L465.056 69.45C467.018 70.7192 468.988 72.0351 470.909 73.362L469.575 75.2932ZM225.914 67.6926L224.699 65.6831C226.706 64.4728 228.752 63.2807 230.781 62.1397L231.931 64.1844C229.926 65.3145 227.901 66.4962 225.914 67.6926ZM457.874 67.7247C455.888 66.5242 453.866 65.3418 451.856 64.2099L453.01 62.1658C455.038 63.3093 457.083 64.5038 459.089 65.7165L457.874 67.7247ZM238.057 60.8626L236.969 58.7839C239.041 57.7005 241.154 56.6348 243.254 55.617L244.278 57.7279C242.2 58.7341 240.107 59.7889 238.057 60.8614V60.8626ZM445.734 60.8814C443.68 59.8053 441.587 58.7487 439.511 57.7406L440.536 55.6261C442.634 56.6445 444.749 57.7121 446.822 58.7991L445.734 60.8814ZM250.594 54.7838L249.635 52.642C251.771 51.6861 253.947 50.7527 256.102 49.8667L256.994 52.0371C254.859 52.914 252.705 53.8383 250.594 54.7838ZM433.196 54.7917C431.081 53.8438 428.927 52.9183 426.792 52.0402L427.684 49.8698C429.842 50.757 432.019 51.6916 434.156 52.6499L433.196 54.7917ZM263.474 49.4927L262.649 47.2956C264.839 46.4745 267.067 45.6772 269.274 44.9272L270.03 47.1486C267.846 47.8876 265.64 48.6765 263.474 49.4927ZM420.303 49.4927C418.134 48.6777 415.924 47.8883 413.738 47.1443L414.494 44.9223C416.703 45.6741 418.935 46.4721 421.128 47.2956L420.303 49.4927ZM276.655 45.0055L275.968 42.7623C278.202 42.0785 280.475 41.422 282.727 40.8099L283.342 43.075C281.115 43.6805 278.865 44.3309 276.655 45.0055ZM407.103 44.9989C404.889 44.3224 402.635 43.6714 400.403 43.0653L401.018 40.8008C403.273 41.4135 405.552 42.0706 407.79 42.7544L407.103 44.9989ZM290.085 41.3552L289.539 39.0731C291.811 38.5308 294.12 38.0177 296.405 37.5483L296.876 39.8468C294.621 40.3095 292.333 40.8172 290.085 41.3552ZM393.645 41.3443C391.394 40.8087 389.103 40.3004 386.835 39.8352L387.307 37.5367C389.599 38.0067 391.914 38.5199 394.189 39.0616L393.645 41.3443ZM303.715 38.5509L303.314 36.239C305.611 35.8406 307.948 35.4732 310.258 35.1459L310.587 37.4699C308.3 37.7924 305.988 38.1561 303.715 38.5496V38.5509ZM379.981 38.5399C377.698 38.1458 375.379 37.7827 373.088 37.4608L373.415 35.1368C375.73 35.4623 378.073 35.8291 380.38 36.2299L379.981 38.5399ZM317.488 36.6058L317.233 34.2732C319.554 34.0194 321.909 33.799 324.23 33.6186L324.412 35.9578C322.115 36.1364 319.785 36.355 317.488 36.6058ZM366.162 36.5967C363.865 36.3471 361.527 36.1297 359.214 35.9505L359.396 33.6107C361.734 33.7929 364.096 34.0109 366.418 34.2641L366.162 36.5967ZM331.352 35.5254L331.242 33.1814C333.576 33.0727 335.943 32.9992 338.279 32.9628L338.315 35.3093C336.003 35.3433 333.661 35.418 331.352 35.5254ZM352.246 35.5212C350.035 35.4192 347.787 35.3487 345.566 35.3123L345.283 35.3074L345.321 32.9609L345.605 32.9658C347.852 33.0028 350.121 33.0739 352.355 33.1771L352.246 35.5212Z" fill="#C1D8ED"/>
<path d="M509.008 109.559C508.216 108.701 507.418 107.848 506.614 107.002L508.315 105.386C509.126 106.24 509.932 107.101 510.732 107.967L509.008 109.559Z" fill="#C1D8ED"/>
<path d="M562.91 119.568H436.327C426.633 119.568 418.775 127.426 418.775 137.12V410.879C418.775 420.573 426.633 428.431 436.327 428.431H562.91C572.604 428.431 580.462 420.573 580.462 410.879V137.12C580.462 127.426 572.604 119.568 562.91 119.568Z" fill="white"/>
<path d="M562.913 432.39H436.327C430.624 432.383 425.156 430.115 421.123 426.082C417.091 422.05 414.822 416.582 414.816 410.879V137.122C414.822 131.419 417.091 125.951 421.123 121.918C425.156 117.885 430.624 115.617 436.327 115.61H562.913C568.615 115.618 574.082 117.887 578.114 121.919C582.146 125.952 584.414 131.419 584.421 137.122V410.879C584.414 416.582 582.146 422.049 578.114 426.081C574.082 430.114 568.615 432.383 562.913 432.39ZM436.327 123.527C432.723 123.531 429.267 124.965 426.719 127.513C424.171 130.062 422.738 133.518 422.734 137.122V410.879C422.738 414.483 424.171 417.938 426.72 420.486C429.268 423.034 432.723 424.468 436.327 424.472H562.913C566.516 424.467 569.97 423.033 572.518 420.485C575.065 417.937 576.498 414.482 576.502 410.879V137.122C576.499 133.518 575.066 130.063 572.519 127.514C569.971 124.966 566.516 123.532 562.913 123.527H436.327Z" fill="#DEE8F5"/>
<path d="M471.902 119.568H527.335V130.32C527.335 132.455 526.486 134.503 524.977 136.012C523.467 137.522 521.42 138.37 519.285 138.37H479.952C477.817 138.37 475.77 137.522 474.26 136.012C472.75 134.503 471.902 132.455 471.902 130.32V119.565V119.568Z" fill="#DEE8F5"/>
<path d="M109.648 428.431H236.231C245.924 428.431 253.783 420.573 253.783 410.879L253.783 137.12C253.783 127.426 245.924 119.568 236.231 119.568H109.648C99.954 119.568 92.0957 127.426 92.0957 137.12L92.0957 410.879C92.0957 420.573 99.954 428.431 109.648 428.431Z" fill="white"/>
<path d="M88.1367 410.879V137.122C88.1427 131.418 90.4106 125.95 94.4431 121.917C98.4755 117.884 103.943 115.615 109.646 115.608H236.231C241.935 115.615 247.402 117.884 251.435 121.917C255.468 125.95 257.736 131.418 257.742 137.122V410.879C257.735 416.582 255.467 422.05 251.434 426.082C247.402 430.115 241.934 432.383 236.231 432.39H109.646C103.943 432.383 98.4761 430.115 94.4437 426.082C90.4113 422.049 88.1431 416.582 88.1367 410.879ZM109.646 123.527C106.042 123.531 102.587 124.965 100.039 127.514C97.4914 130.062 96.0585 133.518 96.0549 137.122V410.879C96.0589 414.483 97.4921 417.937 100.04 420.486C102.588 423.034 106.043 424.467 109.646 424.472H236.231C239.835 424.468 243.29 423.034 245.838 420.486C248.386 417.938 249.82 414.483 249.824 410.879V137.122C249.82 133.518 248.386 130.063 245.838 127.514C243.29 124.966 239.835 123.533 236.231 123.528L109.646 123.527Z" fill="#DEE8F5"/>
<path d="M192.605 138.373H153.274C151.139 138.373 149.091 137.524 147.581 136.015C146.072 134.505 145.224 132.458 145.224 130.323V119.568H200.655V130.323C200.655 132.458 199.807 134.505 198.297 136.015C196.788 137.524 194.74 138.373 192.605 138.373Z" fill="#DEE8F5"/>
<path d="M206.082 172.295H139.796C135.131 172.295 131.349 176.077 131.349 180.743V201.091C131.349 205.756 135.131 209.538 139.796 209.538H206.082C210.747 209.538 214.529 205.756 214.529 201.091V180.743C214.529 176.077 210.747 172.295 206.082 172.295Z" fill="#FD7B7B"/>
<path d="M231.221 254.431H114.658C110.777 254.431 107.63 257.577 107.63 261.458V327.485C107.63 331.366 110.777 334.512 114.658 334.512H231.221C235.103 334.512 238.249 331.366 238.249 327.485V261.458C238.249 257.577 235.103 254.431 231.221 254.431Z" fill="#0CBC8B"/>
<path d="M134.444 265.253H122.264C120.158 265.253 118.452 266.96 118.452 269.065V276.159C118.452 278.265 120.158 279.971 122.264 279.971H134.444C136.549 279.971 138.255 278.265 138.255 276.159V269.065C138.255 266.96 136.549 265.253 134.444 265.253Z" fill="white"/>
<path d="M138.255 266.886V270.339H131.546L130.463 269.257V265.256H136.623C137.055 265.256 137.47 265.427 137.776 265.733C138.083 266.039 138.255 266.453 138.255 266.886Z" fill="#262626"/>
<path d="M138.255 274.885V278.338C138.255 278.553 138.213 278.765 138.131 278.963C138.049 279.161 137.929 279.341 137.777 279.493C137.626 279.644 137.446 279.765 137.248 279.847C137.05 279.929 136.837 279.971 136.623 279.971H130.463V275.859L131.546 274.887L138.255 274.885Z" fill="#262626"/>
<path d="M126.135 265.256V269.26L125.163 270.342H118.452V266.888C118.452 266.674 118.494 266.462 118.576 266.264C118.658 266.066 118.778 265.886 118.93 265.734C119.081 265.582 119.261 265.462 119.459 265.38C119.657 265.298 119.87 265.256 120.084 265.256H126.135Z" fill="#262626"/>
<path d="M126.135 275.859V279.971H120.084C119.87 279.971 119.657 279.929 119.459 279.847C119.261 279.765 119.081 279.644 118.93 279.493C118.778 279.341 118.658 279.161 118.576 278.963C118.494 278.765 118.452 278.553 118.452 278.338V274.885H125.161L126.135 275.859Z" fill="#262626"/>
<path d="M140.624 293.719H120.131C119.686 293.719 119.259 293.542 118.944 293.227C118.629 292.912 118.452 292.485 118.452 292.039C118.452 291.594 118.629 291.167 118.944 290.852C119.259 290.537 119.686 290.36 120.131 290.36H140.624C141.069 290.36 141.496 290.537 141.811 290.852C142.126 291.167 142.303 291.594 142.303 292.039C142.303 292.485 142.126 292.912 141.811 293.227C141.496 293.542 141.069 293.719 140.624 293.719Z" fill="white"/>
<path d="M169.459 293.719H148.966C148.521 293.719 148.094 293.542 147.779 293.227C147.464 292.912 147.287 292.485 147.287 292.039C147.287 291.594 147.464 291.167 147.779 290.852C148.094 290.537 148.521 290.36 148.966 290.36H169.459C169.904 290.36 170.331 290.537 170.646 290.852C170.961 291.167 171.138 291.594 171.138 292.039C171.138 292.485 170.961 292.912 170.646 293.227C170.331 293.542 169.904 293.719 169.459 293.719Z" fill="white"/>
<path d="M198.294 293.719H177.801C177.356 293.719 176.929 293.542 176.614 293.227C176.299 292.912 176.122 292.485 176.122 292.039C176.122 291.594 176.299 291.167 176.614 290.852C176.929 290.537 177.356 290.36 177.801 290.36H198.294C198.74 290.36 199.167 290.537 199.482 290.852C199.797 291.167 199.974 291.594 199.974 292.039C199.974 292.485 199.797 292.912 199.482 293.227C199.167 293.542 198.74 293.719 198.294 293.719Z" fill="white"/>
<path d="M227.129 293.719H206.636C206.191 293.719 205.764 293.542 205.449 293.227C205.134 292.912 204.957 292.485 204.957 292.039C204.957 291.594 205.134 291.167 205.449 290.852C205.764 290.537 206.191 290.36 206.636 290.36H227.129C227.575 290.36 228.002 290.537 228.317 290.852C228.632 291.167 228.809 291.594 228.809 292.039C228.809 292.485 228.632 292.912 228.317 293.227C228.002 293.542 227.575 293.719 227.129 293.719Z" fill="white"/>
<path d="M227.427 311.894C227.408 314.178 226.488 316.361 224.866 317.969C223.245 319.577 221.054 320.479 218.77 320.479C216.486 320.479 214.295 319.577 212.674 317.969C211.052 316.361 210.131 314.178 210.112 311.894C210.114 310.604 210.406 309.33 210.968 308.168C211.531 307.007 212.348 305.987 213.359 305.185C214.623 304.15 216.157 303.496 217.779 303.299C219.402 303.103 221.047 303.372 222.522 304.075C223.997 304.779 225.242 305.888 226.11 307.272C226.979 308.657 227.436 310.26 227.427 311.894Z" fill="white"/>
<path d="M209.03 318.605C207.761 319.639 206.224 320.293 204.598 320.489C202.972 320.686 201.324 320.417 199.845 319.715C198.366 319.012 197.116 317.904 196.241 316.52C195.366 315.136 194.901 313.532 194.901 311.894C194.901 310.257 195.366 308.652 196.241 307.268C197.116 305.884 198.366 304.776 199.845 304.074C201.324 303.371 202.972 303.102 204.598 303.299C206.224 303.495 207.761 304.149 209.03 305.184C208.028 305.994 207.217 307.015 206.655 308.175C206.094 309.336 205.796 310.605 205.784 311.894C205.785 313.185 206.077 314.459 206.639 315.621C207.201 316.783 208.019 317.803 209.03 318.605Z" fill="#262626"/>
<path d="M66.8257 180.432C66.8257 180.432 71.7094 178.334 71.7094 165.504L81.5259 164.504C81.5259 164.504 79.5025 175.841 84.0971 179.868L66.8257 180.432Z" fill="#E98862"/>
<path d="M66.6286 160.112C66.9808 164.034 68.7904 167.869 72.0989 169.397C75.6955 171.178 79.6732 172.051 83.685 171.941C94.3414 171.941 94.2211 147.7 89.5785 142.613C84.9359 137.526 69.9443 139.276 67.5091 146.949C66.2496 150.917 66.2927 156.38 66.6286 160.112Z" fill="#E98862"/>
<path d="M89.0175 152.458C91.0864 152.443 93.151 152.269 95.1934 151.939C95.1934 151.939 94.568 136.198 77.8504 137.095C75.6795 136.996 73.5041 137.124 71.3599 137.478C66.3353 138.248 59.2145 143.386 58.0607 156.242C57.5336 162.141 55.4998 167.701 53.9488 171.221C53.7654 171.634 53.6881 172.087 53.7238 172.538C53.7596 172.988 53.9073 173.423 54.1536 173.802C54.3999 174.181 54.7369 174.493 55.1342 174.709C55.5314 174.924 55.9762 175.038 56.4283 175.038L92.2445 174.754C92.6681 174.755 93.0859 174.656 93.4645 174.466C93.8431 174.276 94.1719 174 94.4246 173.66C94.6773 173.32 94.8469 172.926 94.9198 172.508C94.9926 172.091 94.9668 171.663 94.8443 171.257C92.8967 164.803 89.3339 160.849 89.0175 152.458Z" fill="#0F1011"/>
<path d="M100.634 264.923C112.75 318.294 123.72 372.024 132.377 426.072L120.208 428.575C106.829 375.5 95.6991 321.801 85.7642 267.981L100.634 264.923Z" fill="#E98862"/>
<path d="M75.592 268.231C76.7046 321.254 76.6244 374.395 74.2135 427.381H61.7888C59.3791 374.396 59.299 321.253 60.4103 268.231H75.592Z" fill="#E98862"/>
<path d="M90.2875 432.277C90.6305 432.275 90.9695 432.203 91.2833 432.065C91.597 431.926 91.8788 431.724 92.1111 431.472C92.3434 431.22 92.5212 430.922 92.6333 430.598C92.7454 430.274 92.7895 429.93 92.7628 429.588C92.7258 429.114 92.5543 428.661 92.2683 428.281C91.9824 427.901 91.5939 427.611 91.1487 427.445L76.3076 422.474C76.0201 422.379 75.7154 422.347 75.4143 422.38C75.1133 422.413 74.8231 422.512 74.5635 422.668C72.523 424.084 70.0819 424.807 67.5993 424.732C65.6659 424.595 63.8099 423.917 62.2432 422.776C62.1055 422.663 61.9385 422.591 61.7616 422.57C61.5848 422.548 61.4055 422.577 61.2446 422.653C61.0837 422.73 60.9478 422.85 60.8528 423.001C60.7578 423.152 60.7076 423.326 60.708 423.504V430.763C60.7078 430.977 60.75 431.189 60.832 431.387C60.9141 431.584 61.0344 431.764 61.186 431.915C61.3377 432.067 61.5178 432.186 61.7159 432.268C61.914 432.349 62.1262 432.391 62.3404 432.39L90.2875 432.277Z" fill="#C1D8ED"/>
<path d="M147.209 432.277C147.552 432.275 147.891 432.203 148.205 432.064C148.519 431.926 148.801 431.724 149.033 431.472C149.265 431.219 149.443 430.922 149.555 430.598C149.667 430.274 149.711 429.93 149.685 429.588C149.648 429.114 149.476 428.661 149.19 428.281C148.904 427.901 148.515 427.611 148.07 427.445L133.227 422.474C132.939 422.379 132.635 422.347 132.333 422.38C132.032 422.413 131.742 422.512 131.482 422.668C129.442 424.084 127.001 424.807 124.519 424.732C122.585 424.595 120.729 423.917 119.162 422.776C119.024 422.663 118.857 422.591 118.681 422.57C118.504 422.548 118.324 422.577 118.164 422.653C118.003 422.73 117.867 422.85 117.772 423.001C117.677 423.152 117.627 423.326 117.627 423.504V430.763C117.627 430.977 117.67 431.189 117.752 431.387C117.834 431.584 117.954 431.764 118.106 431.915C118.258 432.066 118.438 432.186 118.636 432.267C118.834 432.348 119.046 432.39 119.26 432.389L147.209 432.277Z" fill="#C1D8ED"/>
<path d="M52.7144 245.337C52.7144 245.337 45.8158 276.23 45.8158 302.211C45.8158 328.191 37.8945 368.431 37.8945 368.431C37.8945 368.431 60.3435 364.8 75.5726 368.431C101.813 374.686 125.34 361.062 125.34 361.062L98.9137 248.192L52.7144 245.337Z" fill="#262626"/>
<path d="M38.5307 266.363C38.5307 268.172 39.4859 274.222 37.9495 274.654C37.0277 274.914 35.9395 270.404 35.9395 270.404" fill="#E98862"/>
<path d="M31.2749 265.412C31.2749 265.412 26.2565 277.627 31.9806 284.644C32.1266 284.823 32.323 284.953 32.5442 285.018C32.7654 285.083 33.0011 285.08 33.2206 285.009C33.44 284.938 33.6329 284.803 33.7742 284.621C33.9155 284.438 33.9986 284.218 34.0125 283.988C34.2906 279.256 35.2453 269.535 38.3642 270.673V263.043" fill="#E98862"/>
<path d="M99.4691 213.233C99.2408 215.518 99.075 217.763 99.0501 219.908C98.8169 239.625 104.14 243.339 101.517 249.367C98.9669 255.212 48.9739 257.643 48.3059 247.353C47.8809 240.808 53.6499 235.092 53.6499 222.336C53.6015 219.912 53.281 217.501 52.6947 215.149L47.0653 230.455L41.5391 267.681L28.4409 265.738L34.0673 227.836C34.1348 227.388 34.2481 226.949 34.4055 226.525L48.3442 188.622L48.428 188.653C49.0338 186.787 50.0793 185.094 51.4765 183.716C54.2511 180.942 59.0552 179.146 64.9069 179.146C73.6176 179.146 85.5146 179.165 87.9528 179.267C95.0822 179.571 98.577 182.644 100.112 187.23C100.112 187.232 100.902 196.213 99.4691 213.233Z" fill="#367CFF"/>
<path d="M150.376 207.781C150.376 207.781 159.023 205.469 160.274 203.834C161.526 202.199 158.567 196.623 158.567 196.623C158.567 196.623 167.224 193.171 166.406 191.77C165.441 190.116 154.62 195.905 154.62 195.905C154.62 195.905 156.988 193.159 155.848 192.417C155.38 192.113 154.763 192.434 152.994 194.337C150.979 196.505 147.504 199.576 147.504 199.576L150.376 207.781Z" fill="#E98862"/>
<path d="M114.469 233.285C113.291 233.285 112.134 232.97 111.118 232.374C110.102 231.778 109.263 230.922 108.688 229.894L86.7563 190.636L98.3157 184.178L115.706 217.128L146.559 198.051L153.078 208.732C153.078 208.732 128.716 225.487 120.968 230.113C119.335 231.089 116.347 233.285 114.469 233.285Z" fill="#367CFF"/>
<path d="M341.869 68.4819C360.78 68.4819 376.11 53.1517 376.11 34.2409C376.11 15.3302 360.78 0 341.869 0C322.959 0 307.628 15.3302 307.628 34.2409C307.628 53.1517 322.959 68.4819 341.869 68.4819Z" fill="#F3F5FD"/>
<path d="M355.121 28.1772H353.234V23.961C353.245 22.4616 352.959 20.9749 352.393 19.5865C351.827 18.1981 350.991 16.9355 349.935 15.8714C348.879 14.8073 347.622 13.9628 346.238 13.3865C344.854 12.8101 343.369 12.5134 341.87 12.5134C340.37 12.5134 338.886 12.8101 337.502 13.3865C336.117 13.9628 334.861 14.8073 333.805 15.8714C332.748 16.9355 331.913 18.1981 331.347 19.5865C330.781 20.9749 330.495 22.4616 330.506 23.961V28.1772H328.618C328.191 28.1772 327.768 28.2612 327.373 28.4247C326.979 28.5881 326.62 28.8277 326.318 29.1297C326.016 29.4318 325.777 29.7903 325.613 30.185C325.45 30.5796 325.366 31.0026 325.366 31.4298V52.6326C325.366 53.0598 325.45 53.4828 325.613 53.8774C325.777 54.2721 326.016 54.6307 326.318 54.9327C326.62 55.2347 326.979 55.4743 327.373 55.6377C327.768 55.8012 328.191 55.8852 328.618 55.8852H355.121C355.984 55.8852 356.811 55.5425 357.421 54.9325C358.031 54.3226 358.374 53.4953 358.374 52.6326V31.4298C358.374 31.0026 358.29 30.5797 358.126 30.1851C357.963 29.7905 357.723 29.4319 357.421 29.1299C357.119 28.8279 356.761 28.5883 356.366 28.4248C355.971 28.2614 355.549 28.1772 355.121 28.1772ZM334.2 23.961C334.2 21.9268 335.008 19.9759 336.446 18.5376C337.885 17.0992 339.835 16.2911 341.87 16.2911C343.904 16.2911 345.855 17.0992 347.293 18.5376C348.731 19.9759 349.539 21.9268 349.539 23.961V28.1772H334.2V23.961Z" fill="#0CBC8B"/>
<path d="M341.869 46.9559C344.469 46.9559 346.576 44.8488 346.576 42.2496C346.576 39.6503 344.469 37.5432 341.869 37.5432C339.27 37.5432 337.163 39.6503 337.163 42.2496C337.163 44.8488 339.27 46.9559 341.869 46.9559Z" fill="white"/>
<path d="M499.618 269.914C527.451 269.914 550.014 247.351 550.014 219.519C550.014 191.686 527.451 169.123 499.618 169.123C471.786 169.123 449.223 191.686 449.223 219.519C449.223 247.351 471.786 269.914 499.618 269.914Z" fill="#19DFDF"/>
<path d="M490.977 247.034C489.927 247.034 488.917 246.632 488.153 245.912L469.01 227.848C468.604 227.48 468.275 227.036 468.044 226.539C467.812 226.043 467.681 225.506 467.66 224.959C467.638 224.412 467.726 223.866 467.918 223.353C468.111 222.84 468.403 222.371 468.779 221.973C469.154 221.575 469.606 221.255 470.106 221.034C470.607 220.812 471.147 220.692 471.694 220.682C472.242 220.672 472.786 220.77 473.295 220.973C473.803 221.175 474.267 221.477 474.657 221.861L490.75 237.043L524.356 200.011C525.089 199.203 526.114 198.719 527.204 198.666C528.294 198.613 529.361 198.996 530.169 199.729C530.978 200.463 531.462 201.487 531.514 202.578C531.567 203.668 531.185 204.735 530.451 205.543L494.026 245.684C493.658 246.089 493.213 246.417 492.717 246.648C492.221 246.879 491.684 247.009 491.137 247.03C491.083 247.033 491.03 247.034 490.977 247.034Z" fill="white"/>
<path d="M593.485 427.345C593.485 427.345 593.442 414.138 593.442 412.968H606.195C606.195 414.134 606.238 427.303 606.238 427.303L593.485 427.345Z" fill="#E98862"/>
<path d="M577.982 432.277C577.639 432.275 577.3 432.203 576.986 432.064C576.672 431.926 576.391 431.724 576.158 431.472C575.926 431.219 575.748 430.922 575.636 430.598C575.524 430.274 575.48 429.93 575.507 429.588C575.543 429.114 575.715 428.66 576.001 428.281C576.287 427.901 576.676 427.611 577.121 427.445L591.964 422.474C592.252 422.378 592.557 422.346 592.858 422.38C593.159 422.413 593.449 422.511 593.709 422.667C595.749 424.083 598.19 424.807 600.672 424.732C602.606 424.595 604.462 423.917 606.029 422.775C606.167 422.662 606.334 422.591 606.511 422.569C606.687 422.548 606.867 422.577 607.028 422.653C607.189 422.729 607.324 422.85 607.419 423.001C607.514 423.151 607.564 423.326 607.564 423.504V430.762C607.564 430.976 607.522 431.189 607.439 431.386C607.357 431.584 607.237 431.764 607.085 431.915C606.934 432.066 606.753 432.186 606.555 432.267C606.357 432.348 606.145 432.39 605.931 432.389L577.982 432.277Z" fill="#C1D8ED"/>
<path d="M542.671 425.818C541.326 414.512 541.326 413.349 541.326 412.966H554.079C554.079 412.928 554.079 412.878 554.079 412.817C554.124 413.762 554.768 419.519 555.337 424.312L542.671 425.818Z" fill="#E98862"/>
<path d="M587.135 422.964L609.524 421.072C606.796 379.344 598.358 244.483 598.358 244.483L552.158 247.338L551.683 250.574L551.521 250.526C546.104 279.242 543.799 310.957 539.408 339.876C539.099 366.657 539.014 394.708 537.966 421.416L560.435 421.798C560.364 395.73 561.011 368.453 561.778 342.307C565.611 321.456 568.612 299.634 573.022 278.579C576.87 321.939 583.074 381.544 587.135 422.964Z" fill="#262626"/>
<path d="M527.133 432.277C526.79 432.275 526.451 432.203 526.137 432.064C525.824 431.926 525.542 431.724 525.31 431.472C525.077 431.219 524.9 430.922 524.787 430.598C524.675 430.274 524.631 429.93 524.658 429.588C524.695 429.114 524.866 428.66 525.152 428.281C525.438 427.901 525.827 427.611 526.272 427.445L541.116 422.474C541.403 422.378 541.708 422.346 542.009 422.38C542.31 422.413 542.6 422.511 542.86 422.667C544.9 424.084 547.341 424.807 549.824 424.732C551.757 424.595 553.613 423.917 555.18 422.775C555.318 422.663 555.485 422.591 555.662 422.569C555.838 422.548 556.018 422.577 556.179 422.653C556.34 422.73 556.475 422.85 556.57 423.001C556.665 423.151 556.716 423.326 556.715 423.504V430.762C556.715 430.976 556.673 431.188 556.591 431.386C556.509 431.584 556.388 431.763 556.236 431.915C556.085 432.066 555.905 432.185 555.707 432.267C555.509 432.348 555.296 432.389 555.082 432.389L527.133 432.277Z" fill="#C1D8ED"/>
<path d="M579.594 170.841C579.586 170.78 579.584 170.719 579.582 170.659C579.551 169.554 579.561 168.357 579.633 167.043L569.888 165.513C570.101 167.555 570.137 169.611 569.994 171.658C569.968 172.011 569.935 172.37 569.897 172.736C569.562 175.716 568.697 178.869 566.649 180.592L581.825 180.167C580.819 178.522 579.76 175.666 579.594 170.841Z" fill="#E98862"/>
<path d="M584.998 161.929C584.436 165.826 582.423 169.558 579.038 170.907C575.019 172.508 572.014 172.694 567.332 172.825C560.942 173.008 560.966 166.337 560.598 159.627C560.227 152.891 560.559 145.644 563.019 143.224C567.927 138.393 582.804 140.945 584.824 148.737C585.868 152.767 585.533 158.22 584.998 161.929Z" fill="#E98862"/>
<path d="M556.823 147.299C556.823 147.299 554.19 146.788 554.833 144.159C555.258 142.415 557.486 142.737 557.486 142.737C557.486 142.737 555.377 142.412 555.325 140.579C555.292 139.426 556.124 137.443 558.833 138.486C562.01 139.709 565.587 139.44 568.298 138.905C569.829 138.524 571.387 138.259 572.958 138.113H572.966C574.774 138.03 576.585 138.221 578.336 138.677C583.246 139.997 590.851 144.17 589.449 154.095C587.935 164.821 581.565 169.696 580.69 170.37C579.043 171.639 568.712 172.179 567.659 171.183C566.08 169.693 565.072 163.552 565.083 152.804C560.827 152.252 557.908 152.048 557.908 152.048C557.908 152.048 554.386 152.28 554.316 149.706C554.246 147.132 556.823 147.299 556.823 147.299Z" fill="#0F1011"/>
<path d="M562.216 160.856C562.186 161.347 562.253 161.839 562.414 162.305C562.575 162.77 562.827 163.199 563.155 163.566C563.482 163.934 563.879 164.233 564.323 164.446C564.767 164.659 565.248 164.783 565.74 164.809C566.231 164.836 566.723 164.764 567.187 164.6C567.651 164.435 568.078 164.18 568.443 163.85C568.808 163.519 569.104 163.12 569.314 162.675C569.524 162.229 569.643 161.747 569.666 161.255C569.701 160.764 569.636 160.272 569.477 159.806C569.317 159.341 569.065 158.912 568.737 158.546C568.408 158.18 568.009 157.884 567.564 157.675C567.118 157.466 566.635 157.349 566.144 157.33C563.481 157.319 562.327 158.801 562.216 160.856Z" fill="#E98862"/>
<path d="M615.873 271.693L608.618 272.642C608.618 274.452 607.662 280.502 609.199 280.935C609.783 281.099 610.434 279.348 610.832 278.044C612.36 280.618 612.931 286.789 613.135 290.268C613.149 290.498 613.232 290.719 613.374 290.901C613.515 291.083 613.708 291.219 613.927 291.289C614.147 291.36 614.382 291.363 614.604 291.298C614.825 291.233 615.021 291.103 615.167 290.924C620.891 283.909 615.873 271.693 615.873 271.693Z" fill="#E98862"/>
<path d="M551.436 219.908C551.239 203.067 542.388 180.132 562.534 179.27C564.972 179.165 576.87 179.148 585.58 179.148C591.432 179.148 596.236 180.944 599.01 183.719C608.575 193.284 596.835 209.583 596.835 222.341C596.835 235.099 602.604 240.813 602.179 247.357C601.511 257.648 551.515 255.217 548.968 249.372C546.345 243.339 551.668 239.625 551.436 219.908Z" fill="#367CFF"/>
<path d="M606.534 274.704L601.531 227.985L588.336 191.173L600.8 186.705L614.262 224.261C614.439 224.755 614.557 225.268 614.613 225.79L619.7 273.294L606.534 274.704Z" fill="#367CFF"/>
<path d="M498.814 204.072C499.39 202.869 500.054 201.035 499.239 200.218C498.404 199.382 497.007 201.369 496.151 202.82C494.189 201.989 491.993 201.297 491.304 201.986C489.968 203.322 488.373 207.822 489.165 209.96C489.957 212.099 497.849 212.486 497.849 212.486L500.46 204.495C499.897 204.417 499.345 204.275 498.814 204.072Z" fill="#E98862"/>
<path d="M531.517 224.899C530.883 224.899 530.253 224.807 529.645 224.628L496.482 214.851L500.226 202.15L529.244 210.703L552.745 182.848L562.866 191.386L536.577 222.544C535.956 223.281 535.181 223.874 534.307 224.281C533.433 224.687 532.481 224.898 531.517 224.899Z" fill="#367CFF"/>
<path d="M165.569 199.558L167.772 196.141C169.519 197.477 171.046 198.162 172.671 198.162C174.618 198.162 175.475 197.354 175.475 195.794C175.475 192.259 166.406 192.323 166.406 186.123C166.406 182.138 169.166 179.599 173.52 179.599C174.756 179.581 175.982 179.833 177.111 180.336C178.24 180.839 179.247 181.583 180.06 182.514L177.533 185.409C176.284 184.273 175.225 183.675 173.791 183.675C172.138 183.675 171.24 184.343 171.24 185.885C171.24 189.161 180.309 188.875 180.309 195.442C180.309 199.389 177.698 202.244 172.67 202.244C170.066 202.183 167.561 201.236 165.569 199.558ZM171.611 176.229H174.963V181.177H171.611V176.229ZM171.611 200.175H174.963V205.604H171.611V200.175Z" fill="white"/>
</g>
<defs>
<clipPath id="clip0_3562_8180">
<rect width="705.203" height="432.39" fill="white" transform="translate(0.398438)"/>
</clipPath>
</defs>
</svg>
