<svg width="469" height="265" viewBox="0 0 469 265" fill="none" xmlns="http://www.w3.org/2000/svg">
<g filter="url(#filter0_i_3562_8274)">
<path d="M16.5684 77.0415V103.247" stroke="#62C7FF" stroke-width="2.70906" stroke-linecap="round"/>
</g>
<g filter="url(#filter1_dii_3562_8274)">
<path d="M434.145 187.792C434.145 266.831 346.408 216.123 238.179 216.123C167.743 293.726 42.2119 266.831 42.2119 187.792C42.2119 108.754 243.274 0 351.503 0C459.733 0 434.145 108.754 434.145 187.792Z" fill="url(#paint0_radial_3562_8274)"/>
</g>
<rect x="97.3626" y="78.8309" width="92.531" height="176.939" rx="4.23222" fill="#81F0FF"/>
<g filter="url(#filter2_i_3562_8274)">
<rect x="121.722" y="134.978" width="40.6234" height="44.3897" rx="5.07867" fill="white"/>
<path d="M136.16 145.023C135.708 144.345 134.862 144.038 134.08 144.276C133.298 144.513 132.765 145.232 132.765 146.049V157.171H130.911C129.886 157.171 129.058 157.999 129.058 159.024C129.058 160.05 129.886 160.878 130.911 160.878H132.765V168.293C132.765 169.318 133.593 170.147 134.619 170.147C135.644 170.147 136.472 169.318 136.472 168.293V160.878H142.277L147.907 169.324C148.359 170.002 149.205 170.309 149.987 170.071C150.769 169.834 151.302 169.115 151.302 168.299V160.878H153.156C154.181 160.878 155.009 160.05 155.009 159.024C155.009 157.999 154.181 157.171 153.156 157.171H151.302V146.049C151.302 145.023 150.474 144.195 149.448 144.195C148.423 144.195 147.595 145.023 147.595 146.049V157.171H144.264L136.16 145.023ZM146.731 160.878H147.595V162.17L146.731 160.878ZM139.803 157.171H136.472V152.171L139.803 157.171Z" fill="#AFD8FF"/>
</g>
<rect x="97.3626" y="78.8309" width="92.531" height="176.939" rx="4.23222" stroke="#2110BD" stroke-width="3.57388"/>
<path fill-rule="evenodd" clip-rule="evenodd" d="M314.29 76.4784C314.351 74.321 313.413 72.1695 311.355 70.8711C310.559 70.3683 309.615 70.1852 308.686 70.0331C312.461 69.9118 313.772 66.213 314.298 63.3496C314.115 65.9177 315.55 68.6916 318.481 68.9476C315.563 70.5545 314.561 73.5032 314.29 76.4784Z" fill="white" stroke="black" stroke-width="0.0647249" stroke-miterlimit="1.5" stroke-linecap="round"/>
<path opacity="0.5" fill-rule="evenodd" clip-rule="evenodd" d="M316.043 86.1191C316.069 85.2264 315.67 84.3362 314.794 83.7989C314.454 83.5908 314.052 83.515 313.657 83.4521C315.265 83.4019 315.823 81.8714 316.046 80.6865C315.969 81.7492 316.58 82.897 317.828 83.0029C316.585 83.6679 316.159 84.888 316.043 86.1191Z" fill="white" stroke="black" stroke-width="0.0250548" stroke-miterlimit="1.5" stroke-linecap="round"/>
<path opacity="0.2" fill-rule="evenodd" clip-rule="evenodd" d="M301.923 74.1943C301.975 72.4122 301.178 70.635 299.429 69.5625C298.752 69.1472 297.95 68.9959 297.16 68.8703C300.369 68.7701 301.483 65.7148 301.93 63.3496C301.775 65.4709 302.994 67.7622 305.486 67.9737C303.005 69.301 302.154 71.7367 301.923 74.1943Z" fill="white" stroke="black" stroke-width="0.0500147" stroke-miterlimit="1.5" stroke-linecap="round"/>
<path fill-rule="evenodd" clip-rule="evenodd" d="M305.431 90.1936C305.477 88.6313 304.773 87.0734 303.23 86.1331C302.632 85.769 301.925 85.6364 301.228 85.5263C304.059 85.4385 305.043 82.76 305.437 80.6865C305.3 82.5462 306.376 84.5549 308.574 84.7402C306.386 85.9039 305.634 88.0391 305.431 90.1936Z" fill="white" stroke="black" stroke-width="0.0647249" stroke-miterlimit="1.5" stroke-linecap="round"/>
<g filter="url(#filter3_i_3562_8274)">
<rect x="198.66" y="192.382" width="108.398" height="66.9646" rx="4.53818" fill="#4ABEFF"/>
<rect x="198.66" y="192.382" width="108.398" height="66.9646" rx="4.53818" stroke="black"/>
<g filter="url(#filter4_i_3562_8274)">
<rect x="198.66" y="204.027" width="108.398" height="12.5419" fill="white"/>
</g>
<g style="mix-blend-mode:overlay">
<rect x="204.483" y="232.919" width="24.1879" height="3.35943" rx="1.67971" fill="#D9D9D9"/>
<rect x="204.483" y="232.919" width="24.1879" height="3.35943" rx="1.67971" stroke="black"/>
</g>
<g style="mix-blend-mode:overlay">
<rect x="204.482" y="240.758" width="29.7869" height="3.35943" rx="1.67971" fill="#D9D9D9"/>
<rect x="204.482" y="240.758" width="29.7869" height="3.35943" rx="1.67971" stroke="black"/>
</g>
</g>
<g filter="url(#filter5_i_3562_8274)">
<rect x="331.814" y="185.44" width="90.7046" height="58.678" rx="2.59324" fill="#274AC5"/>
</g>
<g filter="url(#filter6_di_3562_8274)">
<rect x="337.189" y="186.784" width="90.7046" height="58.678" rx="2.59324" fill="#36F8F8"/>
</g>
<g filter="url(#filter7_d_3562_8274)">
<rect x="408.246" y="209.627" width="29.1151" height="15.4534" rx="3.02545" fill="#274AC4"/>
</g>
<g filter="url(#filter8_i_3562_8274)">
<rect x="410.262" y="209.852" width="29.1151" height="15.4534" rx="3.02545" fill="white"/>
</g>
<rect x="410.316" y="209.906" width="29.007" height="15.3453" rx="2.97143" stroke="#6D63E6" stroke-width="0.108052" stroke-dasharray="1.08 1.08"/>
<g filter="url(#filter9_i_3562_8274)">
<circle cx="416.981" cy="217.69" r="3.35943" fill="#517CEB"/>
</g>
<g filter="url(#filter10_di_3562_8274)">
<circle cx="348.388" cy="246.806" r="11.1981" fill="white"/>
<circle cx="348.388" cy="246.806" r="11.1549" stroke="black" stroke-width="0.0864415"/>
</g>
<circle cx="348.388" cy="246.805" r="4.47924" fill="#8DF1FF"/>
<path d="M346.679 210.454H347.358L347.891 211.773H347.155L347.027 211.434L346.926 211.453V211.367H346.337L346.478 210.955H346.697H346.848L346.8 210.812L346.679 210.454ZM349.335 211.017V211.779H348.634V210.443H349.728C349.929 210.443 350.107 210.29 350.107 210.085C350.107 209.879 349.929 209.726 349.728 209.726L349.728 209.726L346.515 209.729L346.439 209.729L346.413 209.801L345.717 211.775H345.002L345.996 209.26H349.932H349.936C350.438 209.26 350.837 209.639 350.837 210.085C350.837 210.531 350.44 210.909 349.936 210.909H349.443H349.335V211.017Z" fill="#0E0073" stroke="black" stroke-width="0.216104"/>
<g filter="url(#filter11_di_3562_8274)">
<circle cx="371.456" cy="251.282" r="11.1981" fill="white"/>
<circle cx="371.456" cy="251.282" r="11.1549" stroke="black" stroke-width="0.0864415"/>
</g>
<circle cx="371.456" cy="251.283" r="4.47924" fill="#8DF1FF"/>
<path d="M369.957 214.63H370.635L371.169 215.948H370.432L370.305 215.61L370.204 215.629V215.543H369.614L369.755 215.131H369.975H370.125L370.077 214.988L369.957 214.63ZM372.613 215.193V215.955H371.911V214.619H373.006C373.207 214.619 373.385 214.466 373.385 214.261C373.385 214.055 373.207 213.902 373.006 213.902L373.006 213.902L369.792 213.904L369.716 213.904L369.691 213.976L368.995 215.95H368.279L369.273 213.436H373.209H373.214C373.716 213.436 374.114 213.815 374.114 214.261C374.114 214.707 373.718 215.085 373.214 215.085H372.721H372.613V215.193Z" fill="#0E0073" stroke="black" stroke-width="0.216104"/>
<g filter="url(#filter12_di_3562_8274)">
<circle cx="325.259" cy="203.58" r="11.1981" fill="white"/>
<circle cx="325.259" cy="203.58" r="11.1549" stroke="black" stroke-width="0.0864415"/>
</g>
<circle cx="325.992" cy="203.579" r="4.47924" fill="#0063F8"/>
<path d="M324.081 170.138H324.76L325.293 171.456H324.557L324.429 171.118L324.328 171.136V171.05H323.739L323.88 170.638H324.099H324.249L324.202 170.496L324.081 170.138ZM326.737 170.701V171.463H326.036V170.127H327.13C327.331 170.127 327.509 169.974 327.509 169.768C327.509 169.563 327.331 169.41 327.13 169.41L327.13 169.41L323.917 169.412L323.841 169.412L323.815 169.484L323.119 171.458H322.404L323.397 168.944H327.333H327.338C327.84 168.944 328.239 169.322 328.239 169.768C328.239 170.215 327.842 170.593 327.338 170.593H326.845H326.737V170.701Z" fill="#0E0073" stroke="black" stroke-width="0.216104"/>
<g filter="url(#filter13_i_3562_8274)">
<path d="M28.2051 90.1445L2.00009 90.201" stroke="#62C7FF" stroke-width="2.70906" stroke-linecap="round"/>
</g>
<g filter="url(#filter14_i_3562_8274)">
<path d="M453.601 8.95801V35.1631" stroke="#62C7FF" stroke-width="2.70906" stroke-linecap="round"/>
</g>
<g filter="url(#filter15_i_3562_8274)">
<path d="M466.703 22.0601L440.498 22.1165" stroke="#62C7FF" stroke-width="2.70906" stroke-linecap="round"/>
</g>
<defs>
<filter id="filter0_i_3562_8274" x="15.2139" y="75.687" width="2.70898" height="29.5161" filterUnits="userSpaceOnUse" color-interpolation-filters="sRGB">
<feFlood flood-opacity="0" result="BackgroundImageFix"/>
<feBlend mode="normal" in="SourceGraphic" in2="BackgroundImageFix" result="shape"/>
<feColorMatrix in="SourceAlpha" type="matrix" values="0 0 0 0 0 0 0 0 0 0 0 0 0 0 0 0 0 0 127 0" result="hardAlpha"/>
<feOffset dy="0.602014"/>
<feGaussianBlur stdDeviation="0.301007"/>
<feComposite in2="hardAlpha" operator="arithmetic" k2="-1" k3="1"/>
<feColorMatrix type="matrix" values="0 0 0 0 0 0 0 0 0 0 0 0 0 0 0 0 0 0 0.25 0"/>
<feBlend mode="normal" in2="shape" result="effect1_innerShadow_3562_8274"/>
</filter>
<filter id="filter1_dii_3562_8274" x="41.3475" y="0" width="399.973" height="265.515" filterUnits="userSpaceOnUse" color-interpolation-filters="sRGB">
<feFlood flood-opacity="0" result="BackgroundImageFix"/>
<feColorMatrix in="SourceAlpha" type="matrix" values="0 0 0 0 0 0 0 0 0 0 0 0 0 0 0 0 0 0 127 0" result="hardAlpha"/>
<feOffset dy="0.864415"/>
<feGaussianBlur stdDeviation="0.432207"/>
<feComposite in2="hardAlpha" operator="out"/>
<feColorMatrix type="matrix" values="0 0 0 0 0 0 0 0 0 0 0 0 0 0 0 0 0 0 0.25 0"/>
<feBlend mode="normal" in2="BackgroundImageFix" result="effect1_dropShadow_3562_8274"/>
<feBlend mode="normal" in="SourceGraphic" in2="effect1_dropShadow_3562_8274" result="shape"/>
<feColorMatrix in="SourceAlpha" type="matrix" values="0 0 0 0 0 0 0 0 0 0 0 0 0 0 0 0 0 0 127 0" result="hardAlpha"/>
<feOffset dx="9.29246" dy="0.864415"/>
<feGaussianBlur stdDeviation="2.26909"/>
<feComposite in2="hardAlpha" operator="arithmetic" k2="-1" k3="1"/>
<feColorMatrix type="matrix" values="0 0 0 0 0 0 0 0 0 0 0 0 0 0 0 0 0 0 0.25 0"/>
<feBlend mode="normal" in2="shape" result="effect2_innerShadow_3562_8274"/>
<feColorMatrix in="SourceAlpha" type="matrix" values="0 0 0 0 0 0 0 0 0 0 0 0 0 0 0 0 0 0 127 0" result="hardAlpha"/>
<feOffset dx="2.59324" dy="3.02545"/>
<feGaussianBlur stdDeviation="1.83688"/>
<feComposite in2="hardAlpha" operator="arithmetic" k2="-1" k3="1"/>
<feColorMatrix type="matrix" values="0 0 0 0 1 0 0 0 0 1 0 0 0 0 1 0 0 0 0.25 0"/>
<feBlend mode="normal" in2="effect2_innerShadow_3562_8274" result="effect3_innerShadow_3562_8274"/>
</filter>
<filter id="filter2_i_3562_8274" x="121.722" y="134.978" width="41.3759" height="45.142" filterUnits="userSpaceOnUse" color-interpolation-filters="sRGB">
<feFlood flood-opacity="0" result="BackgroundImageFix"/>
<feBlend mode="normal" in="SourceGraphic" in2="BackgroundImageFix" result="shape"/>
<feColorMatrix in="SourceAlpha" type="matrix" values="0 0 0 0 0 0 0 0 0 0 0 0 0 0 0 0 0 0 127 0" result="hardAlpha"/>
<feOffset dx="3.00958" dy="0.752395"/>
<feGaussianBlur stdDeviation="0.376198"/>
<feComposite in2="hardAlpha" operator="arithmetic" k2="-1" k3="1"/>
<feColorMatrix type="matrix" values="0 0 0 0 0.129429 0 0 0 0 0.0630417 0 0 0 0 0.741667 0 0 0 1 0"/>
<feBlend mode="normal" in2="shape" result="effect1_innerShadow_3562_8274"/>
</filter>
<filter id="filter3_i_3562_8274" x="198.66" y="192.382" width="110.342" height="67.8293" filterUnits="userSpaceOnUse" color-interpolation-filters="sRGB">
<feFlood flood-opacity="0" result="BackgroundImageFix"/>
<feBlend mode="normal" in="SourceGraphic" in2="BackgroundImageFix" result="shape"/>
<feColorMatrix in="SourceAlpha" type="matrix" values="0 0 0 0 0 0 0 0 0 0 0 0 0 0 0 0 0 0 127 0" result="hardAlpha"/>
<feOffset dx="3.24155" dy="0.864415"/>
<feGaussianBlur stdDeviation="0.972466"/>
<feComposite in2="hardAlpha" operator="arithmetic" k2="-1" k3="1"/>
<feColorMatrix type="matrix" values="0 0 0 0 0 0 0 0 0 0 0 0 0 0 0 0 0 0 0.25 0"/>
<feBlend mode="normal" in2="shape" result="effect1_innerShadow_3562_8274"/>
</filter>
<filter id="filter4_i_3562_8274" x="198.66" y="204.027" width="109.262" height="13.4064" filterUnits="userSpaceOnUse" color-interpolation-filters="sRGB">
<feFlood flood-opacity="0" result="BackgroundImageFix"/>
<feBlend mode="normal" in="SourceGraphic" in2="BackgroundImageFix" result="shape"/>
<feColorMatrix in="SourceAlpha" type="matrix" values="0 0 0 0 0 0 0 0 0 0 0 0 0 0 0 0 0 0 127 0" result="hardAlpha"/>
<feOffset dx="1.08052" dy="0.864415"/>
<feGaussianBlur stdDeviation="0.432207"/>
<feComposite in2="hardAlpha" operator="arithmetic" k2="-1" k3="1"/>
<feColorMatrix type="matrix" values="0 0 0 0 0 0 0 0 0 0 0 0 0 0 0 0 0 0 0.25 0"/>
<feBlend mode="normal" in2="shape" result="effect1_innerShadow_3562_8274"/>
</filter>
<filter id="filter5_i_3562_8274" x="331.814" y="185.44" width="92.6495" height="59.5426" filterUnits="userSpaceOnUse" color-interpolation-filters="sRGB">
<feFlood flood-opacity="0" result="BackgroundImageFix"/>
<feBlend mode="normal" in="SourceGraphic" in2="BackgroundImageFix" result="shape"/>
<feColorMatrix in="SourceAlpha" type="matrix" values="0 0 0 0 0 0 0 0 0 0 0 0 0 0 0 0 0 0 127 0" result="hardAlpha"/>
<feOffset dx="2.59324" dy="0.864415"/>
<feGaussianBlur stdDeviation="0.972466"/>
<feComposite in2="hardAlpha" operator="arithmetic" k2="-1" k3="1"/>
<feColorMatrix type="matrix" values="0 0 0 0 1 0 0 0 0 1 0 0 0 0 1 0 0 0 0.25 0"/>
<feBlend mode="normal" in2="shape" result="effect1_innerShadow_3562_8274"/>
</filter>
<filter id="filter6_di_3562_8274" x="336.325" y="186.784" width="93.73" height="60.8393" filterUnits="userSpaceOnUse" color-interpolation-filters="sRGB">
<feFlood flood-opacity="0" result="BackgroundImageFix"/>
<feColorMatrix in="SourceAlpha" type="matrix" values="0 0 0 0 0 0 0 0 0 0 0 0 0 0 0 0 0 0 127 0" result="hardAlpha"/>
<feOffset dy="0.864415"/>
<feGaussianBlur stdDeviation="0.432207"/>
<feComposite in2="hardAlpha" operator="out"/>
<feColorMatrix type="matrix" values="0 0 0 0 0 0 0 0 0 0 0 0 0 0 0 0 0 0 0.25 0"/>
<feBlend mode="normal" in2="BackgroundImageFix" result="effect1_dropShadow_3562_8274"/>
<feBlend mode="normal" in="SourceGraphic" in2="effect1_dropShadow_3562_8274" result="shape"/>
<feColorMatrix in="SourceAlpha" type="matrix" values="0 0 0 0 0 0 0 0 0 0 0 0 0 0 0 0 0 0 127 0" result="hardAlpha"/>
<feOffset dx="6.26701" dy="3.45766"/>
<feGaussianBlur stdDeviation="1.08052"/>
<feComposite in2="hardAlpha" operator="arithmetic" k2="-1" k3="1"/>
<feColorMatrix type="matrix" values="0 0 0 0 1 0 0 0 0 1 0 0 0 0 1 0 0 0 0.15 0"/>
<feBlend mode="normal" in2="shape" result="effect2_innerShadow_3562_8274"/>
</filter>
<filter id="filter7_d_3562_8274" x="407.382" y="209.627" width="30.8441" height="17.1824" filterUnits="userSpaceOnUse" color-interpolation-filters="sRGB">
<feFlood flood-opacity="0" result="BackgroundImageFix"/>
<feColorMatrix in="SourceAlpha" type="matrix" values="0 0 0 0 0 0 0 0 0 0 0 0 0 0 0 0 0 0 127 0" result="hardAlpha"/>
<feOffset dy="0.864415"/>
<feGaussianBlur stdDeviation="0.432207"/>
<feComposite in2="hardAlpha" operator="out"/>
<feColorMatrix type="matrix" values="0 0 0 0 0 0 0 0 0 0 0 0 0 0 0 0 0 0 0.25 0"/>
<feBlend mode="normal" in2="BackgroundImageFix" result="effect1_dropShadow_3562_8274"/>
<feBlend mode="normal" in="SourceGraphic" in2="effect1_dropShadow_3562_8274" result="shape"/>
</filter>
<filter id="filter8_i_3562_8274" x="410.262" y="209.852" width="29.1152" height="16.318" filterUnits="userSpaceOnUse" color-interpolation-filters="sRGB">
<feFlood flood-opacity="0" result="BackgroundImageFix"/>
<feBlend mode="normal" in="SourceGraphic" in2="BackgroundImageFix" result="shape"/>
<feColorMatrix in="SourceAlpha" type="matrix" values="0 0 0 0 0 0 0 0 0 0 0 0 0 0 0 0 0 0 127 0" result="hardAlpha"/>
<feOffset dy="0.864415"/>
<feGaussianBlur stdDeviation="0.432207"/>
<feComposite in2="hardAlpha" operator="arithmetic" k2="-1" k3="1"/>
<feColorMatrix type="matrix" values="0 0 0 0 0 0 0 0 0 0 0 0 0 0 0 0 0 0 0.25 0"/>
<feBlend mode="normal" in2="shape" result="effect1_innerShadow_3562_8274"/>
</filter>
<filter id="filter9_i_3562_8274" x="413.621" y="214.331" width="8.44758" height="8.44758" filterUnits="userSpaceOnUse" color-interpolation-filters="sRGB">
<feFlood flood-opacity="0" result="BackgroundImageFix"/>
<feBlend mode="normal" in="SourceGraphic" in2="BackgroundImageFix" result="shape"/>
<feColorMatrix in="SourceAlpha" type="matrix" values="0 0 0 0 0 0 0 0 0 0 0 0 0 0 0 0 0 0 127 0" result="hardAlpha"/>
<feOffset dx="1.72883" dy="1.72883"/>
<feGaussianBlur stdDeviation="0.972466"/>
<feComposite in2="hardAlpha" operator="arithmetic" k2="-1" k3="1"/>
<feColorMatrix type="matrix" values="0 0 0 0 0 0 0 0 0 0 0 0 0 0 0 0 0 0 0.25 0"/>
<feBlend mode="normal" in2="shape" result="effect1_innerShadow_3562_8274"/>
</filter>
<filter id="filter10_di_3562_8274" x="334.597" y="235.608" width="25.8537" height="24.1248" filterUnits="userSpaceOnUse" color-interpolation-filters="sRGB">
<feFlood flood-opacity="0" result="BackgroundImageFix"/>
<feColorMatrix in="SourceAlpha" type="matrix" values="0 0 0 0 0 0 0 0 0 0 0 0 0 0 0 0 0 0 127 0" result="hardAlpha"/>
<feOffset dx="-1.72883" dy="0.864415"/>
<feGaussianBlur stdDeviation="0.432207"/>
<feComposite in2="hardAlpha" operator="out"/>
<feColorMatrix type="matrix" values="0 0 0 0 0 0 0 0 0 0.388333 0 0 0 0 0.970833 0 0 0 1 0"/>
<feBlend mode="normal" in2="BackgroundImageFix" result="effect1_dropShadow_3562_8274"/>
<feBlend mode="normal" in="SourceGraphic" in2="effect1_dropShadow_3562_8274" result="shape"/>
<feColorMatrix in="SourceAlpha" type="matrix" values="0 0 0 0 0 0 0 0 0 0 0 0 0 0 0 0 0 0 127 0" result="hardAlpha"/>
<feOffset dx="1.29662" dy="0.864415"/>
<feGaussianBlur stdDeviation="0.432207"/>
<feComposite in2="hardAlpha" operator="arithmetic" k2="-1" k3="1"/>
<feColorMatrix type="matrix" values="0 0 0 0 0 0 0 0 0 0 0 0 0 0 0 0 0 0 0.25 0"/>
<feBlend mode="normal" in2="shape" result="effect2_innerShadow_3562_8274"/>
</filter>
<filter id="filter11_di_3562_8274" x="357.665" y="240.084" width="25.8537" height="24.1248" filterUnits="userSpaceOnUse" color-interpolation-filters="sRGB">
<feFlood flood-opacity="0" result="BackgroundImageFix"/>
<feColorMatrix in="SourceAlpha" type="matrix" values="0 0 0 0 0 0 0 0 0 0 0 0 0 0 0 0 0 0 127 0" result="hardAlpha"/>
<feOffset dx="-1.72883" dy="0.864415"/>
<feGaussianBlur stdDeviation="0.432207"/>
<feComposite in2="hardAlpha" operator="out"/>
<feColorMatrix type="matrix" values="0 0 0 0 0 0 0 0 0 0.388333 0 0 0 0 0.970833 0 0 0 1 0"/>
<feBlend mode="normal" in2="BackgroundImageFix" result="effect1_dropShadow_3562_8274"/>
<feBlend mode="normal" in="SourceGraphic" in2="effect1_dropShadow_3562_8274" result="shape"/>
<feColorMatrix in="SourceAlpha" type="matrix" values="0 0 0 0 0 0 0 0 0 0 0 0 0 0 0 0 0 0 127 0" result="hardAlpha"/>
<feOffset dx="1.29662" dy="0.864415"/>
<feGaussianBlur stdDeviation="0.432207"/>
<feComposite in2="hardAlpha" operator="arithmetic" k2="-1" k3="1"/>
<feColorMatrix type="matrix" values="0 0 0 0 0 0 0 0 0 0 0 0 0 0 0 0 0 0 0.25 0"/>
<feBlend mode="normal" in2="shape" result="effect2_innerShadow_3562_8274"/>
</filter>
<filter id="filter12_di_3562_8274" x="311.468" y="192.382" width="25.8537" height="24.1248" filterUnits="userSpaceOnUse" color-interpolation-filters="sRGB">
<feFlood flood-opacity="0" result="BackgroundImageFix"/>
<feColorMatrix in="SourceAlpha" type="matrix" values="0 0 0 0 0 0 0 0 0 0 0 0 0 0 0 0 0 0 127 0" result="hardAlpha"/>
<feOffset dx="-1.72883" dy="0.864415"/>
<feGaussianBlur stdDeviation="0.432207"/>
<feComposite in2="hardAlpha" operator="out"/>
<feColorMatrix type="matrix" values="0 0 0 0 0 0 0 0 0 0.388333 0 0 0 0 0.970833 0 0 0 1 0"/>
<feBlend mode="normal" in2="BackgroundImageFix" result="effect1_dropShadow_3562_8274"/>
<feBlend mode="normal" in="SourceGraphic" in2="effect1_dropShadow_3562_8274" result="shape"/>
<feColorMatrix in="SourceAlpha" type="matrix" values="0 0 0 0 0 0 0 0 0 0 0 0 0 0 0 0 0 0 127 0" result="hardAlpha"/>
<feOffset dx="1.29662" dy="0.864415"/>
<feGaussianBlur stdDeviation="0.432207"/>
<feComposite in2="hardAlpha" operator="arithmetic" k2="-1" k3="1"/>
<feColorMatrix type="matrix" values="0 0 0 0 0 0 0 0 0 0 0 0 0 0 0 0 0 0 0.25 0"/>
<feBlend mode="normal" in2="shape" result="effect2_innerShadow_3562_8274"/>
</filter>
<filter id="filter13_i_3562_8274" x="0.645508" y="88.79" width="28.9141" height="3.36764" filterUnits="userSpaceOnUse" color-interpolation-filters="sRGB">
<feFlood flood-opacity="0" result="BackgroundImageFix"/>
<feBlend mode="normal" in="SourceGraphic" in2="BackgroundImageFix" result="shape"/>
<feColorMatrix in="SourceAlpha" type="matrix" values="0 0 0 0 0 0 0 0 0 0 0 0 0 0 0 0 0 0 127 0" result="hardAlpha"/>
<feOffset dy="0.602014"/>
<feGaussianBlur stdDeviation="0.301007"/>
<feComposite in2="hardAlpha" operator="arithmetic" k2="-1" k3="1"/>
<feColorMatrix type="matrix" values="0 0 0 0 0 0 0 0 0 0 0 0 0 0 0 0 0 0 0.25 0"/>
<feBlend mode="normal" in2="shape" result="effect1_innerShadow_3562_8274"/>
</filter>
<filter id="filter14_i_3562_8274" x="452.246" y="7.60352" width="2.70898" height="29.5161" filterUnits="userSpaceOnUse" color-interpolation-filters="sRGB">
<feFlood flood-opacity="0" result="BackgroundImageFix"/>
<feBlend mode="normal" in="SourceGraphic" in2="BackgroundImageFix" result="shape"/>
<feColorMatrix in="SourceAlpha" type="matrix" values="0 0 0 0 0 0 0 0 0 0 0 0 0 0 0 0 0 0 127 0" result="hardAlpha"/>
<feOffset dy="0.602014"/>
<feGaussianBlur stdDeviation="0.301007"/>
<feComposite in2="hardAlpha" operator="arithmetic" k2="-1" k3="1"/>
<feColorMatrix type="matrix" values="0 0 0 0 0 0 0 0 0 0 0 0 0 0 0 0 0 0 0.25 0"/>
<feBlend mode="normal" in2="shape" result="effect1_innerShadow_3562_8274"/>
</filter>
<filter id="filter15_i_3562_8274" x="439.144" y="20.7056" width="28.9141" height="3.36764" filterUnits="userSpaceOnUse" color-interpolation-filters="sRGB">
<feFlood flood-opacity="0" result="BackgroundImageFix"/>
<feBlend mode="normal" in="SourceGraphic" in2="BackgroundImageFix" result="shape"/>
<feColorMatrix in="SourceAlpha" type="matrix" values="0 0 0 0 0 0 0 0 0 0 0 0 0 0 0 0 0 0 127 0" result="hardAlpha"/>
<feOffset dy="0.602014"/>
<feGaussianBlur stdDeviation="0.301007"/>
<feComposite in2="hardAlpha" operator="arithmetic" k2="-1" k3="1"/>
<feColorMatrix type="matrix" values="0 0 0 0 0 0 0 0 0 0 0 0 0 0 0 0 0 0 0.25 0"/>
<feBlend mode="normal" in2="shape" result="effect1_innerShadow_3562_8274"/>
</filter>
<radialGradient id="paint0_radial_3562_8274" cx="0" cy="0" r="1" gradientUnits="userSpaceOnUse" gradientTransform="translate(385.545 100.447) rotate(159.429) scale(352.483 529.848)">
<stop stop-color="#2AA5FF"/>
<stop offset="1" stop-color="#24F3F3"/>
</radialGradient>
</defs>
</svg>
