<svg width="12" height="13" viewBox="0 0 12 13" fill="none" xmlns="http://www.w3.org/2000/svg">
<path d="M6.01562 1.34912C5.04063 1.34912 4.13062 1.62912 3.36562 2.10912L6.79563 5.54412L6.80063 4.17412C6.80063 3.96912 6.97063 3.79912 7.17563 3.79912C7.38563 3.79912 7.55063 3.96912 7.55063 4.17412L7.54563 6.44912C7.54563 6.60412 7.45062 6.73912 7.31063 6.79412C7.26562 6.81412 7.21563 6.82412 7.17063 6.82412C7.07063 6.82412 6.97563 6.78412 6.90563 6.71412L2.81062 2.61412C2.79062 2.59412 2.77562 2.57412 2.76063 2.55412C1.69062 3.47412 1.01562 4.83412 1.01562 6.34912C1.01562 9.10912 3.25563 11.3491 6.01562 11.3491C6.99062 11.3491 7.90063 11.0691 8.66563 10.5891L5.23563 7.15412L5.23063 8.52412C5.23063 8.72912 5.06063 8.89912 4.85563 8.89912C4.64563 8.89912 4.48063 8.72912 4.48063 8.52412L4.48563 6.24912C4.48563 6.09412 4.58062 5.95912 4.72062 5.90412C4.85562 5.84412 5.02063 5.87412 5.12563 5.98412L9.22062 10.0841C9.24063 10.1041 9.25562 10.1241 9.27063 10.1441C10.3406 9.22412 11.0156 7.86412 11.0156 6.34912C11.0156 3.58912 8.77563 1.34912 6.01562 1.34912Z" fill="#92ABFE"/>
</svg>
