<svg width="9" height="9" viewBox="0 0 9 9" fill="none" xmlns="http://www.w3.org/2000/svg">
<path d="M4.79693 1.01172C2.96741 1.01172 1.47656 2.50256 1.47656 4.33209C1.47656 6.16161 2.96741 7.65246 4.79693 7.65246C6.62646 7.65246 8.1173 6.16161 8.1173 4.33209C8.1173 2.50256 6.62646 1.01172 4.79693 1.01172ZM6.24129 5.51746C6.19481 5.59715 6.1118 5.64031 6.02547 5.64031C5.9823 5.64031 5.93914 5.63035 5.89929 5.60379L4.86998 4.98952C4.61431 4.83678 4.42505 4.50143 4.42505 4.20591V2.84456C4.42505 2.70843 4.53794 2.59553 4.67408 2.59553C4.81021 2.59553 4.92311 2.70843 4.92311 2.84456V4.20591C4.92311 4.32545 5.02272 4.50143 5.12565 4.56119L6.15496 5.17546C6.2745 5.24519 6.31434 5.39793 6.24129 5.51746Z" fill="#7C7C7C"/>
</svg>
