<svg width="9" height="9" viewBox="0 0 9 9" fill="none" xmlns="http://www.w3.org/2000/svg">
<path d="M7.48832 5.32812C7.48832 6.61311 6.44905 7.65238 5.16406 7.65238L5.5127 7.07132" fill="white"/>
<path d="M7.48832 5.32812C7.48832 6.61311 6.44905 7.65238 5.16406 7.65238L5.5127 7.07132" stroke="#7C7C7C" stroke-width="0.498055" stroke-linecap="round" stroke-linejoin="round"/>
<path d="M0.847656 3.33598C0.847656 2.05099 1.88693 1.01172 3.17191 1.01172L2.82328 1.59278" stroke="#7C7C7C" stroke-width="0.498055" stroke-linecap="round" stroke-linejoin="round"/>
<path d="M7.48834 1.7422V1.77872C7.48834 1.87169 7.41529 1.94474 7.32232 1.94474H4.33399C4.24102 1.94474 4.16797 1.87169 4.16797 1.77872V1.7422C4.16797 1.15781 4.31407 1.01172 4.90509 1.01172H6.75122C7.34224 1.01172 7.48834 1.15781 7.48834 1.7422Z" fill="#7C7C7C"/>
<path d="M4.33399 2.27686C4.24102 2.27686 4.16797 2.3499 4.16797 2.44287V2.77491V3.10363C4.16797 3.68801 4.31407 3.83411 4.90509 3.83411H6.75122C7.34224 3.83411 7.48834 3.68801 7.48834 3.10363V2.77491V2.44287C7.48834 2.3499 7.41529 2.27686 7.32232 2.27686H4.33399Z" fill="#7C7C7C"/>
<path d="M4.16803 5.56056V5.59708C4.16803 5.69005 4.09498 5.7631 4.00201 5.7631H1.01367C0.920704 5.7631 0.847656 5.69005 0.847656 5.59708V5.56056C0.847656 4.97617 0.993752 4.83008 1.58478 4.83008H3.4309C4.02193 4.83008 4.16803 4.97617 4.16803 5.56056Z" fill="#7C7C7C"/>
<path d="M1.01367 6.09521C0.920704 6.09521 0.847656 6.16826 0.847656 6.26123V6.59327V6.92199C0.847656 7.50637 0.993752 7.65247 1.58478 7.65247H3.4309C4.02193 7.65247 4.16803 7.50637 4.16803 6.92199V6.59327V6.26123C4.16803 6.16826 4.09498 6.09521 4.00201 6.09521H1.01367Z" fill="#7C7C7C"/>
</svg>
