<svg width="12" height="11" viewBox="0 0 12 11" fill="none" xmlns="http://www.w3.org/2000/svg">
<g clip-path="url(#clip0_10335_196667)">
<path d="M6.08993 10.8727C9.024 10.8727 11.4025 8.49421 11.4025 5.56015C11.4025 2.62609 9.024 0.247559 6.08993 0.247559C3.15587 0.247559 0.777344 2.62609 0.777344 5.56015C0.777344 8.49421 3.15587 10.8727 6.08993 10.8727Z" fill="#F0F0F0"/>
<path d="M0.777344 5.56026C0.777344 7.8445 2.21905 9.79178 4.24209 10.5424V0.578125C2.21905 1.32874 0.777344 3.27605 0.777344 5.56026Z" fill="#6DA544"/>
<path d="M11.4022 5.56026C11.4022 3.27605 9.96054 1.32874 7.9375 0.578125V10.5424C9.96054 9.79177 11.4022 7.8445 11.4022 5.56026Z" fill="#6DA544"/>
</g>
<defs>
<clipPath id="clip0_10335_196667">
<rect width="10.6252" height="10.6252" fill="white" transform="translate(0.777344 0.247559)"/>
</clipPath>
</defs>
</svg>
