<svg width="9" height="9" viewBox="0 0 9 9" fill="none" xmlns="http://www.w3.org/2000/svg">
<path d="M7.62706 3.94701C7.75656 3.94701 7.85949 3.84408 7.85949 3.71459V3.40579C7.85949 2.04444 7.44444 1.62939 6.08309 1.62939H2.99515C1.6338 1.62939 1.21875 2.04444 1.21875 3.40579V3.56185C1.21875 3.69134 1.32168 3.79428 1.45118 3.79428C1.75001 3.79428 1.9924 4.03666 1.9924 4.3355C1.9924 4.63433 1.75001 4.8734 1.45118 4.8734C1.32168 4.8734 1.21875 4.97633 1.21875 5.10582V5.26188C1.21875 6.62323 1.6338 7.03828 2.99515 7.03828H6.08309C7.44444 7.03828 7.85949 6.62323 7.85949 5.26188C7.85949 5.13238 7.75656 5.02945 7.62706 5.02945C7.32823 5.02945 7.08584 4.78707 7.08584 4.48823C7.08584 4.1894 7.32823 3.94701 7.62706 3.94701ZM3.54301 3.29622C3.72563 3.29622 3.87505 3.44564 3.87505 3.62826C3.87505 3.81088 3.72895 3.96029 3.54301 3.96029C3.36039 3.96029 3.21097 3.81088 3.21097 3.62826C3.21097 3.44564 3.35707 3.29622 3.54301 3.29622ZM5.53523 5.62048C5.34929 5.62048 5.19987 5.47106 5.19987 5.28844C5.19987 5.10582 5.34929 4.9564 5.53191 4.9564C5.71453 4.9564 5.86395 5.10582 5.86395 5.28844C5.86395 5.47106 5.72117 5.62048 5.53523 5.62048ZM5.83406 3.49544L3.59945 5.73005C3.54965 5.77986 3.48656 5.8031 3.42348 5.8031C3.36039 5.8031 3.2973 5.77986 3.2475 5.73005C3.1512 5.63376 3.1512 5.47438 3.2475 5.37809L5.4821 3.14348C5.57839 3.04719 5.73777 3.04719 5.83406 3.14348C5.93035 3.23977 5.93035 3.39915 5.83406 3.49544Z" fill="#7C7C7C"/>
</svg>
