<svg width="184" height="196" viewBox="0 0 184 196" fill="none" xmlns="http://www.w3.org/2000/svg">
<g filter="url(#filter0_i_16559_50093)">
<path d="M162.198 149.393C162.198 147.338 162.91 145.346 164.213 143.757C165.517 142.167 167.331 141.079 169.347 140.678C171.363 140.276 173.456 140.586 175.268 141.555C177.081 142.523 178.503 144.09 179.29 145.989C180.077 147.888 180.181 150.001 179.585 151.968C178.988 153.935 177.729 155.634 176.02 156.777C174.311 157.919 172.259 158.433 170.213 158.232C168.168 158.031 166.255 157.127 164.802 155.674C163.976 154.85 163.321 153.871 162.874 152.793C162.427 151.715 162.198 150.56 162.198 149.393ZM160.2 115.204C160.2 113.148 160.912 111.156 162.215 109.567C163.519 107.978 165.333 106.89 167.349 106.488C169.365 106.087 171.457 106.396 173.27 107.365C175.083 108.333 176.505 109.901 177.292 111.799C178.079 113.698 178.183 115.811 177.587 117.778C176.99 119.745 175.731 121.445 174.022 122.587C172.313 123.729 170.261 124.244 168.215 124.043C166.17 123.842 164.257 122.938 162.804 121.484C161.978 120.66 161.323 119.681 160.876 118.603C160.429 117.526 160.2 116.37 160.2 115.204ZM160.2 183.583C160.2 181.528 160.912 179.535 162.215 177.946C163.519 176.357 165.333 175.269 167.349 174.867C169.365 174.466 171.457 174.776 173.27 175.744C175.083 176.713 176.505 178.28 177.292 180.179C178.079 182.077 178.183 184.19 177.587 186.157C176.99 188.125 175.731 189.824 174.022 190.966C172.313 192.109 170.261 192.623 168.215 192.422C166.17 192.221 164.257 191.317 162.804 189.864C161.978 189.04 161.323 188.061 160.876 186.983C160.429 185.905 160.2 184.75 160.2 183.583Z" fill="#367CFF"/>
<path d="M133.358 117.37V178.813H64.6324V169.255H34.5936V178.813H4.09961V4.0415H88.9184L133.358 37.7851V87.7862H122.434V117.37H133.358ZM107.647 139.162V86.3252H30.3563V139.162H107.647Z" fill="#92ABFE"/>
<path d="M107.647 86.3262H30.3564V139.163H107.647V86.3262Z" fill="#04177F"/>
<path d="M111.51 86.4209C111.51 85.4552 111.127 84.5291 110.444 83.8462C109.761 83.1634 108.835 82.7798 107.869 82.7798H30.4965C29.5309 82.7798 28.6047 83.1634 27.9219 83.8462C27.2391 84.5291 26.8555 85.4552 26.8555 86.4209V139.216C26.8555 140.182 27.2391 141.108 27.9219 141.791C28.6047 142.474 29.5309 142.857 30.4965 142.857H107.869C108.835 142.857 109.761 142.474 110.444 141.791C111.127 141.108 111.51 140.182 111.51 139.216V86.4209ZM104.228 135.575H34.1376V90.0619H104.228V135.575Z" fill="white"/>
<path d="M68.7274 64.5746C69.6931 64.5746 70.6192 64.191 71.3021 63.5082C71.9849 62.8254 72.3685 61.8992 72.3685 60.9336V45.0039C72.3685 44.0382 71.9849 43.1121 71.3021 42.4292C70.6192 41.7464 69.6931 41.3628 68.7274 41.3628C67.7618 41.3628 66.8356 41.7464 66.1528 42.4292C65.47 43.1121 65.0864 44.0382 65.0864 45.0039V60.9336C65.0864 61.8992 65.47 62.8254 66.1528 63.5082C66.8356 64.191 67.7618 64.5746 68.7274 64.5746ZM55.0734 64.5746C56.0391 64.5746 56.9652 64.191 57.648 63.5082C58.3309 62.8254 58.7145 61.8992 58.7145 60.9336V45.0039C58.7145 44.0382 58.3309 43.1121 57.648 42.4292C56.9652 41.7464 56.0391 41.3628 55.0734 41.3628C54.1077 41.3628 53.1816 41.7464 52.4988 42.4292C51.816 43.1121 51.4323 44.0382 51.4323 45.0039V60.9336C51.4323 61.8992 51.816 62.8254 52.4988 63.5082C53.1816 64.191 54.1077 64.5746 55.0734 64.5746ZM82.3815 64.5746C83.3471 64.5746 84.2733 64.191 84.9561 63.5082C85.6389 62.8254 86.0225 61.8992 86.0225 60.9336V45.0039C86.0225 44.0382 85.6389 43.1121 84.9561 42.4292C84.2733 41.7464 83.3471 41.3628 82.3815 41.3628C81.4158 41.3628 80.4897 41.7464 79.8068 42.4292C79.124 43.1121 78.7404 44.0382 78.7404 45.0039V60.9336C78.7404 61.8992 79.124 62.8254 79.8068 63.5082C80.4897 64.191 81.4158 64.5746 82.3815 64.5746ZM96.0355 64.5746C97.0012 64.5746 97.9273 64.191 98.6101 63.5082C99.2929 62.8254 99.6766 61.8992 99.6766 60.9336V45.0039C99.6766 44.0382 99.2929 43.1121 98.6101 42.4292C97.9273 41.7464 97.0012 41.3628 96.0355 41.3628C95.0698 41.3628 94.1437 41.7464 93.4608 42.4292C92.778 43.1121 92.3944 44.0382 92.3944 45.0039V60.9336C92.3944 61.8992 92.778 62.8254 93.4608 63.5082C94.1437 64.191 95.0698 64.5746 96.0355 64.5746ZM41.4194 64.5746C42.3851 64.5746 43.3112 64.191 43.994 63.5082C44.6769 62.8254 45.0605 61.8992 45.0605 60.9336V45.0039C45.0605 44.0382 44.6769 43.1121 43.994 42.4292C43.3112 41.7464 42.3851 41.3628 41.4194 41.3628C40.4537 41.3628 39.5276 41.7464 38.8448 42.4292C38.1619 43.1121 37.7783 44.0382 37.7783 45.0039V60.9336C37.7783 61.8992 38.1619 62.8254 38.8448 63.5082C39.5276 64.191 40.4537 64.5746 41.4194 64.5746Z" fill="white"/>
<path d="M159.092 152.871C159.611 154.899 160.698 156.736 162.225 158.166C163.975 159.909 166.202 161.094 168.625 161.573C171.048 162.051 173.558 161.8 175.839 160.853C178.12 159.905 180.069 158.303 181.44 156.249C182.811 154.195 183.543 151.78 183.543 149.311C183.543 146.841 182.811 144.426 181.44 142.372C180.069 140.318 178.12 138.716 175.839 137.768C173.558 136.821 171.048 136.57 168.625 137.049C166.202 137.527 163.975 138.712 162.225 140.455C160.796 141.899 159.723 143.657 159.093 145.589H136.997V136.942H147.456C148.423 136.942 149.35 136.559 150.034 135.876C150.719 135.193 151.104 134.267 151.106 133.301V118.736H157.094C157.613 120.756 158.7 122.584 160.227 124.003C161.975 125.737 164.198 126.915 166.614 127.388C169.03 127.861 171.532 127.608 173.805 126.661C176.078 125.715 178.02 124.116 179.386 122.068C180.751 120.019 181.48 117.612 181.48 115.15C181.48 112.688 180.751 110.281 179.386 108.232C178.02 106.183 176.078 104.585 173.805 103.638C171.532 102.691 169.03 102.438 166.614 102.911C164.198 103.384 161.975 104.562 160.227 106.296C158.797 107.749 157.725 109.515 157.095 111.454H147.456C146.48 111.479 145.553 111.886 144.874 112.587C144.195 113.289 143.818 114.228 143.824 115.204V129.659H136.997V117.371C136.997 116.405 136.614 115.479 135.931 114.796C135.248 114.113 134.322 113.73 133.356 113.73H126.074V91.4282H133.356C134.322 91.4282 135.248 91.0446 135.931 90.3617C136.614 89.6789 136.997 88.7528 136.997 87.7871V37.7861C136.997 37.2245 136.867 36.6705 136.618 36.1675C136.368 35.6645 136.005 35.226 135.558 34.8864L91.1197 1.14232C90.486 0.661478 89.7124 0.401247 88.9169 0.401367H4.0981C3.13243 0.401367 2.20631 0.78498 1.52348 1.46781C0.840644 2.15065 0.457031 3.07677 0.457031 4.04244V178.814C0.457031 179.78 0.840644 180.706 1.52348 181.389C2.20631 182.071 3.13243 182.455 4.0981 182.455H34.5921C35.5578 182.455 36.4839 182.071 37.1667 181.389C37.8495 180.706 38.2332 179.78 38.2332 178.814V172.897H60.9899V178.814C60.9899 179.78 61.3735 180.706 62.0563 181.389C62.7391 182.071 63.6653 182.455 64.6309 182.455H133.356C134.322 182.455 135.248 182.071 135.931 181.389C136.614 180.706 136.997 179.78 136.997 178.814V169.256H143.824V183.584C143.824 185.594 145.445 187.006 147.456 187.006H157.094C157.612 189.042 158.699 190.887 160.227 192.328C161.97 194.078 164.192 195.271 166.613 195.757C169.034 196.242 171.545 195.998 173.827 195.055C176.109 194.113 178.06 192.514 179.433 190.462C180.806 188.409 181.539 185.996 181.539 183.527C181.539 181.057 180.806 178.644 179.433 176.591C178.06 174.539 176.109 172.94 173.827 171.998C171.545 171.055 169.034 170.811 166.613 171.297C164.192 171.782 161.97 172.975 160.227 174.725L160.224 174.621C158.797 176.054 157.725 177.802 157.095 179.724H151.106V165.492C151.103 165.02 151.005 164.553 150.819 164.119C150.632 163.685 150.361 163.293 150.021 162.965C149.681 162.638 149.279 162.381 148.839 162.211C148.398 162.041 147.928 161.96 147.456 161.974H136.997V152.871H159.092ZM167.376 145.688C168.109 144.954 169.043 144.454 170.061 144.252C171.078 144.049 172.132 144.153 173.091 144.55C174.049 144.947 174.868 145.619 175.445 146.481C176.021 147.344 176.329 148.358 176.329 149.395C176.329 150.432 176.021 151.446 175.445 152.309C174.868 153.171 174.049 153.843 173.091 154.24C172.132 154.637 171.078 154.741 170.061 154.538C169.043 154.335 168.109 153.836 167.376 153.102C166.888 152.616 166.502 152.038 166.238 151.402C165.974 150.766 165.839 150.084 165.839 149.396C165.839 148.707 165.974 148.026 166.238 147.39C166.502 146.754 166.888 146.176 167.376 145.69V145.688ZM165.378 111.498C166.111 110.765 167.045 110.265 168.063 110.062C169.08 109.86 170.134 109.963 171.093 110.36C172.051 110.757 172.87 111.429 173.447 112.292C174.023 113.154 174.331 114.168 174.331 115.205C174.331 116.243 174.023 117.257 173.447 118.119C172.87 118.981 172.051 119.654 171.093 120.05C170.134 120.447 169.08 120.551 168.063 120.348C167.045 120.146 166.111 119.646 165.378 118.912C164.89 118.426 164.504 117.848 164.24 117.212C163.976 116.576 163.841 115.895 163.841 115.206C163.841 114.518 163.976 113.836 164.24 113.2C164.504 112.564 164.89 111.986 165.378 111.5V111.498ZM129.715 175.173H68.272V169.256C68.272 168.29 67.8884 167.364 67.2056 166.681C66.5227 165.999 65.5966 165.615 64.6309 165.615H34.5921C33.6264 165.615 32.7003 165.999 32.0175 166.681C31.3346 167.364 30.951 168.29 30.951 169.256V175.173H7.73918V7.68351H87.6912L129.715 39.593V84.146H122.433C121.467 84.146 120.541 84.5296 119.858 85.2125C119.175 85.8953 118.792 86.8214 118.792 87.7871V117.371C118.792 118.336 119.175 119.263 119.858 119.945C120.541 120.628 121.467 121.012 122.433 121.012H129.715V175.173ZM165.381 179.875C166.239 179.02 167.366 178.488 168.572 178.371C169.778 178.254 170.987 178.559 171.993 179.233C172.999 179.907 173.741 180.909 174.091 182.069C174.442 183.228 174.38 184.473 173.915 185.592C173.451 186.711 172.613 187.634 171.544 188.204C170.476 188.775 169.242 188.957 168.054 188.72C166.866 188.483 165.797 187.842 165.029 186.905C164.261 185.969 163.841 184.795 163.841 183.584C163.839 182.894 163.975 182.212 164.239 181.575C164.503 180.938 164.891 180.36 165.381 179.875Z" fill="white"/>
</g>
<defs>
<filter id="filter0_i_16559_50093" x="0.457031" y="0.401367" width="183.086" height="199.695" filterUnits="userSpaceOnUse" color-interpolation-filters="sRGB">
<feFlood flood-opacity="0" result="BackgroundImageFix"/>
<feBlend mode="normal" in="SourceGraphic" in2="BackgroundImageFix" result="shape"/>
<feColorMatrix in="SourceAlpha" type="matrix" values="0 0 0 0 0 0 0 0 0 0 0 0 0 0 0 0 0 0 127 0" result="hardAlpha"/>
<feOffset dy="4.09621"/>
<feGaussianBlur stdDeviation="3.61832"/>
<feComposite in2="hardAlpha" operator="arithmetic" k2="-1" k3="1"/>
<feColorMatrix type="matrix" values="0 0 0 0 0 0 0 0 0 0 0 0 0 0 0 0 0 0 0.25 0"/>
<feBlend mode="normal" in2="shape" result="effect1_innerShadow_16559_50093"/>
</filter>
</defs>
</svg>
