<svg width="316" height="342" viewBox="0 0 316 342" fill="none" xmlns="http://www.w3.org/2000/svg">
<g filter="url(#filter0_d_16501_49543)">
<rect x="3.5" y="0.400879" width="309" height="335" rx="12.8789" fill="white"/>
<rect x="33.4548" y="20.4695" width="249.415" height="39.8308" rx="4.97594" stroke="black" stroke-opacity="0.3" stroke-width="0.585405"/>
<g clip-path="url(#clip0_16501_49543)">
<rect width="12" height="12" transform="translate(44.8701 34.3848)" fill="white"/>
<path d="M50.8701 46.3848C54.1838 46.3848 56.8701 43.6985 56.8701 40.3848C56.8701 37.0711 54.1838 34.3848 50.8701 34.3848C47.5564 34.3848 44.8701 37.0711 44.8701 40.3848C44.8701 43.6985 47.5564 46.3848 50.8701 46.3848Z" fill="#F0F0F0"/>
<path d="M50.6094 40.3846H56.8702C56.8702 39.843 56.798 39.3184 56.6635 38.8193H50.6094V40.3846Z" fill="#D80027"/>
<path d="M50.6094 37.2542H55.9896C55.6223 36.6548 55.1527 36.1251 54.6051 35.689H50.6094V37.2542Z" fill="#D80027"/>
<path d="M50.8706 46.3849C52.2827 46.3849 53.5806 45.8968 54.6056 45.0806H47.1357C48.1607 45.8968 49.4586 46.3849 50.8706 46.3849Z" fill="#D80027"/>
<path d="M45.7511 43.5149H55.9898C56.2847 43.0338 56.5134 42.5078 56.6638 41.9497H45.0771C45.2275 42.5078 45.4562 43.0338 45.7511 43.5149Z" fill="#D80027"/>
<path d="M47.6494 35.3218H48.1962L47.6876 35.6912L47.8819 36.2891L47.3733 35.9196L46.8647 36.2891L47.0326 35.7726C46.5848 36.1456 46.1923 36.5826 45.8688 37.0696H46.044L45.7203 37.3048C45.6699 37.3889 45.6215 37.4744 45.5751 37.5611L45.7297 38.0369L45.4413 37.8274C45.3696 37.9793 45.304 38.1346 45.2451 38.2932L45.4154 38.8174H46.044L45.5354 39.1869L45.7297 39.7848L45.2211 39.4153L44.9165 39.6366C44.886 39.8817 44.8701 40.1314 44.8701 40.3848H50.8701C50.8701 37.0711 50.8701 36.6804 50.8701 34.3848C49.6848 34.3848 48.5799 34.7286 47.6494 35.3218ZM47.8819 39.7848L47.3733 39.4153L46.8647 39.7848L47.059 39.1869L46.5504 38.8174H47.1791L47.3733 38.2195L47.5676 38.8174H48.1962L47.6876 39.1869L47.8819 39.7848ZM47.6876 37.4391L47.8819 38.0369L47.3733 37.6674L46.8647 38.0369L47.059 37.4391L46.5504 37.0696H47.1791L47.3733 36.4717L47.5676 37.0696H48.1962L47.6876 37.4391ZM50.0341 39.7848L49.5255 39.4153L49.0169 39.7848L49.2112 39.1869L48.7026 38.8174H49.3312L49.5255 38.2195L49.7197 38.8174H50.3484L49.8398 39.1869L50.0341 39.7848ZM49.8398 37.4391L50.0341 38.0369L49.5255 37.6674L49.0169 38.0369L49.2112 37.4391L48.7026 37.0696H49.3312L49.5255 36.4717L49.7197 37.0696H50.3484L49.8398 37.4391ZM49.8398 35.6912L50.0341 36.2891L49.5255 35.9196L49.0169 36.2891L49.2112 35.6912L48.7026 35.3218H49.3312L49.5255 34.7239L49.7197 35.3218H50.3484L49.8398 35.6912Z" fill="#0052B4"/>
</g>
<path d="M67.4411 36.1575H68.7622V41.8975C68.7622 42.5083 68.6187 43.0495 68.3318 43.5211C68.0448 43.9899 67.6414 44.3592 67.1215 44.6291C66.6017 44.8961 65.9923 45.0297 65.2934 45.0297C64.5974 45.0297 63.9894 44.8961 63.4695 44.6291C62.9497 44.3592 62.5463 43.9899 62.2593 43.5211C61.9724 43.0495 61.8289 42.5083 61.8289 41.8975V36.1575H63.1457V41.791C63.1457 42.1859 63.2323 42.5368 63.4056 42.8436C63.5818 43.1504 63.8303 43.3919 64.1514 43.568C64.4724 43.7413 64.8531 43.8279 65.2934 43.8279C65.7366 43.8279 66.1187 43.7413 66.4397 43.568C66.7636 43.3919 67.0107 43.1504 67.1812 42.8436C67.3545 42.5368 67.4411 42.1859 67.4411 41.791V36.1575ZM71.8485 40.9984V44.8848H70.5743V38.3393H71.7973V39.4047H71.8783C72.0289 39.0581 72.2646 38.7797 72.5857 38.5694C72.9095 38.3592 73.3172 38.2541 73.8087 38.2541C74.2547 38.2541 74.6453 38.3478 74.9806 38.5353C75.3158 38.72 75.5757 38.9956 75.7604 39.362C75.945 39.7285 76.0374 40.1816 76.0374 40.7214V44.8848H74.7632V40.8748C74.7632 40.4004 74.6396 40.0297 74.3925 39.7626C74.1453 39.4927 73.8058 39.3578 73.374 39.3578C73.0786 39.3578 72.8158 39.4217 72.5857 39.5495C72.3584 39.6774 72.178 39.8649 72.0445 40.112C71.9138 40.3564 71.8485 40.6518 71.8485 40.9984ZM77.7462 44.8848V38.3393H79.0203V44.8848H77.7462ZM78.3896 37.3294C78.1681 37.3294 77.9777 37.2555 77.8186 37.1078C77.6624 36.9572 77.5843 36.7782 77.5843 36.5708C77.5843 36.3606 77.6624 36.1816 77.8186 36.0339C77.9777 35.8833 78.1681 35.8081 78.3896 35.8081C78.6112 35.8081 78.8002 35.8833 78.9564 36.0339C79.1155 36.1816 79.195 36.3606 79.195 36.5708C79.195 36.7782 79.1155 36.9572 78.9564 37.1078C78.8002 37.2555 78.6112 37.3294 78.3896 37.3294ZM83.7899 38.3393V39.362H80.2146V38.3393H83.7899ZM81.1734 36.7711H82.4475V42.9629C82.4475 43.21 82.4845 43.3961 82.5583 43.5211C82.6322 43.6433 82.7274 43.7271 82.8438 43.7725C82.9632 43.8152 83.0924 43.8365 83.2316 43.8365C83.3339 43.8365 83.4234 43.8294 83.5001 43.8152C83.5768 43.801 83.6365 43.7896 83.6791 43.7811L83.9092 44.8336C83.8353 44.862 83.7302 44.8904 83.5938 44.9189C83.4575 44.9501 83.287 44.9672 83.0825 44.97C82.7472 44.9757 82.4347 44.916 82.145 44.791C81.8552 44.666 81.6208 44.4728 81.4419 44.2115C81.2629 43.9501 81.1734 43.622 81.1734 43.2271V36.7711ZM87.95 45.0169C87.3051 45.0169 86.7497 44.8791 86.2838 44.6035C85.8208 44.3251 85.4628 43.9345 85.21 43.4316C84.96 42.926 84.835 42.3336 84.835 41.6547C84.835 40.9842 84.96 40.3933 85.21 39.8819C85.4628 39.3706 85.8151 38.9714 86.2668 38.6845C86.7213 38.3975 87.2526 38.2541 87.8605 38.2541C88.2298 38.2541 88.5878 38.3152 88.9344 38.4373C89.281 38.5595 89.5921 38.7512 89.8676 39.0126C90.1432 39.274 90.3605 39.6135 90.5196 40.0311C90.6787 40.4458 90.7583 40.9501 90.7583 41.5439V41.9956H85.5551V41.041H89.5097C89.5097 40.7058 89.4415 40.4089 89.3051 40.1504C89.1688 39.889 88.977 39.6831 88.7298 39.5325C88.4855 39.3819 88.1986 39.3066 87.8691 39.3066C87.5111 39.3066 87.1986 39.3947 86.9316 39.5708C86.6673 39.7441 86.4628 39.9714 86.3179 40.2527C86.1759 40.5311 86.1048 40.8336 86.1048 41.1603V41.9061C86.1048 42.3436 86.1816 42.7157 86.335 43.0225C86.4912 43.3294 86.7085 43.5637 86.9869 43.7257C87.2654 43.8848 87.5906 43.9643 87.9628 43.9643C88.2043 43.9643 88.4244 43.9302 88.6233 43.862C88.8222 43.791 88.9941 43.6859 89.1389 43.5467C89.2838 43.4075 89.3946 43.2356 89.4713 43.0311L90.6773 43.2484C90.5807 43.6035 90.4074 43.9146 90.1574 44.1816C89.9102 44.4458 89.5992 44.6518 89.2242 44.7995C88.852 44.9444 88.4273 45.0169 87.95 45.0169ZM94.6222 45.0126C94.0938 45.0126 93.6222 44.8777 93.2075 44.6078C92.7955 44.335 92.4717 43.9473 92.2359 43.4444C92.0029 42.9387 91.8865 42.3322 91.8865 41.6248C91.8865 40.9174 92.0044 40.3123 92.2401 39.8095C92.4788 39.3066 92.8055 38.9217 93.2203 38.6547C93.635 38.3876 94.1052 38.2541 94.6308 38.2541C95.037 38.2541 95.3637 38.3223 95.6109 38.4586C95.8609 38.5922 96.0541 38.7484 96.1904 38.9274C96.3296 39.1064 96.4376 39.264 96.5143 39.4004H96.591V36.1575H97.8651V44.8848H96.6208V43.8663H96.5143C96.4376 44.0055 96.3268 44.1646 96.1819 44.3436C96.0399 44.5225 95.8438 44.6788 95.5938 44.8123C95.3438 44.9458 95.02 45.0126 94.6222 45.0126ZM94.9035 43.926C95.27 43.926 95.5796 43.8294 95.8325 43.6362C96.0882 43.4402 96.2813 43.1689 96.412 42.8223C96.5455 42.4757 96.6123 42.0723 96.6123 41.612C96.6123 41.1575 96.547 40.7598 96.4163 40.4189C96.2856 40.0779 96.0938 39.8123 95.841 39.622C95.5882 39.4316 95.2757 39.3365 94.9035 39.3365C94.52 39.3365 94.2004 39.4359 93.9447 39.6348C93.689 39.8336 93.4958 40.1049 93.3651 40.4487C93.2373 40.7924 93.1734 41.1802 93.1734 41.612C93.1734 42.0495 93.2387 42.443 93.3694 42.7924C93.5001 43.1419 93.6933 43.4189 93.949 43.6234C94.2075 43.8251 94.5257 43.926 94.9035 43.926ZM104.031 42.6646L104.023 41.1092H104.244L106.852 38.3393H108.378L105.403 41.4927H105.203L104.031 42.6646ZM102.859 44.8848V36.1575H104.134V44.8848H102.859ZM106.993 44.8848L104.649 41.774L105.527 40.8833L108.557 44.8848H106.993ZM109.539 44.8848V38.3393H110.813V44.8848H109.539ZM110.183 37.3294C109.961 37.3294 109.771 37.2555 109.612 37.1078C109.455 36.9572 109.377 36.7782 109.377 36.5708C109.377 36.3606 109.455 36.1816 109.612 36.0339C109.771 35.8833 109.961 35.8081 110.183 35.8081C110.404 35.8081 110.593 35.8833 110.749 36.0339C110.908 36.1816 110.988 36.3606 110.988 36.5708C110.988 36.7782 110.908 36.9572 110.749 37.1078C110.593 37.2555 110.404 37.3294 110.183 37.3294ZM113.802 40.9984V44.8848H112.527V38.3393H113.75V39.4047H113.831C113.982 39.0581 114.218 38.7797 114.539 38.5694C114.863 38.3592 115.27 38.2541 115.762 38.2541C116.208 38.2541 116.598 38.3478 116.934 38.5353C117.269 38.72 117.529 38.9956 117.714 39.362C117.898 39.7285 117.991 40.1816 117.991 40.7214V44.8848H116.716V40.8748C116.716 40.4004 116.593 40.0297 116.346 39.7626C116.098 39.4927 115.759 39.3578 115.327 39.3578C115.032 39.3578 114.769 39.4217 114.539 39.5495C114.312 39.6774 114.131 39.8649 113.998 40.112C113.867 40.3564 113.802 40.6518 113.802 40.9984ZM122.444 47.4757C121.924 47.4757 121.476 47.4075 121.101 47.2711C120.729 47.1348 120.425 46.9544 120.189 46.7299C119.954 46.5055 119.777 46.2598 119.661 45.9927L120.756 45.541C120.833 45.666 120.935 45.7981 121.063 45.9373C121.194 46.0794 121.37 46.2001 121.591 46.2995C121.816 46.399 122.104 46.4487 122.456 46.4487C122.939 46.4487 123.339 46.3308 123.654 46.095C123.969 45.862 124.127 45.4899 124.127 44.9785V43.6916H124.046C123.969 43.8308 123.858 43.9856 123.714 44.1561C123.571 44.3265 123.375 44.4743 123.125 44.5993C122.875 44.7243 122.55 44.7868 122.15 44.7868C121.633 44.7868 121.167 44.666 120.752 44.4245C120.34 44.1802 120.013 43.8208 119.772 43.3464C119.533 42.8691 119.414 42.2825 119.414 41.5865C119.414 40.8904 119.532 40.2939 119.767 39.7967C120.006 39.2995 120.333 38.9189 120.748 38.6547C121.162 38.3876 121.633 38.2541 122.158 38.2541C122.564 38.2541 122.892 38.3223 123.142 38.4586C123.392 38.5922 123.587 38.7484 123.726 38.9274C123.868 39.1064 123.978 39.264 124.054 39.4004H124.148V38.3393H125.397V45.0297C125.397 45.5922 125.266 46.0538 125.005 46.4146C124.743 46.7754 124.39 47.0424 123.944 47.2157C123.5 47.389 123 47.4757 122.444 47.4757ZM122.431 43.7299C122.797 43.7299 123.107 43.6447 123.36 43.4743C123.616 43.301 123.809 43.0538 123.939 42.7328C124.073 42.4089 124.14 42.0211 124.14 41.5694C124.14 41.1291 124.074 40.7413 123.944 40.4061C123.813 40.0708 123.621 39.8095 123.368 39.622C123.116 39.4316 122.803 39.3365 122.431 39.3365C122.047 39.3365 121.728 39.4359 121.472 39.6348C121.216 39.8308 121.023 40.0978 120.892 40.4359C120.765 40.774 120.701 41.1518 120.701 41.5694C120.701 41.9984 120.766 42.3748 120.897 42.6987C121.027 43.0225 121.221 43.2754 121.476 43.4572C121.735 43.639 122.053 43.7299 122.431 43.7299ZM129.556 45.0126C129.027 45.0126 128.556 44.8777 128.141 44.6078C127.729 44.335 127.405 43.9473 127.169 43.4444C126.937 42.9387 126.82 42.3322 126.82 41.6248C126.82 40.9174 126.938 40.3123 127.174 39.8095C127.412 39.3066 127.739 38.9217 128.154 38.6547C128.569 38.3876 129.039 38.2541 129.564 38.2541C129.971 38.2541 130.297 38.3223 130.544 38.4586C130.794 38.5922 130.988 38.7484 131.124 38.9274C131.263 39.1064 131.371 39.264 131.448 39.4004H131.525V36.1575H132.799V44.8848H131.554V43.8663H131.448C131.371 44.0055 131.26 44.1646 131.116 44.3436C130.973 44.5225 130.777 44.6788 130.527 44.8123C130.277 44.9458 129.954 45.0126 129.556 45.0126ZM129.837 43.926C130.204 43.926 130.513 43.8294 130.766 43.6362C131.022 43.4402 131.215 43.1689 131.346 42.8223C131.479 42.4757 131.546 42.0723 131.546 41.612C131.546 41.1575 131.481 40.7598 131.35 40.4189C131.219 40.0779 131.027 39.8123 130.775 39.622C130.522 39.4316 130.209 39.3365 129.837 39.3365C129.454 39.3365 129.134 39.4359 128.878 39.6348C128.623 39.8336 128.429 40.1049 128.299 40.4487C128.171 40.7924 128.107 41.1802 128.107 41.612C128.107 42.0495 128.172 42.443 128.303 42.7924C128.434 43.1419 128.627 43.4189 128.883 43.6234C129.141 43.8251 129.459 43.926 129.837 43.926ZM137.374 45.0169C136.761 45.0169 136.225 44.8762 135.768 44.595C135.31 44.3137 134.955 43.9203 134.703 43.4146C134.45 42.9089 134.323 42.318 134.323 41.6419C134.323 40.9629 134.45 40.3691 134.703 39.8606C134.955 39.3521 135.31 38.9572 135.768 38.676C136.225 38.3947 136.761 38.2541 137.374 38.2541C137.988 38.2541 138.524 38.3947 138.981 38.676C139.438 38.9572 139.793 39.3521 140.046 39.8606C140.299 40.3691 140.426 40.9629 140.426 41.6419C140.426 42.318 140.299 42.9089 140.046 43.4146C139.793 43.9203 139.438 44.3137 138.981 44.595C138.524 44.8762 137.988 45.0169 137.374 45.0169ZM137.379 43.9473C137.776 43.9473 138.106 43.8422 138.367 43.6319C138.629 43.4217 138.822 43.1419 138.947 42.7924C139.075 42.443 139.139 42.0581 139.139 41.6376C139.139 41.22 139.075 40.8365 138.947 40.487C138.822 40.1348 138.629 39.8521 138.367 39.639C138.106 39.426 137.776 39.3194 137.379 39.3194C136.978 39.3194 136.646 39.426 136.381 39.639C136.12 39.8521 135.926 40.1348 135.798 40.487C135.673 40.8365 135.61 41.22 135.61 41.6376C135.61 42.0581 135.673 42.443 135.798 42.7924C135.926 43.1419 136.12 43.4217 136.381 43.6319C136.646 43.8422 136.978 43.9473 137.379 43.9473ZM141.848 44.8848V38.3393H143.071V39.4047H143.152C143.288 39.0439 143.511 38.7626 143.821 38.5609C144.13 38.3564 144.501 38.2541 144.933 38.2541C145.37 38.2541 145.737 38.3564 146.032 38.5609C146.331 38.7654 146.551 39.0467 146.693 39.4047H146.761C146.917 39.0552 147.166 38.7768 147.507 38.5694C147.848 38.3592 148.254 38.2541 148.726 38.2541C149.319 38.2541 149.804 38.4402 150.179 38.8123C150.557 39.1845 150.745 39.7456 150.745 40.4956V44.8848H149.471V40.6149C149.471 40.1717 149.351 39.8507 149.109 39.6518C148.868 39.4529 148.579 39.3535 148.244 39.3535C147.829 39.3535 147.507 39.4814 147.277 39.737C147.047 39.9899 146.932 40.3152 146.932 40.7129V44.8848H145.662V40.5339C145.662 40.1788 145.551 39.8933 145.329 39.6774C145.108 39.4615 144.819 39.3535 144.464 39.3535C144.223 39.3535 144 39.4174 143.795 39.5453C143.593 39.6703 143.43 39.845 143.305 40.0694C143.183 40.2939 143.122 40.5538 143.122 40.8493V44.8848H141.848Z" fill="black"/>
<path d="M155.87 37.165L161.724 43.6045L167.578 37.165H155.87Z" fill="black"/>
<path d="M207.438 35.6668V45.8848H205.891V37.2135H205.831L203.386 38.81V37.3332L205.936 35.6668H207.438ZM213.759 46.0544C212.971 46.0511 212.297 45.8432 211.738 45.4307C211.18 45.0183 210.752 44.4179 210.456 43.6296C210.16 42.8413 210.012 41.8917 210.012 40.7808C210.012 39.6732 210.16 38.7269 210.456 37.9419C210.756 37.1569 211.185 36.5582 211.743 36.1458C212.305 35.7333 212.977 35.5271 213.759 35.5271C214.541 35.5271 215.211 35.735 215.77 36.1507C216.328 36.5632 216.756 37.1619 217.052 37.9469C217.351 38.7285 217.501 39.6732 217.501 40.7808C217.501 41.895 217.353 42.8463 217.057 43.6346C216.761 44.4196 216.333 45.02 215.775 45.4357C215.216 45.8482 214.544 46.0544 213.759 46.0544ZM213.759 44.7223C214.451 44.7223 214.991 44.3847 215.381 43.7095C215.773 43.0342 215.969 42.058 215.969 40.7808C215.969 39.9326 215.879 39.2158 215.7 38.6304C215.524 38.0417 215.269 37.596 214.936 37.2933C214.607 36.9873 214.215 36.8343 213.759 36.8343C213.071 36.8343 212.53 37.1735 212.138 37.8521C211.745 38.5306 211.547 39.5068 211.544 40.7808C211.544 41.6323 211.632 42.3524 211.808 42.9411C211.988 43.5265 212.242 43.9706 212.572 44.2732C212.901 44.5726 213.297 44.7223 213.759 44.7223ZM222.828 46.0544C222.04 46.0511 221.366 45.8432 220.808 45.4307C220.249 45.0183 219.821 44.4179 219.525 43.6296C219.229 42.8413 219.081 41.8917 219.081 40.7808C219.081 39.6732 219.229 38.7269 219.525 37.9419C219.825 37.1569 220.254 36.5582 220.813 36.1458C221.375 35.7333 222.047 35.5271 222.828 35.5271C223.61 35.5271 224.28 35.735 224.839 36.1507C225.398 36.5632 225.825 37.1619 226.121 37.9469C226.42 38.7285 226.57 39.6732 226.57 40.7808C226.57 41.895 226.422 42.8463 226.126 43.6346C225.83 44.4196 225.403 45.02 224.844 45.4357C224.285 45.8482 223.613 46.0544 222.828 46.0544ZM222.828 44.7223C223.52 44.7223 224.061 44.3847 224.45 43.7095C224.842 43.0342 225.038 42.058 225.038 40.7808C225.038 39.9326 224.949 39.2158 224.769 38.6304C224.593 38.0417 224.338 37.596 224.006 37.2933C223.676 36.9873 223.284 36.8343 222.828 36.8343C222.14 36.8343 221.599 37.1735 221.207 37.8521C220.814 38.5306 220.616 39.5068 220.613 40.7808C220.613 41.6323 220.701 42.3524 220.877 42.9411C221.057 43.5265 221.312 43.9706 221.641 44.2732C221.97 44.5726 222.366 44.7223 222.828 44.7223ZM228.972 45.9796C228.7 45.9796 228.465 45.8831 228.269 45.6902C228.073 45.4939 227.975 45.2578 227.975 44.9817C227.975 44.709 228.073 44.4761 228.269 44.2832C228.465 44.087 228.7 43.9889 228.972 43.9889C229.245 43.9889 229.48 44.087 229.676 44.2832C229.872 44.4761 229.97 44.709 229.97 44.9817C229.97 45.1647 229.924 45.3326 229.831 45.4856C229.741 45.6353 229.621 45.755 229.471 45.8449C229.322 45.9347 229.155 45.9796 228.972 45.9796ZM235.135 46.0544C234.347 46.0511 233.674 45.8432 233.115 45.4307C232.556 45.0183 232.129 44.4179 231.833 43.6296C231.537 42.8413 231.389 41.8917 231.389 40.7808C231.389 39.6732 231.537 38.7269 231.833 37.9419C232.132 37.1569 232.561 36.5582 233.12 36.1458C233.682 35.7333 234.354 35.5271 235.135 35.5271C235.917 35.5271 236.587 35.735 237.146 36.1507C237.705 36.5632 238.132 37.1619 238.428 37.9469C238.728 38.7285 238.877 39.6732 238.877 40.7808C238.877 41.895 238.729 42.8463 238.433 43.6346C238.137 44.4196 237.71 45.02 237.151 45.4357C236.592 45.8482 235.92 46.0544 235.135 46.0544ZM235.135 44.7223C235.827 44.7223 236.368 44.3847 236.757 43.7095C237.149 43.0342 237.346 42.058 237.346 40.7808C237.346 39.9326 237.256 39.2158 237.076 38.6304C236.9 38.0417 236.646 37.596 236.313 37.2933C235.984 36.9873 235.591 36.8343 235.135 36.8343C234.447 36.8343 233.906 37.1735 233.514 37.8521C233.121 38.5306 232.924 39.5068 232.92 40.7808C232.92 41.6323 233.008 42.3524 233.185 42.9411C233.364 43.5265 233.619 43.9706 233.948 44.2732C234.277 44.5726 234.673 44.7223 235.135 44.7223ZM244.205 46.0544C243.416 46.0511 242.743 45.8432 242.184 45.4307C241.625 45.0183 241.198 44.4179 240.902 43.6296C240.606 42.8413 240.458 41.8917 240.458 40.7808C240.458 39.6732 240.606 38.7269 240.902 37.9419C241.201 37.1569 241.63 36.5582 242.189 36.1458C242.751 35.7333 243.423 35.5271 244.205 35.5271C244.986 35.5271 245.657 35.735 246.215 36.1507C246.774 36.5632 247.202 37.1619 247.498 37.9469C247.797 38.7285 247.947 39.6732 247.947 40.7808C247.947 41.895 247.799 42.8463 247.503 43.6346C247.207 44.4196 246.779 45.02 246.22 45.4357C245.662 45.8482 244.99 46.0544 244.205 46.0544ZM244.205 44.7223C244.897 44.7223 245.437 44.3847 245.826 43.7095C246.219 43.0342 246.415 42.058 246.415 40.7808C246.415 39.9326 246.325 39.2158 246.145 38.6304C245.969 38.0417 245.715 37.596 245.382 37.2933C245.053 36.9873 244.66 36.8343 244.205 36.8343C243.516 36.8343 242.976 37.1735 242.583 37.8521C242.191 38.5306 241.993 39.5068 241.989 40.7808C241.989 41.6323 242.078 42.3524 242.254 42.9411C242.433 43.5265 242.688 43.9706 243.017 44.2732C243.347 44.5726 243.742 44.7223 244.205 44.7223Z" fill="black"/>
<path d="M260.908 37.112H262.009V41.8954C262.009 42.4044 261.89 42.8554 261.651 43.2484C261.412 43.639 261.075 43.9468 260.642 44.1717C260.209 44.3942 259.701 44.5055 259.119 44.5055C258.539 44.5055 258.032 44.3942 257.599 44.1717C257.166 43.9468 256.829 43.639 256.59 43.2484C256.351 42.8554 256.232 42.4044 256.232 41.8954V37.112H257.329V41.8066C257.329 42.1357 257.401 42.4281 257.546 42.6838C257.692 42.9395 257.899 43.1407 258.167 43.2875C258.435 43.4319 258.752 43.5041 259.119 43.5041C259.488 43.5041 259.806 43.4319 260.074 43.2875C260.344 43.1407 260.55 42.9395 260.692 42.6838C260.836 42.4281 260.908 42.1357 260.908 41.8066V37.112ZM267.571 39.0225C267.533 38.6864 267.377 38.426 267.103 38.2413C266.828 38.0543 266.482 37.9608 266.066 37.9608C265.767 37.9608 265.509 38.0081 265.291 38.1028C265.074 38.1951 264.904 38.323 264.784 38.4863C264.665 38.6473 264.606 38.8308 264.606 39.0368C264.606 39.2096 264.646 39.3587 264.727 39.4842C264.81 39.6097 264.917 39.715 265.05 39.8002C265.185 39.8831 265.329 39.9529 265.483 40.0098C265.637 40.0642 265.785 40.1092 265.927 40.1447L266.637 40.3294C266.869 40.3862 267.107 40.4631 267.351 40.5602C267.595 40.6573 267.821 40.7851 268.029 40.9437C268.238 41.1023 268.406 41.2988 268.534 41.5332C268.664 41.7676 268.729 42.0481 268.729 42.3748C268.729 42.7868 268.622 43.1525 268.409 43.4721C268.199 43.7917 267.892 44.0439 267.49 44.2285C267.09 44.4132 266.605 44.5055 266.037 44.5055C265.493 44.5055 265.022 44.4191 264.624 44.2463C264.226 44.0734 263.915 43.8284 263.69 43.5112C263.465 43.1916 263.341 42.8128 263.317 42.3748H264.418C264.439 42.6376 264.524 42.8566 264.674 43.0318C264.825 43.2046 265.018 43.3336 265.252 43.4189C265.489 43.5017 265.748 43.5431 266.03 43.5431C266.34 43.5431 266.616 43.4946 266.858 43.3975C267.101 43.2981 267.293 43.1608 267.433 42.9856C267.572 42.8081 267.642 42.6009 267.642 42.3642C267.642 42.1487 267.581 41.9724 267.458 41.835C267.337 41.6977 267.172 41.5841 266.964 41.4941C266.758 41.4042 266.525 41.3249 266.264 41.2562L265.405 41.0218C264.823 40.8632 264.361 40.63 264.02 40.3223C263.682 40.0145 263.512 39.6073 263.512 39.1007C263.512 38.6816 263.626 38.3159 263.853 38.0034C264.081 37.6909 264.388 37.4482 264.777 37.2754C265.165 37.1002 265.603 37.0126 266.09 37.0126C266.583 37.0126 267.017 37.099 267.394 37.2718C267.773 37.4447 268.071 37.6826 268.289 37.9856C268.506 38.2863 268.62 38.6319 268.63 39.0225H267.571ZM272.395 44.3848H270.04V37.112H272.469C273.182 37.112 273.794 37.2576 274.305 37.5488C274.816 37.8377 275.208 38.2531 275.481 38.7953C275.755 39.335 275.892 39.9825 275.892 40.7377C275.892 41.4953 275.754 42.1464 275.477 42.6909C275.202 43.2354 274.805 43.6544 274.284 43.948C273.763 44.2392 273.133 44.3848 272.395 44.3848ZM271.138 43.426H272.334C272.888 43.426 273.349 43.3218 273.716 43.1135C274.083 42.9028 274.357 42.5985 274.54 42.2008C274.722 41.8007 274.813 41.313 274.813 40.7377C274.813 40.1672 274.722 39.6831 274.54 39.2853C274.36 38.8876 274.091 38.5858 273.733 38.3798C273.376 38.1738 272.932 38.0708 272.402 38.0708H271.138V43.426Z" fill="black" fill-opacity="0.39"/>
<rect x="33.4548" y="85.8855" width="249.415" height="39.8308" rx="4.97594" stroke="black" stroke-opacity="0.3" stroke-width="0.585405"/>
<g clip-path="url(#clip1_16501_49543)">
<rect width="12" height="12" transform="translate(44.8701 99.8008)" fill="white"/>
<path d="M50.8701 111.801C54.1838 111.801 56.8701 109.114 56.8701 105.801C56.8701 102.487 54.1838 99.8008 50.8701 99.8008C47.5564 99.8008 44.8701 102.487 44.8701 105.801C44.8701 109.114 47.5564 111.801 50.8701 111.801Z" fill="#F0F0F0"/>
<path d="M44.8701 105.801C44.8701 108.38 46.4984 110.58 48.7832 111.427V100.174C46.4984 101.022 44.8701 103.221 44.8701 105.801Z" fill="#6DA544"/>
<path d="M56.8701 105.801C56.8701 103.221 55.2418 101.022 52.957 100.174V111.427C55.2418 110.58 56.8701 108.38 56.8701 105.801Z" fill="#6DA544"/>
</g>
<path d="M68.873 101.574V110.301H67.6627L63.2267 103.9H63.1457V110.301H61.8289V101.574H63.0477L67.488 107.983H67.569V101.574H68.873ZM70.6915 110.301V103.755H71.9656V110.301H70.6915ZM71.335 102.745C71.1134 102.745 70.923 102.672 70.7639 102.524C70.6077 102.373 70.5296 102.194 70.5296 101.987C70.5296 101.777 70.6077 101.598 70.7639 101.45C70.923 101.299 71.1134 101.224 71.335 101.224C71.5566 101.224 71.7455 101.299 71.9017 101.45C72.0608 101.598 72.1404 101.777 72.1404 101.987C72.1404 102.194 72.0608 102.373 71.9017 102.524C71.7455 102.672 71.5566 102.745 71.335 102.745ZM76.4241 112.892C75.9042 112.892 75.4568 112.824 75.0818 112.687C74.7096 112.551 74.4056 112.37 74.1698 112.146C73.934 111.922 73.7579 111.676 73.6414 111.409L74.7366 110.957C74.8133 111.082 74.9156 111.214 75.0434 111.353C75.1741 111.495 75.3502 111.616 75.5718 111.716C75.7963 111.815 76.0846 111.865 76.4369 111.865C76.9198 111.865 77.319 111.747 77.6343 111.511C77.9497 111.278 78.1073 110.906 78.1073 110.395V109.108H78.0264C77.9497 109.247 77.8389 109.402 77.694 109.572C77.5519 109.743 77.3559 109.89 77.1059 110.015C76.8559 110.14 76.5306 110.203 76.1301 110.203C75.613 110.203 75.1471 110.082 74.7323 109.841C74.3204 109.596 73.9937 109.237 73.7522 108.762C73.5136 108.285 73.3943 107.699 73.3943 107.002C73.3943 106.306 73.5122 105.71 73.748 105.213C73.9866 104.716 74.3133 104.335 74.7281 104.071C75.1428 103.804 75.613 103.67 76.1386 103.67C76.5448 103.67 76.873 103.738 77.123 103.875C77.373 104.008 77.5676 104.164 77.7068 104.343C77.8488 104.522 77.9582 104.68 78.0349 104.816H78.1286V103.755H79.3772V110.446C79.3772 111.008 79.2465 111.47 78.9852 111.831C78.7238 112.191 78.3701 112.458 77.9241 112.632C77.4809 112.805 76.9809 112.892 76.4241 112.892ZM76.4113 109.146C76.7778 109.146 77.0874 109.061 77.3403 108.89C77.596 108.717 77.7892 108.47 77.9198 108.149C78.0534 107.825 78.1201 107.437 78.1201 106.985C78.1201 106.545 78.0548 106.157 77.9241 105.822C77.7934 105.487 77.6017 105.225 77.3488 105.038C77.096 104.848 76.7835 104.752 76.4113 104.752C76.0278 104.752 75.7082 104.852 75.4525 105.051C75.1968 105.247 75.0036 105.514 74.873 105.852C74.7451 106.19 74.6812 106.568 74.6812 106.985C74.6812 107.414 74.7465 107.791 74.8772 108.115C75.0079 108.439 75.2011 108.691 75.4568 108.873C75.7153 109.055 76.0335 109.146 76.4113 109.146ZM83.907 110.433C83.2622 110.433 82.7068 110.295 82.2409 110.02C81.7778 109.741 81.4198 109.35 81.167 108.848C80.917 108.342 80.792 107.75 80.792 107.071C80.792 106.4 80.917 105.809 81.167 105.298C81.4198 104.787 81.7721 104.387 82.2238 104.1C82.6784 103.814 83.2096 103.67 83.8176 103.67C84.1869 103.67 84.5448 103.731 84.8914 103.853C85.238 103.975 85.5491 104.167 85.8247 104.429C86.1002 104.69 86.3176 105.029 86.4767 105.447C86.6357 105.862 86.7153 106.366 86.7153 106.96V107.412H81.5122V106.457H85.4667C85.4667 106.122 85.3985 105.825 85.2622 105.566C85.1258 105.305 84.934 105.099 84.6869 104.949C84.4426 104.798 84.1556 104.723 83.8261 104.723C83.4681 104.723 83.1556 104.811 82.8886 104.987C82.6244 105.16 82.4198 105.387 82.2749 105.669C82.1329 105.947 82.0619 106.25 82.0619 106.576V107.322C82.0619 107.76 82.1386 108.132 82.292 108.439C82.4482 108.745 82.6656 108.98 82.944 109.142C83.2224 109.301 83.5477 109.38 83.9198 109.38C84.1613 109.38 84.3815 109.346 84.5803 109.278C84.7792 109.207 84.9511 109.102 85.096 108.963C85.2409 108.824 85.3517 108.652 85.4284 108.447L86.6343 108.664C86.5377 109.02 86.3644 109.331 86.1144 109.598C85.8673 109.862 85.5562 110.068 85.1812 110.216C84.809 110.36 84.3843 110.433 83.907 110.433ZM88.129 110.301V103.755H89.3605V104.795H89.4287C89.548 104.443 89.7583 104.166 90.0594 103.964C90.3634 103.76 90.7071 103.657 91.0906 103.657C91.1702 103.657 91.2639 103.66 91.3719 103.666C91.4827 103.672 91.5693 103.679 91.6318 103.687V104.906C91.5807 104.892 91.4898 104.876 91.3591 104.859C91.2284 104.839 91.0977 104.829 90.9671 104.829C90.6659 104.829 90.3975 104.893 90.1617 105.021C89.9287 105.146 89.7441 105.321 89.6077 105.545C89.4713 105.767 89.4031 106.02 89.4031 106.304V110.301H88.129ZM92.7345 110.301V103.755H94.0086V110.301H92.7345ZM93.3779 102.745C93.1563 102.745 92.966 102.672 92.8069 102.524C92.6507 102.373 92.5725 102.194 92.5725 101.987C92.5725 101.777 92.6507 101.598 92.8069 101.45C92.966 101.299 93.1563 101.224 93.3779 101.224C93.5995 101.224 93.7884 101.299 93.9447 101.45C94.1038 101.598 94.1833 101.777 94.1833 101.987C94.1833 102.194 94.1038 102.373 93.9447 102.524C93.7884 102.672 93.5995 102.745 93.3779 102.745ZM97.6276 110.446C97.2128 110.446 96.8378 110.369 96.5026 110.216C96.1673 110.059 95.9017 109.833 95.7057 109.538C95.5125 109.243 95.4159 108.88 95.4159 108.451C95.4159 108.082 95.4869 107.778 95.629 107.539C95.771 107.301 95.9628 107.112 96.2043 106.973C96.4458 106.833 96.7156 106.728 97.0139 106.657C97.3122 106.586 97.6162 106.532 97.9259 106.495C98.3179 106.45 98.6361 106.413 98.8804 106.385C99.1247 106.353 99.3023 106.304 99.4131 106.235C99.5239 106.167 99.5793 106.056 99.5793 105.903V105.873C99.5793 105.501 99.4742 105.213 99.2639 105.008C99.0566 104.804 98.7469 104.701 98.335 104.701C97.906 104.701 97.5679 104.797 97.3208 104.987C97.0764 105.174 96.9074 105.383 96.8137 105.613L95.6162 105.341C95.7583 104.943 95.9656 104.622 96.2384 104.377C96.5139 104.13 96.8307 103.951 97.1887 103.841C97.5466 103.727 97.923 103.67 98.3179 103.67C98.5793 103.67 98.8563 103.701 99.1489 103.764C99.4443 103.824 99.7199 103.934 99.9756 104.096C100.234 104.258 100.446 104.49 100.611 104.791C100.775 105.089 100.858 105.477 100.858 105.954V110.301H99.6134V109.406H99.5622C99.4798 109.571 99.3563 109.733 99.1915 109.892C99.0267 110.051 98.8151 110.183 98.5566 110.288C98.298 110.393 97.9884 110.446 97.6276 110.446ZM97.9046 109.423C98.2568 109.423 98.558 109.353 98.808 109.214C99.0608 109.075 99.2526 108.893 99.3833 108.669C99.5168 108.441 99.5835 108.199 99.5835 107.94V107.096C99.5381 107.142 99.45 107.184 99.3193 107.224C99.1915 107.261 99.0452 107.294 98.8804 107.322C98.7156 107.348 98.5551 107.372 98.3989 107.395C98.2426 107.414 98.1119 107.431 98.0068 107.446C97.7597 107.477 97.5338 107.529 97.3293 107.603C97.1276 107.677 96.9656 107.784 96.8435 107.923C96.7242 108.059 96.6645 108.241 96.6645 108.468C96.6645 108.784 96.781 109.022 97.0139 109.184C97.2469 109.343 97.5438 109.423 97.9046 109.423Z" fill="black"/>
<path d="M156.162 102.593L162.016 109.032L167.87 102.593H156.162Z" fill="black"/>
<path d="M185.73 101.083V111.301H184.183V102.629H184.123L181.678 104.226V102.749L184.228 101.083H185.73ZM192.051 111.47C191.263 111.467 190.589 111.259 190.03 110.847C189.472 110.434 189.044 109.834 188.748 109.046C188.452 108.257 188.304 107.308 188.304 106.197C188.304 105.089 188.452 104.143 188.748 103.358C189.047 102.573 189.477 101.974 190.035 101.562C190.597 101.149 191.269 100.943 192.051 100.943C192.833 100.943 193.503 101.151 194.062 101.567C194.62 101.979 195.048 102.578 195.344 103.363C195.643 104.145 195.793 105.089 195.793 106.197C195.793 107.311 195.645 108.262 195.349 109.051C195.053 109.836 194.625 110.436 194.067 110.852C193.508 111.264 192.836 111.47 192.051 111.47ZM192.051 110.138C192.743 110.138 193.283 109.801 193.673 109.125C194.065 108.45 194.261 107.474 194.261 106.197C194.261 105.349 194.171 104.632 193.992 104.046C193.816 103.458 193.561 103.012 193.228 102.709C192.899 102.403 192.507 102.25 192.051 102.25C191.363 102.25 190.822 102.59 190.43 103.268C190.037 103.947 189.839 104.923 189.836 106.197C189.836 107.048 189.924 107.768 190.1 108.357C190.28 108.943 190.534 109.387 190.864 109.689C191.193 109.989 191.589 110.138 192.051 110.138ZM199.153 109.904L199.078 110.448C199.028 110.847 198.944 111.263 198.824 111.695C198.708 112.131 198.586 112.535 198.46 112.907C198.337 113.28 198.235 113.576 198.155 113.795H197.098C197.141 113.589 197.201 113.31 197.277 112.957C197.354 112.608 197.429 112.217 197.502 111.785C197.575 111.352 197.63 110.912 197.666 110.463L197.716 109.904H199.153ZM204.427 111.47C203.639 111.467 202.965 111.259 202.406 110.847C201.847 110.434 201.42 109.834 201.124 109.046C200.828 108.257 200.68 107.308 200.68 106.197C200.68 105.089 200.828 104.143 201.124 103.358C201.423 102.573 201.852 101.974 202.411 101.562C202.973 101.149 203.645 100.943 204.427 100.943C205.208 100.943 205.879 101.151 206.438 101.567C206.996 101.979 207.424 102.578 207.72 103.363C208.019 104.145 208.169 105.089 208.169 106.197C208.169 107.311 208.021 108.262 207.725 109.051C207.429 109.836 207.001 110.436 206.443 110.852C205.884 111.264 205.212 111.47 204.427 111.47ZM204.427 110.138C205.119 110.138 205.659 109.801 206.048 109.125C206.441 108.45 206.637 107.474 206.637 106.197C206.637 105.349 206.547 104.632 206.368 104.046C206.191 103.458 205.937 103.012 205.604 102.709C205.275 102.403 204.883 102.25 204.427 102.25C203.738 102.25 203.198 102.59 202.805 103.268C202.413 103.947 202.215 104.923 202.212 106.197C202.212 107.048 202.3 107.768 202.476 108.357C202.656 108.943 202.91 109.387 203.239 109.689C203.569 109.989 203.965 110.138 204.427 110.138ZM213.496 111.47C212.708 111.467 212.034 111.259 211.475 110.847C210.917 110.434 210.489 109.834 210.193 109.046C209.897 108.257 209.749 107.308 209.749 106.197C209.749 105.089 209.897 104.143 210.193 103.358C210.493 102.573 210.922 101.974 211.48 101.562C212.043 101.149 212.714 100.943 213.496 100.943C214.278 100.943 214.948 101.151 215.507 101.567C216.066 101.979 216.493 102.578 216.789 103.363C217.088 104.145 217.238 105.089 217.238 106.197C217.238 107.311 217.09 108.262 216.794 109.051C216.498 109.836 216.071 110.436 215.512 110.852C214.953 111.264 214.281 111.47 213.496 111.47ZM213.496 110.138C214.188 110.138 214.728 109.801 215.118 109.125C215.51 108.45 215.706 107.474 215.706 106.197C215.706 105.349 215.616 104.632 215.437 104.046C215.261 103.458 215.006 103.012 214.674 102.709C214.344 102.403 213.952 102.25 213.496 102.25C212.808 102.25 212.267 102.59 211.875 103.268C211.482 103.947 211.284 104.923 211.281 106.197C211.281 107.048 211.369 107.768 211.545 108.357C211.725 108.943 211.979 109.387 212.309 109.689C212.638 109.989 213.034 110.138 213.496 110.138ZM222.565 111.47C221.777 111.467 221.103 111.259 220.545 110.847C219.986 110.434 219.558 109.834 219.262 109.046C218.966 108.257 218.818 107.308 218.818 106.197C218.818 105.089 218.966 104.143 219.262 103.358C219.562 102.573 219.991 101.974 220.55 101.562C221.112 101.149 221.784 100.943 222.565 100.943C223.347 100.943 224.017 101.151 224.576 101.567C225.135 101.979 225.562 102.578 225.858 103.363C226.158 104.145 226.307 105.089 226.307 106.197C226.307 107.311 226.159 108.262 225.863 109.051C225.567 109.836 225.14 110.436 224.581 110.852C224.022 111.264 223.35 111.47 222.565 111.47ZM222.565 110.138C223.257 110.138 223.798 109.801 224.187 109.125C224.579 108.45 224.775 107.474 224.775 106.197C224.775 105.349 224.686 104.632 224.506 104.046C224.33 103.458 224.075 103.012 223.743 102.709C223.413 102.403 223.021 102.25 222.565 102.25C221.877 102.25 221.336 102.59 220.944 103.268C220.551 103.947 220.353 104.923 220.35 106.197C220.35 107.048 220.438 107.768 220.614 108.357C220.794 108.943 221.049 109.387 221.378 109.689C221.707 109.989 222.103 110.138 222.565 110.138ZM228.71 111.396C228.437 111.396 228.202 111.299 228.006 111.106C227.81 110.91 227.712 110.674 227.712 110.398C227.712 110.125 227.81 109.892 228.006 109.699C228.202 109.503 228.437 109.405 228.71 109.405C228.982 109.405 229.217 109.503 229.413 109.699C229.609 109.892 229.707 110.125 229.707 110.398C229.707 110.581 229.661 110.749 229.568 110.902C229.478 111.051 229.358 111.171 229.208 111.261C229.059 111.351 228.892 111.396 228.71 111.396ZM234.872 111.47C234.084 111.467 233.411 111.259 232.852 110.847C232.293 110.434 231.866 109.834 231.57 109.046C231.274 108.257 231.126 107.308 231.126 106.197C231.126 105.089 231.274 104.143 231.57 103.358C231.869 102.573 232.298 101.974 232.857 101.562C233.419 101.149 234.091 100.943 234.872 100.943C235.654 100.943 236.324 101.151 236.883 101.567C237.442 101.979 237.869 102.578 238.165 103.363C238.465 104.145 238.614 105.089 238.614 106.197C238.614 107.311 238.466 108.262 238.17 109.051C237.874 109.836 237.447 110.436 236.888 110.852C236.329 111.264 235.657 111.47 234.872 111.47ZM234.872 110.138C235.564 110.138 236.105 109.801 236.494 109.125C236.886 108.45 237.083 107.474 237.083 106.197C237.083 105.349 236.993 104.632 236.813 104.046C236.637 103.458 236.383 103.012 236.05 102.709C235.721 102.403 235.328 102.25 234.872 102.25C234.184 102.25 233.643 102.59 233.251 103.268C232.858 103.947 232.661 104.923 232.657 106.197C232.657 107.048 232.745 107.768 232.922 108.357C233.101 108.943 233.356 109.387 233.685 109.689C234.014 109.989 234.41 110.138 234.872 110.138ZM243.942 111.47C243.153 111.467 242.48 111.259 241.921 110.847C241.362 110.434 240.935 109.834 240.639 109.046C240.343 108.257 240.195 107.308 240.195 106.197C240.195 105.089 240.343 104.143 240.639 103.358C240.938 102.573 241.367 101.974 241.926 101.562C242.488 101.149 243.16 100.943 243.942 100.943C244.723 100.943 245.394 101.151 245.952 101.567C246.511 101.979 246.939 102.578 247.235 103.363C247.534 104.145 247.684 105.089 247.684 106.197C247.684 107.311 247.536 108.262 247.24 109.051C246.944 109.836 246.516 110.436 245.957 110.852C245.399 111.264 244.727 111.47 243.942 111.47ZM243.942 110.138C244.634 110.138 245.174 109.801 245.563 109.125C245.956 108.45 246.152 107.474 246.152 106.197C246.152 105.349 246.062 104.632 245.883 104.046C245.706 103.458 245.452 103.012 245.119 102.709C244.79 102.403 244.397 102.25 243.942 102.25C243.253 102.25 242.713 102.59 242.32 103.268C241.928 103.947 241.73 104.923 241.726 106.197C241.726 107.048 241.815 107.768 241.991 108.357C242.171 108.943 242.425 109.387 242.754 109.689C243.084 109.989 243.479 110.138 243.942 110.138Z" fill="black"/>
<path d="M261.394 102.528V109.801H260.385L256.688 104.467H256.621V109.801H255.524V102.528H256.539L260.24 107.869H260.307V102.528H261.394ZM267.916 104.826C267.848 104.61 267.755 104.417 267.639 104.247C267.526 104.074 267.389 103.927 267.231 103.806C267.072 103.683 266.891 103.59 266.688 103.526C266.486 103.462 266.265 103.43 266.023 103.43C265.614 103.43 265.245 103.535 264.915 103.746C264.586 103.957 264.326 104.266 264.134 104.673C263.945 105.078 263.85 105.574 263.85 106.161C263.85 106.75 263.946 107.249 264.138 107.656C264.33 108.063 264.592 108.372 264.926 108.583C265.26 108.793 265.64 108.899 266.066 108.899C266.461 108.899 266.806 108.818 267.099 108.657C267.395 108.496 267.624 108.269 267.785 107.975C267.948 107.68 268.03 107.332 268.03 106.931L268.314 106.985H266.233V106.079H269.092V106.907C269.092 107.517 268.961 108.048 268.701 108.498C268.443 108.945 268.085 109.291 267.629 109.534C267.174 109.778 266.653 109.9 266.066 109.9C265.408 109.9 264.83 109.749 264.333 109.446C263.838 109.143 263.452 108.713 263.175 108.157C262.898 107.598 262.76 106.935 262.76 106.168C262.76 105.588 262.84 105.067 263.001 104.605C263.162 104.144 263.388 103.752 263.68 103.43C263.973 103.106 264.318 102.858 264.713 102.688C265.111 102.515 265.545 102.429 266.016 102.429C266.409 102.429 266.775 102.487 267.114 102.603C267.455 102.719 267.758 102.883 268.023 103.096C268.29 103.309 268.512 103.563 268.687 103.856C268.862 104.147 268.98 104.471 269.042 104.826H267.916ZM276.355 102.528V109.801H275.346L271.649 104.467H271.582V109.801H270.485V102.528H271.5L275.2 107.869H275.268V102.528H276.355Z" fill="black" fill-opacity="0.39"/>
<path d="M38.1795 148.754V153.863H37.5608V149.402H37.5309L36.2836 150.231V149.602L37.5608 148.754H38.1795ZM45.0671 148.754H45.6858V152.137C45.6858 152.486 45.6035 152.798 45.4388 153.072C45.2759 153.345 45.0455 153.56 44.7478 153.718C44.4501 153.874 44.1009 153.953 43.7001 153.953C43.2993 153.953 42.95 153.874 42.6523 153.718C42.3546 153.56 42.1235 153.345 41.9588 153.072C41.7959 152.798 41.7144 152.486 41.7144 152.137V148.754H42.333V152.087C42.333 152.336 42.3879 152.558 42.4977 152.753C42.6074 152.946 42.7638 153.098 42.9667 153.209C43.1712 153.319 43.4157 153.374 43.7001 153.374C43.9845 153.374 44.2289 153.319 44.4335 153.209C44.6381 153.098 44.7944 152.946 44.9025 152.753C45.0123 152.558 45.0671 152.336 45.0671 152.087V148.754ZM49.7152 150.031C49.6853 149.778 49.5639 149.582 49.351 149.442C49.1382 149.303 48.8771 149.233 48.5677 149.233C48.3415 149.233 48.1436 149.269 47.974 149.343C47.806 149.416 47.6746 149.516 47.5798 149.644C47.4867 149.772 47.4401 149.918 47.4401 150.081C47.4401 150.217 47.4726 150.335 47.5374 150.433C47.604 150.529 47.6888 150.61 47.7919 150.675C47.895 150.738 48.0031 150.79 48.1162 150.832C48.2293 150.872 48.3332 150.904 48.428 150.929L48.9469 151.069C49.0799 151.104 49.228 151.152 49.3909 151.214C49.5556 151.275 49.7127 151.359 49.8624 151.465C50.0138 151.57 50.1385 151.705 50.2366 151.87C50.3347 152.034 50.3838 152.236 50.3838 152.476C50.3838 152.752 50.3115 153.001 50.1668 153.224C50.0237 153.447 49.8142 153.624 49.5381 153.756C49.2637 153.887 48.9303 153.953 48.5378 153.953C48.1719 153.953 47.8551 153.894 47.5873 153.775C47.3212 153.657 47.1117 153.493 46.9587 153.282C46.8073 153.07 46.7217 152.825 46.7017 152.546H47.3404C47.357 152.739 47.4219 152.898 47.5349 153.025C47.6497 153.149 47.7944 153.242 47.969 153.304C48.1453 153.364 48.3349 153.394 48.5378 153.394C48.7739 153.394 48.986 153.356 49.1739 153.279C49.3618 153.201 49.5107 153.093 49.6204 152.955C49.7302 152.815 49.7851 152.652 49.7851 152.466C49.7851 152.296 49.7377 152.158 49.6429 152.052C49.5481 151.945 49.4234 151.859 49.2687 151.792C49.114 151.726 48.9469 151.668 48.7673 151.618L48.1386 151.438C47.7395 151.323 47.4235 151.159 47.1907 150.947C46.9579 150.734 46.8414 150.455 46.8414 150.111C46.8414 149.825 46.9188 149.575 47.0734 149.362C47.2298 149.148 47.4393 148.982 47.7021 148.864C47.9665 148.744 48.2617 148.684 48.5877 148.684C48.917 148.684 49.2097 148.743 49.4658 148.861C49.7219 148.977 49.9248 149.137 50.0745 149.34C50.2258 149.543 50.3056 149.773 50.314 150.031H49.7152ZM52.9776 153.863H51.401V148.754H53.0474C53.543 148.754 53.9671 148.856 54.3197 149.061C54.6723 149.264 54.9425 149.555 55.1304 149.936C55.3184 150.315 55.4123 150.769 55.4123 151.298C55.4123 151.831 55.3175 152.289 55.128 152.673C54.9384 153.055 54.6623 153.35 54.2997 153.556C53.9372 153.761 53.4965 153.863 52.9776 153.863ZM52.0197 153.314H52.9377C53.3601 153.314 53.7102 153.232 53.9879 153.07C54.2656 152.907 54.4727 152.675 54.6091 152.374C54.7454 152.072 54.8136 151.714 54.8136 151.298C54.8136 150.886 54.7463 150.531 54.6116 150.233C54.4769 149.934 54.2756 149.704 54.0079 149.545C53.7401 149.383 53.4067 149.303 53.0075 149.303H52.0197V153.314ZM58.5855 150.839V150.3H61.6589V150.839H58.5855ZM58.5855 152.316V151.777H61.6589V152.316H58.5855ZM65.1021 153.863L67.3872 149.343V149.303H64.7528V148.754H68.0258V149.333L65.7507 153.863H65.1021ZM70.4836 153.933C70.1909 153.933 69.9273 153.874 69.6928 153.758C69.4583 153.642 69.2704 153.482 69.129 153.279C68.9877 153.076 68.9103 152.845 68.897 152.586H69.4957C69.519 152.817 69.6238 153.008 69.8101 153.159C69.998 153.309 70.2225 153.384 70.4836 153.384C70.6932 153.384 70.8794 153.335 71.0424 153.237C71.207 153.139 71.3359 153.004 71.4291 152.833C71.5239 152.66 71.5713 152.464 71.5713 152.246C71.5713 152.023 71.5222 151.825 71.4241 151.65C71.3276 151.474 71.1946 151.335 71.0249 151.233C70.8553 151.132 70.6616 151.08 70.4437 151.079C70.2874 151.077 70.1269 151.101 69.9622 151.151C69.7976 151.199 69.662 151.262 69.5556 151.338L68.9769 151.268L69.2862 148.754H71.9405V149.303H69.8051L69.6255 150.809H69.6554C69.7602 150.726 69.8916 150.657 70.0495 150.602C70.2075 150.547 70.3722 150.52 70.5435 150.52C70.8561 150.52 71.1347 150.595 71.3792 150.745C71.6253 150.893 71.8182 151.095 71.9579 151.353C72.0993 151.611 72.17 151.905 72.17 152.236C72.17 152.562 72.0968 152.853 71.9504 153.109C71.8058 153.364 71.6062 153.565 71.3517 153.713C71.0973 153.859 70.8079 153.933 70.4836 153.933ZM74.8274 153.933C74.4515 153.933 74.1314 153.83 73.8669 153.626C73.6025 153.42 73.4004 153.121 73.2607 152.73C73.121 152.338 73.0512 151.864 73.0512 151.308C73.0512 150.756 73.121 150.285 73.2607 149.894C73.4021 149.501 73.605 149.202 73.8694 148.996C74.1355 148.788 74.4548 148.684 74.8274 148.684C75.1999 148.684 75.5184 148.788 75.7828 148.996C76.0489 149.202 76.2518 149.501 76.3915 149.894C76.5329 150.285 76.6035 150.756 76.6035 151.308C76.6035 151.864 76.5337 152.338 76.394 152.73C76.2543 153.121 76.0522 153.42 75.7878 153.626C75.5234 153.83 75.2032 153.933 74.8274 153.933ZM74.8274 153.384C75.1999 153.384 75.4893 153.204 75.6955 152.845C75.9017 152.486 76.0048 151.974 76.0048 151.308C76.0048 150.866 75.9574 150.489 75.8626 150.178C75.7695 149.867 75.6348 149.63 75.4585 149.467C75.2839 149.304 75.0735 149.223 74.8274 149.223C74.4582 149.223 74.1696 149.405 73.9617 149.769C73.7539 150.132 73.6499 150.645 73.6499 151.308C73.6499 151.751 73.6965 152.127 73.7896 152.436C73.8827 152.745 74.0166 152.981 74.1912 153.142C74.3675 153.303 74.5796 153.384 74.8274 153.384ZM83.6683 148.754V153.863H83.0696L80.2856 149.851H80.2357V153.863H79.617V148.754H80.2158L83.0097 152.775H83.0596V148.754H83.6683ZM88.3987 150.35C88.3439 150.182 88.2715 150.032 88.1817 149.899C88.0936 149.764 87.988 149.649 87.8649 149.555C87.7435 149.46 87.6055 149.387 87.4508 149.338C87.2961 149.288 87.1265 149.263 86.9419 149.263C86.6392 149.263 86.364 149.341 86.1162 149.497C85.8684 149.654 85.6713 149.884 85.5249 150.188C85.3786 150.493 85.3054 150.866 85.3054 151.308C85.3054 151.751 85.3794 152.124 85.5274 152.428C85.6755 152.733 85.8759 152.963 86.1286 153.119C86.3814 153.276 86.6658 153.354 86.9818 153.354C87.2745 153.354 87.5323 153.292 87.7551 153.167C87.9797 153.04 88.1543 152.862 88.279 152.633C88.4054 152.402 88.4686 152.13 88.4686 151.817L88.6582 151.857H87.1215V151.308H89.0673V151.857C89.0673 152.278 88.9775 152.644 88.7979 152.955C88.6199 153.266 88.3738 153.507 88.0595 153.678C87.7468 153.848 87.3876 153.933 86.9818 153.933C86.5294 153.933 86.132 153.826 85.7894 153.613C85.4484 153.4 85.1823 153.098 84.9911 152.705C84.8015 152.313 84.7067 151.847 84.7067 151.308C84.7067 150.904 84.7608 150.541 84.8689 150.218C84.9786 149.894 85.1333 149.618 85.3329 149.39C85.5324 149.162 85.7686 148.987 86.0413 148.866C86.3141 148.745 86.6143 148.684 86.9419 148.684C87.2113 148.684 87.4624 148.725 87.6953 148.806C87.9298 148.886 88.1385 149 88.3214 149.148C88.506 149.294 88.6599 149.47 88.7829 149.674C88.906 149.877 88.9908 150.103 89.0374 150.35H88.3987ZM94.1782 148.754V153.863H93.5795L90.7955 149.851H90.7456V153.863H90.1269V148.754H90.7256L93.5196 152.775H93.5695V148.754H94.1782Z" fill="black"/>
<path d="M118.181 153.863V148.754H119.907C120.308 148.754 120.636 148.826 120.89 148.971C121.146 149.114 121.336 149.308 121.459 149.552C121.582 149.797 121.644 150.069 121.644 150.37C121.644 150.671 121.582 150.945 121.459 151.191C121.338 151.437 121.15 151.633 120.895 151.78C120.641 151.924 120.315 151.997 119.917 151.997H118.68V151.448H119.897C120.172 151.448 120.392 151.401 120.559 151.306C120.725 151.211 120.845 151.083 120.92 150.922C120.997 150.759 121.035 150.575 121.035 150.37C121.035 150.166 120.997 149.983 120.92 149.822C120.845 149.66 120.724 149.534 120.556 149.442C120.388 149.349 120.165 149.303 119.887 149.303H118.8V153.863H118.181ZM122.328 153.863H121.68L123.556 148.754H124.194L126.07 153.863H125.422L123.895 149.562H123.855L122.328 153.863ZM122.568 151.867H125.182V152.416H122.568V151.867ZM125.906 148.754H126.614L128.031 151.139H128.091L129.508 148.754H130.216L128.37 151.757V153.863H127.752V151.757L125.906 148.754ZM131.017 148.754H131.755L133.491 152.995H133.551L135.287 148.754H136.026V153.863H135.447V149.981H135.397L133.801 153.863H133.242L131.645 149.981H131.595V153.863H131.017V148.754ZM137.266 153.863V148.754H140.35V149.303H137.885V151.029H140.19V151.578H137.885V153.314H140.39V153.863H137.266ZM145.516 148.754V153.863H144.917L142.133 149.851H142.083V153.863H141.465V148.754H142.063L144.857 152.775H144.907V148.754H145.516ZM146.475 149.303V148.754H150.306V149.303H148.7V153.863H148.081V149.303H146.475ZM153.237 153.863V148.754H156.3V149.303H153.856V151.029H156.071V151.578H153.856V153.863H153.237ZM157.36 153.863V148.754H160.443V149.303H157.979V151.029H160.284V151.578H157.979V153.314H160.483V153.863H157.36ZM161.558 153.863V148.754H164.642V149.303H162.177V151.029H164.482V151.578H162.177V153.314H164.682V153.863H161.558ZM168.082 153.209C167.959 153.209 167.853 153.165 167.765 153.077C167.677 152.989 167.633 152.883 167.633 152.76C167.633 152.637 167.677 152.531 167.765 152.443C167.853 152.355 167.959 152.311 168.082 152.311C168.205 152.311 168.31 152.355 168.399 152.443C168.487 152.531 168.531 152.637 168.531 152.76C168.531 152.842 168.51 152.916 168.468 152.985C168.428 153.053 168.374 153.108 168.306 153.149C168.24 153.189 168.165 153.209 168.082 153.209ZM168.082 150.625C167.959 150.625 167.853 150.581 167.765 150.493C167.677 150.404 167.633 150.299 167.633 150.176C167.633 150.053 167.677 149.947 167.765 149.859C167.853 149.771 167.959 149.727 168.082 149.727C168.205 149.727 168.31 149.771 168.399 149.859C168.487 149.947 168.531 150.053 168.531 150.176C168.531 150.257 168.51 150.332 168.468 150.4C168.428 150.468 168.374 150.523 168.306 150.565C168.24 150.605 168.165 150.625 168.082 150.625ZM173.219 153.933C172.844 153.933 172.523 153.83 172.259 153.626C171.995 153.42 171.792 153.121 171.653 152.73C171.513 152.338 171.443 151.864 171.443 151.308C171.443 150.756 171.513 150.285 171.653 149.894C171.794 149.501 171.997 149.202 172.261 148.996C172.528 148.788 172.847 148.684 173.219 148.684C173.592 148.684 173.91 148.788 174.175 148.996C174.441 149.202 174.644 149.501 174.784 149.894C174.925 150.285 174.996 150.756 174.996 151.308C174.996 151.864 174.926 152.338 174.786 152.73C174.646 153.121 174.444 153.42 174.18 153.626C173.915 153.83 173.595 153.933 173.219 153.933ZM173.219 153.384C173.592 153.384 173.881 153.204 174.088 152.845C174.294 152.486 174.397 151.974 174.397 151.308C174.397 150.866 174.349 150.489 174.255 150.178C174.162 149.867 174.027 149.63 173.851 149.467C173.676 149.304 173.466 149.223 173.219 149.223C172.85 149.223 172.562 149.405 172.354 149.769C172.146 150.132 172.042 150.645 172.042 151.308C172.042 151.751 172.089 152.127 172.182 152.436C172.275 152.745 172.409 152.981 172.583 153.142C172.76 153.303 172.972 153.384 173.219 153.384ZM176.204 153.903C176.081 153.903 175.976 153.859 175.887 153.77C175.799 153.682 175.755 153.577 175.755 153.454C175.755 153.331 175.799 153.225 175.887 153.137C175.976 153.049 176.081 153.005 176.204 153.005C176.327 153.005 176.433 153.049 176.521 153.137C176.609 153.225 176.653 153.331 176.653 153.454C176.653 153.535 176.632 153.61 176.591 153.678C176.551 153.746 176.497 153.801 176.429 153.843C176.362 153.883 176.287 153.903 176.204 153.903ZM179.188 153.933C178.812 153.933 178.492 153.83 178.227 153.626C177.963 153.42 177.761 153.121 177.621 152.73C177.481 152.338 177.412 151.864 177.412 151.308C177.412 150.756 177.481 150.285 177.621 149.894C177.763 149.501 177.965 149.202 178.23 148.996C178.496 148.788 178.815 148.684 179.188 148.684C179.56 148.684 179.879 148.788 180.143 148.996C180.409 149.202 180.612 149.501 180.752 149.894C180.893 150.285 180.964 150.756 180.964 151.308C180.964 151.864 180.894 152.338 180.754 152.73C180.615 153.121 180.413 153.42 180.148 153.626C179.884 153.83 179.564 153.933 179.188 153.933ZM179.188 153.384C179.56 153.384 179.85 153.204 180.056 152.845C180.262 152.486 180.365 151.974 180.365 151.308C180.365 150.866 180.318 150.489 180.223 150.178C180.13 149.867 179.995 149.63 179.819 149.467C179.644 149.304 179.434 149.223 179.188 149.223C178.819 149.223 178.53 149.405 178.322 149.769C178.114 150.132 178.01 150.645 178.01 151.308C178.01 151.751 178.057 152.127 178.15 152.436C178.243 152.745 178.377 152.981 178.552 153.142C178.728 153.303 178.94 153.384 179.188 153.384ZM183.578 153.933C183.202 153.933 182.882 153.83 182.618 153.626C182.353 153.42 182.151 153.121 182.012 152.73C181.872 152.338 181.802 151.864 181.802 151.308C181.802 150.756 181.872 150.285 182.012 149.894C182.153 149.501 182.356 149.202 182.62 148.996C182.887 148.788 183.206 148.684 183.578 148.684C183.951 148.684 184.269 148.788 184.534 148.996C184.8 149.202 185.003 149.501 185.142 149.894C185.284 150.285 185.355 150.756 185.355 151.308C185.355 151.864 185.285 152.338 185.145 152.73C185.005 153.121 184.803 153.42 184.539 153.626C184.274 153.83 183.954 153.933 183.578 153.933ZM183.578 153.384C183.951 153.384 184.24 153.204 184.446 152.845C184.653 152.486 184.756 151.974 184.756 151.308C184.756 150.866 184.708 150.489 184.614 150.178C184.52 149.867 184.386 149.63 184.209 149.467C184.035 149.304 183.824 149.223 183.578 149.223C183.209 149.223 182.921 149.405 182.713 149.769C182.505 150.132 182.401 150.645 182.401 151.308C182.401 151.751 182.447 152.127 182.541 152.436C182.634 152.745 182.768 152.981 182.942 153.142C183.119 153.303 183.331 153.384 183.578 153.384Z" fill="black"/>
<path d="M214.184 150.759C214.184 154.107 211.868 157.237 208.755 157.997C205.643 157.237 203.327 154.107 203.327 150.759V147.141L208.755 144.728L214.184 147.141V150.759ZM208.755 156.791C211.017 156.188 212.977 153.498 212.977 150.892V147.925L208.755 146.043L204.533 147.925V150.892C204.533 153.498 206.494 156.188 208.755 156.791ZM207.549 154.378L205.137 151.966L205.987 151.115L207.549 152.671L211.524 148.697L212.374 149.553" fill="black"/>
<path d="M223.434 150.35C223.38 150.182 223.307 150.032 223.217 149.899C223.129 149.764 223.024 149.649 222.901 149.555C222.779 149.46 222.641 149.387 222.486 149.338C222.332 149.288 222.162 149.263 221.978 149.263C221.675 149.263 221.4 149.341 221.152 149.497C220.904 149.654 220.707 149.884 220.561 150.188C220.414 150.493 220.341 150.866 220.341 151.308C220.341 151.751 220.415 152.124 220.563 152.428C220.711 152.733 220.911 152.963 221.164 153.119C221.417 153.276 221.701 153.354 222.017 153.354C222.31 153.354 222.568 153.292 222.791 153.167C223.015 153.04 223.19 152.862 223.315 152.633C223.441 152.402 223.504 152.13 223.504 151.817L223.694 151.857H222.157V151.308H224.103V151.857C224.103 152.278 224.013 152.644 223.834 152.955C223.656 153.266 223.409 153.507 223.095 153.678C222.782 153.848 222.423 153.933 222.017 153.933C221.565 153.933 221.168 153.826 220.825 153.613C220.484 153.4 220.218 153.098 220.027 152.705C219.837 152.313 219.742 151.847 219.742 151.308C219.742 150.904 219.796 150.541 219.904 150.218C220.014 149.894 220.169 149.618 220.368 149.39C220.568 149.162 220.804 148.987 221.077 148.866C221.35 148.745 221.65 148.684 221.978 148.684C222.247 148.684 222.498 148.725 222.731 148.806C222.965 148.886 223.174 149 223.357 149.148C223.542 149.294 223.695 149.47 223.819 149.674C223.942 149.877 224.026 150.103 224.073 150.35H223.434ZM225.163 153.863V148.754H226.889C227.288 148.754 227.616 148.822 227.872 148.958C228.128 149.093 228.317 149.279 228.44 149.515C228.564 149.751 228.625 150.019 228.625 150.32C228.625 150.621 228.564 150.888 228.44 151.121C228.317 151.354 228.129 151.537 227.874 151.67C227.62 151.801 227.295 151.867 226.899 151.867H225.502V151.308H226.879C227.152 151.308 227.371 151.268 227.537 151.189C227.705 151.109 227.827 150.996 227.902 150.849C227.978 150.701 228.016 150.525 228.016 150.32C228.016 150.116 227.978 149.937 227.902 149.784C227.825 149.631 227.703 149.513 227.535 149.43C227.367 149.345 227.145 149.303 226.869 149.303H225.781V153.863H225.163ZM227.567 151.568L228.825 153.863H228.106L226.869 151.568H227.567ZM229.866 153.863H229.217L231.093 148.754H231.731L233.607 153.863H232.959L231.432 149.562H231.392L229.866 153.863ZM230.105 151.867H232.719V152.416H230.105V151.867ZM238.455 148.754V153.863H237.856L235.072 149.851H235.022V153.863H234.403V148.754H235.002L237.796 152.775H237.846V148.754H238.455ZM239.413 149.303V148.754H243.245V149.303H241.638V153.863H241.02V149.303H239.413ZM244.2 153.863V148.754H247.283V149.303H244.818V151.029H247.123V151.578H244.818V153.314H247.323V153.863H244.2ZM249.975 153.863H248.398V148.754H250.045C250.54 148.754 250.964 148.856 251.317 149.061C251.669 149.264 251.94 149.555 252.128 149.936C252.315 150.315 252.409 150.769 252.409 151.298C252.409 151.831 252.315 152.289 252.125 152.673C251.935 153.055 251.659 153.35 251.297 153.556C250.934 153.761 250.494 153.863 249.975 153.863ZM249.017 153.314H249.935C250.357 153.314 250.707 153.232 250.985 153.07C251.263 152.907 251.47 152.675 251.606 152.374C251.743 152.072 251.811 151.714 251.811 151.298C251.811 150.886 251.743 150.531 251.609 150.233C251.474 149.934 251.273 149.704 251.005 149.545C250.737 149.383 250.404 149.303 250.005 149.303H249.017V153.314ZM255.632 153.863H254.984L256.86 148.754H257.498L259.374 153.863H258.726L257.199 149.562H257.159L255.632 153.863ZM255.872 151.867H258.486V152.416H255.872V151.867ZM260.17 148.754H260.909L262.645 152.995H262.705L264.441 148.754H265.179V153.863H264.601V149.981H264.551L262.954 153.863H262.395L260.799 149.981H260.749V153.863H260.17V148.754ZM270.731 151.308C270.731 151.847 270.633 152.313 270.439 152.705C270.244 153.098 269.977 153.4 269.638 153.613C269.299 153.826 268.911 153.933 268.475 153.933C268.04 153.933 267.652 153.826 267.313 153.613C266.974 153.4 266.707 153.098 266.512 152.705C266.318 152.313 266.22 151.847 266.22 151.308C266.22 150.769 266.318 150.304 266.512 149.911C266.707 149.519 266.974 149.216 267.313 149.003C267.652 148.79 268.04 148.684 268.475 148.684C268.911 148.684 269.299 148.79 269.638 149.003C269.977 149.216 270.244 149.519 270.439 149.911C270.633 150.304 270.731 150.769 270.731 151.308ZM270.132 151.308C270.132 150.866 270.058 150.493 269.91 150.188C269.763 149.884 269.565 149.654 269.314 149.497C269.064 149.341 268.785 149.263 268.475 149.263C268.166 149.263 267.886 149.341 267.635 149.497C267.385 149.654 267.187 149.884 267.039 150.188C266.892 150.493 266.819 150.866 266.819 151.308C266.819 151.751 266.892 152.124 267.039 152.428C267.187 152.733 267.385 152.963 267.635 153.119C267.886 153.276 268.166 153.354 268.475 153.354C268.785 153.354 269.064 153.276 269.314 153.119C269.565 152.963 269.763 152.733 269.91 152.428C270.058 152.124 270.132 151.751 270.132 151.308ZM275.124 148.754H275.742V152.137C275.742 152.486 275.66 152.798 275.495 153.072C275.332 153.345 275.102 153.56 274.804 153.718C274.507 153.874 274.157 153.953 273.757 153.953C273.356 153.953 273.007 153.874 272.709 153.718C272.411 153.56 272.18 153.345 272.015 153.072C271.852 152.798 271.771 152.486 271.771 152.137V148.754H272.389V152.087C272.389 152.336 272.444 152.558 272.554 152.753C272.664 152.946 272.82 153.098 273.023 153.209C273.228 153.319 273.472 153.374 273.757 153.374C274.041 153.374 274.285 153.319 274.49 153.209C274.695 153.098 274.851 152.946 274.959 152.753C275.069 152.558 275.124 152.336 275.124 152.087V148.754ZM281.029 148.754V153.863H280.43L277.646 149.851H277.596V153.863H276.978V148.754H277.576L280.37 152.775H280.42V148.754H281.029ZM281.988 149.303V148.754H285.819V149.303H284.213V153.863H283.594V149.303H281.988Z" fill="black"/>
<path d="M33.8794 196.717V189.445H36.6067C37.1654 189.445 37.6342 189.549 38.013 189.757C38.3941 189.965 38.6818 190.252 38.8759 190.616C39.0724 190.979 39.1706 191.391 39.1706 191.852C39.1706 192.319 39.0724 192.733 38.8759 193.095C38.6794 193.457 38.3894 193.743 38.0059 193.951C37.6223 194.157 37.15 194.26 36.589 194.26H34.7814V193.177H36.4114C36.7381 193.177 37.0056 193.12 37.214 193.006C37.4223 192.893 37.5762 192.736 37.6756 192.538C37.7774 192.339 37.8283 192.11 37.8283 191.852C37.8283 191.594 37.7774 191.367 37.6756 191.17C37.5762 190.974 37.4211 190.821 37.2104 190.712C37.0021 190.601 36.7334 190.545 36.4043 190.545H35.1969V196.717H33.8794ZM41.7301 196.827C41.3845 196.827 41.0732 196.766 40.7962 196.643C40.5215 196.517 40.3037 196.333 40.1428 196.089C39.9841 195.845 39.9048 195.544 39.9048 195.187C39.9048 194.879 39.9616 194.624 40.0753 194.423C40.1889 194.222 40.344 194.061 40.5405 193.94C40.737 193.82 40.9583 193.728 41.2045 193.667C41.4531 193.603 41.71 193.557 41.9751 193.528C42.2947 193.495 42.554 193.466 42.7528 193.44C42.9517 193.411 43.0961 193.369 43.1861 193.312C43.2784 193.253 43.3246 193.161 43.3246 193.038V193.017C43.3246 192.749 43.2453 192.542 43.0866 192.396C42.928 192.249 42.6996 192.175 42.4013 192.175C42.0864 192.175 41.8366 192.244 41.652 192.381C41.4697 192.519 41.3466 192.681 41.2827 192.868L40.0824 192.697C40.1771 192.366 40.3333 192.089 40.5511 191.866C40.7689 191.642 41.0353 191.473 41.3501 191.362C41.665 191.249 42.013 191.192 42.3942 191.192C42.657 191.192 42.9186 191.222 43.179 191.284C43.4394 191.346 43.6773 191.447 43.8928 191.589C44.1082 191.729 44.281 191.92 44.4112 192.161C44.5438 192.403 44.6101 192.705 44.6101 193.067V196.717H43.3743V195.968H43.3317C43.2536 196.12 43.1435 196.262 43.0014 196.394C42.8617 196.524 42.6854 196.63 42.4723 196.71C42.2616 196.788 42.0142 196.827 41.7301 196.827ZM42.0639 195.883C42.322 195.883 42.5457 195.832 42.7351 195.73C42.9245 195.626 43.0701 195.489 43.1719 195.318C43.276 195.148 43.3281 194.962 43.3281 194.761V194.118C43.2879 194.151 43.2192 194.182 43.1222 194.21C43.0275 194.239 42.9209 194.263 42.8026 194.285C42.6842 194.306 42.567 194.325 42.451 194.342C42.335 194.358 42.2344 194.372 42.1491 194.384C41.9574 194.41 41.7857 194.453 41.6342 194.512C41.4827 194.571 41.3632 194.654 41.2756 194.761C41.188 194.865 41.1442 195 41.1442 195.165C41.1442 195.402 41.2306 195.581 41.4034 195.702C41.5762 195.822 41.7964 195.883 42.0639 195.883ZM46.5064 198.763C46.3312 198.763 46.169 198.749 46.0199 198.72C45.8731 198.694 45.7559 198.663 45.6683 198.628L45.9666 197.626C46.1536 197.681 46.3205 197.707 46.4673 197.705C46.6141 197.702 46.7431 197.656 46.8544 197.566C46.968 197.478 47.0639 197.332 47.142 197.126L47.2521 196.831L45.2741 191.263H46.6378L47.8949 195.382H47.9517L49.2124 191.263H50.5795L48.3956 197.378C48.2938 197.667 48.1589 197.914 47.9908 198.12C47.8227 198.328 47.6167 198.487 47.3729 198.596C47.1314 198.707 46.8426 198.763 46.5064 198.763ZM51.4691 196.717V191.263H52.6978V192.19H52.7617C52.8754 191.877 53.0636 191.633 53.3263 191.458C53.5891 191.28 53.9028 191.192 54.2674 191.192C54.6367 191.192 54.948 191.282 55.2013 191.462C55.457 191.639 55.637 191.882 55.7411 192.19H55.7979C55.9187 191.887 56.1223 191.645 56.4087 191.465C56.6976 191.283 57.0397 191.192 57.435 191.192C57.9369 191.192 58.3465 191.35 58.6637 191.668C58.9809 191.985 59.1396 192.448 59.1396 193.056V196.717H57.8505V193.255C57.8505 192.916 57.7605 192.669 57.5806 192.513C57.4007 192.354 57.1805 192.275 56.9201 192.275C56.61 192.275 56.3673 192.372 56.1921 192.566C56.0193 192.758 55.9329 193.008 55.9329 193.315V196.717H54.6722V193.202C54.6722 192.92 54.587 192.695 54.4165 192.527C54.2485 192.359 54.0283 192.275 53.756 192.275C53.5714 192.275 53.4033 192.322 53.2518 192.417C53.1003 192.509 52.9795 192.641 52.8896 192.811C52.7996 192.979 52.7546 193.176 52.7546 193.401V196.717H51.4691ZM62.8585 196.824C62.3116 196.824 61.8393 196.71 61.4416 196.483C61.0462 196.253 60.742 195.929 60.5289 195.51C60.3159 195.088 60.2093 194.593 60.2093 194.022C60.2093 193.461 60.3159 192.968 60.5289 192.545C60.7444 192.119 61.045 191.787 61.4309 191.55C61.8168 191.311 62.2702 191.192 62.791 191.192C63.1272 191.192 63.4444 191.246 63.7427 191.355C64.0434 191.462 64.3085 191.627 64.5382 191.852C64.7702 192.077 64.9525 192.364 65.085 192.712C65.2176 193.057 65.2839 193.469 65.2839 193.947V194.342H60.813V193.475H64.0517C64.0493 193.229 63.996 193.01 63.8919 192.818C63.7877 192.624 63.6421 192.471 63.4551 192.36C63.2704 192.249 63.055 192.193 62.8088 192.193C62.546 192.193 62.3152 192.257 62.1163 192.385C61.9174 192.51 61.7624 192.676 61.6511 192.882C61.5422 193.086 61.4866 193.309 61.4842 193.553V194.31C61.4842 194.627 61.5422 194.899 61.6582 195.126C61.7742 195.351 61.9364 195.524 62.1447 195.645C62.353 195.763 62.5969 195.822 62.8762 195.822C63.0633 195.822 63.2325 195.796 63.3841 195.744C63.5356 195.69 63.667 195.611 63.7782 195.506C63.8895 195.402 63.9735 195.273 64.0304 195.119L65.2306 195.254C65.1549 195.571 65.0105 195.848 64.7974 196.085C64.5867 196.32 64.3168 196.502 63.9877 196.632C63.6587 196.76 63.2823 196.824 62.8585 196.824ZM67.657 193.521V196.717H66.3714V191.263H67.6001V192.19H67.6641C67.7895 191.884 67.9896 191.642 68.2642 191.462C68.5412 191.282 68.8833 191.192 69.2905 191.192C69.6669 191.192 69.9948 191.272 70.2741 191.433C70.5559 191.594 70.7737 191.827 70.9276 192.133C71.0838 192.438 71.1607 192.809 71.1584 193.244V196.717H69.8729V193.443C69.8729 193.079 69.7782 192.793 69.5888 192.587C69.4018 192.381 69.1425 192.278 68.8111 192.278C68.5862 192.278 68.3861 192.328 68.2109 192.428C68.0381 192.525 67.902 192.665 67.8026 192.85C67.7055 193.035 67.657 193.258 67.657 193.521ZM75.1889 191.263V192.257H72.0533V191.263H75.1889ZM72.8274 189.956H74.1129V195.077C74.1129 195.249 74.139 195.382 74.1911 195.474C74.2455 195.564 74.3165 195.626 74.4041 195.659C74.4917 195.692 74.5888 195.709 74.6953 195.709C74.7758 195.709 74.8492 195.703 74.9155 195.691C74.9841 195.679 75.0362 195.669 75.0717 195.659L75.2884 196.664C75.2197 196.688 75.1214 196.714 74.9936 196.742C74.8681 196.771 74.7143 196.787 74.532 196.792C74.21 196.801 73.92 196.753 73.6619 196.646C73.4039 196.537 73.1991 196.369 73.0476 196.142C72.8984 195.915 72.825 195.631 72.8274 195.29V189.956ZM81.1238 196.824C80.5911 196.824 80.1294 196.707 79.7388 196.472C79.3482 196.238 79.0452 195.91 78.8297 195.489C78.6167 195.067 78.5101 194.575 78.5101 194.011C78.5101 193.448 78.6167 192.954 78.8297 192.53C79.0452 192.107 79.3482 191.778 79.7388 191.543C80.1294 191.309 80.5911 191.192 81.1238 191.192C81.6564 191.192 82.1181 191.309 82.5087 191.543C82.8993 191.778 83.2012 192.107 83.4142 192.53C83.6297 192.954 83.7374 193.448 83.7374 194.011C83.7374 194.575 83.6297 195.067 83.4142 195.489C83.2012 195.91 82.8993 196.238 82.5087 196.472C82.1181 196.707 81.6564 196.824 81.1238 196.824ZM81.1309 195.794C81.4197 195.794 81.6612 195.715 81.8553 195.556C82.0494 195.395 82.1938 195.18 82.2885 194.91C82.3856 194.64 82.4341 194.339 82.4341 194.008C82.4341 193.674 82.3856 193.372 82.2885 193.102C82.1938 192.83 82.0494 192.613 81.8553 192.452C81.6612 192.291 81.4197 192.211 81.1309 192.211C80.8349 192.211 80.5887 192.291 80.3922 192.452C80.1981 192.613 80.0525 192.83 79.9554 193.102C79.8607 193.372 79.8134 193.674 79.8134 194.008C79.8134 194.339 79.8607 194.64 79.9554 194.91C80.0525 195.18 80.1981 195.395 80.3922 195.556C80.5887 195.715 80.8349 195.794 81.1309 195.794ZM84.8285 198.763V191.263H86.0927V192.165H86.1673C86.2335 192.032 86.3271 191.891 86.4478 191.742C86.5685 191.591 86.7319 191.462 86.9379 191.355C87.1438 191.246 87.4066 191.192 87.7262 191.192C88.1476 191.192 88.5276 191.299 88.8661 191.515C89.207 191.728 89.4769 192.044 89.6758 192.463C89.877 192.88 89.9776 193.391 89.9776 193.997C89.9776 194.596 89.8794 195.105 89.6829 195.524C89.4864 195.943 89.2189 196.263 88.8803 196.483C88.5418 196.703 88.1583 196.813 87.7298 196.813C87.4173 196.813 87.158 196.761 86.9521 196.657C86.7461 196.553 86.5804 196.427 86.4549 196.28C86.3318 196.131 86.2359 195.99 86.1673 195.858H86.114V198.763H84.8285ZM86.0891 193.99C86.0891 194.343 86.1388 194.652 86.2383 194.917C86.3401 195.182 86.4857 195.389 86.6751 195.538C86.8668 195.685 87.0988 195.758 87.3711 195.758C87.6552 195.758 87.8931 195.683 88.0849 195.531C88.2766 195.377 88.421 195.168 88.5181 194.903C88.6175 194.635 88.6673 194.331 88.6673 193.99C88.6673 193.651 88.6187 193.351 88.5217 193.088C88.4246 192.825 88.2802 192.619 88.0884 192.47C87.8967 192.321 87.6576 192.246 87.3711 192.246C87.0965 192.246 86.8633 192.319 86.6715 192.463C86.4798 192.607 86.3342 192.81 86.2347 193.07C86.1377 193.331 86.0891 193.637 86.0891 193.99ZM93.8022 191.263V192.257H90.6665V191.263H93.8022ZM91.4407 189.956H92.7262V195.077C92.7262 195.249 92.7522 195.382 92.8043 195.474C92.8588 195.564 92.9298 195.626 93.0174 195.659C93.105 195.692 93.2021 195.709 93.3086 195.709C93.3891 195.709 93.4625 195.703 93.5288 195.691C93.5974 195.679 93.6495 195.669 93.685 195.659L93.9016 196.664C93.833 196.688 93.7347 196.714 93.6069 196.742C93.4814 196.771 93.3275 196.787 93.1452 196.792C92.8233 196.801 92.5333 196.753 92.2752 196.646C92.0172 196.537 91.8124 196.369 91.6609 196.142C91.5117 195.915 91.4383 195.631 91.4407 195.29V189.956ZM94.8773 196.717V191.263H96.1628V196.717H94.8773ZM95.5236 190.489C95.32 190.489 95.1448 190.421 94.998 190.286C94.8513 190.149 94.7779 189.984 94.7779 189.793C94.7779 189.598 94.8513 189.434 94.998 189.299C95.1448 189.162 95.32 189.093 95.5236 189.093C95.7296 189.093 95.9048 189.162 96.0492 189.299C96.196 189.434 96.2694 189.598 96.2694 189.793C96.2694 189.984 96.196 190.149 96.0492 190.286C95.9048 190.421 95.7296 190.489 95.5236 190.489ZM99.864 196.824C99.3313 196.824 98.8697 196.707 98.479 196.472C98.0884 196.238 97.7854 195.91 97.57 195.489C97.3569 195.067 97.2504 194.575 97.2504 194.011C97.2504 193.448 97.3569 192.954 97.57 192.53C97.7854 192.107 98.0884 191.778 98.479 191.543C98.8697 191.309 99.3313 191.192 99.864 191.192C100.397 191.192 100.858 191.309 101.249 191.543C101.64 191.778 101.941 192.107 102.154 192.53C102.37 192.954 102.478 193.448 102.478 194.011C102.478 194.575 102.37 195.067 102.154 195.489C101.941 195.91 101.64 196.238 101.249 196.472C100.858 196.707 100.397 196.824 99.864 196.824ZM99.8711 195.794C100.16 195.794 100.401 195.715 100.596 195.556C100.79 195.395 100.934 195.18 101.029 194.91C101.126 194.64 101.174 194.339 101.174 194.008C101.174 193.674 101.126 193.372 101.029 193.102C100.934 192.83 100.79 192.613 100.596 192.452C100.401 192.291 100.16 192.211 99.8711 192.211C99.5752 192.211 99.329 192.291 99.1325 192.452C98.9383 192.613 98.7927 192.83 98.6957 193.102C98.601 193.372 98.5536 193.674 98.5536 194.008C98.5536 194.339 98.601 194.64 98.6957 194.91C98.7927 195.18 98.9383 195.395 99.1325 195.556C99.329 195.715 99.5752 195.794 99.8711 195.794ZM104.854 193.521V196.717H103.569V191.263H104.797V192.19H104.861C104.987 191.884 105.187 191.642 105.461 191.462C105.738 191.282 106.081 191.192 106.488 191.192C106.864 191.192 107.192 191.272 107.471 191.433C107.753 191.594 107.971 191.827 108.125 192.133C108.281 192.438 108.358 192.809 108.356 193.244V196.717H107.07V193.443C107.07 193.079 106.975 192.793 106.786 192.587C106.599 192.381 106.34 192.278 106.008 192.278C105.783 192.278 105.583 192.328 105.408 192.428C105.235 192.525 105.099 192.665 105 192.85C104.903 193.035 104.854 193.258 104.854 193.521Z" fill="black"/>
<rect width="250" height="47.4162" transform="translate(33.1621 208.717)" fill="#C1D8ED"/>
<path d="M45.5874 230.425V223.153H48.3147C48.8734 223.153 49.3422 223.257 49.721 223.465C50.1021 223.673 50.3898 223.96 50.5839 224.324C50.7804 224.687 50.8786 225.099 50.8786 225.56C50.8786 226.027 50.7804 226.441 50.5839 226.803C50.3874 227.165 50.0974 227.451 49.7139 227.659C49.3303 227.865 48.858 227.968 48.297 227.968H46.4894V226.885H48.1194C48.4461 226.885 48.7136 226.828 48.922 226.714C49.1303 226.601 49.2842 226.444 49.3836 226.246C49.4854 226.047 49.5363 225.818 49.5363 225.56C49.5363 225.302 49.4854 225.075 49.3836 224.878C49.2842 224.682 49.1291 224.529 48.9184 224.42C48.7101 224.309 48.4414 224.253 48.1123 224.253H46.9049V230.425H45.5874ZM53.4381 230.535C53.0925 230.535 52.7812 230.474 52.5042 230.351C52.2296 230.225 52.0117 230.041 51.8508 229.797C51.6921 229.553 51.6128 229.252 51.6128 228.895C51.6128 228.587 51.6697 228.332 51.7833 228.131C51.8969 227.93 52.052 227.769 52.2485 227.648C52.445 227.528 52.6663 227.436 52.9126 227.375C53.1611 227.311 53.418 227.265 53.6831 227.236C54.0028 227.203 54.262 227.174 54.4608 227.148C54.6597 227.119 54.8041 227.077 54.8941 227.02C54.9864 226.961 55.0326 226.869 55.0326 226.746V226.725C55.0326 226.457 54.9533 226.25 54.7947 226.104C54.636 225.957 54.4076 225.883 54.1093 225.883C53.7944 225.883 53.5447 225.952 53.36 226.089C53.1777 226.227 53.0546 226.389 52.9907 226.576L51.7904 226.405C51.8851 226.074 52.0413 225.797 52.2591 225.574C52.4769 225.35 52.7433 225.181 53.0581 225.07C53.373 224.957 53.721 224.9 54.1022 224.9C54.365 224.9 54.6266 224.931 54.887 224.992C55.1474 225.054 55.3853 225.155 55.6008 225.297C55.8162 225.437 55.989 225.628 56.1192 225.869C56.2518 226.111 56.3181 226.413 56.3181 226.775V230.425H55.0823V229.676H55.0397C54.9616 229.828 54.8515 229.97 54.7094 230.102C54.5698 230.232 54.3934 230.338 54.1803 230.418C53.9696 230.496 53.7222 230.535 53.4381 230.535ZM53.7719 229.591C54.03 229.591 54.2537 229.54 54.4431 229.438C54.6325 229.334 54.7781 229.197 54.8799 229.026C54.984 228.856 55.0361 228.67 55.0361 228.469V227.826C54.9959 227.859 54.9272 227.89 54.8302 227.918C54.7355 227.947 54.6289 227.971 54.5106 227.993C54.3922 228.014 54.275 228.033 54.159 228.05C54.043 228.066 53.9424 228.08 53.8572 228.092C53.6654 228.118 53.4938 228.161 53.3422 228.22C53.1907 228.279 53.0712 228.362 52.9836 228.469C52.896 228.573 52.8522 228.708 52.8522 228.873C52.8522 229.11 52.9386 229.289 53.1114 229.41C53.2842 229.53 53.5044 229.591 53.7719 229.591ZM58.2144 232.471C58.0392 232.471 57.877 232.457 57.7279 232.428C57.5811 232.402 57.4639 232.371 57.3763 232.336L57.6746 231.334C57.8617 231.389 58.0286 231.415 58.1753 231.413C58.3221 231.41 58.4511 231.364 58.5624 231.274C58.676 231.186 58.7719 231.04 58.8501 230.834L58.9601 230.539L56.9822 224.971H58.3458L59.6029 229.09H59.6597L60.9204 224.971H62.2876L60.1036 231.086C60.0018 231.375 59.8669 231.622 59.6988 231.828C59.5307 232.036 59.3247 232.195 59.0809 232.304C58.8394 232.415 58.5506 232.471 58.2144 232.471ZM63.1771 230.425V224.971H64.4058V225.898H64.4697C64.5834 225.585 64.7716 225.341 65.0344 225.166C65.2971 224.989 65.6108 224.9 65.9754 224.9C66.3447 224.9 66.656 224.99 66.9094 225.17C67.165 225.347 67.345 225.59 67.4491 225.898H67.5059C67.6267 225.595 67.8303 225.353 68.1167 225.173C68.4056 224.991 68.7477 224.9 69.143 224.9C69.6449 224.9 70.0545 225.058 70.3717 225.376C70.689 225.693 70.8476 226.156 70.8476 226.764V230.425H69.5585V226.963C69.5585 226.624 69.4685 226.377 69.2886 226.221C69.1087 226.062 68.8885 225.983 68.6281 225.983C68.318 225.983 68.0753 226.08 67.9001 226.274C67.7273 226.466 67.6409 226.716 67.6409 227.023V230.425H66.3802V226.91C66.3802 226.628 66.295 226.403 66.1246 226.235C65.9565 226.067 65.7363 225.983 65.464 225.983C65.2794 225.983 65.1113 226.03 64.9598 226.125C64.8083 226.217 64.6875 226.349 64.5976 226.519C64.5076 226.687 64.4626 226.884 64.4626 227.109V230.425H63.1771ZM74.5665 230.532C74.0196 230.532 73.5473 230.418 73.1496 230.191C72.7542 229.961 72.45 229.637 72.2369 229.218C72.0239 228.797 71.9173 228.301 71.9173 227.73C71.9173 227.169 72.0239 226.676 72.2369 226.253C72.4524 225.827 72.753 225.495 73.1389 225.258C73.5248 225.019 73.9782 224.9 74.499 224.9C74.8352 224.9 75.1524 224.954 75.4507 225.063C75.7514 225.17 76.0165 225.335 76.2462 225.56C76.4782 225.785 76.6605 226.072 76.7931 226.42C76.9256 226.765 76.9919 227.177 76.9919 227.655V228.05H72.521V227.183H75.7597C75.7573 226.937 75.704 226.718 75.5999 226.526C75.4957 226.332 75.3501 226.179 75.1631 226.068C74.9784 225.957 74.763 225.901 74.5168 225.901C74.254 225.901 74.0232 225.965 73.8243 226.093C73.6254 226.218 73.4704 226.384 73.3591 226.59C73.2502 226.794 73.1946 227.017 73.1922 227.261V228.018C73.1922 228.335 73.2502 228.607 73.3662 228.834C73.4822 229.059 73.6444 229.232 73.8527 229.353C74.061 229.471 74.3049 229.53 74.5843 229.53C74.7713 229.53 74.9405 229.504 75.0921 229.452C75.2436 229.398 75.375 229.319 75.4862 229.214C75.5975 229.11 75.6816 228.981 75.7384 228.827L76.9387 228.962C76.8629 229.279 76.7185 229.556 76.5054 229.793C76.2947 230.028 76.0248 230.21 75.6958 230.34C75.3667 230.468 74.9903 230.532 74.5665 230.532ZM79.365 227.229V230.425H78.0795V224.971H79.3081V225.898H79.3721C79.4975 225.592 79.6976 225.35 79.9722 225.17C80.2492 224.99 80.5913 224.9 80.9985 224.9C81.3749 224.9 81.7028 224.98 81.9822 225.141C82.2639 225.302 82.4817 225.535 82.6356 225.841C82.7918 226.146 82.8688 226.517 82.8664 226.952V230.425H81.5809V227.151C81.5809 226.787 81.4862 226.501 81.2968 226.295C81.1098 226.089 80.8505 225.986 80.5191 225.986C80.2942 225.986 80.0941 226.036 79.9189 226.136C79.7461 226.233 79.61 226.373 79.5106 226.558C79.4135 226.743 79.365 226.966 79.365 227.229ZM86.8969 224.971V225.965H83.7613V224.971H86.8969ZM84.5354 223.664H85.8209V228.785C85.8209 228.957 85.847 229.09 85.8991 229.182C85.9535 229.272 86.0245 229.334 86.1121 229.367C86.1997 229.4 86.2968 229.417 86.4033 229.417C86.4838 229.417 86.5572 229.411 86.6235 229.399C86.6921 229.387 86.7442 229.377 86.7797 229.367L86.9964 230.372C86.9277 230.396 86.8295 230.422 86.7016 230.45C86.5761 230.479 86.4223 230.495 86.24 230.5C85.918 230.509 85.628 230.461 85.3699 230.354C85.1119 230.245 84.9071 230.077 84.7556 229.85C84.6064 229.623 84.5331 229.339 84.5354 228.998V223.664ZM90.4525 230.425V224.971H91.738V230.425H90.4525ZM91.0988 224.197C90.8952 224.197 90.72 224.129 90.5732 223.994C90.4265 223.857 90.3531 223.692 90.3531 223.501C90.3531 223.306 90.4265 223.142 90.5732 223.007C90.72 222.87 90.8952 222.801 91.0988 222.801C91.3048 222.801 91.48 222.87 91.6244 223.007C91.7712 223.142 91.8445 223.306 91.8445 223.501C91.8445 223.692 91.7712 223.857 91.6244 223.994C91.48 224.129 91.3048 224.197 91.0988 224.197ZM94.3454 227.229V230.425H93.0599V224.971H94.2886V225.898H94.3525C94.478 225.592 94.6781 225.35 94.9527 225.17C95.2297 224.99 95.5718 224.9 95.979 224.9C96.3554 224.9 96.6833 224.98 96.9626 225.141C97.2443 225.302 97.4622 225.535 97.616 225.841C97.7723 226.146 97.8492 226.517 97.8469 226.952V230.425H96.5613V227.151C96.5613 226.787 96.4666 226.501 96.2773 226.295C96.0902 226.089 95.831 225.986 95.4996 225.986C95.2747 225.986 95.0746 226.036 94.8994 226.136C94.7266 226.233 94.5905 226.373 94.491 226.558C94.394 226.743 94.3454 226.966 94.3454 227.229ZM48.2046 242.564C47.6199 242.564 47.118 242.416 46.699 242.12C46.2823 241.822 45.9615 241.392 45.7366 240.831C45.5141 240.267 45.4028 239.589 45.4028 238.796C45.4052 238.003 45.5176 237.328 45.7401 236.772C45.9651 236.213 46.2858 235.787 46.7025 235.493C47.1215 235.2 47.6222 235.053 48.2046 235.053C48.787 235.053 49.2877 235.2 49.7068 235.493C50.1258 235.787 50.4466 236.213 50.6691 236.772C50.894 237.331 51.0065 238.005 51.0065 238.796C51.0065 239.591 50.894 240.271 50.6691 240.834C50.4466 241.395 50.1258 241.824 49.7068 242.12C49.2901 242.416 48.7894 242.564 48.2046 242.564ZM48.2046 241.452C48.6592 241.452 49.0178 241.229 49.2806 240.781C49.5458 240.331 49.6784 239.67 49.6784 238.796C49.6784 238.218 49.618 237.733 49.4972 237.34C49.3765 236.947 49.2061 236.651 48.9859 236.452C48.7657 236.251 48.5053 236.15 48.2046 236.15C47.7525 236.15 47.395 236.375 47.1322 236.825C46.8694 237.273 46.7368 237.93 46.7345 238.796C46.7321 239.376 46.7901 239.864 46.9085 240.259C47.0292 240.654 47.1997 240.953 47.4198 241.154C47.64 241.353 47.9016 241.452 48.2046 241.452ZM52.7093 242.503C52.4938 242.503 52.3092 242.428 52.1553 242.276C52.0014 242.125 51.9256 241.94 51.928 241.722C51.9256 241.509 52.0014 241.327 52.1553 241.175C52.3092 241.024 52.4938 240.948 52.7093 240.948C52.9176 240.948 53.0987 241.024 53.2526 241.175C53.4088 241.327 53.4881 241.509 53.4905 241.722C53.4881 241.867 53.4503 241.998 53.3769 242.116C53.3058 242.235 53.2111 242.329 53.0928 242.4C52.9768 242.469 52.8489 242.503 52.7093 242.503ZM57.2085 242.564C56.6238 242.564 56.1219 242.416 55.7029 242.12C55.2862 241.822 54.9654 241.392 54.7405 240.831C54.518 240.267 54.4067 239.589 54.4067 238.796C54.4091 238.003 54.5215 237.328 54.7441 236.772C54.969 236.213 55.2897 235.787 55.7064 235.493C56.1254 235.2 56.6262 235.053 57.2085 235.053C57.7909 235.053 58.2916 235.2 58.7107 235.493C59.1297 235.787 59.4505 236.213 59.673 236.772C59.8979 237.331 60.0104 238.005 60.0104 238.796C60.0104 239.591 59.8979 240.271 59.673 240.834C59.4505 241.395 59.1297 241.824 58.7107 242.12C58.294 242.416 57.7933 242.564 57.2085 242.564ZM57.2085 241.452C57.6631 241.452 58.0218 241.229 58.2845 240.781C58.5497 240.331 58.6823 239.67 58.6823 238.796C58.6823 238.218 58.6219 237.733 58.5012 237.34C58.3804 236.947 58.21 236.651 57.9898 236.452C57.7696 236.251 57.5092 236.15 57.2085 236.15C56.7564 236.15 56.3989 236.375 56.1361 236.825C55.8733 237.273 55.7407 237.93 55.7384 238.796C55.736 239.376 55.794 239.864 55.9124 240.259C56.0331 240.654 56.2036 240.953 56.4237 241.154C56.6439 241.353 56.9055 241.452 57.2085 241.452ZM63.6849 242.425V236.971H64.9136V237.898H64.9775C65.0912 237.585 65.2794 237.341 65.5422 237.166C65.805 236.989 66.1186 236.9 66.4832 236.9C66.8525 236.9 67.1639 236.99 67.4172 237.17C67.6729 237.347 67.8528 237.59 67.9569 237.898H68.0138C68.1345 237.595 68.3381 237.353 68.6246 237.173C68.9134 236.991 69.2555 236.9 69.6508 236.9C70.1527 236.9 70.5623 237.058 70.8795 237.376C71.1968 237.693 71.3554 238.156 71.3554 238.764V242.425H70.0663V238.963C70.0663 238.624 69.9764 238.377 69.7964 238.221C69.6165 238.062 69.3963 237.983 69.1359 237.983C68.8258 237.983 68.5831 238.08 68.4079 238.274C68.2351 238.466 68.1487 238.716 68.1487 239.023V242.425H66.8881V238.91C66.8881 238.628 66.8028 238.403 66.6324 238.235C66.4643 238.067 66.2441 237.983 65.9719 237.983C65.7872 237.983 65.6191 238.03 65.4676 238.125C65.3161 238.217 65.1953 238.349 65.1054 238.519C65.0154 238.687 64.9704 238.884 64.9704 239.109V242.425H63.6849ZM72.6595 242.425V236.971H73.945V242.425H72.6595ZM73.3058 236.197C73.1022 236.197 72.9271 236.129 72.7803 235.994C72.6335 235.857 72.5601 235.692 72.5601 235.501C72.5601 235.306 72.6335 235.142 72.7803 235.007C72.9271 234.87 73.1022 234.801 73.3058 234.801C73.5118 234.801 73.687 234.87 73.8314 235.007C73.9782 235.142 74.0516 235.306 74.0516 235.501C74.0516 235.692 73.9782 235.857 73.8314 235.994C73.687 236.129 73.5118 236.197 73.3058 236.197ZM76.5525 239.229V242.425H75.267V236.971H76.4956V237.898H76.5596C76.685 237.592 76.8851 237.35 77.1597 237.17C77.4367 236.99 77.7788 236.9 78.186 236.9C78.5624 236.9 78.8903 236.98 79.1697 237.141C79.4514 237.302 79.6692 237.535 79.8231 237.841C79.9793 238.146 80.0563 238.517 80.0539 238.952V242.425H78.7684V239.151C78.7684 238.787 78.6737 238.501 78.4843 238.295C78.2973 238.089 78.038 237.986 77.7066 237.986C77.4817 237.986 77.2816 238.036 77.1064 238.136C76.9336 238.233 76.7975 238.373 76.6981 238.558C76.601 238.743 76.5525 238.966 76.5525 239.229Z" fill="black"/>
<path d="M255.572 230.219V235.328H254.749L252.342 231.848H252.3V235.328H251.374V230.219H252.202L254.607 233.701H254.652V230.219H255.572ZM261.146 232.773C261.146 233.324 261.043 233.795 260.837 234.188C260.632 234.578 260.353 234.878 259.999 235.086C259.646 235.294 259.246 235.397 258.799 235.397C258.351 235.397 257.95 235.294 257.596 235.086C257.244 234.876 256.964 234.576 256.758 234.185C256.553 233.793 256.451 233.322 256.451 232.773C256.451 232.223 256.553 231.752 256.758 231.361C256.964 230.969 257.244 230.669 257.596 230.461C257.95 230.253 258.351 230.149 258.799 230.149C259.246 230.149 259.646 230.253 259.999 230.461C260.353 230.669 260.632 230.969 260.837 231.361C261.043 231.752 261.146 232.223 261.146 232.773ZM260.216 232.773C260.216 232.386 260.155 232.059 260.033 231.793C259.914 231.525 259.747 231.323 259.535 231.187C259.322 231.049 259.076 230.98 258.799 230.98C258.521 230.98 258.276 231.049 258.063 231.187C257.85 231.323 257.683 231.525 257.561 231.793C257.442 232.059 257.382 232.386 257.382 232.773C257.382 233.161 257.442 233.488 257.561 233.756C257.683 234.022 257.85 234.224 258.063 234.362C258.276 234.499 258.521 234.567 258.799 234.567C259.076 234.567 259.322 234.499 259.535 234.362C259.747 234.224 259.914 234.022 260.033 233.756C260.155 233.488 260.216 233.161 260.216 232.773ZM262.966 235.328L261.524 230.219H262.519L263.44 233.973H263.487L264.47 230.219H265.376L266.361 233.976H266.406L267.327 230.219H268.322L266.88 235.328H265.967L264.944 231.743H264.904L263.879 235.328H262.966Z" fill="black"/>
<rect x="45.5098" y="276.133" width="225.305" height="40.2702" rx="7.02486" fill="#04177F"/>
<path d="M141.91 295.432H140.715C140.681 295.236 140.618 295.062 140.526 294.911C140.435 294.757 140.321 294.627 140.184 294.521C140.048 294.414 139.893 294.334 139.718 294.281C139.545 294.226 139.359 294.198 139.159 294.198C138.803 294.198 138.487 294.287 138.213 294.466C137.938 294.643 137.722 294.903 137.567 295.246C137.411 295.587 137.334 296.004 137.334 296.496C137.334 296.997 137.411 297.418 137.567 297.761C137.725 298.102 137.94 298.36 138.213 298.535C138.487 298.707 138.802 298.794 139.155 298.794C139.351 298.794 139.535 298.768 139.705 298.717C139.878 298.664 140.032 298.586 140.169 298.484C140.307 298.381 140.423 298.256 140.517 298.107C140.613 297.957 140.679 297.787 140.715 297.595L141.91 297.602C141.866 297.913 141.769 298.205 141.619 298.477C141.472 298.75 141.28 298.991 141.041 299.2C140.802 299.406 140.523 299.568 140.204 299.685C139.884 299.801 139.529 299.858 139.139 299.858C138.564 299.858 138.051 299.725 137.599 299.459C137.147 299.192 136.791 298.808 136.531 298.305C136.271 297.802 136.142 297.199 136.142 296.496C136.142 295.791 136.273 295.188 136.535 294.687C136.797 294.184 137.154 293.799 137.605 293.533C138.057 293.267 138.568 293.134 139.139 293.134C139.504 293.134 139.843 293.185 140.156 293.287C140.469 293.389 140.748 293.54 140.993 293.738C141.238 293.934 141.439 294.174 141.597 294.46C141.757 294.743 141.861 295.067 141.91 295.432ZM148.845 296.496C148.845 297.201 148.713 297.805 148.449 298.308C148.187 298.809 147.829 299.192 147.375 299.459C146.923 299.725 146.411 299.858 145.837 299.858C145.264 299.858 144.751 299.725 144.297 299.459C143.845 299.19 143.487 298.805 143.223 298.305C142.961 297.802 142.83 297.199 142.83 296.496C142.83 295.791 142.961 295.188 143.223 294.687C143.487 294.184 143.845 293.799 144.297 293.533C144.751 293.267 145.264 293.134 145.837 293.134C146.411 293.134 146.923 293.267 147.375 293.533C147.829 293.799 148.187 294.184 148.449 294.687C148.713 295.188 148.845 295.791 148.845 296.496ZM147.653 296.496C147.653 295.999 147.575 295.581 147.419 295.24C147.266 294.897 147.053 294.638 146.78 294.463C146.508 294.286 146.193 294.198 145.837 294.198C145.482 294.198 145.167 294.286 144.895 294.463C144.622 294.638 144.408 294.897 144.252 295.24C144.099 295.581 144.022 295.999 144.022 296.496C144.022 296.992 144.099 297.412 144.252 297.755C144.408 298.096 144.622 298.355 144.895 298.532C145.167 298.706 145.482 298.794 145.837 298.794C146.193 298.794 146.508 298.706 146.78 298.532C147.053 298.355 147.266 298.096 147.419 297.755C147.575 297.412 147.653 296.992 147.653 296.496ZM155.345 293.223V299.769H154.29L151.206 295.31H151.152V299.769H149.966V293.223H151.027L154.108 297.685H154.165V293.223H155.345ZM157.513 293.223L159.216 298.375H159.283L160.983 293.223H162.287L159.98 299.769H158.516L156.212 293.223H157.513ZM163.15 299.769V293.223H167.407V294.217H164.335V295.994H167.186V296.988H164.335V298.775H167.432V299.769H163.15ZM168.616 299.769V293.223H171.071C171.574 293.223 171.996 293.31 172.336 293.485C172.68 293.66 172.938 293.905 173.113 294.22C173.29 294.533 173.378 294.899 173.378 295.316C173.378 295.736 173.289 296.101 173.11 296.41C172.933 296.716 172.672 296.954 172.327 297.122C171.982 297.288 171.558 297.372 171.055 297.372H169.307V296.387H170.895C171.189 296.387 171.43 296.347 171.617 296.266C171.805 296.183 171.943 296.062 172.033 295.905C172.124 295.745 172.17 295.549 172.17 295.316C172.17 295.084 172.124 294.886 172.033 294.722C171.941 294.556 171.802 294.43 171.614 294.345C171.427 294.258 171.185 294.214 170.889 294.214H169.802V299.769H168.616ZM171.998 296.803L173.618 299.769H172.295L170.703 296.803H171.998ZM174.182 294.217V293.223H179.404V294.217H177.381V299.769H176.205V294.217H174.182Z" fill="#F2FAFF"/>
</g>
<defs>
<filter id="filter0_d_16501_49543" x="0.257138" y="0.400879" width="315.486" height="341.486" filterUnits="userSpaceOnUse" color-interpolation-filters="sRGB">
<feFlood flood-opacity="0" result="BackgroundImageFix"/>
<feColorMatrix in="SourceAlpha" type="matrix" values="0 0 0 0 0 0 0 0 0 0 0 0 0 0 0 0 0 0 127 0" result="hardAlpha"/>
<feOffset dy="3.24286"/>
<feGaussianBlur stdDeviation="1.62143"/>
<feComposite in2="hardAlpha" operator="out"/>
<feColorMatrix type="matrix" values="0 0 0 0 0 0 0 0 0 0 0 0 0 0 0 0 0 0 0.25 0"/>
<feBlend mode="normal" in2="BackgroundImageFix" result="effect1_dropShadow_16501_49543"/>
<feBlend mode="normal" in="SourceGraphic" in2="effect1_dropShadow_16501_49543" result="shape"/>
</filter>
<clipPath id="clip0_16501_49543">
<rect width="12" height="12" fill="white" transform="translate(44.8701 34.3848)"/>
</clipPath>
<clipPath id="clip1_16501_49543">
<rect width="12" height="12" fill="white" transform="translate(44.8701 99.8008)"/>
</clipPath>
</defs>
</svg>
