<svg width="251" height="194" viewBox="0 0 251 194" fill="none" xmlns="http://www.w3.org/2000/svg">
<g filter="url(#filter0_d_14890_5561)">
<rect x="2.30884" y="0.842773" width="246.308" height="189.128" rx="7.31252" fill="white"/>
<rect x="16.7914" y="25.6076" width="217.695" height="29.6181" rx="2.82529" stroke="black" stroke-opacity="0.3" stroke-width="0.332388"/>
<g clip-path="url(#clip0_14890_5561)">
<rect width="16.655" height="16.655" transform="translate(23.2729 32.0889)" fill="white"/>
<path d="M31.6005 48.7439C36.1996 48.7439 39.928 45.0155 39.928 40.4164C39.928 35.8172 36.1996 32.0889 31.6005 32.0889C27.0013 32.0889 23.2729 35.8172 23.2729 40.4164C23.2729 45.0155 27.0013 48.7439 31.6005 48.7439Z" fill="#F0F0F0"/>
<path d="M31.2383 40.4163H39.9278C39.9278 39.6647 39.8276 38.9365 39.641 38.2439H31.2383V40.4163Z" fill="#D80027"/>
<path d="M31.2383 36.0716H38.7056C38.1958 35.2397 37.544 34.5045 36.7841 33.8992H31.2383V36.0716Z" fill="#D80027"/>
<path d="M31.6005 48.7439C33.5603 48.7439 35.3617 48.0665 36.7842 46.9336H26.4167C27.8393 48.0665 29.6406 48.7439 31.6005 48.7439Z" fill="#D80027"/>
<path d="M24.4952 44.7613H38.7057C39.1149 44.0935 39.4323 43.3635 39.6411 42.5889H23.5598C23.7686 43.3635 24.0859 44.0935 24.4952 44.7613Z" fill="#D80027"/>
<path d="M27.1304 33.3893H27.8893L27.1834 33.9021L27.453 34.7319L26.7472 34.2191L26.0413 34.7319L26.2742 34.0151C25.6527 34.5328 25.108 35.1393 24.6591 35.8152H24.9022L24.4529 36.1416C24.3829 36.2584 24.3158 36.377 24.2514 36.4974L24.466 37.1578L24.0657 36.8669C23.9662 37.0778 23.8752 37.2933 23.7934 37.5134L24.0297 38.241H24.9022L24.1964 38.7538L24.466 39.5836L23.7601 39.0708L23.3373 39.378C23.295 39.7182 23.2729 40.0647 23.2729 40.4164H31.6005C31.6005 35.8172 31.6005 35.275 31.6005 32.0889C29.9554 32.0889 28.4218 32.5661 27.1304 33.3893ZM27.453 39.5836L26.7472 39.0708L26.0413 39.5836L26.311 38.7538L25.6051 38.241H26.4776L26.7472 37.4112L27.0168 38.241H27.8893L27.1834 38.7538L27.453 39.5836ZM27.1834 36.328L27.453 37.1578L26.7472 36.645L26.0413 37.1578L26.311 36.328L25.6051 35.8152H26.4776L26.7472 34.9854L27.0168 35.8152H27.8893L27.1834 36.328ZM30.4401 39.5836L29.7342 39.0708L29.0284 39.5836L29.298 38.7538L28.5921 38.241H29.4646L29.7342 37.4112L30.0038 38.241H30.8763L30.1704 38.7538L30.4401 39.5836ZM30.1704 36.328L30.4401 37.1578L29.7342 36.645L29.0284 37.1578L29.298 36.328L28.5921 35.8152H29.4646L29.7342 34.9854L30.0038 35.8152H30.8763L30.1704 36.328ZM30.1704 33.9021L30.4401 34.7319L29.7342 34.2191L29.0284 34.7319L29.298 33.9021L28.5921 33.3893H29.4646L29.7342 32.5595L30.0038 33.3893H30.8763L30.1704 33.9021Z" fill="#0052B4"/>
</g>
<path d="M51.2765 37.6146H52.1546V41.4304C52.1546 41.8365 52.0593 42.1962 51.8685 42.5097C51.6778 42.8214 51.4096 43.0669 51.064 43.2463C50.7184 43.4238 50.3133 43.5126 49.8487 43.5126C49.386 43.5126 48.9818 43.4238 48.6362 43.2463C48.2906 43.0669 48.0225 42.8214 47.8317 42.5097C47.641 42.1962 47.5456 41.8365 47.5456 41.4304V37.6146H48.4209V41.3596C48.4209 41.6221 48.4785 41.8554 48.5937 42.0593C48.7108 42.2633 48.8761 42.4238 49.0895 42.5409C49.3029 42.6561 49.556 42.7137 49.8487 42.7137C50.1433 42.7137 50.3973 42.6561 50.6107 42.5409C50.826 42.4238 50.9903 42.2633 51.1037 42.0593C51.2189 41.8554 51.2765 41.6221 51.2765 41.3596V37.6146ZM54.2063 40.8327V43.4163H53.3593V39.065H54.1723V39.7732H54.2262C54.3263 39.5428 54.483 39.3577 54.6964 39.218C54.9117 39.0782 55.1827 39.0083 55.5094 39.0083C55.8059 39.0083 56.0656 39.0707 56.2885 39.1953C56.5113 39.3181 56.6841 39.5013 56.8069 39.7449C56.9296 39.9885 56.991 40.2897 56.991 40.6486V43.4163H56.144V40.7505C56.144 40.4352 56.0618 40.1887 55.8975 40.0112C55.7332 39.8318 55.5075 39.7421 55.2205 39.7421C55.0241 39.7421 54.8494 39.7845 54.6964 39.8695C54.5453 39.9545 54.4254 40.0792 54.3366 40.2435C54.2498 40.4059 54.2063 40.6023 54.2063 40.8327ZM58.127 43.4163V39.065H58.974V43.4163H58.127ZM58.5548 38.3936C58.4074 38.3936 58.2809 38.3445 58.1751 38.2463C58.0713 38.1462 58.0193 38.0272 58.0193 37.8894C58.0193 37.7496 58.0713 37.6306 58.1751 37.5324C58.2809 37.4323 58.4074 37.3823 58.5548 37.3823C58.7021 37.3823 58.8276 37.4323 58.9315 37.5324C59.0373 37.6306 59.0902 37.7496 59.0902 37.8894C59.0902 38.0272 59.0373 38.1462 58.9315 38.2463C58.8276 38.3445 58.7021 38.3936 58.5548 38.3936ZM62.1447 39.065V39.7449H59.7679V39.065H62.1447ZM60.4053 38.0225H61.2523V42.1386C61.2523 42.303 61.2769 42.4267 61.326 42.5097C61.3751 42.591 61.4384 42.6467 61.5158 42.6769C61.5951 42.7052 61.681 42.7194 61.7736 42.7194C61.8416 42.7194 61.9011 42.7147 61.952 42.7052C62.003 42.6958 62.0427 42.6882 62.071 42.6826L62.224 43.3823C62.1749 43.4012 62.105 43.42 62.0144 43.4389C61.9237 43.4597 61.8104 43.471 61.6744 43.4729C61.4516 43.4767 61.2438 43.437 61.0512 43.3539C60.8586 43.2708 60.7028 43.1424 60.5838 42.9687C60.4648 42.7949 60.4053 42.5768 60.4053 42.3143V38.0225ZM64.9102 43.5041C64.4815 43.5041 64.1123 43.4125 63.8026 43.2293C63.4948 43.0442 63.2568 42.7845 63.0887 42.4503C62.9225 42.1141 62.8394 41.7203 62.8394 41.269C62.8394 40.8233 62.9225 40.4304 63.0887 40.0905C63.2568 39.7506 63.491 39.4852 63.7913 39.2945C64.0934 39.1037 64.4466 39.0083 64.8508 39.0083C65.0963 39.0083 65.3342 39.049 65.5646 39.1302C65.795 39.2114 66.0018 39.3388 66.185 39.5126C66.3682 39.6863 66.5127 39.912 66.6185 40.1896C66.7242 40.4654 66.7771 40.8006 66.7771 41.1953V41.4956H63.3182V40.861H65.9471C65.9471 40.6382 65.9017 40.4408 65.8111 40.269C65.7204 40.0952 65.593 39.9583 65.4287 39.8582C65.2662 39.7581 65.0755 39.7081 64.8564 39.7081C64.6185 39.7081 64.4107 39.7666 64.2332 39.8837C64.0576 39.9989 63.9216 40.15 63.8253 40.337C63.7308 40.522 63.6836 40.7232 63.6836 40.9404V41.4361C63.6836 41.7269 63.7346 41.9743 63.8366 42.1783C63.9405 42.3823 64.0849 42.5381 64.27 42.6457C64.4551 42.7515 64.6713 42.8044 64.9187 42.8044C65.0793 42.8044 65.2256 42.7817 65.3578 42.7364C65.49 42.6892 65.6043 42.6193 65.7006 42.5267C65.7969 42.4342 65.8706 42.3199 65.9216 42.184L66.7233 42.3284C66.6591 42.5645 66.5439 42.7713 66.3777 42.9488C66.2134 43.1245 66.0066 43.2614 65.7573 43.3596C65.5099 43.4559 65.2275 43.5041 64.9102 43.5041ZM69.3458 43.5012C68.9945 43.5012 68.681 43.4115 68.4053 43.2321C68.1314 43.0508 67.9161 42.793 67.7594 42.4588C67.6045 42.1226 67.5271 41.7194 67.5271 41.2491C67.5271 40.7789 67.6055 40.3766 67.7622 40.0423C67.9209 39.7081 68.138 39.4522 68.4138 39.2746C68.6895 39.0971 69.0021 39.0083 69.3514 39.0083C69.6215 39.0083 69.8387 39.0537 70.003 39.1443C70.1692 39.2331 70.2976 39.337 70.3883 39.4559C70.4808 39.5749 70.5526 39.6797 70.6036 39.7704H70.6546V37.6146H71.5016V43.4163H70.6744V42.7392H70.6036C70.5526 42.8317 70.4789 42.9375 70.3826 43.0565C70.2882 43.1755 70.1579 43.2793 69.9917 43.3681C69.8255 43.4569 69.6102 43.5012 69.3458 43.5012ZM69.5327 42.7789C69.7764 42.7789 69.9822 42.7147 70.1503 42.5862C70.3203 42.4559 70.4487 42.2756 70.5356 42.0452C70.6243 41.8148 70.6687 41.5466 70.6687 41.2406C70.6687 40.9385 70.6253 40.6741 70.5384 40.4474C70.4515 40.2208 70.3241 40.0442 70.156 39.9177C69.9879 39.7912 69.7801 39.7279 69.5327 39.7279C69.2778 39.7279 69.0653 39.794 68.8954 39.9262C68.7254 40.0584 68.597 40.2387 68.5101 40.4673C68.4251 40.6958 68.3826 40.9536 68.3826 41.2406C68.3826 41.5315 68.426 41.793 68.5129 42.0253C68.5998 42.2576 68.7282 42.4418 68.8982 42.5777C69.07 42.7118 69.2816 42.7789 69.5327 42.7789ZM75.6007 41.9403L75.595 40.9064H75.7423L77.4761 39.065H78.4902L76.5129 41.1613H76.3797L75.6007 41.9403ZM74.8217 43.4163V37.6146H75.6687V43.4163H74.8217ZM77.5695 43.4163L76.0115 41.3483L76.595 40.7562L78.6092 43.4163H77.5695ZM79.2622 43.4163V39.065H80.1092V43.4163H79.2622ZM79.6899 38.3936C79.5426 38.3936 79.4161 38.3445 79.3103 38.2463C79.2064 38.1462 79.1545 38.0272 79.1545 37.8894C79.1545 37.7496 79.2064 37.6306 79.3103 37.5324C79.4161 37.4323 79.5426 37.3823 79.6899 37.3823C79.8372 37.3823 79.9628 37.4323 80.0667 37.5324C80.1724 37.6306 80.2253 37.7496 80.2253 37.8894C80.2253 38.0272 80.1724 38.1462 80.0667 38.2463C79.9628 38.3445 79.8372 38.3936 79.6899 38.3936ZM82.0957 40.8327V43.4163H81.2487V39.065H82.0617V39.7732H82.1155C82.2156 39.5428 82.3724 39.3577 82.5858 39.218C82.8011 39.0782 83.0721 39.0083 83.3988 39.0083C83.6953 39.0083 83.955 39.0707 84.1779 39.1953C84.4007 39.3181 84.5735 39.5013 84.6963 39.7449C84.819 39.9885 84.8804 40.2897 84.8804 40.6486V43.4163H84.0334V40.7505C84.0334 40.4352 83.9512 40.1887 83.7869 40.0112C83.6226 39.8318 83.3969 39.7421 83.1099 39.7421C82.9135 39.7421 82.7388 39.7845 82.5858 39.8695C82.4347 39.9545 82.3148 40.0792 82.226 40.2435C82.1392 40.4059 82.0957 40.6023 82.0957 40.8327ZM87.8407 45.1386C87.4951 45.1386 87.1977 45.0933 86.9484 45.0027C86.701 44.912 86.4989 44.7921 86.3422 44.6429C86.1854 44.4937 86.0683 44.3303 85.9909 44.1528L86.7189 43.8525C86.7699 43.9356 86.8379 44.0234 86.9229 44.116C87.0098 44.2104 87.1269 44.2907 87.2742 44.3568C87.4234 44.4229 87.615 44.4559 87.8492 44.4559C88.1703 44.4559 88.4356 44.3775 88.6453 44.2208C88.8549 44.0659 88.9597 43.8185 88.9597 43.4786V42.6231H88.9059C88.8549 42.7156 88.7812 42.8185 88.6849 42.9318C88.5905 43.0452 88.4602 43.1434 88.294 43.2265C88.1278 43.3096 87.9116 43.3511 87.6453 43.3511C87.3015 43.3511 86.9918 43.2708 86.7161 43.1103C86.4422 42.9479 86.2251 42.709 86.0645 42.3936C85.9059 42.0763 85.8266 41.6863 85.8266 41.2236C85.8266 40.7609 85.905 40.3643 86.0617 40.0338C86.2203 39.7033 86.4375 39.4503 86.7133 39.2746C86.989 39.0971 87.3015 39.0083 87.6509 39.0083C87.921 39.0083 88.1391 39.0537 88.3053 39.1443C88.4715 39.2331 88.6009 39.337 88.6934 39.4559C88.7878 39.5749 88.8606 39.6797 88.9115 39.7704H88.9739V39.065H89.8039V43.5126C89.8039 43.8865 89.717 44.1934 89.5433 44.4333C89.3695 44.6731 89.1344 44.8506 88.8379 44.9658C88.5433 45.081 88.2109 45.1386 87.8407 45.1386ZM87.8322 42.6486C88.0759 42.6486 88.2817 42.5919 88.4498 42.4786C88.6198 42.3634 88.7482 42.1991 88.8351 41.9857C88.9238 41.7704 88.9682 41.5126 88.9682 41.2123C88.9682 40.9196 88.9248 40.6618 88.8379 40.4389C88.751 40.2161 88.6235 40.0423 88.4555 39.9177C88.2874 39.7912 88.0796 39.7279 87.8322 39.7279C87.5773 39.7279 87.3648 39.794 87.1948 39.9262C87.0249 40.0565 86.8964 40.234 86.8096 40.4588C86.7246 40.6835 86.6821 40.9347 86.6821 41.2123C86.6821 41.4975 86.7255 41.7477 86.8124 41.963C86.8993 42.1783 87.0277 42.3464 87.1977 42.4673C87.3695 42.5881 87.5811 42.6486 87.8322 42.6486ZM92.5688 43.5012C92.2175 43.5012 91.904 43.4115 91.6283 43.2321C91.3544 43.0508 91.1391 42.793 90.9824 42.4588C90.8275 42.1226 90.7501 41.7194 90.7501 41.2491C90.7501 40.7789 90.8284 40.3766 90.9852 40.0423C91.1438 39.7081 91.361 39.4522 91.6368 39.2746C91.9125 39.0971 92.225 39.0083 92.5744 39.0083C92.8445 39.0083 93.0617 39.0537 93.226 39.1443C93.3922 39.2331 93.5206 39.337 93.6112 39.4559C93.7038 39.5749 93.7756 39.6797 93.8265 39.7704H93.8775V37.6146H94.7246V43.4163H93.8974V42.7392H93.8265C93.7756 42.8317 93.7019 42.9375 93.6056 43.0565C93.5112 43.1755 93.3808 43.2793 93.2146 43.3681C93.0485 43.4569 92.8332 43.5012 92.5688 43.5012ZM92.7557 42.7789C92.9994 42.7789 93.2052 42.7147 93.3733 42.5862C93.5433 42.4559 93.6717 42.2756 93.7586 42.0452C93.8473 41.8148 93.8917 41.5466 93.8917 41.2406C93.8917 40.9385 93.8483 40.6741 93.7614 40.4474C93.6745 40.2208 93.547 40.0442 93.379 39.9177C93.2109 39.7912 93.0031 39.7279 92.7557 39.7279C92.5008 39.7279 92.2883 39.794 92.1183 39.9262C91.9484 40.0584 91.8199 40.2387 91.7331 40.4673C91.6481 40.6958 91.6056 40.9536 91.6056 41.2406C91.6056 41.5315 91.649 41.793 91.7359 42.0253C91.8228 42.2576 91.9512 42.4418 92.1212 42.5777C92.293 42.7118 92.5045 42.7789 92.7557 42.7789ZM97.7663 43.5041C97.3584 43.5041 97.0024 43.4106 96.6983 43.2236C96.3943 43.0367 96.1582 42.7751 95.9901 42.4389C95.822 42.1028 95.738 41.7099 95.738 41.2605C95.738 40.8091 95.822 40.4144 95.9901 40.0763C96.1582 39.7383 96.3943 39.4758 96.6983 39.2888C97.0024 39.1018 97.3584 39.0083 97.7663 39.0083C98.1743 39.0083 98.5303 39.1018 98.8343 39.2888C99.1384 39.4758 99.3744 39.7383 99.5425 40.0763C99.7106 40.4144 99.7946 40.8091 99.7946 41.2605C99.7946 41.7099 99.7106 42.1028 99.5425 42.4389C99.3744 42.7751 99.1384 43.0367 98.8343 43.2236C98.5303 43.4106 98.1743 43.5041 97.7663 43.5041ZM97.7692 42.793C98.0336 42.793 98.2526 42.7232 98.4264 42.5834C98.6001 42.4436 98.7286 42.2576 98.8116 42.0253C98.8966 41.793 98.9391 41.5371 98.9391 41.2576C98.9391 40.98 98.8966 40.7251 98.8116 40.4928C98.7286 40.2586 98.6001 40.0707 98.4264 39.929C98.2526 39.7874 98.0336 39.7166 97.7692 39.7166C97.5029 39.7166 97.2819 39.7874 97.1063 39.929C96.9325 40.0707 96.8032 40.2586 96.7182 40.4928C96.6351 40.7251 96.5935 40.98 96.5935 41.2576C96.5935 41.5371 96.6351 41.793 96.7182 42.0253C96.8032 42.2576 96.9325 42.4436 97.1063 42.5834C97.2819 42.7232 97.5029 42.793 97.7692 42.793ZM100.74 43.4163V39.065H101.553V39.7732H101.607C101.698 39.5334 101.846 39.3464 102.052 39.2123C102.258 39.0763 102.504 39.0083 102.791 39.0083C103.082 39.0083 103.326 39.0763 103.522 39.2123C103.72 39.3483 103.867 39.5353 103.961 39.7732H104.006C104.11 39.5409 104.276 39.3558 104.502 39.218C104.729 39.0782 104.999 39.0083 105.312 39.0083C105.707 39.0083 106.029 39.132 106.278 39.3795C106.53 39.6269 106.655 39.9998 106.655 40.4984V43.4163H105.808V40.5777C105.808 40.2831 105.728 40.0697 105.567 39.9375C105.407 39.8053 105.215 39.7392 104.992 39.7392C104.716 39.7392 104.502 39.8242 104.349 39.9942C104.196 40.1623 104.12 40.3785 104.12 40.6429V43.4163H103.276V40.5239C103.276 40.2879 103.202 40.0981 103.055 39.9545C102.907 39.811 102.716 39.7392 102.479 39.7392C102.319 39.7392 102.171 39.7817 102.035 39.8667C101.901 39.9498 101.792 40.0659 101.709 40.2151C101.628 40.3643 101.587 40.5371 101.587 40.7336V43.4163H100.74Z" fill="black"/>
<path d="M114.888 38.5876L118.213 42.2452L121.538 38.5876H114.888Z" fill="black"/>
<path d="M191.44 37.6151V43.4167H190.562V38.4933H190.528L189.14 39.3998V38.5612L190.587 37.6151H191.44ZM195.029 43.5131C194.581 43.5112 194.199 43.3931 193.882 43.159C193.564 42.9248 193.322 42.5839 193.154 42.1363C192.986 41.6887 192.902 41.1495 192.902 40.5187C192.902 39.8899 192.986 39.3526 193.154 38.9069C193.324 38.4612 193.567 38.1212 193.885 37.887C194.204 37.6528 194.585 37.5358 195.029 37.5358C195.473 37.5358 195.853 37.6538 196.171 37.8899C196.488 38.124 196.731 38.464 196.899 38.9097C197.069 39.3535 197.154 39.8899 197.154 40.5187C197.154 41.1514 197.07 41.6915 196.902 42.1391C196.734 42.5848 196.491 42.9257 196.174 43.1618C195.856 43.396 195.475 43.5131 195.029 43.5131ZM195.029 42.7567C195.422 42.7567 195.729 42.565 195.95 42.1816C196.173 41.7982 196.284 41.244 196.284 40.5187C196.284 40.0372 196.233 39.6302 196.131 39.2978C196.031 38.9635 195.886 38.7104 195.698 38.5386C195.511 38.3648 195.288 38.278 195.029 38.278C194.638 38.278 194.331 38.4706 194.108 38.8559C193.886 39.2411 193.773 39.7954 193.771 40.5187C193.771 41.0022 193.821 41.4111 193.921 41.7454C194.023 42.0778 194.168 42.3299 194.355 42.5017C194.542 42.6717 194.767 42.7567 195.029 42.7567ZM200.178 43.5131C199.731 43.5112 199.348 43.3931 199.031 43.159C198.714 42.9248 198.471 42.5839 198.303 42.1363C198.135 41.6887 198.051 41.1495 198.051 40.5187C198.051 39.8899 198.135 39.3526 198.303 38.9069C198.473 38.4612 198.717 38.1212 199.034 37.887C199.353 37.6528 199.735 37.5358 200.178 37.5358C200.622 37.5358 201.003 37.6538 201.32 37.8899C201.637 38.124 201.88 38.464 202.048 38.9097C202.218 39.3535 202.303 39.8899 202.303 40.5187C202.303 41.1514 202.219 41.6915 202.051 42.1391C201.883 42.5848 201.64 42.9257 201.323 43.1618C201.006 43.396 200.624 43.5131 200.178 43.5131ZM200.178 42.7567C200.571 42.7567 200.878 42.565 201.099 42.1816C201.322 41.7982 201.433 41.244 201.433 40.5187C201.433 40.0372 201.382 39.6302 201.28 39.2978C201.18 38.9635 201.036 38.7104 200.847 38.5386C200.66 38.3648 200.437 38.278 200.178 38.278C199.788 38.278 199.481 38.4706 199.258 38.8559C199.035 39.2411 198.923 39.7954 198.921 40.5187C198.921 41.0022 198.971 41.4111 199.071 41.7454C199.173 42.0778 199.317 42.3299 199.504 42.5017C199.691 42.6717 199.916 42.7567 200.178 42.7567ZM203.667 43.4706C203.512 43.4706 203.379 43.4158 203.268 43.3063C203.156 43.1948 203.101 43.0608 203.101 42.904C203.101 42.7491 203.156 42.6169 203.268 42.5074C203.379 42.396 203.512 42.3403 203.667 42.3403C203.822 42.3403 203.955 42.396 204.067 42.5074C204.178 42.6169 204.234 42.7491 204.234 42.904C204.234 43.0079 204.207 43.1032 204.154 43.1901C204.103 43.2751 204.035 43.3431 203.95 43.3941C203.865 43.4451 203.771 43.4706 203.667 43.4706ZM207.166 43.5131C206.719 43.5112 206.336 43.3931 206.019 43.159C205.702 42.9248 205.459 42.5839 205.291 42.1363C205.123 41.6887 205.039 41.1495 205.039 40.5187C205.039 39.8899 205.123 39.3526 205.291 38.9069C205.461 38.4612 205.705 38.1212 206.022 37.887C206.341 37.6528 206.723 37.5358 207.166 37.5358C207.61 37.5358 207.991 37.6538 208.308 37.8899C208.625 38.124 208.868 38.464 209.036 38.9097C209.206 39.3535 209.291 39.8899 209.291 40.5187C209.291 41.1514 209.207 41.6915 209.039 42.1391C208.871 42.5848 208.628 42.9257 208.311 43.1618C207.994 43.396 207.612 43.5131 207.166 43.5131ZM207.166 42.7567C207.559 42.7567 207.866 42.565 208.087 42.1816C208.31 41.7982 208.421 41.244 208.421 40.5187C208.421 40.0372 208.37 39.6302 208.268 39.2978C208.168 38.9635 208.024 38.7104 207.835 38.5386C207.648 38.3648 207.425 38.278 207.166 38.278C206.775 38.278 206.469 38.4706 206.246 38.8559C206.023 39.2411 205.911 39.7954 205.909 40.5187C205.909 41.0022 205.959 41.4111 206.059 41.7454C206.161 42.0778 206.305 42.3299 206.492 42.5017C206.679 42.6717 206.904 42.7567 207.166 42.7567ZM212.316 43.5131C211.868 43.5112 211.486 43.3931 211.169 43.159C210.851 42.9248 210.609 42.5839 210.44 42.1363C210.272 41.6887 210.188 41.1495 210.188 40.5187C210.188 39.8899 210.272 39.3526 210.44 38.9069C210.61 38.4612 210.854 38.1212 211.171 37.887C211.491 37.6528 211.872 37.5358 212.316 37.5358C212.76 37.5358 213.14 37.6538 213.457 37.8899C213.775 38.124 214.017 38.464 214.186 38.9097C214.355 39.3535 214.44 39.8899 214.44 40.5187C214.44 41.1514 214.356 41.6915 214.188 42.1391C214.02 42.5848 213.778 42.9257 213.46 43.1618C213.143 43.396 212.762 43.5131 212.316 43.5131ZM212.316 42.7567C212.709 42.7567 213.016 42.565 213.236 42.1816C213.459 41.7982 213.571 41.244 213.571 40.5187C213.571 40.0372 213.52 39.6302 213.418 39.2978C213.318 38.9635 213.173 38.7104 212.984 38.5386C212.797 38.3648 212.575 38.278 212.316 38.278C211.925 38.278 211.618 38.4706 211.395 38.8559C211.172 39.2411 211.06 39.7954 211.058 40.5187C211.058 41.0022 211.108 41.4111 211.208 41.7454C211.31 42.0778 211.455 42.3299 211.642 42.5017C211.829 42.6717 212.053 42.7567 212.316 42.7567Z" fill="black"/>
<path d="M221.189 39.0159H221.628V40.9238C221.628 41.1269 221.58 41.3067 221.485 41.4635C221.389 41.6193 221.255 41.7421 221.083 41.8318C220.91 41.9205 220.707 41.9649 220.475 41.9649C220.244 41.9649 220.041 41.9205 219.869 41.8318C219.696 41.7421 219.562 41.6193 219.466 41.4635C219.371 41.3067 219.323 41.1269 219.323 40.9238V39.0159H219.761V40.8884C219.761 41.0197 219.79 41.1363 219.847 41.2383C219.906 41.3403 219.989 41.4205 220.095 41.4791C220.202 41.5367 220.329 41.5655 220.475 41.5655C220.622 41.5655 220.749 41.5367 220.856 41.4791C220.964 41.4205 221.046 41.3403 221.102 41.2383C221.16 41.1363 221.189 41.0197 221.189 40.8884V39.0159ZM223.846 39.7779C223.831 39.6439 223.769 39.54 223.659 39.4663C223.55 39.3917 223.412 39.3544 223.246 39.3544C223.127 39.3544 223.024 39.3733 222.937 39.4111C222.85 39.4479 222.783 39.4989 222.734 39.5641C222.687 39.6283 222.664 39.7015 222.664 39.7836C222.664 39.8525 222.68 39.912 222.712 39.9621C222.745 40.0121 222.788 40.0542 222.841 40.0881C222.894 40.1212 222.952 40.1491 223.013 40.1717C223.075 40.1934 223.134 40.2114 223.191 40.2255L223.474 40.2992C223.566 40.3219 223.661 40.3525 223.759 40.3913C223.856 40.43 223.946 40.481 224.029 40.5442C224.112 40.6075 224.179 40.6859 224.23 40.7794C224.282 40.8728 224.308 40.9847 224.308 41.1151C224.308 41.2794 224.266 41.4252 224.181 41.5527C224.097 41.6802 223.974 41.7808 223.814 41.8544C223.654 41.9281 223.461 41.9649 223.234 41.9649C223.017 41.9649 222.829 41.9304 222.671 41.8615C222.512 41.7926 222.388 41.6948 222.298 41.5683C222.208 41.4408 222.159 41.2897 222.149 41.1151H222.589C222.597 41.2199 222.631 41.3072 222.691 41.3771C222.751 41.446 222.828 41.4975 222.921 41.5315C223.016 41.5645 223.119 41.5811 223.232 41.5811C223.355 41.5811 223.465 41.5617 223.562 41.523C223.659 41.4833 223.735 41.4286 223.791 41.3587C223.847 41.2879 223.875 41.2052 223.875 41.1108C223.875 41.0249 223.85 40.9545 223.801 40.8998C223.753 40.845 223.687 40.7997 223.604 40.7638C223.522 40.7279 223.429 40.6963 223.325 40.6689L222.982 40.5754C222.75 40.5121 222.566 40.4191 222.43 40.2964C222.295 40.1736 222.227 40.0112 222.227 39.8091C222.227 39.642 222.273 39.4961 222.363 39.3714C222.454 39.2468 222.577 39.15 222.732 39.0811C222.886 39.0112 223.061 38.9763 223.256 38.9763C223.452 38.9763 223.625 39.0107 223.776 39.0797C223.927 39.1486 224.046 39.2435 224.132 39.3644C224.219 39.4843 224.265 39.6221 224.268 39.7779H223.846ZM225.77 41.9167H224.831V39.0159H225.8C226.084 39.0159 226.328 39.074 226.532 39.1901C226.736 39.3053 226.892 39.4711 227.001 39.6873C227.111 39.9026 227.165 40.1609 227.165 40.4621C227.165 40.7643 227.11 41.0239 227 41.2411C226.89 41.4583 226.731 41.6254 226.524 41.7425C226.316 41.8587 226.065 41.9167 225.77 41.9167ZM225.269 41.5343H225.746C225.967 41.5343 226.151 41.4928 226.297 41.4097C226.443 41.3256 226.553 41.2043 226.626 41.0456C226.698 40.8861 226.735 40.6915 226.735 40.4621C226.735 40.2345 226.698 40.0414 226.626 39.8828C226.554 39.7241 226.447 39.6037 226.304 39.5216C226.162 39.4394 225.985 39.3983 225.773 39.3983H225.269V41.5343Z" fill="black" fill-opacity="0.39"/>
<rect x="17.9452" y="61.5048" width="215.387" height="29.6181" rx="2.82529" stroke="black" stroke-opacity="0.3" stroke-width="0.332388"/>
<g clip-path="url(#clip1_14890_5561)">
<rect width="16.655" height="16.655" transform="translate(24.4268 67.9863)" fill="white"/>
<path d="M32.7543 84.6413C37.3534 84.6413 41.0818 80.913 41.0818 76.3138C41.0818 71.7147 37.3534 67.9863 32.7543 67.9863C28.1551 67.9863 24.4268 71.7147 24.4268 76.3138C24.4268 80.913 28.1551 84.6413 32.7543 84.6413Z" fill="#F0F0F0"/>
<path d="M24.4268 76.3139C24.4268 79.8945 26.6866 82.9468 29.8578 84.1235V68.5044C26.6866 69.681 24.4268 72.7334 24.4268 76.3139Z" fill="#6DA544"/>
<path d="M41.0819 76.3139C41.0819 72.7334 38.822 69.681 35.6509 68.5044V84.1235C38.822 82.9468 41.0819 79.8945 41.0819 76.3139Z" fill="#6DA544"/>
</g>
<path d="M53.3821 73.512V79.3137H52.5776L49.6286 75.0588H49.5748V79.3137H48.6994V73.512H49.5096L52.4614 77.7727H52.5152V73.512H53.3821ZM54.591 79.3137V74.9625H55.438V79.3137H54.591ZM55.0188 74.2911C54.8715 74.2911 54.7449 74.242 54.6392 74.1438C54.5353 74.0437 54.4834 73.9247 54.4834 73.7868C54.4834 73.6471 54.5353 73.5281 54.6392 73.4299C54.7449 73.3298 54.8715 73.2798 55.0188 73.2798C55.1661 73.2798 55.2917 73.3298 55.3955 73.4299C55.5013 73.5281 55.5542 73.6471 55.5542 73.7868C55.5542 73.9247 55.5013 74.0437 55.3955 74.1438C55.2917 74.242 55.1661 74.2911 55.0188 74.2911ZM58.4019 81.0361C58.0563 81.0361 57.7589 80.9908 57.5096 80.9001C57.2622 80.8095 57.0601 80.6895 56.9033 80.5403C56.7466 80.3911 56.6295 80.2278 56.5521 80.0503L57.2801 79.75C57.3311 79.8331 57.3991 79.9209 57.4841 80.0134C57.5709 80.1079 57.688 80.1881 57.8353 80.2542C57.9845 80.3203 58.1762 80.3534 58.4104 80.3534C58.7315 80.3534 58.9968 80.275 59.2064 80.1182C59.4161 79.9634 59.5209 79.716 59.5209 79.376V78.5205H59.4671C59.4161 78.6131 59.3424 78.716 59.2461 78.8293C59.1517 78.9426 59.0214 79.0408 58.8552 79.1239C58.689 79.207 58.4727 79.2486 58.2064 79.2486C57.8627 79.2486 57.553 79.1683 57.2773 79.0078C57.0034 78.8454 56.7862 78.6065 56.6257 78.2911C56.4671 77.9738 56.3878 77.5838 56.3878 77.1211C56.3878 76.6584 56.4661 76.2618 56.6229 75.9313C56.7815 75.6008 56.9987 75.3477 57.2744 75.1721C57.5502 74.9946 57.8627 74.9058 58.2121 74.9058C58.4822 74.9058 58.7003 74.9511 58.8665 75.0418C59.0327 75.1305 59.1621 75.2344 59.2546 75.3534C59.349 75.4724 59.4217 75.5772 59.4727 75.6678H59.535V74.9625H60.3651V79.41C60.3651 79.784 60.2782 80.0909 60.1044 80.3307C59.9307 80.5706 59.6956 80.7481 59.3991 80.8633C59.1045 80.9785 58.7721 81.0361 58.4019 81.0361ZM58.3934 78.546C58.637 78.546 58.8429 78.4894 59.011 78.376C59.1809 78.2608 59.3094 78.0965 59.3962 77.8831C59.485 77.6678 59.5294 77.41 59.5294 77.1098C59.5294 76.817 59.4859 76.5592 59.3991 76.3364C59.3122 76.1135 59.1847 75.9398 59.0166 75.8152C58.8486 75.6886 58.6408 75.6254 58.3934 75.6254C58.1385 75.6254 57.926 75.6915 57.756 75.8237C57.586 75.954 57.4576 76.1315 57.3708 76.3562C57.2858 76.581 57.2433 76.8321 57.2433 77.1098C57.2433 77.3949 57.2867 77.6452 57.3736 77.8605C57.4605 78.0758 57.5889 78.2438 57.7589 78.3647C57.9307 78.4856 58.1422 78.546 58.3934 78.546ZM63.3764 79.4015C62.9477 79.4015 62.5785 79.3099 62.2687 79.1268C61.9609 78.9417 61.7229 78.682 61.5549 78.3477C61.3887 78.0116 61.3056 77.6178 61.3056 77.1664C61.3056 76.7207 61.3887 76.3279 61.5549 75.988C61.7229 75.648 61.9571 75.3827 62.2574 75.1919C62.5596 75.0012 62.9127 74.9058 63.3169 74.9058C63.5624 74.9058 63.8004 74.9464 64.0308 75.0276C64.2612 75.1088 64.468 75.2363 64.6512 75.4101C64.8344 75.5838 64.9788 75.8095 65.0846 76.0871C65.1904 76.3628 65.2432 76.6981 65.2432 77.0928V77.393H61.7843V76.7585H64.4132C64.4132 76.5356 64.3679 76.3383 64.2772 76.1664C64.1866 75.9927 64.0591 75.8558 63.8948 75.7557C63.7324 75.6556 63.5416 75.6055 63.3226 75.6055C63.0846 75.6055 62.8769 75.6641 62.6993 75.7812C62.5237 75.8964 62.3877 76.0474 62.2914 76.2344C62.197 76.4195 62.1498 76.6206 62.1498 76.8378V77.3336C62.1498 77.6244 62.2008 77.8718 62.3027 78.0758C62.4066 78.2797 62.5511 78.4355 62.7362 78.5432C62.9212 78.6489 63.1375 78.7018 63.3849 78.7018C63.5454 78.7018 63.6918 78.6792 63.824 78.6338C63.9562 78.5866 64.0704 78.5167 64.1668 78.4242C64.2631 78.3317 64.3367 78.2174 64.3877 78.0814L65.1894 78.2259C65.1252 78.462 65.01 78.6688 64.8438 78.8463C64.6795 79.0219 64.4727 79.1589 64.2234 79.2571C63.976 79.3534 63.6937 79.4015 63.3764 79.4015ZM66.183 79.3137V74.9625H67.0017V75.6537H67.0471C67.1264 75.4195 67.2661 75.2354 67.4663 75.1013C67.6684 74.9653 67.8969 74.8973 68.1519 74.8973C68.2047 74.8973 68.2671 74.8992 68.3388 74.903C68.4125 74.9068 68.4701 74.9115 68.5116 74.9171V75.7273C68.4776 75.7179 68.4172 75.7075 68.3303 75.6962C68.2435 75.683 68.1566 75.6763 68.0697 75.6763C67.8695 75.6763 67.6911 75.7188 67.5343 75.8038C67.3794 75.8869 67.2567 76.0031 67.166 76.1523C67.0754 76.2996 67.0301 76.4677 67.0301 76.6565V79.3137H66.183ZM69.2446 79.3137V74.9625H70.0917V79.3137H69.2446ZM69.6724 74.2911C69.5251 74.2911 69.3986 74.242 69.2928 74.1438C69.1889 74.0437 69.137 73.9247 69.137 73.7868C69.137 73.6471 69.1889 73.5281 69.2928 73.4299C69.3986 73.3298 69.5251 73.2798 69.6724 73.2798C69.8197 73.2798 69.9453 73.3298 70.0492 73.4299C70.1549 73.5281 70.2078 73.6471 70.2078 73.7868C70.2078 73.9247 70.1549 74.0437 70.0492 74.1438C69.9453 74.242 69.8197 74.2911 69.6724 74.2911ZM72.4975 79.41C72.2217 79.41 71.9724 79.359 71.7496 79.2571C71.5267 79.1532 71.3501 79.0031 71.2198 78.8066C71.0914 78.6102 71.0272 78.3694 71.0272 78.0843C71.0272 77.8388 71.0744 77.6367 71.1688 77.478C71.2633 77.3194 71.3908 77.1938 71.5513 77.1013C71.7118 77.0087 71.8912 76.9388 72.0895 76.8916C72.2878 76.8444 72.4899 76.8085 72.6958 76.784C72.9564 76.7538 73.1679 76.7292 73.3303 76.7103C73.4927 76.6896 73.6108 76.6565 73.6844 76.6112C73.7581 76.5659 73.7949 76.4922 73.7949 76.3902V76.3704C73.7949 76.123 73.725 75.9313 73.5853 75.7953C73.4474 75.6593 73.2415 75.5914 72.9677 75.5914C72.6825 75.5914 72.4578 75.6546 72.2935 75.7812C72.1311 75.9058 72.0187 76.0446 71.9564 76.1976L71.1603 76.0163C71.2548 75.7519 71.3926 75.5385 71.5739 75.3761C71.7571 75.2118 71.9677 75.0928 72.2057 75.0191C72.4436 74.9436 72.6939 74.9058 72.9564 74.9058C73.1301 74.9058 73.3143 74.9266 73.5088 74.9681C73.7052 75.0078 73.8884 75.0814 74.0584 75.1891C74.2302 75.2967 74.3709 75.4507 74.4804 75.6508C74.59 75.8491 74.6448 76.1069 74.6448 76.4242V79.3137H73.8176V78.7188H73.7836C73.7288 78.8284 73.6466 78.936 73.5371 79.0418C73.4276 79.1475 73.2869 79.2353 73.115 79.3052C72.9432 79.3751 72.7373 79.41 72.4975 79.41ZM72.6816 78.7302C72.9158 78.7302 73.116 78.6839 73.2822 78.5913C73.4502 78.4988 73.5777 78.3779 73.6646 78.2287C73.7533 78.0777 73.7977 77.9162 73.7977 77.7443V77.1834C73.7675 77.2136 73.709 77.242 73.6221 77.2684C73.5371 77.293 73.4398 77.3147 73.3303 77.3336C73.2208 77.3506 73.1141 77.3666 73.0102 77.3817C72.9063 77.3949 72.8195 77.4063 72.7496 77.4157C72.5853 77.4365 72.4351 77.4714 72.2992 77.5205C72.1651 77.5696 72.0574 77.6405 71.9762 77.733C71.8969 77.8236 71.8572 77.9445 71.8572 78.0956C71.8572 78.3052 71.9347 78.4639 72.0895 78.5715C72.2444 78.6773 72.4417 78.7302 72.6816 78.7302Z" fill="black"/>
<path d="M83.042 74.4851L86.367 78.1426L89.692 74.4851H83.042Z" fill="black"/>
<path d="M179.418 73.5123V79.314H178.54V74.3905H178.506L177.118 75.297V74.4585L178.565 73.5123H179.418ZM183.007 79.4103C182.56 79.4084 182.177 79.2904 181.86 79.0562C181.543 78.822 181.3 78.4811 181.132 78.0335C180.964 77.5859 180.88 77.0467 180.88 76.416C180.88 75.7871 180.964 75.2498 181.132 74.8041C181.302 74.3584 181.546 74.0184 181.863 73.7842C182.182 73.5501 182.564 73.433 183.007 73.433C183.451 73.433 183.832 73.551 184.149 73.7871C184.466 74.0213 184.709 74.3612 184.877 74.8069C185.047 75.2507 185.132 75.7871 185.132 76.416C185.132 77.0486 185.048 77.5888 184.88 78.0364C184.712 78.4821 184.469 78.8229 184.152 79.059C183.835 79.2932 183.453 79.4103 183.007 79.4103ZM183.007 78.6539C183.4 78.6539 183.707 78.4622 183.928 78.0788C184.151 77.6955 184.262 77.1412 184.262 76.416C184.262 75.9344 184.211 75.5274 184.109 75.195C184.009 74.8607 183.865 74.6077 183.676 74.4358C183.489 74.2621 183.266 74.1752 183.007 74.1752C182.616 74.1752 182.31 74.3678 182.087 74.7531C181.864 75.1383 181.751 75.6926 181.75 76.416C181.75 76.8994 181.8 77.3083 181.9 77.6426C182.002 77.975 182.146 78.2271 182.333 78.399C182.52 78.5689 182.745 78.6539 183.007 78.6539ZM187.04 78.5208L186.997 78.8295C186.969 79.0562 186.921 79.2922 186.853 79.5378C186.787 79.7852 186.718 80.0146 186.646 80.2261C186.576 80.4377 186.519 80.6057 186.473 80.7304H185.873C185.897 80.6133 185.931 80.4547 185.975 80.2545C186.018 80.0562 186.061 79.8343 186.102 79.5888C186.144 79.3432 186.175 79.093 186.196 78.838L186.224 78.5208H187.04ZM190.034 79.4103C189.587 79.4084 189.204 79.2904 188.887 79.0562C188.57 78.822 188.327 78.4811 188.159 78.0335C187.991 77.5859 187.907 77.0467 187.907 76.416C187.907 75.7871 187.991 75.2498 188.159 74.8041C188.329 74.3584 188.572 74.0184 188.89 73.7842C189.209 73.5501 189.59 73.433 190.034 73.433C190.478 73.433 190.859 73.551 191.176 73.7871C191.493 74.0213 191.736 74.3612 191.904 74.8069C192.074 75.2507 192.159 75.7871 192.159 76.416C192.159 77.0486 192.075 77.5888 191.907 78.0364C191.739 78.4821 191.496 78.8229 191.179 79.059C190.861 79.2932 190.48 79.4103 190.034 79.4103ZM190.034 78.6539C190.427 78.6539 190.734 78.4622 190.955 78.0788C191.178 77.6955 191.289 77.1412 191.289 76.416C191.289 75.9344 191.238 75.5274 191.136 75.195C191.036 74.8607 190.892 74.6077 190.703 74.4358C190.516 74.2621 190.293 74.1752 190.034 74.1752C189.643 74.1752 189.336 74.3678 189.114 74.7531C188.891 75.1383 188.778 75.6926 188.776 76.416C188.776 76.8994 188.826 77.3083 188.927 77.6426C189.029 77.975 189.173 78.2271 189.36 78.399C189.547 78.5689 189.772 78.6539 190.034 78.6539ZM195.184 79.4103C194.736 79.4084 194.354 79.2904 194.036 79.0562C193.719 78.822 193.476 78.4811 193.308 78.0335C193.14 77.5859 193.056 77.0467 193.056 76.416C193.056 75.7871 193.14 75.2498 193.308 74.8041C193.478 74.3584 193.722 74.0184 194.039 73.7842C194.358 73.5501 194.74 73.433 195.184 73.433C195.627 73.433 196.008 73.551 196.325 73.7871C196.643 74.0213 196.885 74.3612 197.053 74.8069C197.223 75.2507 197.308 75.7871 197.308 76.416C197.308 77.0486 197.224 77.5888 197.056 78.0364C196.888 78.4821 196.645 78.8229 196.328 79.059C196.011 79.2932 195.629 79.4103 195.184 79.4103ZM195.184 78.6539C195.576 78.6539 195.883 78.4622 196.104 78.0788C196.327 77.6955 196.439 77.1412 196.439 76.416C196.439 75.9344 196.388 75.5274 196.286 75.195C196.186 74.8607 196.041 74.6077 195.852 74.4358C195.665 74.2621 195.442 74.1752 195.184 74.1752C194.793 74.1752 194.486 74.3678 194.263 74.7531C194.04 75.1383 193.928 75.6926 193.926 76.416C193.926 76.8994 193.976 77.3083 194.076 77.6426C194.178 77.975 194.322 78.2271 194.509 78.399C194.696 78.5689 194.921 78.6539 195.184 78.6539ZM200.333 79.4103C199.885 79.4084 199.503 79.2904 199.186 79.0562C198.868 78.822 198.626 78.4811 198.458 78.0335C198.29 77.5859 198.206 77.0467 198.206 76.416C198.206 75.7871 198.29 75.2498 198.458 74.8041C198.628 74.3584 198.871 74.0184 199.189 73.7842C199.508 73.5501 199.889 73.433 200.333 73.433C200.777 73.433 201.157 73.551 201.475 73.7871C201.792 74.0213 202.035 74.3612 202.203 74.8069C202.373 75.2507 202.458 75.7871 202.458 76.416C202.458 77.0486 202.374 77.5888 202.206 78.0364C202.037 78.4821 201.795 78.8229 201.478 79.059C201.16 79.2932 200.779 79.4103 200.333 79.4103ZM200.333 78.6539C200.726 78.6539 201.033 78.4622 201.254 78.0788C201.477 77.6955 201.588 77.1412 201.588 76.416C201.588 75.9344 201.537 75.5274 201.435 75.195C201.335 74.8607 201.19 74.6077 201.002 74.4358C200.815 74.2621 200.592 74.1752 200.333 74.1752C199.942 74.1752 199.635 74.3678 199.412 74.7531C199.19 75.1383 199.077 75.6926 199.075 76.416C199.075 76.8994 199.125 77.3083 199.225 77.6426C199.327 77.975 199.472 78.2271 199.659 78.399C199.846 78.5689 200.071 78.6539 200.333 78.6539ZM203.822 79.3678C203.667 79.3678 203.534 79.313 203.422 79.2035C203.311 79.0921 203.255 78.958 203.255 78.8012C203.255 78.6464 203.311 78.5142 203.422 78.4046C203.534 78.2932 203.667 78.2375 203.822 78.2375C203.977 78.2375 204.11 78.2932 204.221 78.4046C204.333 78.5142 204.388 78.6464 204.388 78.8012C204.388 78.9051 204.362 79.0005 204.309 79.0873C204.258 79.1723 204.19 79.2403 204.105 79.2913C204.02 79.3423 203.926 79.3678 203.822 79.3678ZM207.321 79.4103C206.873 79.4084 206.491 79.2904 206.174 79.0562C205.856 78.822 205.614 78.4811 205.446 78.0335C205.278 77.5859 205.194 77.0467 205.194 76.416C205.194 75.7871 205.278 75.2498 205.446 74.8041C205.616 74.3584 205.859 74.0184 206.177 73.7842C206.496 73.5501 206.877 73.433 207.321 73.433C207.765 73.433 208.145 73.551 208.463 73.7871C208.78 74.0213 209.023 74.3612 209.191 74.8069C209.361 75.2507 209.446 75.7871 209.446 76.416C209.446 77.0486 209.362 77.5888 209.193 78.0364C209.025 78.4821 208.783 78.8229 208.465 79.059C208.148 79.2932 207.767 79.4103 207.321 79.4103ZM207.321 78.6539C207.714 78.6539 208.021 78.4622 208.242 78.0788C208.465 77.6955 208.576 77.1412 208.576 76.416C208.576 75.9344 208.525 75.5274 208.423 75.195C208.323 74.8607 208.178 74.6077 207.99 74.4358C207.803 74.2621 207.58 74.1752 207.321 74.1752C206.93 74.1752 206.623 74.3678 206.4 74.7531C206.177 75.1383 206.065 75.6926 206.063 76.416C206.063 76.8994 206.113 77.3083 206.213 77.6426C206.315 77.975 206.46 78.2271 206.647 78.399C206.834 78.5689 207.058 78.6539 207.321 78.6539ZM212.47 79.4103C212.023 79.4084 211.64 79.2904 211.323 79.0562C211.006 78.822 210.763 78.4811 210.595 78.0335C210.427 77.5859 210.343 77.0467 210.343 76.416C210.343 75.7871 210.427 75.2498 210.595 74.8041C210.765 74.3584 211.009 74.0184 211.326 73.7842C211.645 73.5501 212.027 73.433 212.47 73.433C212.914 73.433 213.295 73.551 213.612 73.7871C213.929 74.0213 214.172 74.3612 214.34 74.8069C214.51 75.2507 214.595 75.7871 214.595 76.416C214.595 77.0486 214.511 77.5888 214.343 78.0364C214.175 78.4821 213.932 78.8229 213.615 79.059C213.298 79.2932 212.916 79.4103 212.47 79.4103ZM212.47 78.6539C212.863 78.6539 213.17 78.4622 213.391 78.0788C213.614 77.6955 213.725 77.1412 213.725 76.416C213.725 75.9344 213.674 75.5274 213.572 75.195C213.472 74.8607 213.328 74.6077 213.139 74.4358C212.952 74.2621 212.729 74.1752 212.47 74.1752C212.079 74.1752 211.773 74.3678 211.55 74.7531C211.327 75.1383 211.214 75.6926 211.213 76.416C211.213 76.8994 211.263 77.3083 211.363 77.6426C211.465 77.975 211.609 78.2271 211.796 78.399C211.983 78.5689 212.208 78.6539 212.47 78.6539Z" fill="black"/>
<path d="M221.643 74.9131V77.814H221.241L219.766 75.6865H219.739V77.814H219.302V74.9131H219.707L221.183 77.0434H221.21V74.9131H221.643ZM224.245 75.8296C224.217 75.7436 224.18 75.6667 224.134 75.5987C224.089 75.5297 224.034 75.4712 223.971 75.423C223.908 75.3739 223.836 75.3366 223.754 75.3111C223.674 75.2856 223.586 75.2729 223.49 75.2729C223.326 75.2729 223.179 75.3149 223.048 75.399C222.916 75.483 222.813 75.6062 222.736 75.7686C222.661 75.9301 222.623 76.1279 222.623 76.3621C222.623 76.5973 222.661 76.796 222.737 76.9584C222.814 77.1209 222.919 77.2441 223.052 77.3281C223.185 77.4122 223.337 77.4542 223.507 77.4542C223.664 77.4542 223.802 77.4221 223.919 77.3579C224.037 77.2937 224.128 77.203 224.192 77.0859C224.257 76.9679 224.29 76.8291 224.29 76.6695L224.403 76.6907H223.573V76.3296H224.713V76.6596C224.713 76.9032 224.661 77.1147 224.558 77.2941C224.455 77.4726 224.312 77.6105 224.13 77.7077C223.949 77.805 223.741 77.8536 223.507 77.8536C223.244 77.8536 223.014 77.7932 222.815 77.6723C222.618 77.5515 222.464 77.3801 222.354 77.1582C222.243 76.9353 222.188 76.6709 222.188 76.365C222.188 76.1336 222.22 75.9259 222.284 75.7417C222.348 75.5576 222.439 75.4013 222.555 75.2729C222.672 75.1435 222.809 75.0449 222.967 74.9769C223.126 74.9079 223.299 74.8735 223.487 74.8735C223.644 74.8735 223.789 74.8966 223.924 74.9429C224.06 74.9891 224.181 75.0548 224.287 75.1398C224.394 75.2247 224.482 75.3258 224.552 75.4429C224.622 75.559 224.669 75.6879 224.694 75.8296H224.245ZM227.61 74.9131V77.814H227.208L225.734 75.6865H225.707V77.814H225.269V74.9131H225.674L227.15 77.0434H227.177V74.9131H227.61Z" fill="black" fill-opacity="0.39"/>
<path d="M33.2115 103.986V106.887H32.8602V104.354H32.8432L32.135 104.825V104.468L32.8602 103.986H33.2115ZM37.1222 103.986H37.4735V105.907C37.4735 106.105 37.4267 106.282 37.3333 106.438C37.2407 106.593 37.1099 106.715 36.9409 106.805C36.7719 106.894 36.5736 106.938 36.346 106.938C36.1184 106.938 35.9201 106.894 35.7511 106.805C35.5821 106.715 35.4508 106.593 35.3573 106.438C35.2648 106.282 35.2185 106.105 35.2185 105.907V103.986H35.5698V105.878C35.5698 106.02 35.601 106.146 35.6633 106.257C35.7256 106.366 35.8144 106.453 35.9296 106.516C36.0457 106.578 36.1845 106.609 36.346 106.609C36.5075 106.609 36.6463 106.578 36.7624 106.516C36.8786 106.453 36.9673 106.366 37.0287 106.257C37.0911 106.146 37.1222 106.02 37.1222 105.878V103.986ZM39.7614 104.711C39.7444 104.568 39.6754 104.456 39.5546 104.377C39.4337 104.298 39.2854 104.258 39.1098 104.258C38.9814 104.258 38.869 104.279 38.7727 104.32C38.6773 104.362 38.6027 104.419 38.5489 104.492C38.496 104.564 38.4696 104.647 38.4696 104.74C38.4696 104.817 38.488 104.884 38.5248 104.939C38.5626 104.994 38.6108 105.04 38.6693 105.077C38.7278 105.113 38.7892 105.142 38.8534 105.166C38.9176 105.189 38.9767 105.207 39.0305 105.221L39.3251 105.301C39.4006 105.32 39.4847 105.348 39.5772 105.383C39.6707 105.418 39.7599 105.465 39.8449 105.526C39.9309 105.585 40.0017 105.662 40.0574 105.755C40.1131 105.849 40.141 105.963 40.141 106.099C40.141 106.256 40.0999 106.398 40.0177 106.524C39.9365 106.651 39.8175 106.751 39.6608 106.826C39.505 106.901 39.3157 106.938 39.0928 106.938C38.8851 106.938 38.7052 106.904 38.5532 106.837C38.4021 106.77 38.2831 106.677 38.1962 106.557C38.1103 106.437 38.0617 106.298 38.0503 106.139H38.4129C38.4224 106.249 38.4592 106.339 38.5234 106.411C38.5886 106.482 38.6707 106.535 38.7699 106.57C38.87 106.604 38.9776 106.621 39.0928 106.621C39.2269 106.621 39.3473 106.599 39.454 106.556C39.5607 106.511 39.6452 106.45 39.7075 106.371C39.7699 106.292 39.801 106.2 39.801 106.094C39.801 105.997 39.7741 105.919 39.7203 105.859C39.6665 105.798 39.5956 105.749 39.5078 105.711C39.42 105.674 39.3251 105.641 39.2231 105.612L38.8662 105.51C38.6396 105.445 38.4601 105.352 38.3279 105.231C38.1957 105.11 38.1296 104.952 38.1296 104.757C38.1296 104.594 38.1736 104.453 38.2614 104.332C38.3501 104.21 38.4691 104.115 38.6183 104.048C38.7684 103.98 38.9361 103.946 39.1211 103.946C39.3081 103.946 39.4743 103.98 39.6197 104.047C39.7651 104.113 39.8803 104.204 39.9653 104.319C40.0513 104.434 40.0966 104.565 40.1013 104.711H39.7614ZM41.6137 106.887H40.7185V103.986H41.6534C41.9347 103.986 42.1755 104.044 42.3757 104.16C42.5759 104.276 42.7294 104.441 42.8361 104.658C42.9428 104.873 42.9961 105.131 42.9961 105.431C42.9961 105.733 42.9423 105.993 42.8346 106.211C42.727 106.429 42.5703 106.596 42.3644 106.713C42.1585 106.829 41.9083 106.887 41.6137 106.887ZM41.0698 106.575H41.591C41.8309 106.575 42.0296 106.529 42.1873 106.437C42.345 106.344 42.4626 106.212 42.54 106.041C42.6175 105.87 42.6562 105.667 42.6562 105.431C42.6562 105.197 42.6179 104.995 42.5414 104.826C42.465 104.656 42.3507 104.526 42.1987 104.435C42.0466 104.344 41.8573 104.298 41.6307 104.298H41.0698V106.575ZM44.7978 105.17V104.864H46.5428V105.17H44.7978ZM44.7978 106.009V105.703H46.5428V106.009H44.7978ZM48.4979 106.887L49.7953 104.32V104.298H48.2996V103.986H50.1579V104.315L48.8661 106.887H48.4979ZM51.5534 106.927C51.3873 106.927 51.2376 106.894 51.1044 106.827C50.9713 106.761 50.8646 106.671 50.7843 106.556C50.7041 106.44 50.6602 106.309 50.6526 106.162H50.9925C51.0058 106.293 51.0653 106.402 51.171 106.488C51.2777 106.573 51.4052 106.615 51.5534 106.615C51.6724 106.615 51.7782 106.587 51.8707 106.531C51.9642 106.476 52.0374 106.399 52.0903 106.302C52.1441 106.204 52.171 106.093 52.171 105.969C52.171 105.843 52.1432 105.73 52.0874 105.631C52.0327 105.531 51.9571 105.452 51.8608 105.394C51.7645 105.336 51.6545 105.307 51.5308 105.306C51.442 105.305 51.3509 105.319 51.2574 105.347C51.1639 105.375 51.087 105.41 51.0265 105.454L50.6979 105.414L50.8736 103.986H52.3806V104.298H51.1682L51.0662 105.153H51.0832C51.1427 105.106 51.2173 105.067 51.307 105.036C51.3967 105.005 51.4902 104.989 51.5874 104.989C51.765 104.989 51.9231 105.031 52.0619 105.116C52.2017 105.2 52.3112 105.316 52.3906 105.462C52.4708 105.608 52.511 105.776 52.511 105.963C52.511 106.149 52.4694 106.314 52.3863 106.459C52.3042 106.604 52.1908 106.718 52.0464 106.802C51.9019 106.885 51.7376 106.927 51.5534 106.927ZM54.0198 106.927C53.8064 106.927 53.6246 106.869 53.4745 106.752C53.3243 106.635 53.2096 106.466 53.1303 106.244C53.051 106.021 53.0113 105.752 53.0113 105.437C53.0113 105.123 53.051 104.855 53.1303 104.633C53.2105 104.411 53.3257 104.241 53.4759 104.124C53.627 104.005 53.8083 103.946 54.0198 103.946C54.2313 103.946 54.4121 104.005 54.5623 104.124C54.7134 104.241 54.8286 104.411 54.9079 104.633C54.9882 104.855 55.0283 105.123 55.0283 105.437C55.0283 105.752 54.9886 106.021 54.9093 106.244C54.83 106.466 54.7153 106.635 54.5651 106.752C54.415 106.869 54.2332 106.927 54.0198 106.927ZM54.0198 106.615C54.2313 106.615 54.3956 106.513 54.5127 106.309C54.6298 106.105 54.6883 105.814 54.6883 105.437C54.6883 105.185 54.6614 104.971 54.6076 104.795C54.5547 104.618 54.4782 104.484 54.3782 104.391C54.279 104.299 54.1595 104.252 54.0198 104.252C53.8102 104.252 53.6463 104.356 53.5283 104.563C53.4103 104.768 53.3512 105.06 53.3512 105.437C53.3512 105.688 53.3777 105.901 53.4306 106.077C53.4834 106.252 53.5595 106.386 53.6586 106.478C53.7587 106.569 53.8791 106.615 54.0198 106.615ZM59.0396 103.986V106.887H58.6997L57.1189 104.609H57.0906V106.887H56.7393V103.986H57.0793L58.6657 106.269H58.694V103.986H59.0396ZM61.7255 104.893C61.6943 104.797 61.6533 104.712 61.6023 104.636C61.5522 104.56 61.4923 104.495 61.4224 104.441C61.3534 104.387 61.2751 104.346 61.1873 104.318C61.0994 104.289 61.0031 104.275 60.8983 104.275C60.7264 104.275 60.5702 104.319 60.4295 104.408C60.2888 104.497 60.1769 104.628 60.0938 104.801C60.0107 104.973 59.9691 105.185 59.9691 105.437C59.9691 105.688 60.0112 105.9 60.0952 106.073C60.1792 106.245 60.293 106.376 60.4366 106.465C60.5801 106.554 60.7416 106.598 60.921 106.598C61.0872 106.598 61.2335 106.563 61.3601 106.492C61.4875 106.42 61.5867 106.319 61.6575 106.189C61.7293 106.057 61.7652 105.903 61.7652 105.725L61.8728 105.748H61.0003V105.437H62.1051V105.748C62.1051 105.987 62.0541 106.195 61.9521 106.371C61.8511 106.548 61.7113 106.685 61.5329 106.782C61.3553 106.878 61.1514 106.927 60.921 106.927C60.6641 106.927 60.4384 106.866 60.2439 106.745C60.0503 106.624 59.8993 106.453 59.7907 106.23C59.683 106.007 59.6292 105.742 59.6292 105.437C59.6292 105.207 59.6599 105.001 59.7213 104.818C59.7836 104.633 59.8714 104.477 59.9847 104.347C60.098 104.218 60.2321 104.119 60.387 104.05C60.5418 103.981 60.7123 103.946 60.8983 103.946C61.0513 103.946 61.1939 103.97 61.3261 104.016C61.4592 104.061 61.5777 104.126 61.6816 104.21C61.7864 104.293 61.8737 104.393 61.9436 104.509C62.0135 104.624 62.0617 104.752 62.0881 104.893H61.7255ZM65.007 103.986V106.887H64.6671L63.0863 104.609H63.058V106.887H62.7067V103.986H63.0467L64.6331 106.269H64.6614V103.986H65.007Z" fill="black"/>
<path d="M89.5095 106.887V103.986H90.4896C90.7172 103.986 90.9032 104.027 91.0477 104.109C91.1931 104.191 91.3008 104.301 91.3707 104.439C91.4405 104.578 91.4755 104.733 91.4755 104.904C91.4755 105.075 91.4405 105.23 91.3707 105.37C91.3017 105.51 91.195 105.621 91.0505 105.704C90.9061 105.786 90.721 105.827 90.4953 105.827H89.7928V105.516H90.484C90.6398 105.516 90.7649 105.489 90.8593 105.435C90.9538 105.381 91.0222 105.309 91.0647 105.217C91.1081 105.124 91.1299 105.02 91.1299 104.904C91.1299 104.788 91.1081 104.684 91.0647 104.592C91.0222 104.501 90.9533 104.429 90.8579 104.377C90.7625 104.324 90.636 104.298 90.4783 104.298H89.8607V106.887H89.5095ZM91.8643 106.887H91.496L92.5612 103.986H92.9238L93.9889 106.887H93.6206L92.7538 104.445H92.7311L91.8643 106.887ZM92.0003 105.754H93.4847V106.065H92.0003V105.754ZM93.8954 103.986H94.2977L95.1022 105.34H95.1362L95.9407 103.986H96.343L95.2949 105.692V106.887H94.9436V105.692L93.8954 103.986ZM96.7973 103.986H97.2166L98.2024 106.394H98.2364L99.2223 103.986H99.6415V106.887H99.3129V104.683H99.2846L98.3781 106.887H98.0608L97.1543 104.683H97.1259V106.887H96.7973V103.986ZM100.346 106.887V103.986H102.097V104.298H100.697V105.278H102.006V105.59H100.697V106.575H102.119V106.887H100.346ZM105.03 103.986V106.887H104.69L103.109 104.609H103.081V106.887H102.73V103.986H103.07L104.656 106.269H104.684V103.986H105.03ZM105.574 104.298V103.986H107.75V104.298H106.838V106.887H106.486V104.298H105.574ZM109.414 106.887V103.986H111.153V104.298H109.765V105.278H111.023V105.59H109.765V106.887H109.414ZM111.755 106.887V103.986H113.505V104.298H112.106V105.278H113.415V105.59H112.106V106.575H113.528V106.887H111.755ZM114.139 106.887V103.986H115.889V104.298H114.49V105.278H115.799V105.59H114.49V106.575H115.912V106.887H114.139ZM117.843 106.516C117.773 106.516 117.713 106.491 117.663 106.441C117.613 106.391 117.588 106.331 117.588 106.261C117.588 106.191 117.613 106.131 117.663 106.081C117.713 106.031 117.773 106.006 117.843 106.006C117.912 106.006 117.972 106.031 118.022 106.081C118.072 106.131 118.098 106.191 118.098 106.261C118.098 106.307 118.086 106.35 118.062 106.388C118.039 106.427 118.009 106.458 117.97 106.482C117.932 106.505 117.89 106.516 117.843 106.516ZM117.843 105.048C117.773 105.048 117.713 105.023 117.663 104.973C117.613 104.923 117.588 104.863 117.588 104.793C117.588 104.724 117.613 104.664 117.663 104.614C117.713 104.564 117.773 104.539 117.843 104.539C117.912 104.539 117.972 104.564 118.022 104.614C118.072 104.664 118.098 104.724 118.098 104.793C118.098 104.84 118.086 104.882 118.062 104.921C118.039 104.96 118.009 104.991 117.97 105.014C117.932 105.037 117.89 105.048 117.843 105.048ZM120.76 106.927C120.546 106.927 120.365 106.869 120.214 106.752C120.064 106.635 119.949 106.466 119.87 106.244C119.791 106.021 119.751 105.752 119.751 105.437C119.751 105.123 119.791 104.855 119.87 104.633C119.95 104.411 120.066 104.241 120.216 104.124C120.367 104.005 120.548 103.946 120.76 103.946C120.971 103.946 121.152 104.005 121.302 104.124C121.453 104.241 121.568 104.411 121.648 104.633C121.728 104.855 121.768 105.123 121.768 105.437C121.768 105.752 121.729 106.021 121.649 106.244C121.57 106.466 121.455 106.635 121.305 106.752C121.155 106.869 120.973 106.927 120.76 106.927ZM120.76 106.615C120.971 106.615 121.136 106.513 121.253 106.309C121.37 106.105 121.428 105.814 121.428 105.437C121.428 105.185 121.401 104.971 121.348 104.795C121.295 104.618 121.218 104.484 121.118 104.391C121.019 104.299 120.899 104.252 120.76 104.252C120.55 104.252 120.386 104.356 120.268 104.563C120.15 104.768 120.091 105.06 120.091 105.437C120.091 105.688 120.118 105.901 120.17 106.077C120.223 106.252 120.299 106.386 120.398 106.478C120.499 106.569 120.619 106.615 120.76 106.615ZM122.454 106.91C122.385 106.91 122.325 106.885 122.275 106.835C122.225 106.785 122.199 106.725 122.199 106.655C122.199 106.585 122.225 106.525 122.275 106.475C122.325 106.425 122.385 106.4 122.454 106.4C122.524 106.4 122.584 106.425 122.634 106.475C122.684 106.525 122.709 106.585 122.709 106.655C122.709 106.701 122.698 106.743 122.674 106.782C122.651 106.821 122.621 106.852 122.582 106.876C122.544 106.898 122.502 106.91 122.454 106.91ZM124.148 106.927C123.935 106.927 123.753 106.869 123.603 106.752C123.453 106.635 123.338 106.466 123.259 106.244C123.18 106.021 123.14 105.752 123.14 105.437C123.14 105.123 123.18 104.855 123.259 104.633C123.339 104.411 123.454 104.241 123.605 104.124C123.756 104.005 123.937 103.946 124.148 103.946C124.36 103.946 124.541 104.005 124.691 104.124C124.842 104.241 124.957 104.411 125.037 104.633C125.117 104.855 125.157 105.123 125.157 105.437C125.157 105.752 125.117 106.021 125.038 106.244C124.959 106.466 124.844 106.635 124.694 106.752C124.544 106.869 124.362 106.927 124.148 106.927ZM124.148 106.615C124.36 106.615 124.524 106.513 124.641 106.309C124.758 106.105 124.817 105.814 124.817 105.437C124.817 105.185 124.79 104.971 124.736 104.795C124.683 104.618 124.607 104.484 124.507 104.391C124.408 104.299 124.288 104.252 124.148 104.252C123.939 104.252 123.775 104.356 123.657 104.563C123.539 104.768 123.48 105.06 123.48 105.437C123.48 105.688 123.506 105.901 123.559 106.077C123.612 106.252 123.688 106.386 123.787 106.478C123.887 106.569 124.008 106.615 124.148 106.615ZM126.641 106.927C126.428 106.927 126.246 106.869 126.096 106.752C125.946 106.635 125.831 106.466 125.752 106.244C125.673 106.021 125.633 105.752 125.633 105.437C125.633 105.123 125.673 104.855 125.752 104.633C125.832 104.411 125.947 104.241 126.097 104.124C126.249 104.005 126.43 103.946 126.641 103.946C126.853 103.946 127.034 104.005 127.184 104.124C127.335 104.241 127.45 104.411 127.529 104.633C127.61 104.855 127.65 105.123 127.65 105.437C127.65 105.752 127.61 106.021 127.531 106.244C127.452 106.466 127.337 106.635 127.187 106.752C127.037 106.869 126.855 106.927 126.641 106.927ZM126.641 106.615C126.853 106.615 127.017 106.513 127.134 106.309C127.251 106.105 127.31 105.814 127.31 105.437C127.31 105.185 127.283 104.971 127.229 104.795C127.176 104.618 127.1 104.484 127 104.391C126.901 104.299 126.781 104.252 126.641 104.252C126.432 104.252 126.268 104.356 126.15 104.563C126.032 104.768 125.973 105.06 125.973 105.437C125.973 105.688 125.999 105.901 126.052 106.077C126.105 106.252 126.181 106.386 126.28 106.478C126.38 106.569 126.501 106.615 126.641 106.615Z" fill="black"/>
<path d="M154.393 105.044C154.393 106.945 153.078 108.723 151.311 109.154C149.544 108.723 148.229 106.945 148.229 105.044V102.99L151.311 101.62L154.393 102.99V105.044ZM151.311 108.469C152.595 108.127 153.708 106.599 153.708 105.12V103.435L151.311 102.366L148.913 103.435V105.12C148.913 106.599 150.027 108.127 151.311 108.469ZM150.626 107.099L149.256 105.729L149.739 105.247L150.626 106.13L152.883 103.873L153.366 104.359" fill="black"/>
<path d="M159.646 104.893C159.615 104.797 159.574 104.712 159.523 104.636C159.473 104.56 159.413 104.495 159.343 104.441C159.274 104.387 159.195 104.346 159.108 104.318C159.02 104.289 158.923 104.275 158.819 104.275C158.647 104.275 158.49 104.319 158.35 104.408C158.209 104.497 158.097 104.628 158.014 104.801C157.931 104.973 157.889 105.185 157.889 105.437C157.889 105.688 157.931 105.9 158.015 106.073C158.1 106.245 158.213 106.376 158.357 106.465C158.5 106.554 158.662 106.598 158.841 106.598C159.007 106.598 159.154 106.563 159.28 106.492C159.408 106.42 159.507 106.319 159.578 106.189C159.65 106.057 159.685 105.903 159.685 105.725L159.793 105.748H158.921V105.437H160.025V105.748C160.025 105.987 159.974 106.195 159.872 106.371C159.771 106.548 159.632 106.685 159.453 106.782C159.276 106.878 159.072 106.927 158.841 106.927C158.584 106.927 158.359 106.866 158.164 106.745C157.971 106.624 157.82 106.453 157.711 106.23C157.603 106.007 157.549 105.742 157.549 105.437C157.549 105.207 157.58 105.001 157.642 104.818C157.704 104.633 157.792 104.477 157.905 104.347C158.018 104.218 158.152 104.119 158.307 104.05C158.462 103.981 158.633 103.946 158.819 103.946C158.972 103.946 159.114 103.97 159.246 104.016C159.38 104.061 159.498 104.126 159.602 104.21C159.707 104.293 159.794 104.393 159.864 104.509C159.934 104.624 159.982 104.752 160.008 104.893H159.646ZM160.627 106.887V103.986H161.607C161.834 103.986 162.02 104.025 162.165 104.102C162.311 104.179 162.418 104.284 162.488 104.418C162.558 104.552 162.593 104.705 162.593 104.876C162.593 105.047 162.558 105.198 162.488 105.33C162.418 105.463 162.311 105.566 162.167 105.642C162.022 105.717 161.838 105.754 161.613 105.754H160.82V105.437H161.602C161.756 105.437 161.881 105.414 161.975 105.369C162.071 105.323 162.14 105.259 162.182 105.176C162.226 105.092 162.247 104.992 162.247 104.876C162.247 104.759 162.226 104.658 162.182 104.571C162.139 104.484 162.069 104.417 161.974 104.37C161.879 104.322 161.753 104.298 161.596 104.298H160.978V106.887H160.627ZM161.992 105.584L162.706 106.887H162.298L161.596 105.584H161.992ZM163.297 106.887H162.929L163.994 103.986H164.357L165.422 106.887H165.054L164.187 104.445H164.164L163.297 106.887ZM163.433 105.754H164.918V106.065H163.433V105.754ZM168.174 103.986V106.887H167.834L166.253 104.609H166.225V106.887H165.874V103.986H166.214L167.8 106.269H167.828V103.986H168.174ZM168.718 104.298V103.986H170.894V104.298H169.982V106.887H169.631V104.298H168.718ZM171.436 106.887V103.986H173.187V104.298H171.787V105.278H173.096V105.59H171.787V106.575H173.209V106.887H171.436ZM174.715 106.887H173.82V103.986H174.755C175.036 103.986 175.277 104.044 175.477 104.16C175.677 104.276 175.831 104.441 175.938 104.658C176.044 104.873 176.098 105.131 176.098 105.431C176.098 105.733 176.044 105.993 175.936 106.211C175.828 106.429 175.672 106.596 175.466 106.713C175.26 106.829 175.01 106.887 174.715 106.887ZM174.171 106.575H174.692C174.932 106.575 175.131 106.529 175.289 106.437C175.446 106.344 175.564 106.212 175.641 106.041C175.719 105.87 175.758 105.667 175.758 105.431C175.758 105.197 175.719 104.995 175.643 104.826C175.566 104.656 175.452 104.526 175.3 104.435C175.148 104.344 174.959 104.298 174.732 104.298H174.171V106.575ZM177.928 106.887H177.559L178.624 103.986H178.987L180.052 106.887H179.684L178.817 104.445H178.794L177.928 106.887ZM178.064 105.754H179.548V106.065H178.064V105.754ZM180.504 103.986H180.923L181.909 106.394H181.943L182.929 103.986H183.348V106.887H183.02V104.683H182.991L182.085 106.887H181.768L180.861 104.683H180.833V106.887H180.504V103.986ZM186.5 105.437C186.5 105.742 186.445 106.007 186.334 106.23C186.224 106.453 186.072 106.624 185.88 106.745C185.687 106.866 185.467 106.927 185.22 106.927C184.972 106.927 184.752 106.866 184.56 106.745C184.367 106.624 184.215 106.453 184.105 106.23C183.994 106.007 183.939 105.742 183.939 105.437C183.939 105.131 183.994 104.866 184.105 104.643C184.215 104.42 184.367 104.249 184.56 104.128C184.752 104.007 184.972 103.946 185.22 103.946C185.467 103.946 185.687 104.007 185.88 104.128C186.072 104.249 186.224 104.42 186.334 104.643C186.445 104.866 186.5 105.131 186.5 105.437ZM186.16 105.437C186.16 105.185 186.118 104.973 186.034 104.801C185.951 104.628 185.838 104.497 185.696 104.408C185.554 104.319 185.395 104.275 185.22 104.275C185.044 104.275 184.885 104.319 184.742 104.408C184.601 104.497 184.488 104.628 184.404 104.801C184.321 104.973 184.279 105.185 184.279 105.437C184.279 105.688 184.321 105.9 184.404 106.073C184.488 106.245 184.601 106.376 184.742 106.465C184.885 106.554 185.044 106.598 185.22 106.598C185.395 106.598 185.554 106.554 185.696 106.465C185.838 106.376 185.951 106.245 186.034 106.073C186.118 105.9 186.16 105.688 186.16 105.437ZM188.994 103.986H189.346V105.907C189.346 106.105 189.299 106.282 189.205 106.438C189.113 106.593 188.982 106.715 188.813 106.805C188.644 106.894 188.446 106.938 188.218 106.938C187.991 106.938 187.792 106.894 187.623 106.805C187.454 106.715 187.323 106.593 187.23 106.438C187.137 106.282 187.091 106.105 187.091 105.907V103.986H187.442V105.878C187.442 106.02 187.473 106.146 187.536 106.257C187.598 106.366 187.687 106.453 187.802 106.516C187.918 106.578 188.057 106.609 188.218 106.609C188.38 106.609 188.519 106.578 188.635 106.516C188.751 106.453 188.84 106.366 188.901 106.257C188.963 106.146 188.994 106.02 188.994 105.878V103.986ZM192.347 103.986V106.887H192.008L190.427 104.609H190.398V106.887H190.047V103.986H190.387L191.974 106.269H192.002V103.986H192.347ZM192.892 104.298V103.986H195.067V104.298H194.155V106.887H193.804V104.298H192.892Z" fill="black"/>
<path d="M18.0669 123.505V120.605H19.1547C19.3775 120.605 19.5645 120.646 19.7156 120.729C19.8676 120.812 19.9824 120.927 20.0598 121.072C20.1382 121.216 20.1774 121.381 20.1774 121.565C20.1774 121.751 20.1382 121.916 20.0598 122.061C19.9814 122.205 19.8657 122.319 19.7128 122.402C19.5598 122.484 19.3714 122.525 19.1476 122.525H18.4267V122.093H19.0768C19.2071 122.093 19.3138 122.071 19.3969 122.025C19.48 121.98 19.5414 121.918 19.581 121.838C19.6216 121.759 19.6419 121.668 19.6419 121.565C19.6419 121.462 19.6216 121.371 19.581 121.293C19.5414 121.215 19.4795 121.154 19.3955 121.11C19.3124 121.066 19.2052 121.044 19.074 121.044H18.5924V123.505H18.0669ZM21.1982 123.549C21.0604 123.549 20.9362 123.525 20.8257 123.476C20.7162 123.426 20.6293 123.352 20.5651 123.255C20.5018 123.157 20.4702 123.037 20.4702 122.895C20.4702 122.772 20.4929 122.671 20.5382 122.59C20.5835 122.51 20.6454 122.446 20.7237 122.398C20.8021 122.35 20.8904 122.313 20.9886 122.289C21.0878 122.263 21.1902 122.245 21.296 122.233C21.4235 122.22 21.5268 122.208 21.6062 122.198C21.6855 122.187 21.7431 122.17 21.779 122.147C21.8158 122.123 21.8342 122.087 21.8342 122.038V122.029C21.8342 121.923 21.8026 121.84 21.7393 121.782C21.676 121.723 21.5849 121.694 21.4659 121.694C21.3404 121.694 21.2407 121.721 21.1671 121.776C21.0944 121.831 21.0453 121.895 21.0198 121.97L20.541 121.902C20.5788 121.77 20.6411 121.659 20.728 121.571C20.8149 121.481 20.9211 121.414 21.0467 121.369C21.1723 121.324 21.3111 121.301 21.4631 121.301C21.5679 121.301 21.6723 121.314 21.7761 121.338C21.88 121.363 21.9749 121.403 22.0608 121.46C22.1468 121.516 22.2157 121.592 22.2676 121.688C22.3205 121.784 22.347 121.905 22.347 122.049V123.505H21.854V123.207H21.837C21.8059 123.267 21.762 123.324 21.7053 123.376C21.6496 123.428 21.5793 123.47 21.4943 123.503C21.4102 123.534 21.3116 123.549 21.1982 123.549ZM21.3314 123.173C21.4343 123.173 21.5235 123.152 21.5991 123.112C21.6746 123.07 21.7327 123.015 21.7733 122.947C21.8149 122.879 21.8356 122.805 21.8356 122.725V122.469C21.8196 122.482 21.7922 122.494 21.7535 122.505C21.7157 122.517 21.6732 122.527 21.626 122.535C21.5788 122.544 21.532 122.551 21.4858 122.558C21.4395 122.564 21.3994 122.57 21.3654 122.575C21.2889 122.585 21.2204 122.602 21.16 122.626C21.0996 122.649 21.0519 122.682 21.0169 122.725C20.982 122.766 20.9645 122.82 20.9645 122.886C20.9645 122.981 20.999 123.052 21.0679 123.1C21.1369 123.148 21.2247 123.173 21.3314 123.173ZM23.1033 124.321C23.0335 124.321 22.9688 124.316 22.9093 124.304C22.8507 124.294 22.804 124.282 22.7691 124.267L22.888 123.868C22.9626 123.89 23.0292 123.9 23.0877 123.899C23.1463 123.898 23.1978 123.88 23.2421 123.844C23.2875 123.809 23.3257 123.75 23.3569 123.668L23.4008 123.551L22.6118 121.33H23.1557L23.6572 122.973H23.6798L24.1826 121.33H24.728L23.8569 123.769C23.8163 123.884 23.7624 123.983 23.6954 124.065C23.6284 124.148 23.5462 124.211 23.4489 124.255C23.3526 124.299 23.2374 124.321 23.1033 124.321ZM25.0828 123.505V121.33H25.5729V121.699H25.5984C25.6437 121.575 25.7188 121.478 25.8236 121.408C25.9284 121.337 26.0535 121.301 26.1989 121.301C26.3462 121.301 26.4704 121.337 26.5714 121.409C26.6734 121.48 26.7452 121.577 26.7867 121.699H26.8094C26.8576 121.579 26.9388 121.482 27.053 121.41C27.1682 121.338 27.3047 121.301 27.4624 121.301C27.6626 121.301 27.8259 121.365 27.9525 121.491C28.079 121.618 28.1423 121.802 28.1423 122.045V123.505H27.6281V122.124C27.6281 121.989 27.5922 121.891 27.5204 121.828C27.4487 121.765 27.3609 121.733 27.257 121.733C27.1333 121.733 27.0365 121.772 26.9666 121.85C26.8977 121.926 26.8632 122.026 26.8632 122.148V123.505H26.3604V122.103C26.3604 121.991 26.3264 121.901 26.2584 121.834C26.1914 121.767 26.1036 121.733 25.995 121.733C25.9213 121.733 25.8543 121.752 25.7938 121.79C25.7334 121.827 25.6852 121.879 25.6494 121.947C25.6135 122.014 25.5955 122.093 25.5955 122.182V123.505H25.0828ZM29.6256 123.548C29.4075 123.548 29.2191 123.503 29.0605 123.412C28.9028 123.32 28.7814 123.191 28.6964 123.024C28.6114 122.856 28.569 122.658 28.569 122.43C28.569 122.207 28.6114 122.01 28.6964 121.841C28.7824 121.671 28.9023 121.539 29.0562 121.444C29.2101 121.349 29.391 121.301 29.5987 121.301C29.7328 121.301 29.8593 121.323 29.9783 121.367C30.0982 121.409 30.204 121.475 30.2956 121.565C30.3881 121.655 30.4608 121.769 30.5137 121.908C30.5666 122.046 30.593 122.21 30.593 122.401V122.558H28.8097V122.212H30.1015C30.1006 122.114 30.0793 122.027 30.0378 121.95C29.9962 121.873 29.9382 121.812 29.8636 121.767C29.7899 121.723 29.704 121.701 29.6058 121.701C29.501 121.701 29.4089 121.726 29.3296 121.777C29.2503 121.827 29.1884 121.893 29.144 121.976C29.1006 122.057 29.0784 122.146 29.0775 122.243V122.545C29.0775 122.672 29.1006 122.78 29.1469 122.871C29.1931 122.961 29.2578 123.029 29.3409 123.078C29.424 123.125 29.5213 123.148 29.6327 123.148C29.7073 123.148 29.7748 123.138 29.8352 123.117C29.8957 123.096 29.9481 123.064 29.9925 123.022C30.0368 122.981 30.0704 122.929 30.093 122.868L30.5718 122.922C30.5416 123.048 30.484 123.159 30.399 123.253C30.3149 123.347 30.2073 123.419 30.076 123.471C29.9448 123.522 29.7946 123.548 29.6256 123.548ZM31.5395 122.231V123.505H31.0268V121.33H31.5169V121.699H31.5424C31.5924 121.578 31.6722 121.481 31.7818 121.409C31.8922 121.337 32.0287 121.301 32.1911 121.301C32.3412 121.301 32.472 121.334 32.5835 121.398C32.6958 121.462 32.7827 121.555 32.8441 121.677C32.9064 121.799 32.9371 121.946 32.9361 122.12V123.505H32.4234V122.199C32.4234 122.054 32.3856 121.94 32.3101 121.858C32.2355 121.776 32.1321 121.735 31.9999 121.735C31.9102 121.735 31.8304 121.755 31.7605 121.794C31.6916 121.833 31.6373 121.889 31.5976 121.963C31.5589 122.037 31.5395 122.126 31.5395 122.231ZM34.5438 121.33V121.726H33.2931V121.33H34.5438ZM33.6019 120.808H34.1146V122.851C34.1146 122.92 34.125 122.973 34.1458 123.01C34.1675 123.046 34.1958 123.07 34.2308 123.083C34.2657 123.096 34.3044 123.103 34.3469 123.103C34.379 123.103 34.4083 123.101 34.4347 123.096C34.4621 123.091 34.4829 123.087 34.497 123.083L34.5834 123.484C34.5561 123.494 34.5169 123.504 34.4659 123.515C34.4158 123.527 34.3545 123.533 34.2817 123.535C34.1533 123.539 34.0377 123.52 33.9347 123.477C33.8318 123.434 33.7501 123.367 33.6897 123.276C33.6302 123.185 33.6009 123.072 33.6019 122.936V120.808ZM36.911 123.548C36.6985 123.548 36.5144 123.501 36.3586 123.408C36.2028 123.314 36.0819 123.183 35.996 123.015C35.911 122.847 35.8685 122.651 35.8685 122.426C35.8685 122.201 35.911 122.004 35.996 121.835C36.0819 121.666 36.2028 121.535 36.3586 121.442C36.5144 121.348 36.6985 121.301 36.911 121.301C37.1234 121.301 37.3076 121.348 37.4634 121.442C37.6192 121.535 37.7396 121.666 37.8246 121.835C37.9105 122.004 37.9535 122.201 37.9535 122.426C37.9535 122.651 37.9105 122.847 37.8246 123.015C37.7396 123.183 37.6192 123.314 37.4634 123.408C37.3076 123.501 37.1234 123.548 36.911 123.548ZM36.9138 123.137C37.029 123.137 37.1253 123.105 37.2028 123.042C37.2802 122.978 37.3378 122.892 37.3756 122.784C37.4143 122.677 37.4336 122.557 37.4336 122.425C37.4336 122.291 37.4143 122.171 37.3756 122.063C37.3378 121.955 37.2802 121.868 37.2028 121.804C37.1253 121.74 37.029 121.708 36.9138 121.708C36.7958 121.708 36.6976 121.74 36.6192 121.804C36.5418 121.868 36.4837 121.955 36.445 122.063C36.4072 122.171 36.3883 122.291 36.3883 122.425C36.3883 122.557 36.4072 122.677 36.445 122.784C36.4837 122.892 36.5418 122.978 36.6192 123.042C36.6976 123.105 36.7958 123.137 36.9138 123.137ZM38.3887 124.321V121.33H38.8929V121.69H38.9227C38.9491 121.637 38.9864 121.58 39.0346 121.521C39.0827 121.461 39.1479 121.409 39.23 121.367C39.3122 121.323 39.417 121.301 39.5445 121.301C39.7126 121.301 39.8641 121.344 39.9991 121.43C40.1351 121.515 40.2428 121.641 40.3221 121.808C40.4024 121.975 40.4425 122.179 40.4425 122.42C40.4425 122.659 40.4033 122.862 40.3249 123.029C40.2465 123.197 40.1398 123.324 40.0048 123.412C39.8698 123.5 39.7168 123.544 39.5459 123.544C39.4212 123.544 39.3178 123.523 39.2357 123.481C39.1535 123.44 39.0874 123.39 39.0374 123.331C38.9883 123.272 38.95 123.215 38.9227 123.163H38.9014V124.321H38.3887ZM38.8915 122.418C38.8915 122.558 38.9113 122.681 38.951 122.787C38.9916 122.893 39.0497 122.976 39.1252 123.035C39.2017 123.094 39.2942 123.123 39.4028 123.123C39.5161 123.123 39.611 123.093 39.6875 123.032C39.764 122.971 39.8216 122.887 39.8603 122.782C39.9 122.675 39.9198 122.554 39.9198 122.418C39.9198 122.283 39.9005 122.163 39.8617 122.058C39.823 121.953 39.7654 121.871 39.6889 121.811C39.6125 121.752 39.5171 121.722 39.4028 121.722C39.2933 121.722 39.2003 121.751 39.1238 121.808C39.0473 121.866 38.9892 121.947 38.9496 122.051C38.9109 122.155 38.8915 122.277 38.8915 122.418ZM41.968 121.33V121.726H40.7173V121.33H41.968ZM41.0261 120.808H41.5388V122.851C41.5388 122.92 41.5492 122.973 41.57 123.01C41.5917 123.046 41.62 123.07 41.6549 123.083C41.6899 123.096 41.7286 123.103 41.7711 123.103C41.8032 123.103 41.8325 123.101 41.8589 123.096C41.8863 123.091 41.9071 123.087 41.9212 123.083L42.0076 123.484C41.9802 123.494 41.9411 123.504 41.8901 123.515C41.84 123.527 41.7786 123.533 41.7059 123.535C41.5775 123.539 41.4618 123.52 41.3589 123.477C41.256 123.434 41.1743 123.367 41.1139 123.276C41.0544 123.185 41.0251 123.072 41.0261 122.936V120.808ZM42.3968 123.505V121.33H42.9095V123.505H42.3968ZM42.6546 121.021C42.5734 121.021 42.5035 120.994 42.445 120.94C42.3864 120.885 42.3571 120.82 42.3571 120.743C42.3571 120.666 42.3864 120.6 42.445 120.546C42.5035 120.492 42.5734 120.464 42.6546 120.464C42.7367 120.464 42.8066 120.492 42.8642 120.546C42.9228 120.6 42.952 120.666 42.952 120.743C42.952 120.82 42.9228 120.885 42.8642 120.94C42.8066 120.994 42.7367 121.021 42.6546 121.021ZM44.3858 123.548C44.1733 123.548 43.9892 123.501 43.8334 123.408C43.6776 123.314 43.5567 123.183 43.4708 123.015C43.3858 122.847 43.3433 122.651 43.3433 122.426C43.3433 122.201 43.3858 122.004 43.4708 121.835C43.5567 121.666 43.6776 121.535 43.8334 121.442C43.9892 121.348 44.1733 121.301 44.3858 121.301C44.5983 121.301 44.7824 121.348 44.9382 121.442C45.094 121.535 45.2144 121.666 45.2994 121.835C45.3853 122.004 45.4283 122.201 45.4283 122.426C45.4283 122.651 45.3853 122.847 45.2994 123.015C45.2144 123.183 45.094 123.314 44.9382 123.408C44.7824 123.501 44.5983 123.548 44.3858 123.548ZM44.3886 123.137C44.5038 123.137 44.6002 123.105 44.6776 123.042C44.755 122.978 44.8126 122.892 44.8504 122.784C44.8891 122.677 44.9085 122.557 44.9085 122.425C44.9085 122.291 44.8891 122.171 44.8504 122.063C44.8126 121.955 44.755 121.868 44.6776 121.804C44.6002 121.74 44.5038 121.708 44.3886 121.708C44.2706 121.708 44.1724 121.74 44.094 121.804C44.0166 121.868 43.9585 121.955 43.9198 122.063C43.882 122.171 43.8631 122.291 43.8631 122.425C43.8631 122.557 43.882 122.677 43.9198 122.784C43.9585 122.892 44.0166 122.978 44.094 123.042C44.1724 123.105 44.2706 123.137 44.3886 123.137ZM46.3762 122.231V123.505H45.8635V121.33H46.3536V121.699H46.3791C46.4291 121.578 46.5089 121.481 46.6184 121.409C46.7289 121.337 46.8654 121.301 47.0278 121.301C47.1779 121.301 47.3087 121.334 47.4201 121.398C47.5325 121.462 47.6194 121.555 47.6808 121.677C47.7431 121.799 47.7738 121.946 47.7728 122.12V123.505H47.2601V122.199C47.2601 122.054 47.2223 121.94 47.1468 121.858C47.0722 121.776 46.9688 121.735 46.8366 121.735C46.7469 121.735 46.6671 121.755 46.5972 121.794C46.5283 121.833 46.474 121.889 46.4343 121.963C46.3956 122.037 46.3762 122.126 46.3762 122.231Z" fill="black"/>
<rect width="216.378" height="23.2955" transform="translate(17.7808 130.474)" fill="#C1D8ED"/>
<path d="M24.7148 141.122V138.221H25.8026C26.0255 138.221 26.2125 138.263 26.3635 138.346C26.5156 138.429 26.6303 138.543 26.7077 138.689C26.7861 138.833 26.8253 138.997 26.8253 139.182C26.8253 139.368 26.7861 139.533 26.7077 139.677C26.6294 139.822 26.5137 139.936 26.3607 140.019C26.2077 140.101 26.0194 140.142 25.7956 140.142H25.0746V139.71H25.7247C25.855 139.71 25.9618 139.687 26.0449 139.642C26.1279 139.597 26.1893 139.534 26.229 139.455C26.2696 139.376 26.2899 139.284 26.2899 139.182C26.2899 139.079 26.2696 138.988 26.229 138.91C26.1893 138.831 26.1275 138.77 26.0434 138.727C25.9603 138.683 25.8532 138.66 25.7219 138.66H25.2403V141.122H24.7148ZM27.8462 141.166C27.7083 141.166 27.5841 141.141 27.4737 141.092C27.3641 141.042 27.2773 140.969 27.213 140.871C27.1498 140.774 27.1181 140.654 27.1181 140.512C27.1181 140.389 27.1408 140.287 27.1861 140.207C27.2315 140.127 27.2933 140.063 27.3717 140.014C27.4501 139.966 27.5384 139.93 27.6366 139.905C27.7357 139.88 27.8382 139.861 27.9439 139.85C28.0714 139.837 28.1748 139.825 28.2541 139.815C28.3334 139.803 28.391 139.786 28.4269 139.764C28.4637 139.74 28.4822 139.704 28.4822 139.655V139.646C28.4822 139.539 28.4505 139.457 28.3873 139.398C28.324 139.34 28.2329 139.31 28.1139 139.31C27.9883 139.31 27.8887 139.338 27.815 139.393C27.7423 139.447 27.6932 139.512 27.6677 139.587L27.189 139.519C27.2267 139.386 27.2891 139.276 27.3759 139.187C27.4628 139.098 27.569 139.03 27.6946 138.986C27.8202 138.941 27.959 138.918 28.1111 138.918C28.2159 138.918 28.3202 138.93 28.4241 138.955C28.528 138.979 28.6229 139.02 28.7088 139.077C28.7947 139.132 28.8637 139.208 28.9156 139.305C28.9685 139.401 28.9949 139.522 28.9949 139.666V141.122H28.502V140.823H28.485C28.4538 140.884 28.4099 140.94 28.3533 140.993C28.2976 141.045 28.2272 141.087 28.1422 141.119C28.0582 141.15 27.9595 141.166 27.8462 141.166ZM27.9793 140.789C28.0823 140.789 28.1715 140.769 28.247 140.728C28.3226 140.687 28.3807 140.632 28.4213 140.564C28.4628 140.496 28.4836 140.422 28.4836 140.342V140.085C28.4675 140.098 28.4401 140.111 28.4014 140.122C28.3637 140.133 28.3212 140.143 28.2739 140.152C28.2267 140.16 28.18 140.168 28.1337 140.174C28.0875 140.181 28.0473 140.187 28.0133 140.191C27.9368 140.202 27.8684 140.219 27.8079 140.242C27.7475 140.266 27.6998 140.299 27.6649 140.342C27.6299 140.383 27.6125 140.437 27.6125 140.503C27.6125 140.598 27.6469 140.669 27.7159 140.717C27.7848 140.765 27.8726 140.789 27.9793 140.789ZM29.7513 141.938C29.6814 141.938 29.6167 141.932 29.5572 141.921C29.4987 141.911 29.4519 141.898 29.417 141.884L29.536 141.485C29.6106 141.506 29.6772 141.517 29.7357 141.516C29.7942 141.515 29.8457 141.496 29.8901 141.461C29.9354 141.426 29.9737 141.367 30.0048 141.285L30.0487 141.167L29.2598 138.946H29.8037L30.3051 140.589H30.3278L30.8306 138.946H31.3759L30.5048 141.386C30.4642 141.501 30.4104 141.599 30.3433 141.682C30.2763 141.765 30.1941 141.828 30.0969 141.871C30.0006 141.916 29.8854 141.938 29.7513 141.938ZM31.7307 141.122V138.946H32.2208V139.316H32.2463C32.2916 139.191 32.3667 139.094 32.4715 139.024C32.5763 138.954 32.7015 138.918 32.8469 138.918C32.9942 138.918 33.1184 138.954 33.2194 139.026C33.3214 139.097 33.3931 139.193 33.4347 139.316H33.4574C33.5055 139.195 33.5867 139.099 33.701 139.027C33.8162 138.954 33.9526 138.918 34.1103 138.918C34.3105 138.918 34.4739 138.981 34.6004 139.108C34.7269 139.234 34.7902 139.419 34.7902 139.662V141.122H34.276V139.741C34.276 139.606 34.2402 139.507 34.1684 139.445C34.0966 139.382 34.0088 139.35 33.9049 139.35C33.7812 139.35 33.6845 139.389 33.6146 139.466C33.5456 139.543 33.5112 139.642 33.5112 139.765V141.122H33.0083V139.72C33.0083 139.607 32.9744 139.518 32.9064 139.451C32.8393 139.384 32.7515 139.35 32.6429 139.35C32.5693 139.35 32.5022 139.369 32.4418 139.407C32.3813 139.444 32.3332 139.496 32.2973 139.564C32.2614 139.631 32.2435 139.709 32.2435 139.799V141.122H31.7307ZM36.2736 141.165C36.0554 141.165 35.867 141.119 35.7084 141.029C35.5507 140.937 35.4294 140.808 35.3444 140.64C35.2594 140.472 35.2169 140.275 35.2169 140.047C35.2169 139.823 35.2594 139.627 35.3444 139.458C35.4303 139.288 35.5502 139.156 35.7042 139.061C35.8581 138.966 36.0389 138.918 36.2466 138.918C36.3807 138.918 36.5073 138.94 36.6262 138.983C36.7462 139.026 36.8519 139.092 36.9435 139.182C37.0361 139.271 37.1088 139.386 37.1617 139.524C37.2145 139.662 37.241 139.827 37.241 140.017V140.174H35.4577V139.829H36.7495C36.7485 139.731 36.7273 139.643 36.6857 139.567C36.6442 139.489 36.5861 139.428 36.5115 139.384C36.4379 139.34 36.3519 139.318 36.2537 139.318C36.1489 139.318 36.0568 139.343 35.9775 139.394C35.8982 139.444 35.8364 139.51 35.792 139.592C35.7485 139.674 35.7263 139.763 35.7254 139.86V140.162C35.7254 140.288 35.7485 140.397 35.7948 140.488C35.8411 140.577 35.9058 140.646 35.9889 140.694C36.072 140.742 36.1692 140.765 36.2806 140.765C36.3552 140.765 36.4228 140.755 36.4832 140.734C36.5436 140.712 36.596 140.681 36.6404 140.639C36.6848 140.598 36.7183 140.546 36.741 140.485L37.2197 140.539C37.1895 140.665 37.1319 140.776 37.0469 140.87C36.9629 140.963 36.8552 141.036 36.724 141.088C36.5927 141.139 36.4426 141.165 36.2736 141.165ZM38.1875 139.847V141.122H37.6748V138.946H38.1648V139.316H38.1903C38.2404 139.194 38.3202 139.098 38.4297 139.026C38.5402 138.954 38.6766 138.918 38.8391 138.918C38.9892 138.918 39.12 138.95 39.2314 139.014C39.3438 139.079 39.4306 139.172 39.492 139.293C39.5543 139.415 39.585 139.563 39.5841 139.737V141.122H39.0713V139.816C39.0713 139.671 39.0336 139.557 38.958 139.475C38.8834 139.393 38.78 139.352 38.6478 139.352C38.5581 139.352 38.4783 139.371 38.4085 139.411C38.3395 139.45 38.2852 139.506 38.2456 139.58C38.2069 139.653 38.1875 139.742 38.1875 139.847ZM41.1917 138.946V139.343H39.941V138.946H41.1917ZM40.2498 138.425H40.7626V140.468C40.7626 140.537 40.7729 140.589 40.7937 140.626C40.8154 140.662 40.8438 140.687 40.8787 140.7C40.9136 140.713 40.9524 140.72 40.9949 140.72C41.027 140.72 41.0562 140.717 41.0827 140.713C41.1101 140.708 41.1308 140.704 41.145 140.7L41.2314 141.101C41.204 141.11 41.1648 141.121 41.1138 141.132C41.0638 141.143 41.0024 141.15 40.9297 141.152C40.8013 141.156 40.6856 141.136 40.5827 141.094C40.4797 141.05 40.3981 140.983 40.3376 140.893C40.2781 140.802 40.2489 140.689 40.2498 140.553V138.425ZM42.6099 141.122V138.946H43.1227V141.122H42.6099ZM42.8677 138.638C42.7865 138.638 42.7166 138.611 42.6581 138.557C42.5995 138.502 42.5703 138.437 42.5703 138.36C42.5703 138.283 42.5995 138.217 42.6581 138.163C42.7166 138.108 42.7865 138.081 42.8677 138.081C42.9499 138.081 43.0197 138.108 43.0774 138.163C43.1359 138.217 43.1652 138.283 43.1652 138.36C43.1652 138.437 43.1359 138.502 43.0774 138.557C43.0197 138.611 42.9499 138.638 42.8677 138.638ZM44.1627 139.847V141.122H43.6499V138.946H44.14V139.316H44.1655C44.2156 139.194 44.2954 139.098 44.4049 139.026C44.5154 138.954 44.6518 138.918 44.8142 138.918C44.9644 138.918 45.0952 138.95 45.2066 139.014C45.319 139.079 45.4058 139.172 45.4672 139.293C45.5295 139.415 45.5602 139.563 45.5593 139.737V141.122H45.0465V139.816C45.0465 139.671 45.0088 139.557 44.9332 139.475C44.8586 139.393 44.7552 139.352 44.623 139.352C44.5333 139.352 44.4535 139.371 44.3836 139.411C44.3147 139.45 44.2604 139.506 44.2208 139.58C44.182 139.653 44.1627 139.742 44.1627 139.847ZM25.7587 146.177C25.5255 146.177 25.3253 146.118 25.1582 146C24.992 145.881 24.864 145.71 24.7743 145.486C24.6856 145.261 24.6412 144.991 24.6412 144.674C24.6421 144.358 24.687 144.089 24.7757 143.867C24.8654 143.644 24.9934 143.474 25.1596 143.357C25.3267 143.24 25.5264 143.182 25.7587 143.182C25.991 143.182 26.1907 143.24 26.3579 143.357C26.525 143.474 26.653 143.644 26.7417 143.867C26.8314 144.09 26.8763 144.359 26.8763 144.674C26.8763 144.992 26.8314 145.263 26.7417 145.488C26.653 145.711 26.525 145.882 26.3579 146C26.1917 146.118 25.992 146.177 25.7587 146.177ZM25.7587 145.734C25.94 145.734 26.0831 145.645 26.1879 145.466C26.2937 145.287 26.3465 145.023 26.3465 144.674C26.3465 144.444 26.3225 144.251 26.2743 144.094C26.2262 143.937 26.1582 143.819 26.0703 143.74C25.9825 143.659 25.8787 143.619 25.7587 143.619C25.5784 143.619 25.4358 143.709 25.331 143.888C25.2262 144.067 25.1733 144.329 25.1723 144.674C25.1714 144.906 25.1945 145.1 25.2417 145.258C25.2899 145.416 25.3579 145.535 25.4457 145.615C25.5335 145.694 25.6379 145.734 25.7587 145.734ZM27.5555 146.153C27.4695 146.153 27.3959 146.123 27.3345 146.063C27.2731 146.002 27.2429 145.928 27.2439 145.842C27.2429 145.757 27.2731 145.684 27.3345 145.623C27.3959 145.563 27.4695 145.533 27.5555 145.533C27.6386 145.533 27.7108 145.563 27.7722 145.623C27.8345 145.684 27.8661 145.757 27.8671 145.842C27.8661 145.899 27.851 145.952 27.8218 145.999C27.7934 146.046 27.7557 146.084 27.7084 146.112C27.6622 146.14 27.6112 146.153 27.5555 146.153ZM29.3501 146.177C29.1168 146.177 28.9167 146.118 28.7495 146C28.5833 145.881 28.4554 145.71 28.3657 145.486C28.2769 145.261 28.2325 144.991 28.2325 144.674C28.2335 144.358 28.2783 144.089 28.3671 143.867C28.4568 143.644 28.5847 143.474 28.7509 143.357C28.9181 143.24 29.1178 143.182 29.3501 143.182C29.5824 143.182 29.7821 143.24 29.9492 143.357C30.1164 143.474 30.2443 143.644 30.3331 143.867C30.4228 144.09 30.4676 144.359 30.4676 144.674C30.4676 144.992 30.4228 145.263 30.3331 145.488C30.2443 145.711 30.1164 145.882 29.9492 146C29.783 146.118 29.5833 146.177 29.3501 146.177ZM29.3501 145.734C29.5314 145.734 29.6744 145.645 29.7793 145.466C29.885 145.287 29.9379 145.023 29.9379 144.674C29.9379 144.444 29.9138 144.251 29.8657 144.094C29.8175 143.937 29.7495 143.819 29.6617 143.74C29.5739 143.659 29.47 143.619 29.3501 143.619C29.1697 143.619 29.0271 143.709 28.9223 143.888C28.8175 144.067 28.7646 144.329 28.7637 144.674C28.7627 144.906 28.7859 145.1 28.8331 145.258C28.8812 145.416 28.9492 145.535 29.037 145.615C29.1249 145.694 29.2292 145.734 29.3501 145.734ZM31.9333 146.122V143.946H32.4234V144.316H32.4489C32.4942 144.191 32.5693 144.094 32.6741 144.024C32.7789 143.954 32.904 143.918 33.0494 143.918C33.1967 143.918 33.3209 143.954 33.4219 144.026C33.5239 144.097 33.5957 144.193 33.6372 144.316H33.6599C33.7081 144.195 33.7893 144.099 33.9035 144.027C34.0187 143.954 34.1552 143.918 34.3129 143.918C34.5131 143.918 34.6764 143.981 34.803 144.108C34.9295 144.234 34.9928 144.419 34.9928 144.662V146.122H34.4786V144.741C34.4786 144.606 34.4427 144.507 34.3709 144.445C34.2992 144.382 34.2114 144.35 34.1075 144.35C33.9838 144.35 33.887 144.389 33.8171 144.466C33.7482 144.543 33.7137 144.642 33.7137 144.765V146.122H33.2109V144.72C33.2109 144.607 33.1769 144.518 33.1089 144.451C33.0419 144.384 32.954 144.35 32.8455 144.35C32.7718 144.35 32.7048 144.369 32.6443 144.407C32.5839 144.444 32.5357 144.496 32.4998 144.564C32.464 144.631 32.446 144.709 32.446 144.799V146.122H31.9333ZM35.5129 146.122V143.946H36.0257V146.122H35.5129ZM35.7707 143.638C35.6895 143.638 35.6196 143.611 35.5611 143.557C35.5025 143.502 35.4733 143.437 35.4733 143.36C35.4733 143.283 35.5025 143.217 35.5611 143.163C35.6196 143.108 35.6895 143.081 35.7707 143.081C35.8529 143.081 35.9228 143.108 35.9804 143.163C36.0389 143.217 36.0682 143.283 36.0682 143.36C36.0682 143.437 36.0389 143.502 35.9804 143.557C35.9228 143.611 35.8529 143.638 35.7707 143.638ZM37.0657 144.847V146.122H36.5529V143.946H37.043V144.316H37.0685C37.1186 144.194 37.1984 144.098 37.3079 144.026C37.4184 143.954 37.5548 143.918 37.7172 143.918C37.8674 143.918 37.9982 143.95 38.1096 144.014C38.222 144.079 38.3088 144.172 38.3702 144.293C38.4325 144.415 38.4632 144.563 38.4623 144.737V146.122H37.9495V144.816C37.9495 144.671 37.9118 144.557 37.8362 144.475C37.7616 144.393 37.6582 144.352 37.526 144.352C37.4363 144.352 37.3565 144.371 37.2867 144.411C37.2177 144.45 37.1634 144.506 37.1238 144.58C37.085 144.653 37.0657 144.742 37.0657 144.847Z" fill="black"/>
<path d="M219.876 140.894V143.795H219.409L218.042 141.819H218.018V143.795H217.492V140.894H217.962L219.328 142.872H219.353V140.894H219.876ZM223.041 142.345C223.041 142.657 222.982 142.925 222.865 143.148C222.749 143.37 222.59 143.54 222.389 143.658C222.189 143.776 221.962 143.835 221.708 143.835C221.454 143.835 221.226 143.776 221.025 143.658C220.825 143.539 220.666 143.368 220.549 143.146C220.433 142.924 220.375 142.656 220.375 142.345C220.375 142.032 220.433 141.765 220.549 141.543C220.666 141.32 220.825 141.15 221.025 141.032C221.226 140.914 221.454 140.855 221.708 140.855C221.962 140.855 222.189 140.914 222.389 141.032C222.59 141.15 222.749 141.32 222.865 141.543C222.982 141.765 223.041 142.032 223.041 142.345ZM222.512 142.345C222.512 142.125 222.478 141.939 222.409 141.788C222.341 141.636 222.247 141.521 222.126 141.444C222.005 141.366 221.865 141.326 221.708 141.326C221.55 141.326 221.411 141.366 221.29 141.444C221.169 141.521 221.074 141.636 221.005 141.788C220.937 141.939 220.903 142.125 220.903 142.345C220.903 142.565 220.937 142.751 221.005 142.903C221.074 143.054 221.169 143.169 221.29 143.247C221.411 143.324 221.55 143.363 221.708 143.363C221.865 143.363 222.005 143.324 222.126 143.247C222.247 143.169 222.341 143.054 222.409 142.903C222.478 142.751 222.512 142.565 222.512 142.345ZM224.074 143.795L223.255 140.894H223.82L224.343 143.026H224.37L224.928 140.894H225.442L226.002 143.027H226.027L226.55 140.894H227.115L226.296 143.795H225.778L225.197 141.76H225.175L224.592 143.795H224.074Z" fill="black"/>
<rect x="61.4509" y="162.051" width="128.375" height="22.6194" rx="3.98865" fill="#04177F"/>
<path d="M116.186 172.899H115.508C115.488 172.787 115.453 172.689 115.401 172.603C115.349 172.516 115.284 172.442 115.206 172.381C115.129 172.321 115.041 172.276 114.941 172.245C114.843 172.214 114.738 172.198 114.624 172.198C114.422 172.198 114.243 172.249 114.087 172.351C113.931 172.451 113.809 172.599 113.72 172.793C113.632 172.987 113.588 173.223 113.588 173.503C113.588 173.787 113.632 174.027 113.72 174.221C113.81 174.415 113.932 174.561 114.087 174.661C114.243 174.759 114.421 174.808 114.622 174.808C114.733 174.808 114.837 174.793 114.934 174.764C115.032 174.734 115.12 174.69 115.197 174.632C115.276 174.574 115.342 174.502 115.395 174.417C115.45 174.333 115.487 174.236 115.508 174.127L116.186 174.131C116.161 174.307 116.106 174.473 116.021 174.628C115.938 174.783 115.828 174.92 115.693 175.038C115.557 175.155 115.399 175.247 115.217 175.314C115.036 175.379 114.834 175.412 114.613 175.412C114.286 175.412 113.995 175.336 113.738 175.185C113.482 175.034 113.28 174.815 113.132 174.53C112.985 174.244 112.911 173.902 112.911 173.503C112.911 173.102 112.985 172.76 113.134 172.476C113.283 172.19 113.486 171.972 113.742 171.821C113.998 171.669 114.289 171.594 114.613 171.594C114.82 171.594 115.012 171.623 115.19 171.681C115.368 171.739 115.526 171.824 115.666 171.937C115.805 172.048 115.919 172.185 116.009 172.347C116.099 172.508 116.159 172.692 116.186 172.899ZM120.124 173.503C120.124 173.903 120.049 174.246 119.899 174.532C119.75 174.816 119.547 175.034 119.289 175.185C119.033 175.336 118.742 175.412 118.416 175.412C118.091 175.412 117.799 175.336 117.541 175.185C117.285 175.033 117.082 174.814 116.932 174.53C116.783 174.244 116.709 173.902 116.709 173.503C116.709 173.102 116.783 172.76 116.932 172.476C117.082 172.19 117.285 171.972 117.541 171.821C117.799 171.669 118.091 171.594 118.416 171.594C118.742 171.594 119.033 171.669 119.289 171.821C119.547 171.972 119.75 172.19 119.899 172.476C120.049 172.76 120.124 173.102 120.124 173.503ZM119.447 173.503C119.447 173.221 119.403 172.983 119.314 172.79C119.227 172.595 119.106 172.448 118.951 172.349C118.797 172.248 118.618 172.198 118.416 172.198C118.214 172.198 118.036 172.248 117.881 172.349C117.726 172.448 117.604 172.595 117.516 172.79C117.429 172.983 117.385 173.221 117.385 173.503C117.385 173.785 117.429 174.023 117.516 174.218C117.604 174.411 117.726 174.558 117.881 174.659C118.036 174.758 118.214 174.808 118.416 174.808C118.618 174.808 118.797 174.758 118.951 174.659C119.106 174.558 119.227 174.411 119.314 174.218C119.403 174.023 119.447 173.785 119.447 173.503ZM123.814 171.645V175.361H123.215L121.464 172.83H121.433V175.361H120.76V171.645H121.363L123.112 174.178H123.145V171.645H123.814ZM125.045 171.645L126.012 174.57H126.05L127.016 171.645H127.756L126.446 175.361H125.615L124.307 171.645H125.045ZM128.246 175.361V171.645H130.663V172.209H128.919V173.218H130.538V173.782H128.919V174.797H130.677V175.361H128.246ZM131.35 175.361V171.645H132.743C133.029 171.645 133.268 171.694 133.462 171.793C133.657 171.893 133.804 172.032 133.903 172.211C134.003 172.389 134.054 172.596 134.054 172.833C134.054 173.072 134.003 173.278 133.901 173.454C133.801 173.628 133.653 173.763 133.457 173.859C133.261 173.953 133.02 174 132.734 174H131.742V173.441H132.644C132.811 173.441 132.947 173.418 133.054 173.372C133.16 173.325 133.239 173.257 133.29 173.167C133.342 173.076 133.368 172.965 133.368 172.833C133.368 172.701 133.342 172.589 133.29 172.496C133.238 172.401 133.158 172.33 133.052 172.282C132.945 172.232 132.808 172.207 132.64 172.207H132.023V175.361H131.35ZM133.27 173.677L134.19 175.361H133.438L132.535 173.677H133.27ZM134.51 172.209V171.645H137.475V172.209H136.326V175.361H135.659V172.209H134.51Z" fill="#F2FAFF"/>
</g>
<defs>
<filter id="filter0_d_14890_5561" x="0.467571" y="0.842773" width="249.99" height="192.811" filterUnits="userSpaceOnUse" color-interpolation-filters="sRGB">
<feFlood flood-opacity="0" result="BackgroundImageFix"/>
<feColorMatrix in="SourceAlpha" type="matrix" values="0 0 0 0 0 0 0 0 0 0 0 0 0 0 0 0 0 0 127 0" result="hardAlpha"/>
<feOffset dy="1.84127"/>
<feGaussianBlur stdDeviation="0.920633"/>
<feComposite in2="hardAlpha" operator="out"/>
<feColorMatrix type="matrix" values="0 0 0 0 0 0 0 0 0 0 0 0 0 0 0 0 0 0 0.25 0"/>
<feBlend mode="normal" in2="BackgroundImageFix" result="effect1_dropShadow_14890_5561"/>
<feBlend mode="normal" in="SourceGraphic" in2="effect1_dropShadow_14890_5561" result="shape"/>
</filter>
<clipPath id="clip0_14890_5561">
<rect width="16.655" height="16.655" fill="white" transform="translate(23.2729 32.0889)"/>
</clipPath>
<clipPath id="clip1_14890_5561">
<rect width="16.655" height="16.655" fill="white" transform="translate(24.4268 67.9863)"/>
</clipPath>
</defs>
</svg>
