<svg width="45" height="36" viewBox="0 0 45 36" fill="none" xmlns="http://www.w3.org/2000/svg">
<g filter="url(#filter0_d_14890_7545)">
<rect width="38.6098" height="30.6607" transform="translate(3.18457 2.40039)" fill="#92ABFE"/>
<path d="M16.7872 11.0002C16.1784 10.6959 15.5045 11.2768 15.7154 11.9238L17.0829 16.116C17.1216 16.2344 17.192 16.34 17.2865 16.4212C17.381 16.5024 17.4959 16.5562 17.6188 16.5766L23.0222 17.4771C23.3067 17.5248 23.3067 17.9336 23.0222 17.9813L17.6192 18.8818C17.4963 18.9022 17.3813 18.9559 17.2868 19.0372C17.1923 19.1184 17.1219 19.2239 17.0832 19.3424L15.7154 23.537C15.5041 24.1843 16.1784 24.7652 16.7872 24.4609L28.8797 18.4164C29.4449 18.1336 29.4449 17.3272 28.8797 17.0447L16.7872 11.0002Z" fill="white"/>
</g>
<defs>
<filter id="filter0_d_14890_7545" x="0.913408" y="0.697019" width="43.1517" height="35.2035" filterUnits="userSpaceOnUse" color-interpolation-filters="sRGB">
<feFlood flood-opacity="0" result="BackgroundImageFix"/>
<feColorMatrix in="SourceAlpha" type="matrix" values="0 0 0 0 0 0 0 0 0 0 0 0 0 0 0 0 0 0 127 0" result="hardAlpha"/>
<feOffset dy="0.567791"/>
<feGaussianBlur stdDeviation="1.13558"/>
<feComposite in2="hardAlpha" operator="out"/>
<feColorMatrix type="matrix" values="0 0 0 0 1 0 0 0 0 1 0 0 0 0 1 0 0 0 0.25 0"/>
<feBlend mode="normal" in2="BackgroundImageFix" result="effect1_dropShadow_14890_7545"/>
<feBlend mode="normal" in="SourceGraphic" in2="effect1_dropShadow_14890_7545" result="shape"/>
</filter>
</defs>
</svg>
