<svg width="20" height="20" viewBox="0 0 20 20" fill="none" xmlns="http://www.w3.org/2000/svg">
<g id="solar:card-2-bold-duotone">
<g id="Group">
<path id="Vector" opacity="0.5" d="M8.33342 16.6666H11.6668C14.8093 16.6666 16.3809 16.6666 17.3568 15.69C18.3334 14.7141 18.3334 13.1425 18.3334 9.99998C18.3334 9.63165 18.3318 8.65998 18.3301 8.33331H1.66676C1.66509 8.65998 1.66676 9.63165 1.66676 9.99998C1.66676 13.1425 1.66676 14.7141 2.64259 15.69C3.61926 16.6666 5.19176 16.6666 8.33342 16.6666Z" fill="#92ABFE"/>
<path id="Vector_2" d="M4.375 11.25C4.375 11.0842 4.44085 10.9253 4.55806 10.8081C4.67527 10.6908 4.83424 10.625 5 10.625H6.66667C6.83243 10.625 6.9914 10.6908 7.10861 10.8081C7.22582 10.9253 7.29167 11.0842 7.29167 11.25C7.29167 11.4158 7.22582 11.5747 7.10861 11.6919C6.9914 11.8092 6.83243 11.875 6.66667 11.875H5C4.83424 11.875 4.67527 11.8092 4.55806 11.6919C4.44085 11.5747 4.375 11.4158 4.375 11.25ZM4.375 13.75C4.375 13.5842 4.44085 13.4253 4.55806 13.3081C4.67527 13.1908 4.83424 13.125 5 13.125H8.33333C8.49909 13.125 8.65806 13.1908 8.77527 13.3081C8.89248 13.4253 8.95833 13.5842 8.95833 13.75C8.95833 13.9158 8.89248 14.0747 8.77527 14.1919C8.65806 14.3092 8.49909 14.375 8.33333 14.375H5C4.83424 14.375 4.67527 14.3092 4.55806 14.1919C4.44085 14.0747 4.375 13.9158 4.375 13.75Z" fill="#92ABFE"/>
<path id="Vector_3" fill-rule="evenodd" clip-rule="evenodd" d="M14.3302 10.2441C14.061 10.2083 13.7302 10.2083 13.3702 10.2083H13.2952C12.9343 10.2083 12.6035 10.2083 12.3352 10.2441C12.0385 10.2841 11.726 10.3775 11.4685 10.6358C11.2102 10.8933 11.1168 11.2058 11.0768 11.5025C11.041 11.7716 11.041 12.1025 11.041 12.4625V12.5375C11.041 12.8983 11.041 13.2291 11.0768 13.4975C11.1168 13.7941 11.2102 14.1066 11.4685 14.3641C11.726 14.6225 12.0385 14.7158 12.3352 14.7558C12.6043 14.7916 12.9352 14.7916 13.2952 14.7916H13.3702C13.731 14.7916 14.0618 14.7916 14.3302 14.7558C14.6268 14.7158 14.9393 14.6225 15.1968 14.3641C15.4552 14.1066 15.5485 13.7941 15.5885 13.4975C15.6243 13.2283 15.6243 12.8975 15.6243 12.5375V12.4625C15.6243 12.1016 15.6243 11.7708 15.5885 11.5025C15.5485 11.2058 15.4552 10.8933 15.1968 10.6358C14.9393 10.3775 14.6268 10.2841 14.3302 10.2441ZM12.3543 11.5183L12.3518 11.5191L12.351 11.5216C12.333 11.5691 12.3212 11.6187 12.316 11.6691C12.2927 11.8441 12.291 12.0891 12.291 12.5C12.291 12.9108 12.2927 13.1558 12.316 13.3308C12.3212 13.3813 12.333 13.4309 12.351 13.4783L12.3518 13.4808L12.3543 13.4816C12.4018 13.4997 12.4514 13.5114 12.5018 13.5166C12.6768 13.54 12.9218 13.5416 13.3327 13.5416C13.7435 13.5416 13.9885 13.54 14.1635 13.5166C14.214 13.5114 14.2636 13.4997 14.311 13.4816L14.3135 13.4808L14.3143 13.4783C14.3324 13.4309 14.3441 13.3813 14.3493 13.3308C14.3727 13.1558 14.3743 12.9108 14.3743 12.5C14.3743 12.0891 14.3727 11.8441 14.3493 11.6691C14.3441 11.6187 14.3324 11.5691 14.3143 11.5216L14.3135 11.5191L14.311 11.5183C14.2636 11.5003 14.214 11.4885 14.1635 11.4833C13.9885 11.46 13.7435 11.4583 13.3327 11.4583C12.9218 11.4583 12.6768 11.46 12.5018 11.4833C12.4514 11.4885 12.4018 11.5003 12.3543 11.5183Z" fill="#92ABFE"/>
<path id="Vector_4" d="M8.32852 3.33331H11.6702C14.821 3.33331 16.3968 3.33331 17.3752 4.26331C18.0802 4.93248 18.2777 5.89665 18.3327 7.49998V8.33331H1.66602V7.49998C1.72102 5.89581 1.91852 4.93331 2.62352 4.26331C3.60185 3.33331 5.17768 3.33331 8.32852 3.33331Z" fill="#92ABFE"/>
</g>
</g>
</svg>
