<svg width="20" height="20" viewBox="0 0 20 20" fill="none" xmlns="http://www.w3.org/2000/svg">
<g id="solar:money-bag-bold-duotone">
<g id="Group">
<path id="Vector" opacity="0.5" d="M2.64464 5.9767C3.34714 5.27336 4.35964 5.0767 6.04464 5.0217L7.29464 5.0017C7.62047 5.00003 7.96797 5.00003 8.33464 5.00003H11.668C12.0355 5.00003 12.3821 5.00003 12.708 5.0017L13.958 5.0217C15.643 5.0767 16.6555 5.27336 17.358 5.9767C18.3346 6.95253 18.3346 8.5242 18.3346 11.6667C18.3346 14.8092 18.3346 16.3809 17.358 17.3567C16.3821 18.3334 14.8105 18.3334 11.668 18.3334H8.33464C5.19214 18.3334 3.62047 18.3334 2.64464 17.3567C1.66797 16.3809 1.66797 14.8092 1.66797 11.6667C1.66797 8.5242 1.66797 6.95253 2.64464 5.9767Z" fill="#92ABFE"/>
<path id="Vector_2" d="M10.6266 8.33335C10.6266 8.16759 10.5607 8.00862 10.4435 7.89141C10.3263 7.7742 10.1673 7.70835 10.0016 7.70835C9.83583 7.70835 9.67686 7.7742 9.55965 7.89141C9.44244 8.00862 9.37659 8.16759 9.37659 8.33335V8.34169C8.46909 8.57002 7.70992 9.28585 7.70992 10.2775C7.70992 11.4917 8.84742 12.2917 10.0016 12.2917C10.6883 12.2917 11.0433 12.7359 11.0433 13.0559C11.0433 13.3759 10.6883 13.8192 10.0016 13.8192C9.31492 13.8192 8.95992 13.3759 8.95992 13.0559C8.95992 12.8901 8.89407 12.7311 8.77686 12.6139C8.65965 12.4967 8.50068 12.4309 8.33492 12.4309C8.16916 12.4309 8.01019 12.4967 7.89298 12.6139C7.77577 12.7311 7.70992 12.8901 7.70992 13.0559C7.70992 14.0475 8.46909 14.7625 9.37659 14.9917V15C9.37659 15.1658 9.44244 15.3248 9.55965 15.442C9.67686 15.5592 9.83583 15.625 10.0016 15.625C10.1673 15.625 10.3263 15.5592 10.4435 15.442C10.5607 15.3248 10.6266 15.1658 10.6266 15V14.9917C11.5341 14.7634 12.2933 14.0475 12.2933 13.0559C12.2933 11.8417 11.1558 11.0417 10.0016 11.0417C9.31492 11.0417 8.95992 10.5975 8.95992 10.2775C8.95992 9.95752 9.31492 9.51419 10.0016 9.51419C10.6883 9.51419 11.0433 9.95752 11.0433 10.2775C11.0433 10.4433 11.1091 10.6023 11.2263 10.7195C11.3435 10.8367 11.5025 10.9025 11.6683 10.9025C11.834 10.9025 11.993 10.8367 12.1102 10.7195C12.2274 10.6023 12.2933 10.4433 12.2933 10.2775C12.2933 9.28585 11.5341 8.57002 10.6266 8.34169V8.33335ZM10.0449 1.04169H9.95826C9.20992 1.04169 8.58492 1.04169 8.08992 1.10835C7.56659 1.17835 7.09409 1.33335 6.71492 1.71252C6.33492 2.09252 6.17992 2.56502 6.10992 3.08752C6.06242 3.44335 6.04909 4.29252 6.04492 5.02085L7.29492 5.00169C7.29909 4.29585 7.31159 3.53669 7.34909 3.25419C7.40076 2.87002 7.48992 2.70502 7.59909 2.59669C7.70742 2.48835 7.87159 2.39919 8.25659 2.34669C8.65909 2.29335 9.19826 2.29169 10.0016 2.29169C10.8049 2.29169 11.3449 2.29335 11.7474 2.34752C12.1316 2.39919 12.2966 2.48835 12.4049 2.59752C12.5133 2.70585 12.6033 2.87002 12.6549 3.25419C12.6924 3.53752 12.7049 4.29585 12.7083 5.00169L13.9583 5.02169C13.9549 4.29252 13.9416 3.44335 13.8933 3.08835C13.8233 2.56502 13.6683 2.09252 13.2891 1.71335C12.9091 1.33335 12.4366 1.17835 11.9141 1.10835C11.4183 1.04169 10.7941 1.04169 10.0449 1.04169Z" fill="#92ABFE"/>
</g>
</g>
</svg>
