<svg width="20" height="16" viewBox="0 0 20 16" fill="none" xmlns="http://www.w3.org/2000/svg">
<g id="fa6-solid:money-bill-transfer" clip-path="url(#clip0_1943_29089)">
<path id="Vector" d="M16.7188 1.28126C16.425 0.987514 16.425 0.512514 16.7188 0.221889C17.0125 -0.0687362 17.4875 -0.0718612 17.7781 0.221889L19.7781 2.22189C19.9188 2.36251 19.9969 2.55314 19.9969 2.75314C19.9969 2.95314 19.9188 3.14376 19.7781 3.28439L17.7781 5.28439C17.4844 5.57814 17.0094 5.57814 16.7188 5.28439C16.4281 4.99064 16.425 4.51564 16.7188 4.22501L17.4375 3.50626L12 3.50001C11.5844 3.50001 11.25 3.16564 11.25 2.75001C11.25 2.33439 11.5844 2.00001 12 2.00001H17.4406L16.7188 1.28126ZM3.28125 11.7813L2.5625 12.5H8C8.41562 12.5 8.75 12.8344 8.75 13.25C8.75 13.6656 8.41562 14 8 14H2.55938L3.27813 14.7188C3.57188 15.0125 3.57188 15.4875 3.27813 15.7781C2.98438 16.0688 2.50938 16.0719 2.21875 15.7781L0.21875 13.7813C0.078125 13.6406 0 13.45 0 13.25C0 13.05 0.078125 12.8594 0.21875 12.7188L2.21875 10.7188C2.5125 10.425 2.9875 10.425 3.27813 10.7188C3.56875 11.0125 3.57188 11.4875 3.27813 11.7781L3.28125 11.7813ZM3 2.00001H10.5594C10.4437 2.22501 10.375 2.47814 10.375 2.75001C10.375 3.64689 11.1031 4.37501 12 4.37501H15.6687C15.5437 4.90626 15.6875 5.48439 16.1 5.90001C16.7344 6.53439 17.7625 6.53439 18.3969 5.90001L19 5.29689V12C19 13.1031 18.1031 14 17 14H9.44063C9.55625 13.775 9.625 13.5219 9.625 13.25C9.625 12.3531 8.89688 11.625 8 11.625H4.33125C4.45625 11.0938 4.3125 10.5156 3.9 10.1C3.26562 9.46564 2.2375 9.46564 1.60312 10.1L1 10.7031V4.00001C1 2.89689 1.89688 2.00001 3 2.00001ZM5 4.00001H3V6.00001C4.10313 6.00001 5 5.10314 5 4.00001ZM17 10C15.8969 10 15 10.8969 15 12H17V10ZM10 11C10.7956 11 11.5587 10.6839 12.1213 10.1213C12.6839 9.55873 13 8.79566 13 8.00001C13 7.20436 12.6839 6.4413 12.1213 5.87869C11.5587 5.31608 10.7956 5.00001 10 5.00001C9.20435 5.00001 8.44129 5.31608 7.87868 5.87869C7.31607 6.4413 7 7.20436 7 8.00001C7 8.79566 7.31607 9.55873 7.87868 10.1213C8.44129 10.6839 9.20435 11 10 11Z" fill="#92ABFE"/>
</g>
<defs>
<clipPath id="clip0_1943_29089">
<rect width="20" height="16" fill="white"/>
</clipPath>
</defs>
</svg>
