<svg width="20" height="20" viewBox="0 0 20 20" fill="none" xmlns="http://www.w3.org/2000/svg">
<g id="vuesax/bulk/people">
<g id="people">
<path id="Vector" opacity="0.4" d="M14.6275 5.97385C14.5568 5.96708 14.4859 5.96708 14.4152 5.97385C13.4106 5.92327 12.6172 5.09437 12.6172 4.07502C12.6172 3.02504 13.4695 2.16669 14.5255 2.16669C15.575 2.16669 16.433 3.01811 16.4339 4.07345C16.4265 5.09507 15.6311 5.92331 14.6275 5.97385Z" fill="#92ABFE" stroke="#92ABFE"/>
<path id="Vector_2" opacity="0.4" d="M17.3257 12.25C16.3923 12.875 15.084 13.1084 13.8757 12.95C14.1923 12.2667 14.359 11.5084 14.3673 10.7084C14.3673 9.87503 14.184 9.08337 13.834 8.3917C15.0673 8.22503 16.3757 8.45835 17.3173 9.08335C18.634 9.95002 18.634 11.375 17.3257 12.25Z" fill="#92ABFE"/>
<path id="Vector_3" opacity="0.4" d="M5.36601 6.47502C5.42435 6.46669 5.48268 6.46669 5.54102 6.47502C6.83268 6.43336 7.85768 5.37502 7.85768 4.07502C7.85768 2.75002 6.78268 1.66669 5.44935 1.66669C4.12435 1.66669 3.04102 2.74169 3.04102 4.07502C3.04935 5.37502 4.07435 6.43336 5.36601 6.47502Z" fill="#92ABFE"/>
<path id="Vector_4" opacity="0.4" d="M5.45794 10.7083C5.45794 11.5167 5.63294 12.2833 5.94961 12.975C4.77461 13.1 3.54961 12.85 2.64961 12.2583C1.33294 11.3833 1.33294 9.95833 2.64961 9.08333C3.54128 8.48333 4.79961 8.24167 5.98294 8.37501C5.64128 9.07501 5.45794 9.86668 5.45794 10.7083Z" fill="#92ABFE"/>
<path id="Vector_5" d="M10.1 13.225C10.0333 13.2167 9.95833 13.2167 9.88333 13.225C8.35 13.175 7.125 11.9167 7.125 10.3667C7.125 8.78334 8.4 7.5 9.99167 7.5C11.575 7.5 12.8583 8.78334 12.8583 10.3667C12.8583 11.9167 11.6417 13.175 10.1 13.225Z" fill="#92ABFE"/>
<path id="Vector_6" d="M7.39102 14.95C6.13268 15.7917 6.13268 17.175 7.39102 18.0083C8.82435 18.9667 11.1744 18.9667 12.6077 18.0083C13.866 17.1667 13.866 15.7833 12.6077 14.95C11.1827 13.9917 8.83268 13.9917 7.39102 14.95Z" fill="#92ABFE"/>
</g>
</g>
</svg>
